G04 Layer_Physical_Order=2*
G04 Layer_Color=16711680*
%FSLAX24Y24*%
%MOIN*%
G70*
G01*
G75*
%ADD11C,0.0100*%
%ADD12C,0.0800*%
%ADD13R,0.0591X0.0591*%
%ADD14C,0.0591*%
%ADD15C,0.0200*%
G36*
X34917Y29133D02*
X26333D01*
Y34917D01*
X34917D01*
Y29133D01*
D02*
G37*
%LPC*%
G36*
X34748Y32650D02*
X34300D01*
Y32202D01*
X34381Y32213D01*
X34502Y32263D01*
X34607Y32343D01*
X34687Y32448D01*
X34737Y32569D01*
X34748Y32650D01*
D02*
G37*
G36*
X29800Y32600D02*
X29458D01*
X29465Y32547D01*
X29505Y32451D01*
X29568Y32368D01*
X29651Y32305D01*
X29747Y32265D01*
X29800Y32258D01*
Y32600D01*
D02*
G37*
G36*
X30073D02*
X29900D01*
Y32258D01*
X29953Y32265D01*
X30049Y32305D01*
X30132Y32368D01*
X30195Y32451D01*
X30235Y32547D01*
X30241Y32590D01*
X30238Y32589D01*
X30213Y32581D01*
X30190Y32571D01*
X30168Y32558D01*
X30147Y32542D01*
X30128Y32524D01*
X30110Y32504D01*
X30093Y32482D01*
X30073Y32600D01*
D02*
G37*
G36*
X34250Y32134D02*
X34125Y32118D01*
X34008Y32069D01*
X33908Y31992D01*
X33897Y31978D01*
X33874Y31956D01*
X33842Y31928D01*
X33812Y31904D01*
X33782Y31884D01*
X33753Y31867D01*
X33725Y31854D01*
X33698Y31844D01*
X33672Y31837D01*
X33650Y31834D01*
X30275D01*
X30264Y31835D01*
X30244Y31839D01*
X30225Y31844D01*
X30207Y31851D01*
X30189Y31860D01*
X30171Y31871D01*
X30154Y31883D01*
X30136Y31897D01*
X30124Y31909D01*
X30118Y31918D01*
X30039Y31978D01*
X29948Y32016D01*
X29850Y32029D01*
X29752Y32016D01*
X29661Y31978D01*
X29582Y31918D01*
X29522Y31839D01*
X29484Y31748D01*
X29471Y31650D01*
X29484Y31552D01*
X29522Y31461D01*
X29582Y31382D01*
X29661Y31322D01*
X29752Y31284D01*
X29850Y31271D01*
X29948Y31284D01*
X30039Y31322D01*
X30118Y31382D01*
X30124Y31391D01*
X30136Y31403D01*
X30154Y31417D01*
X30171Y31429D01*
X30189Y31440D01*
X30207Y31449D01*
X30225Y31456D01*
X30244Y31461D01*
X30264Y31465D01*
X30275Y31466D01*
X33650D01*
X33672Y31463D01*
X33698Y31456D01*
X33725Y31446D01*
X33753Y31433D01*
X33782Y31416D01*
X33811Y31396D01*
X33875Y31343D01*
X33897Y31322D01*
X33908Y31308D01*
X34008Y31231D01*
X34125Y31182D01*
X34250Y31166D01*
X34375Y31182D01*
X34492Y31231D01*
X34592Y31308D01*
X34669Y31408D01*
X34718Y31525D01*
X34734Y31650D01*
X34718Y31775D01*
X34669Y31892D01*
X34592Y31992D01*
X34492Y32069D01*
X34375Y32118D01*
X34250Y32134D01*
D02*
G37*
G36*
X26850Y31029D02*
X26752Y31016D01*
X26661Y30978D01*
X26582Y30918D01*
X26522Y30839D01*
X26484Y30748D01*
X26471Y30650D01*
X26484Y30552D01*
X26522Y30461D01*
X26582Y30382D01*
X26661Y30322D01*
X26752Y30284D01*
X26850Y30271D01*
X26948Y30284D01*
X27039Y30322D01*
X27118Y30382D01*
X27178Y30461D01*
X27216Y30552D01*
X27229Y30650D01*
X27216Y30748D01*
X27178Y30839D01*
X27118Y30918D01*
X27039Y30978D01*
X26948Y31016D01*
X26850Y31029D01*
D02*
G37*
G36*
X34250Y31084D02*
X34125Y31068D01*
X34008Y31019D01*
X33908Y30942D01*
X33897Y30928D01*
X33874Y30906D01*
X33842Y30878D01*
X33812Y30854D01*
X33782Y30834D01*
X33753Y30817D01*
X33725Y30804D01*
X33698Y30794D01*
X33672Y30787D01*
X33650Y30784D01*
X30289D01*
X30278Y30785D01*
X30260Y30789D01*
X30243Y30795D01*
X30228Y30802D01*
X30213Y30811D01*
X30199Y30821D01*
X30186Y30833D01*
X30173Y30848D01*
X30158Y30867D01*
X30153Y30871D01*
X30118Y30918D01*
X30039Y30978D01*
X29948Y31016D01*
X29850Y31029D01*
X29752Y31016D01*
X29661Y30978D01*
X29582Y30918D01*
X29522Y30839D01*
X29484Y30748D01*
X29471Y30650D01*
X29484Y30552D01*
X29522Y30461D01*
X29582Y30382D01*
X29661Y30322D01*
X29752Y30284D01*
X29850Y30271D01*
X29948Y30284D01*
X30039Y30322D01*
X30064Y30341D01*
X30069Y30343D01*
X30092Y30359D01*
X30113Y30372D01*
X30134Y30383D01*
X30155Y30393D01*
X30176Y30401D01*
X30197Y30407D01*
X30218Y30412D01*
X30239Y30416D01*
X30248Y30416D01*
X33650D01*
X33672Y30413D01*
X33698Y30406D01*
X33725Y30396D01*
X33753Y30383D01*
X33782Y30366D01*
X33811Y30346D01*
X33875Y30293D01*
X33897Y30272D01*
X33908Y30258D01*
X34008Y30181D01*
X34125Y30132D01*
X34250Y30116D01*
X34375Y30132D01*
X34492Y30181D01*
X34592Y30258D01*
X34669Y30358D01*
X34718Y30475D01*
X34734Y30600D01*
X34718Y30725D01*
X34669Y30842D01*
X34592Y30942D01*
X34492Y31019D01*
X34375Y31068D01*
X34250Y31084D01*
D02*
G37*
G36*
X26850Y32029D02*
X26752Y32016D01*
X26661Y31978D01*
X26582Y31918D01*
X26522Y31839D01*
X26484Y31748D01*
X26471Y31650D01*
X26484Y31552D01*
X26522Y31461D01*
X26582Y31382D01*
X26661Y31322D01*
X26752Y31284D01*
X26850Y31271D01*
X26948Y31284D01*
X27039Y31322D01*
X27118Y31382D01*
X27178Y31461D01*
X27216Y31552D01*
X27229Y31650D01*
X27216Y31748D01*
X27178Y31839D01*
X27118Y31918D01*
X27039Y31978D01*
X26948Y32016D01*
X26850Y32029D01*
D02*
G37*
G36*
X29900Y33042D02*
Y32700D01*
X30055D01*
X30023Y32889D01*
X30048Y32872D01*
X30073Y32857D01*
X30098Y32844D01*
X30124Y32832D01*
X30149Y32822D01*
X30175Y32814D01*
X30202Y32808D01*
X30213Y32806D01*
X30195Y32849D01*
X30132Y32932D01*
X30049Y32995D01*
X29953Y33035D01*
X29900Y33042D01*
D02*
G37*
G36*
X34250Y34184D02*
X34125Y34168D01*
X34008Y34119D01*
X33908Y34042D01*
X33897Y34028D01*
X33874Y34006D01*
X33842Y33978D01*
X33812Y33954D01*
X33782Y33934D01*
X33753Y33917D01*
X33725Y33904D01*
X33698Y33894D01*
X33672Y33887D01*
X33650Y33884D01*
X30248D01*
X30239Y33884D01*
X30218Y33888D01*
X30197Y33893D01*
X30176Y33899D01*
X30155Y33907D01*
X30134Y33917D01*
X30113Y33928D01*
X30092Y33941D01*
X30069Y33957D01*
X30064Y33959D01*
X30039Y33978D01*
X29948Y34016D01*
X29850Y34029D01*
X29752Y34016D01*
X29661Y33978D01*
X29582Y33918D01*
X29522Y33839D01*
X29484Y33748D01*
X29471Y33650D01*
X29484Y33552D01*
X29522Y33461D01*
X29582Y33382D01*
X29661Y33322D01*
X29752Y33284D01*
X29850Y33271D01*
X29948Y33284D01*
X30039Y33322D01*
X30118Y33382D01*
X30153Y33429D01*
X30158Y33433D01*
X30173Y33452D01*
X30186Y33467D01*
X30199Y33479D01*
X30213Y33489D01*
X30228Y33498D01*
X30243Y33505D01*
X30260Y33511D01*
X30278Y33515D01*
X30289Y33516D01*
X33650D01*
X33672Y33513D01*
X33698Y33506D01*
X33725Y33496D01*
X33753Y33483D01*
X33782Y33466D01*
X33811Y33446D01*
X33875Y33393D01*
X33897Y33372D01*
X33908Y33358D01*
X34008Y33281D01*
X34114Y33237D01*
X34118Y33201D01*
X34114Y33185D01*
X33998Y33137D01*
X33893Y33057D01*
X33813Y32952D01*
X33763Y32832D01*
X33791Y32845D01*
X33825Y32865D01*
X33859Y32888D01*
X33894Y32915D01*
X33929Y32946D01*
X33964Y32980D01*
Y32750D01*
X34748D01*
X34737Y32831D01*
X34687Y32952D01*
X34607Y33057D01*
X34502Y33137D01*
X34386Y33185D01*
X34382Y33201D01*
X34386Y33237D01*
X34492Y33281D01*
X34592Y33358D01*
X34669Y33458D01*
X34718Y33575D01*
X34734Y33700D01*
X34718Y33825D01*
X34669Y33942D01*
X34592Y34042D01*
X34492Y34119D01*
X34375Y34168D01*
X34250Y34184D01*
D02*
G37*
G36*
X27145Y34027D02*
X26555D01*
X26524Y34021D01*
X26497Y34003D01*
X26479Y33976D01*
X26473Y33945D01*
Y33355D01*
X26479Y33324D01*
X26497Y33297D01*
X26524Y33279D01*
X26555Y33273D01*
X27145D01*
X27176Y33279D01*
X27203Y33297D01*
X27221Y33324D01*
X27227Y33355D01*
Y33945D01*
X27221Y33976D01*
X27203Y34003D01*
X27176Y34021D01*
X27145Y34027D01*
D02*
G37*
G36*
X26850Y33029D02*
X26752Y33016D01*
X26661Y32978D01*
X26582Y32918D01*
X26522Y32839D01*
X26484Y32748D01*
X26471Y32650D01*
X26484Y32552D01*
X26522Y32461D01*
X26582Y32382D01*
X26661Y32322D01*
X26752Y32284D01*
X26850Y32271D01*
X26948Y32284D01*
X27039Y32322D01*
X27118Y32382D01*
X27178Y32461D01*
X27216Y32552D01*
X27229Y32650D01*
X27216Y32748D01*
X27178Y32839D01*
X27118Y32918D01*
X27039Y32978D01*
X26948Y33016D01*
X26850Y33029D01*
D02*
G37*
G36*
X34200Y32650D02*
X33964D01*
Y32420D01*
X33929Y32454D01*
X33859Y32512D01*
X33825Y32535D01*
X33791Y32555D01*
X33763Y32568D01*
X33813Y32448D01*
X33893Y32343D01*
X33998Y32263D01*
X34119Y32213D01*
X34200Y32202D01*
Y32650D01*
D02*
G37*
G36*
X29800Y33042D02*
X29747Y33035D01*
X29651Y32995D01*
X29568Y32932D01*
X29505Y32849D01*
X29465Y32753D01*
X29458Y32700D01*
X29800D01*
Y33042D01*
D02*
G37*
%LPD*%
G36*
X30082Y31836D02*
X30104Y31818D01*
X30127Y31802D01*
X30150Y31788D01*
X30174Y31777D01*
X30199Y31767D01*
X30224Y31760D01*
X30251Y31754D01*
X30277Y31751D01*
X30305Y31750D01*
Y31550D01*
X30277Y31549D01*
X30251Y31546D01*
X30224Y31540D01*
X30199Y31533D01*
X30174Y31523D01*
X30150Y31512D01*
X30127Y31498D01*
X30104Y31482D01*
X30082Y31464D01*
X30061Y31443D01*
Y31857D01*
X30082Y31836D01*
D02*
G37*
G36*
X33964Y31370D02*
X33929Y31404D01*
X33859Y31462D01*
X33825Y31485D01*
X33791Y31505D01*
X33757Y31521D01*
X33723Y31534D01*
X33689Y31543D01*
X33656Y31548D01*
X33623Y31550D01*
Y31750D01*
X33656Y31752D01*
X33689Y31757D01*
X33723Y31766D01*
X33757Y31779D01*
X33791Y31795D01*
X33825Y31815D01*
X33859Y31838D01*
X33894Y31865D01*
X33929Y31896D01*
X33964Y31930D01*
Y31370D01*
D02*
G37*
G36*
Y30320D02*
X33929Y30354D01*
X33859Y30412D01*
X33825Y30435D01*
X33791Y30455D01*
X33757Y30471D01*
X33723Y30484D01*
X33689Y30493D01*
X33656Y30498D01*
X33623Y30500D01*
Y30700D01*
X33656Y30702D01*
X33689Y30707D01*
X33723Y30716D01*
X33757Y30729D01*
X33791Y30745D01*
X33825Y30765D01*
X33859Y30788D01*
X33894Y30815D01*
X33929Y30846D01*
X33964Y30880D01*
Y30320D01*
D02*
G37*
G36*
X30110Y30796D02*
X30128Y30776D01*
X30147Y30758D01*
X30168Y30742D01*
X30190Y30729D01*
X30213Y30719D01*
X30238Y30711D01*
X30263Y30705D01*
X30290Y30701D01*
X30318Y30700D01*
X30282Y30500D01*
X30255Y30499D01*
X30228Y30496D01*
X30202Y30492D01*
X30175Y30486D01*
X30149Y30478D01*
X30124Y30468D01*
X30098Y30456D01*
X30073Y30443D01*
X30048Y30428D01*
X30023Y30411D01*
X30093Y30818D01*
X30110Y30796D01*
D02*
G37*
G36*
X30048Y33872D02*
X30073Y33857D01*
X30098Y33844D01*
X30124Y33832D01*
X30149Y33822D01*
X30175Y33814D01*
X30202Y33808D01*
X30228Y33804D01*
X30255Y33801D01*
X30282Y33800D01*
X30318Y33600D01*
X30290Y33599D01*
X30263Y33595D01*
X30238Y33589D01*
X30213Y33581D01*
X30190Y33570D01*
X30168Y33558D01*
X30147Y33542D01*
X30128Y33524D01*
X30110Y33504D01*
X30093Y33482D01*
X30023Y33889D01*
X30048Y33872D01*
D02*
G37*
G36*
X33964Y33420D02*
X33929Y33454D01*
X33859Y33512D01*
X33825Y33535D01*
X33791Y33555D01*
X33757Y33571D01*
X33723Y33584D01*
X33689Y33593D01*
X33656Y33598D01*
X33623Y33600D01*
Y33800D01*
X33656Y33802D01*
X33689Y33807D01*
X33723Y33816D01*
X33757Y33829D01*
X33791Y33845D01*
X33825Y33865D01*
X33859Y33888D01*
X33894Y33915D01*
X33929Y33946D01*
X33964Y33980D01*
Y33420D01*
D02*
G37*
D11*
X29850Y32650D02*
X29900Y32700D01*
X29850Y33650D02*
X29900Y33700D01*
D12*
X34250Y30600D02*
D03*
Y31650D02*
D03*
Y32700D02*
D03*
Y33700D02*
D03*
D13*
X26850Y33650D02*
D03*
D14*
Y32650D02*
D03*
Y31650D02*
D03*
Y30650D02*
D03*
X29850Y33650D02*
D03*
Y32650D02*
D03*
Y31650D02*
D03*
Y30650D02*
D03*
D15*
X29900Y30600D02*
X34250D01*
X29850Y31650D02*
X34250D01*
X29900Y32700D02*
X34250D01*
X29900Y33700D02*
X34250D01*
M02*
