G04 Layer_Color=16711935*
%FSLAX24Y24*%
%MOIN*%
G70*
G01*
G75*
%ADD19C,0.0060*%
%ADD20C,0.0078*%
D19*
X32180Y33010D02*
G03*
X32420Y33010I120J0D01*
G01*
X31690Y32710D02*
Y32860D01*
X31300D02*
X31690D01*
X31300Y32710D02*
Y32860D01*
Y32710D02*
X31690D01*
Y32450D02*
Y32600D01*
X31300D02*
X31690D01*
X31300Y32450D02*
Y32600D01*
Y32450D02*
X31690D01*
Y32200D02*
Y32350D01*
X31300D02*
X31690D01*
X31300Y32200D02*
Y32350D01*
Y32200D02*
X31690D01*
Y31940D02*
Y32090D01*
X31300D02*
X31690D01*
X31300Y31940D02*
Y32090D01*
Y31940D02*
X31690D01*
X32910D02*
Y32090D01*
Y31940D02*
X33300D01*
Y32090D01*
X32910D02*
X33300D01*
X32910Y32200D02*
Y32350D01*
Y32200D02*
X33300D01*
Y32350D01*
X32910D02*
X33300D01*
X32910Y32450D02*
Y32600D01*
Y32450D02*
X33300D01*
Y32600D01*
X32910D02*
X33300D01*
X32910Y32710D02*
Y32860D01*
Y32710D02*
X33300D01*
Y32860D01*
X32910D02*
X33300D01*
X31690Y31790D02*
X32910D01*
Y33010D01*
X32420D02*
X32910D01*
X32180D02*
X32420D01*
X31690D02*
X32180D01*
X31690Y31790D02*
Y33010D01*
D20*
X31786Y33120D02*
Y32698D01*
X31610Y33014D02*
X31961Y32803D01*
Y33014D02*
X31610Y32803D01*
M02*
