G04 Layer_Physical_Order=1*
G04 Layer_Color=255*
%FSLAX24Y24*%
%MOIN*%
G70*
G01*
G75*
%ADD10R,0.0550X0.0170*%
%ADD11C,0.0100*%
%ADD12C,0.0800*%
%ADD13R,0.0591X0.0591*%
%ADD14C,0.0591*%
G36*
X34917Y29133D02*
X26333D01*
Y34917D01*
X34917D01*
Y29133D01*
D02*
G37*
%LPC*%
G36*
X34200Y32650D02*
X33956D01*
X34107Y32327D01*
X33832Y32423D01*
X33893Y32343D01*
X33998Y32263D01*
X34119Y32213D01*
X34200Y32202D01*
Y32650D01*
D02*
G37*
G36*
X30242Y32600D02*
X29900D01*
Y32258D01*
X29953Y32265D01*
X30049Y32305D01*
X30132Y32368D01*
X30195Y32451D01*
X30235Y32547D01*
X30242Y32600D01*
D02*
G37*
G36*
X33775Y32650D02*
X33752D01*
X33755Y32629D01*
X33768Y32641D01*
X33775Y32650D01*
D02*
G37*
G36*
X33547Y32478D02*
X33544D01*
X33525Y32478D01*
X33493Y32475D01*
X33480Y32473D01*
X33469Y32470D01*
X33460Y32466D01*
X33453Y32461D01*
X33448Y32456D01*
X33445Y32451D01*
X33444Y32444D01*
Y32478D01*
X32793D01*
Y32443D01*
X32801Y32404D01*
X32818Y32379D01*
X32813Y32357D01*
Y32187D01*
X32820Y32156D01*
X32827Y32144D01*
X32820Y32132D01*
X32813Y32101D01*
Y31931D01*
X32820Y31900D01*
X32837Y31873D01*
X32864Y31856D01*
X32895Y31850D01*
X33037D01*
Y31680D01*
X33048Y31629D01*
X33076Y31586D01*
X33711Y30951D01*
X33715Y30947D01*
X33724Y30932D01*
X33733Y30911D01*
X33742Y30884D01*
X33750Y30851D01*
X33757Y30814D01*
X33768Y30663D01*
X33768Y30619D01*
X33766Y30600D01*
X33782Y30475D01*
X33831Y30358D01*
X33908Y30258D01*
X34008Y30181D01*
X34125Y30132D01*
X34250Y30116D01*
X34375Y30132D01*
X34492Y30181D01*
X34592Y30258D01*
X34669Y30358D01*
X34718Y30475D01*
X34734Y30600D01*
X34718Y30725D01*
X34669Y30842D01*
X34592Y30942D01*
X34492Y31019D01*
X34375Y31068D01*
X34250Y31084D01*
X34231Y31082D01*
X34186Y31082D01*
X34081Y31088D01*
X34038Y31093D01*
X33999Y31100D01*
X33966Y31108D01*
X33939Y31117D01*
X33918Y31126D01*
X33903Y31135D01*
X33899Y31139D01*
X33303Y31735D01*
Y31850D01*
X33445D01*
X33476Y31856D01*
X33503Y31873D01*
X33520Y31900D01*
X33527Y31931D01*
Y32101D01*
X33570Y32139D01*
X33573D01*
X33711Y32001D01*
X33715Y31997D01*
X33724Y31982D01*
X33733Y31961D01*
X33742Y31934D01*
X33750Y31901D01*
X33757Y31864D01*
X33768Y31713D01*
X33768Y31669D01*
X33766Y31650D01*
X33782Y31525D01*
X33831Y31408D01*
X33908Y31308D01*
X34008Y31231D01*
X34125Y31182D01*
X34250Y31166D01*
X34375Y31182D01*
X34492Y31231D01*
X34592Y31308D01*
X34669Y31408D01*
X34718Y31525D01*
X34734Y31650D01*
X34718Y31775D01*
X34669Y31892D01*
X34592Y31992D01*
X34492Y32069D01*
X34375Y32118D01*
X34250Y32134D01*
X34231Y32132D01*
X34186Y32132D01*
X34081Y32138D01*
X34038Y32143D01*
X33999Y32150D01*
X33966Y32158D01*
X33939Y32167D01*
X33918Y32176D01*
X33903Y32185D01*
X33899Y32189D01*
X33722Y32366D01*
X33679Y32394D01*
X33628Y32405D01*
X33578D01*
X33547Y32443D01*
Y32478D01*
D02*
G37*
G36*
X29850Y32029D02*
X29752Y32016D01*
X29661Y31978D01*
X29582Y31918D01*
X29522Y31839D01*
X29484Y31748D01*
X29471Y31650D01*
X29484Y31552D01*
X29522Y31461D01*
X29582Y31382D01*
X29661Y31322D01*
X29752Y31284D01*
X29850Y31271D01*
X29948Y31284D01*
X30039Y31322D01*
X30118Y31382D01*
X30178Y31461D01*
X30216Y31552D01*
X30229Y31650D01*
X30216Y31748D01*
X30178Y31839D01*
X30118Y31918D01*
X30039Y31978D01*
X29948Y32016D01*
X29850Y32029D01*
D02*
G37*
G36*
Y31029D02*
X29752Y31016D01*
X29661Y30978D01*
X29582Y30918D01*
X29522Y30839D01*
X29484Y30748D01*
X29471Y30650D01*
X29484Y30552D01*
X29522Y30461D01*
X29582Y30382D01*
X29661Y30322D01*
X29752Y30284D01*
X29850Y30271D01*
X29948Y30284D01*
X30039Y30322D01*
X30118Y30382D01*
X30178Y30461D01*
X30216Y30552D01*
X30229Y30650D01*
X30216Y30748D01*
X30178Y30839D01*
X30118Y30918D01*
X30039Y30978D01*
X29948Y31016D01*
X29850Y31029D01*
D02*
G37*
G36*
X29800Y32600D02*
X29458D01*
X29465Y32547D01*
X29505Y32451D01*
X29568Y32368D01*
X29651Y32305D01*
X29747Y32265D01*
X29800Y32258D01*
Y32600D01*
D02*
G37*
G36*
X34748Y32650D02*
X34300D01*
Y32202D01*
X34381Y32213D01*
X34502Y32263D01*
X34607Y32343D01*
X34687Y32448D01*
X34737Y32569D01*
X34748Y32650D01*
D02*
G37*
G36*
X30400Y34833D02*
X27900D01*
X27849Y34822D01*
X27806Y34794D01*
X27068Y34055D01*
X27051Y34039D01*
X27037Y34029D01*
X27035Y34027D01*
X26555D01*
X26524Y34021D01*
X26497Y34003D01*
X26479Y33976D01*
X26473Y33945D01*
Y33355D01*
X26479Y33324D01*
X26497Y33297D01*
X26524Y33279D01*
X26555Y33273D01*
X27145D01*
X27176Y33279D01*
X27203Y33297D01*
X27221Y33324D01*
X27227Y33355D01*
Y33835D01*
X27228Y33837D01*
X27251Y33863D01*
X27955Y34567D01*
X30345D01*
X31297Y33615D01*
Y32950D01*
X31155D01*
X31124Y32944D01*
X31097Y32927D01*
X31080Y32900D01*
X31073Y32869D01*
Y32735D01*
X31023Y32714D01*
X30783Y32955D01*
Y33750D01*
X30772Y33801D01*
X30744Y33844D01*
X30194Y34394D01*
X30151Y34422D01*
X30100Y34433D01*
X28500D01*
X28449Y34422D01*
X28406Y34394D01*
X27080Y33068D01*
X27070Y33061D01*
X27056Y33054D01*
X27038Y33047D01*
X27016Y33041D01*
X26991Y33036D01*
X26963Y33032D01*
X26892Y33027D01*
X26862Y33027D01*
X26850Y33029D01*
X26752Y33016D01*
X26661Y32978D01*
X26582Y32918D01*
X26522Y32839D01*
X26484Y32748D01*
X26471Y32650D01*
X26484Y32552D01*
X26522Y32461D01*
X26582Y32382D01*
X26661Y32322D01*
X26752Y32284D01*
X26850Y32271D01*
X26948Y32284D01*
X27039Y32322D01*
X27118Y32382D01*
X27178Y32461D01*
X27216Y32552D01*
X27229Y32650D01*
X27227Y32662D01*
X27227Y32692D01*
X27232Y32763D01*
X27236Y32791D01*
X27241Y32816D01*
X27247Y32838D01*
X27254Y32856D01*
X27261Y32870D01*
X27268Y32880D01*
X28555Y34167D01*
X30045D01*
X30517Y33695D01*
Y32900D01*
X30528Y32849D01*
X30556Y32806D01*
X30928Y32434D01*
X30935Y32430D01*
Y32370D01*
X30928Y32366D01*
X30456Y31894D01*
X30428Y31851D01*
X30417Y31800D01*
Y30105D01*
X30095Y29783D01*
X28805D01*
X27220Y31367D01*
X27219Y31368D01*
X27213Y31378D01*
X27208Y31390D01*
X27204Y31404D01*
X27201Y31422D01*
X27199Y31442D01*
X27200Y31466D01*
X27202Y31493D01*
X27207Y31523D01*
X27212Y31544D01*
X27216Y31552D01*
X27229Y31650D01*
X27216Y31748D01*
X27178Y31839D01*
X27118Y31918D01*
X27039Y31978D01*
X26948Y32016D01*
X26850Y32029D01*
X26752Y32016D01*
X26661Y31978D01*
X26582Y31918D01*
X26522Y31839D01*
X26484Y31748D01*
X26471Y31650D01*
X26484Y31552D01*
X26522Y31461D01*
X26582Y31382D01*
X26661Y31322D01*
X26752Y31284D01*
X26766Y31283D01*
X26887Y31250D01*
X26919Y31240D01*
X26974Y31219D01*
X26993Y31210D01*
X27008Y31202D01*
X27017Y31196D01*
X28656Y29556D01*
X28692Y29533D01*
X28690Y29501D01*
X28683Y29483D01*
X28205D01*
X27268Y30420D01*
X27261Y30430D01*
X27254Y30444D01*
X27247Y30462D01*
X27241Y30484D01*
X27236Y30509D01*
X27232Y30537D01*
X27227Y30608D01*
X27227Y30638D01*
X27229Y30650D01*
X27216Y30748D01*
X27178Y30839D01*
X27118Y30918D01*
X27039Y30978D01*
X26948Y31016D01*
X26850Y31029D01*
X26752Y31016D01*
X26661Y30978D01*
X26582Y30918D01*
X26522Y30839D01*
X26484Y30748D01*
X26471Y30650D01*
X26484Y30552D01*
X26522Y30461D01*
X26582Y30382D01*
X26661Y30322D01*
X26752Y30284D01*
X26850Y30271D01*
X26862Y30273D01*
X26892Y30273D01*
X26963Y30268D01*
X26991Y30264D01*
X27016Y30259D01*
X27038Y30253D01*
X27056Y30246D01*
X27070Y30239D01*
X27080Y30232D01*
X28056Y29256D01*
X28099Y29228D01*
X28150Y29217D01*
X30350D01*
X30401Y29228D01*
X30444Y29256D01*
X31524Y30336D01*
X31552Y30379D01*
X31563Y30430D01*
Y31850D01*
X31705D01*
X31736Y31856D01*
X31763Y31873D01*
X31780Y31900D01*
X31787Y31931D01*
Y32101D01*
X31780Y32132D01*
X31773Y32144D01*
X31780Y32156D01*
X31787Y32187D01*
Y32357D01*
X31780Y32388D01*
X31773Y32400D01*
X31780Y32412D01*
X31787Y32443D01*
Y32613D01*
X31780Y32644D01*
X31773Y32656D01*
X31780Y32668D01*
X31787Y32699D01*
Y32869D01*
X31780Y32900D01*
X31763Y32927D01*
X31736Y32944D01*
X31705Y32950D01*
X31563D01*
Y33670D01*
X31552Y33721D01*
X31524Y33764D01*
X30494Y34794D01*
X30451Y34822D01*
X30400Y34833D01*
D02*
G37*
G36*
X34250Y34184D02*
X34125Y34168D01*
X34008Y34119D01*
X33908Y34042D01*
X33831Y33942D01*
X33784Y33829D01*
X33749Y33822D01*
X33706Y33794D01*
X33076Y33164D01*
X33048Y33121D01*
X33037Y33070D01*
Y32950D01*
X32895D01*
X32864Y32944D01*
X32837Y32927D01*
X32820Y32900D01*
X32813Y32869D01*
Y32699D01*
X32818Y32677D01*
X32801Y32652D01*
X32793Y32613D01*
Y32578D01*
X33444D01*
Y32612D01*
X33445Y32605D01*
X33448Y32600D01*
X33453Y32594D01*
X33460Y32590D01*
X33469Y32586D01*
X33480Y32583D01*
X33493Y32581D01*
X33508Y32579D01*
X33525Y32578D01*
X33544Y32578D01*
X33547D01*
Y32613D01*
X33539Y32652D01*
X33522Y32677D01*
X33527Y32699D01*
Y32869D01*
X33520Y32900D01*
X33503Y32927D01*
X33476Y32944D01*
X33445Y32950D01*
X33303D01*
Y33015D01*
X33774Y33486D01*
X33823Y33477D01*
X33831Y33458D01*
X33908Y33358D01*
X34008Y33281D01*
X34114Y33237D01*
X34118Y33201D01*
X34114Y33185D01*
X33998Y33137D01*
X33893Y33057D01*
X33813Y32952D01*
X33763Y32831D01*
X33752Y32750D01*
X33839D01*
X33854Y32782D01*
X33872Y32830D01*
X33909Y32750D01*
X34748D01*
X34737Y32831D01*
X34687Y32952D01*
X34607Y33057D01*
X34502Y33137D01*
X34386Y33185D01*
X34382Y33201D01*
X34386Y33237D01*
X34492Y33281D01*
X34592Y33358D01*
X34669Y33458D01*
X34718Y33575D01*
X34734Y33700D01*
X34718Y33825D01*
X34669Y33942D01*
X34592Y34042D01*
X34492Y34119D01*
X34375Y34168D01*
X34250Y34184D01*
D02*
G37*
G36*
X29850Y34029D02*
X29752Y34016D01*
X29661Y33978D01*
X29582Y33918D01*
X29522Y33839D01*
X29484Y33748D01*
X29471Y33650D01*
X29484Y33552D01*
X29522Y33461D01*
X29582Y33382D01*
X29661Y33322D01*
X29752Y33284D01*
X29850Y33271D01*
X29948Y33284D01*
X30039Y33322D01*
X30118Y33382D01*
X30178Y33461D01*
X30216Y33552D01*
X30229Y33650D01*
X30216Y33748D01*
X30178Y33839D01*
X30118Y33918D01*
X30039Y33978D01*
X29948Y34016D01*
X29850Y34029D01*
D02*
G37*
G36*
X29800Y33042D02*
X29747Y33035D01*
X29651Y32995D01*
X29568Y32932D01*
X29505Y32849D01*
X29465Y32753D01*
X29458Y32700D01*
X29800D01*
Y33042D01*
D02*
G37*
G36*
X29900D02*
Y32700D01*
X30242D01*
X30235Y32753D01*
X30195Y32849D01*
X30132Y32932D01*
X30049Y32995D01*
X29953Y33035D01*
X29900Y33042D01*
D02*
G37*
%LPD*%
G36*
X33855Y32119D02*
X33880Y32104D01*
X33909Y32091D01*
X33943Y32079D01*
X33982Y32070D01*
X34026Y32062D01*
X34074Y32056D01*
X34184Y32050D01*
X34246Y32050D01*
X33850Y31654D01*
X33850Y31716D01*
X33838Y31874D01*
X33830Y31918D01*
X33821Y31957D01*
X33809Y31991D01*
X33796Y32020D01*
X33781Y32045D01*
X33764Y32065D01*
X33835Y32136D01*
X33855Y32119D01*
D02*
G37*
G36*
Y31069D02*
X33880Y31054D01*
X33909Y31041D01*
X33943Y31029D01*
X33982Y31020D01*
X34026Y31012D01*
X34074Y31006D01*
X34184Y31000D01*
X34246Y31000D01*
X33850Y30604D01*
X33850Y30666D01*
X33838Y30824D01*
X33830Y30868D01*
X33821Y30907D01*
X33809Y30941D01*
X33796Y30970D01*
X33781Y30995D01*
X33764Y31015D01*
X33835Y31086D01*
X33855Y31069D01*
D02*
G37*
G36*
X33261Y31931D02*
X33252Y31928D01*
X33245Y31923D01*
X33238Y31916D01*
X33233Y31907D01*
X33228Y31896D01*
X33224Y31883D01*
X33222Y31868D01*
X33221Y31851D01*
X33220Y31832D01*
X33120D01*
X33119Y31851D01*
X33118Y31868D01*
X33115Y31883D01*
X33112Y31896D01*
X33108Y31907D01*
X33102Y31916D01*
X33096Y31923D01*
X33088Y31928D01*
X33080Y31931D01*
X33070Y31932D01*
X33270D01*
X33261Y31931D01*
D02*
G37*
G36*
X33445Y32349D02*
X33448Y32344D01*
X33453Y32339D01*
X33460Y32334D01*
X33469Y32330D01*
X33480Y32327D01*
X33493Y32325D01*
X33508Y32323D01*
X33525Y32322D01*
X33544Y32322D01*
Y32222D01*
X33525Y32222D01*
X33493Y32219D01*
X33480Y32217D01*
X33469Y32214D01*
X33460Y32210D01*
X33453Y32206D01*
X33448Y32200D01*
X33445Y32195D01*
X33444Y32188D01*
Y32356D01*
X33445Y32349D01*
D02*
G37*
G36*
X27127Y31539D02*
X27121Y31504D01*
X27118Y31471D01*
X27117Y31440D01*
X27119Y31412D01*
X27124Y31385D01*
X27131Y31361D01*
X27141Y31339D01*
X27154Y31319D01*
X27169Y31302D01*
X27080Y31249D01*
X27067Y31260D01*
X27050Y31272D01*
X27030Y31283D01*
X27005Y31294D01*
X26946Y31317D01*
X26910Y31328D01*
X26782Y31363D01*
X27136Y31576D01*
X27127Y31539D01*
D02*
G37*
G36*
X27215Y33944D02*
X27195Y33923D01*
X27163Y33886D01*
X27152Y33870D01*
X27143Y33855D01*
X27138Y33842D01*
X27135Y33830D01*
X27135Y33819D01*
X27137Y33810D01*
X27143Y33803D01*
X27003Y33943D01*
X27010Y33937D01*
X27019Y33935D01*
X27030Y33935D01*
X27042Y33938D01*
X27055Y33943D01*
X27070Y33952D01*
X27086Y33963D01*
X27104Y33978D01*
X27144Y34015D01*
X27215Y33944D01*
D02*
G37*
G36*
X31073Y32065D02*
Y31931D01*
X31080Y31900D01*
X31097Y31873D01*
X31124Y31856D01*
X31155Y31850D01*
X31297D01*
Y30485D01*
X30295Y29483D01*
X30217D01*
X30210Y29501D01*
X30208Y29533D01*
X30244Y29556D01*
X30644Y29956D01*
X30672Y29999D01*
X30683Y30050D01*
Y31745D01*
X31023Y32086D01*
X31073Y32065D01*
D02*
G37*
G36*
X27146Y30605D02*
X27151Y30529D01*
X27156Y30495D01*
X27162Y30464D01*
X27170Y30436D01*
X27179Y30411D01*
X27190Y30389D01*
X27202Y30370D01*
X27216Y30354D01*
X27146Y30284D01*
X27130Y30298D01*
X27111Y30310D01*
X27089Y30321D01*
X27064Y30330D01*
X27036Y30338D01*
X27005Y30344D01*
X26971Y30349D01*
X26895Y30354D01*
X26853Y30355D01*
X27145Y30647D01*
X27146Y30605D01*
D02*
G37*
G36*
X31481Y32948D02*
X31482Y32931D01*
X31484Y32916D01*
X31488Y32903D01*
X31493Y32892D01*
X31498Y32883D01*
X31504Y32875D01*
X31512Y32870D01*
X31521Y32867D01*
X31530Y32866D01*
X31330D01*
X31339Y32867D01*
X31348Y32870D01*
X31356Y32875D01*
X31362Y32883D01*
X31367Y32892D01*
X31372Y32903D01*
X31376Y32916D01*
X31378Y32931D01*
X31379Y32948D01*
X31380Y32968D01*
X31480D01*
X31481Y32948D01*
D02*
G37*
G36*
X27216Y32946D02*
X27202Y32930D01*
X27190Y32911D01*
X27179Y32889D01*
X27170Y32864D01*
X27162Y32836D01*
X27156Y32805D01*
X27151Y32771D01*
X27146Y32695D01*
X27145Y32653D01*
X26853Y32945D01*
X26895Y32946D01*
X26971Y32951D01*
X27005Y32956D01*
X27036Y32962D01*
X27064Y32970D01*
X27089Y32979D01*
X27111Y32990D01*
X27130Y33002D01*
X27146Y33016D01*
X27216Y32946D01*
D02*
G37*
G36*
X31156Y32444D02*
X31155Y32451D01*
X31152Y32456D01*
X31147Y32461D01*
X31140Y32466D01*
X31131Y32470D01*
X31120Y32473D01*
X31107Y32475D01*
X31092Y32477D01*
X31075Y32478D01*
X31056Y32478D01*
Y32578D01*
X31075Y32578D01*
X31107Y32581D01*
X31120Y32583D01*
X31131Y32586D01*
X31140Y32590D01*
X31147Y32594D01*
X31152Y32600D01*
X31155Y32605D01*
X31156Y32612D01*
Y32444D01*
D02*
G37*
G36*
X31521Y31931D02*
X31512Y31928D01*
X31504Y31923D01*
X31498Y31916D01*
X31493Y31907D01*
X31488Y31896D01*
X31484Y31883D01*
X31482Y31868D01*
X31481Y31851D01*
X31480Y31832D01*
X31380D01*
X31379Y31851D01*
X31378Y31868D01*
X31376Y31883D01*
X31372Y31896D01*
X31367Y31907D01*
X31362Y31916D01*
X31356Y31923D01*
X31348Y31928D01*
X31339Y31931D01*
X31330Y31932D01*
X31530D01*
X31521Y31931D01*
D02*
G37*
G36*
X31156Y32188D02*
X31155Y32195D01*
X31152Y32200D01*
X31147Y32206D01*
X31140Y32210D01*
X31131Y32214D01*
X31120Y32217D01*
X31107Y32219D01*
X31092Y32221D01*
X31075Y32222D01*
X31056Y32222D01*
Y32322D01*
X31075Y32322D01*
X31107Y32325D01*
X31120Y32327D01*
X31131Y32330D01*
X31140Y32334D01*
X31147Y32339D01*
X31152Y32344D01*
X31155Y32349D01*
X31156Y32356D01*
Y32188D01*
D02*
G37*
G36*
X33854Y33642D02*
X33854Y33643D01*
X33852Y33645D01*
X33849Y33646D01*
X33845Y33647D01*
X33840Y33648D01*
X33834Y33649D01*
X33819Y33650D01*
X33800Y33650D01*
Y33750D01*
X33810Y33750D01*
X33840Y33752D01*
X33845Y33753D01*
X33849Y33754D01*
X33852Y33755D01*
X33854Y33757D01*
X33854Y33758D01*
Y33642D01*
D02*
G37*
G36*
X33221Y32948D02*
X33222Y32931D01*
X33224Y32916D01*
X33228Y32903D01*
X33233Y32892D01*
X33238Y32883D01*
X33245Y32875D01*
X33252Y32870D01*
X33261Y32867D01*
X33270Y32866D01*
X33070D01*
X33080Y32867D01*
X33088Y32870D01*
X33096Y32875D01*
X33102Y32883D01*
X33108Y32892D01*
X33112Y32903D01*
X33115Y32916D01*
X33118Y32931D01*
X33119Y32948D01*
X33120Y32968D01*
X33220D01*
X33221Y32948D01*
D02*
G37*
D10*
X31430Y32784D02*
D03*
Y32528D02*
D03*
Y32272D02*
D03*
Y32016D02*
D03*
X33170D02*
D03*
Y32272D02*
D03*
Y32528D02*
D03*
Y32784D02*
D03*
D11*
Y31680D02*
X34250Y30600D01*
X33170Y31680D02*
Y32016D01*
X33800Y33700D02*
X34250D01*
X33170Y33070D02*
X33800Y33700D01*
X33170Y32784D02*
Y33070D01*
X33628Y32272D02*
X34250Y31650D01*
X33170Y32272D02*
X33628D01*
X34078Y32528D02*
X34250Y32700D01*
X33170Y32528D02*
X34078D01*
X26850Y31550D02*
Y31650D01*
Y31550D02*
X28750Y29650D01*
X26850Y30650D02*
X28150Y29350D01*
X30350D01*
X31430Y30430D01*
Y32016D01*
X28750Y29650D02*
X30150D01*
X30550Y30050D01*
Y31800D01*
X31022Y32272D01*
X31430D01*
X26850Y32650D02*
X28500Y34300D01*
X30100D01*
X30650Y33750D01*
Y32900D02*
Y33750D01*
Y32900D02*
X31022Y32528D01*
X31430D01*
X26850Y33650D02*
X27900Y34700D01*
X30400D01*
X31430Y33670D01*
Y32784D02*
Y33670D01*
D12*
X34250Y30600D02*
D03*
Y31650D02*
D03*
Y32700D02*
D03*
Y33700D02*
D03*
D13*
X26850Y33650D02*
D03*
D14*
Y32650D02*
D03*
Y31650D02*
D03*
Y30650D02*
D03*
X29850Y33650D02*
D03*
Y32650D02*
D03*
Y31650D02*
D03*
Y30650D02*
D03*
M02*
