G04 Layer_Color=16776960*
%FSLAX24Y24*%
%MOIN*%
G70*
G01*
G75*
%ADD11C,0.0100*%
%ADD16C,0.0079*%
%ADD17C,0.0098*%
%ADD18C,0.0236*%
%ADD19C,0.0060*%
%ADD20C,0.0078*%
D11*
X31120Y34520D02*
Y34020D01*
X31220Y33920D01*
X31420D01*
X31520Y34020D01*
Y34520D01*
X31720Y33920D02*
X31920D01*
X31820D01*
Y34520D01*
X31720Y34420D01*
X26610Y35160D02*
Y34660D01*
X26710Y34560D01*
X26910D01*
X27010Y34660D01*
Y35160D01*
X27610Y34560D02*
X27210D01*
X27610Y34960D01*
Y35060D01*
X27510Y35160D01*
X27310D01*
X27210Y35060D01*
D16*
X28100Y34178D02*
G03*
X28600Y34178I250J0D01*
G01*
X27307Y30122D02*
Y34178D01*
X29393Y30122D02*
Y34178D01*
X27307D02*
X28100D01*
X28600D02*
X29393D01*
X27307Y30122D02*
X29393D01*
D17*
X26899Y34162D02*
G03*
X26899Y34162I-49J0D01*
G01*
D18*
X27819Y33784D02*
G03*
X27819Y33784I-118J0D01*
G01*
D19*
X32960Y33000D02*
Y33060D01*
X31640Y31740D02*
Y31800D01*
Y31740D02*
X32960D01*
Y31800D01*
X31640Y33060D02*
X32960D01*
X31640Y33000D02*
Y33060D01*
D20*
X31274Y33540D02*
Y33119D01*
X31098Y33435D02*
X31450Y33224D01*
Y33435D02*
X31098Y33224D01*
M02*
