G04 Layer_Color=32896*
%FSLAX24Y24*%
%MOIN*%
G70*
G01*
G75*
%ADD10C,0.0100*%
%ADD38C,0.0200*%
%ADD39C,0.0060*%
%ADD40C,0.0030*%
%ADD62C,0.0098*%
%ADD63C,0.0079*%
%ADD64C,0.0039*%
%ADD65C,0.0080*%
%ADD66C,0.0078*%
G36*
X92438Y-27574D02*
X92338D01*
Y-27424D01*
X92438D01*
Y-27574D01*
D02*
G37*
G36*
X95458Y-28824D02*
X95358D01*
Y-28674D01*
X95458D01*
Y-28824D01*
D02*
G37*
G36*
X92034Y-12852D02*
X91934D01*
Y-12702D01*
X92034D01*
Y-12852D01*
D02*
G37*
G36*
X95054Y-14102D02*
X94954D01*
Y-13952D01*
X95054D01*
Y-14102D01*
D02*
G37*
D10*
X94334Y-15422D02*
Y-15232D01*
X92654Y-12072D02*
Y-11882D01*
X94334D01*
Y-12072D02*
Y-11882D01*
X92654Y-15422D02*
X94334D01*
X92654D02*
Y-15232D01*
X93058Y-26294D02*
Y-26104D01*
X94738Y-29644D02*
Y-29454D01*
X93058Y-29644D02*
X94738D01*
X93058D02*
Y-29454D01*
Y-26104D02*
X94738D01*
Y-26294D02*
Y-26104D01*
X71596Y-32207D02*
X72856D01*
X71596Y-34806D02*
X72856D01*
X32240Y-32207D02*
X33500D01*
X32240Y-34806D02*
X33500D01*
X12562Y-32207D02*
X13822D01*
X12562Y-34806D02*
X13822D01*
X51918Y-32207D02*
X53178D01*
X51918Y-34806D02*
X53178D01*
X69663Y-1330D02*
Y-730D01*
X69363D01*
X69264Y-830D01*
Y-1030D01*
X69363Y-1130D01*
X69663D01*
X69064Y-730D02*
Y-1330D01*
X68864Y-1130D01*
X68664Y-1330D01*
Y-730D01*
X68464Y-1330D02*
Y-730D01*
X68164D01*
X68064Y-830D01*
Y-1030D01*
X68164Y-1130D01*
X68464D01*
X68264D02*
X68064Y-1330D01*
X98382Y-19198D02*
X98482Y-19098D01*
X98682D01*
X98782Y-19198D01*
Y-19298D01*
X98682Y-19398D01*
X98482D01*
X98382Y-19498D01*
Y-19598D01*
X98482Y-19698D01*
X98682D01*
X98782Y-19598D01*
X98182Y-19098D02*
X97982D01*
X98082D01*
Y-19698D01*
X98182D01*
X97982D01*
X97282Y-19198D02*
X97382Y-19098D01*
X97582D01*
X97682Y-19198D01*
Y-19598D01*
X97582Y-19698D01*
X97382D01*
X97282Y-19598D01*
Y-19398D01*
X97482D01*
X47085Y-12415D02*
Y-11815D01*
X46685Y-12415D01*
Y-11815D01*
X46086D02*
X46485D01*
Y-12415D01*
X46086D01*
X46485Y-12115D02*
X46286D01*
X45486Y-12415D02*
X45886D01*
X45486Y-12015D01*
Y-11915D01*
X45586Y-11815D01*
X45786D01*
X45886Y-11915D01*
X110943Y-16673D02*
Y-16273D01*
X110743Y-16073D01*
X110543Y-16273D01*
Y-16673D01*
Y-16373D01*
X110943D01*
X109944Y-16073D02*
X110343D01*
Y-16673D01*
X109944D01*
X110343Y-16373D02*
X110143D01*
X15945Y-31693D02*
Y-31093D01*
X15645D01*
X15545Y-31193D01*
Y-31393D01*
X15645Y-31493D01*
X15945D01*
X15745D02*
X15545Y-31693D01*
X15345Y-31193D02*
X15245Y-31093D01*
X15045D01*
X14945Y-31193D01*
Y-31293D01*
X15045Y-31393D01*
X14945Y-31493D01*
Y-31593D01*
X15045Y-31693D01*
X15245D01*
X15345Y-31593D01*
Y-31493D01*
X15245Y-31393D01*
X15345Y-31293D01*
Y-31193D01*
X15245Y-31393D02*
X15045D01*
X35630Y-31693D02*
Y-31093D01*
X35330D01*
X35230Y-31193D01*
Y-31393D01*
X35330Y-31493D01*
X35630D01*
X35430D02*
X35230Y-31693D01*
X35030Y-31093D02*
X34630D01*
Y-31193D01*
X35030Y-31593D01*
Y-31693D01*
X55315D02*
Y-31093D01*
X55015D01*
X54915Y-31193D01*
Y-31393D01*
X55015Y-31493D01*
X55315D01*
X55115D02*
X54915Y-31693D01*
X54315Y-31093D02*
X54515Y-31193D01*
X54715Y-31393D01*
Y-31593D01*
X54615Y-31693D01*
X54415D01*
X54315Y-31593D01*
Y-31493D01*
X54415Y-31393D01*
X54715D01*
X75000Y-31890D02*
Y-31290D01*
X74700D01*
X74600Y-31390D01*
Y-31590D01*
X74700Y-31690D01*
X75000D01*
X74800D02*
X74600Y-31890D01*
X74000Y-31290D02*
X74400D01*
Y-31590D01*
X74200Y-31490D01*
X74100D01*
X74000Y-31590D01*
Y-31790D01*
X74100Y-31890D01*
X74300D01*
X74400Y-31790D01*
X72353Y-29529D02*
X72453Y-29429D01*
X72653D01*
X72753Y-29529D01*
Y-29929D01*
X72653Y-30029D01*
X72453D01*
X72353Y-29929D01*
X72153Y-30029D02*
X71953D01*
X72053D01*
Y-29429D01*
X72153Y-29529D01*
X71253Y-29429D02*
X71653D01*
Y-29729D01*
X71453Y-29629D01*
X71353D01*
X71253Y-29729D01*
Y-29929D01*
X71353Y-30029D01*
X71553D01*
X71653Y-29929D01*
X70073Y-31390D02*
X70173Y-31290D01*
X70372D01*
X70472Y-31390D01*
Y-31790D01*
X70372Y-31890D01*
X70173D01*
X70073Y-31790D01*
X69873Y-31890D02*
X69673D01*
X69773D01*
Y-31290D01*
X69873Y-31390D01*
X68973Y-31290D02*
X69173Y-31390D01*
X69373Y-31590D01*
Y-31790D01*
X69273Y-31890D01*
X69073D01*
X68973Y-31790D01*
Y-31690D01*
X69073Y-31590D01*
X69373D01*
X52766Y-29529D02*
X52866Y-29429D01*
X53066D01*
X53166Y-29529D01*
Y-29929D01*
X53066Y-30029D01*
X52866D01*
X52766Y-29929D01*
X52566Y-30029D02*
X52366D01*
X52466D01*
Y-29429D01*
X52566Y-29529D01*
X52066Y-29429D02*
X51667D01*
Y-29529D01*
X52066Y-29929D01*
Y-30029D01*
X50584Y-31390D02*
X50684Y-31290D01*
X50884D01*
X50984Y-31390D01*
Y-31790D01*
X50884Y-31890D01*
X50684D01*
X50584Y-31790D01*
X50384Y-31890D02*
X50185D01*
X50284D01*
Y-31290D01*
X50384Y-31390D01*
X49885D02*
X49785Y-31290D01*
X49585D01*
X49485Y-31390D01*
Y-31490D01*
X49585Y-31590D01*
X49485Y-31690D01*
Y-31790D01*
X49585Y-31890D01*
X49785D01*
X49885Y-31790D01*
Y-31690D01*
X49785Y-31590D01*
X49885Y-31490D01*
Y-31390D01*
X49785Y-31590D02*
X49585D01*
X33458Y-29618D02*
X33558Y-29518D01*
X33758D01*
X33858Y-29618D01*
Y-30018D01*
X33758Y-30118D01*
X33558D01*
X33458Y-30018D01*
X33258Y-30118D02*
X33059D01*
X33158D01*
Y-29518D01*
X33258Y-29618D01*
X32759Y-30018D02*
X32659Y-30118D01*
X32459D01*
X32359Y-30018D01*
Y-29618D01*
X32459Y-29518D01*
X32659D01*
X32759Y-29618D01*
Y-29718D01*
X32659Y-29818D01*
X32359D01*
X30899Y-31390D02*
X30999Y-31290D01*
X31199D01*
X31299Y-31390D01*
Y-31790D01*
X31199Y-31890D01*
X30999D01*
X30899Y-31790D01*
X30300Y-31890D02*
X30699D01*
X30300Y-31490D01*
Y-31390D01*
X30399Y-31290D01*
X30599D01*
X30699Y-31390D01*
X30100D02*
X30000Y-31290D01*
X29800D01*
X29700Y-31390D01*
Y-31790D01*
X29800Y-31890D01*
X30000D01*
X30100Y-31790D01*
Y-31390D01*
X13773Y-29421D02*
X13873Y-29321D01*
X14073D01*
X14173Y-29421D01*
Y-29821D01*
X14073Y-29921D01*
X13873D01*
X13773Y-29821D01*
X13174Y-29921D02*
X13573D01*
X13174Y-29521D01*
Y-29421D01*
X13274Y-29321D01*
X13473D01*
X13573Y-29421D01*
X12974Y-29921D02*
X12774D01*
X12874D01*
Y-29321D01*
X12974Y-29421D01*
X11214Y-31390D02*
X11314Y-31290D01*
X11514D01*
X11614Y-31390D01*
Y-31790D01*
X11514Y-31890D01*
X11314D01*
X11214Y-31790D01*
X10615Y-31890D02*
X11014D01*
X10615Y-31490D01*
Y-31390D01*
X10714Y-31290D01*
X10914D01*
X11014Y-31390D01*
X10015Y-31890D02*
X10415D01*
X10015Y-31490D01*
Y-31390D01*
X10115Y-31290D01*
X10315D01*
X10415Y-31390D01*
X104164Y-5826D02*
X104064Y-5726D01*
Y-5526D01*
X104164Y-5427D01*
X104564D01*
X104664Y-5526D01*
Y-5726D01*
X104564Y-5826D01*
X104664Y-6026D02*
Y-6226D01*
Y-6126D01*
X104064D01*
X104164Y-6026D01*
X104764Y-6526D02*
Y-6926D01*
X104664Y-7126D02*
X104264D01*
X104064Y-7326D01*
X104264Y-7526D01*
X104664D01*
X104364D01*
Y-7126D01*
X104664Y-7726D02*
Y-7926D01*
Y-7826D01*
X104064D01*
X104164Y-7726D01*
X104174Y-13750D02*
X104074Y-13650D01*
Y-13450D01*
X104174Y-13350D01*
X104574D01*
X104674Y-13450D01*
Y-13650D01*
X104574Y-13750D01*
X104674Y-13950D02*
Y-14150D01*
Y-14050D01*
X104074D01*
X104174Y-13950D01*
X104774Y-14450D02*
Y-14849D01*
X104674Y-15049D02*
X104274D01*
X104074Y-15249D01*
X104274Y-15449D01*
X104674D01*
X104374D01*
Y-15049D01*
X104674Y-16049D02*
Y-15649D01*
X104274Y-16049D01*
X104174D01*
X104074Y-15949D01*
Y-15749D01*
X104174Y-15649D01*
X104056Y-21873D02*
X103956Y-21773D01*
Y-21573D01*
X104056Y-21473D01*
X104456D01*
X104556Y-21573D01*
Y-21773D01*
X104456Y-21873D01*
X104556Y-22073D02*
Y-22273D01*
Y-22173D01*
X103956D01*
X104056Y-22073D01*
X104656Y-22573D02*
Y-22973D01*
X104556Y-23173D02*
X104156D01*
X103956Y-23373D01*
X104156Y-23573D01*
X104556D01*
X104256D01*
Y-23173D01*
X104056Y-23773D02*
X103956Y-23873D01*
Y-24072D01*
X104056Y-24172D01*
X104156D01*
X104256Y-24072D01*
Y-23973D01*
Y-24072D01*
X104356Y-24172D01*
X104456D01*
X104556Y-24072D01*
Y-23873D01*
X104456Y-23773D01*
X104095Y-29997D02*
X103995Y-29897D01*
Y-29697D01*
X104095Y-29597D01*
X104495D01*
X104595Y-29697D01*
Y-29897D01*
X104495Y-29997D01*
X104595Y-30196D02*
Y-30396D01*
Y-30296D01*
X103995D01*
X104095Y-30196D01*
X104695Y-30696D02*
Y-31096D01*
X104595Y-31296D02*
X104195D01*
X103995Y-31496D01*
X104195Y-31696D01*
X104595D01*
X104295D01*
Y-31296D01*
X104595Y-32196D02*
X103995D01*
X104295Y-31896D01*
Y-32296D01*
X115530Y-12940D02*
X115630Y-13040D01*
Y-13240D01*
X115530Y-13340D01*
X115130D01*
X115030Y-13240D01*
Y-13040D01*
X115130Y-12940D01*
X115030Y-12741D02*
Y-12541D01*
Y-12641D01*
X115630D01*
X115530Y-12741D01*
X114930Y-12241D02*
Y-11841D01*
X115030Y-11641D02*
X115430D01*
X115630Y-11441D01*
X115430Y-11241D01*
X115030D01*
X115330D01*
Y-11641D01*
X115630Y-10641D02*
Y-11041D01*
X115330D01*
X115430Y-10841D01*
Y-10741D01*
X115330Y-10641D01*
X115130D01*
X115030Y-10741D01*
Y-10941D01*
X115130Y-11041D01*
X115530Y-21227D02*
X115630Y-21327D01*
Y-21526D01*
X115530Y-21626D01*
X115130D01*
X115030Y-21526D01*
Y-21327D01*
X115130Y-21227D01*
X115030Y-21027D02*
Y-20827D01*
Y-20927D01*
X115630D01*
X115530Y-21027D01*
X114930Y-20527D02*
Y-20127D01*
X115030Y-19927D02*
X115430D01*
X115630Y-19727D01*
X115430Y-19527D01*
X115030D01*
X115330D01*
Y-19927D01*
X115630Y-18927D02*
X115530Y-19127D01*
X115330Y-19327D01*
X115130D01*
X115030Y-19227D01*
Y-19027D01*
X115130Y-18927D01*
X115230D01*
X115330Y-19027D01*
Y-19327D01*
X115530Y-29513D02*
X115630Y-29613D01*
Y-29813D01*
X115530Y-29913D01*
X115130D01*
X115030Y-29813D01*
Y-29613D01*
X115130Y-29513D01*
X115030Y-29313D02*
Y-29113D01*
Y-29213D01*
X115630D01*
X115530Y-29313D01*
X114930Y-28813D02*
Y-28413D01*
X115030Y-28213D02*
X115430D01*
X115630Y-28013D01*
X115430Y-27813D01*
X115030D01*
X115330D01*
Y-28213D01*
X115630Y-27613D02*
Y-27213D01*
X115530D01*
X115130Y-27613D01*
X115030D01*
X115530Y-37799D02*
X115630Y-37899D01*
Y-38099D01*
X115530Y-38199D01*
X115130D01*
X115030Y-38099D01*
Y-37899D01*
X115130Y-37799D01*
X115030Y-37599D02*
Y-37399D01*
Y-37499D01*
X115630D01*
X115530Y-37599D01*
X114930Y-37099D02*
Y-36699D01*
X115030Y-36499D02*
X115430D01*
X115630Y-36299D01*
X115430Y-36099D01*
X115030D01*
X115330D01*
Y-36499D01*
X115530Y-35899D02*
X115630Y-35799D01*
Y-35599D01*
X115530Y-35499D01*
X115430D01*
X115330Y-35599D01*
X115230Y-35499D01*
X115130D01*
X115030Y-35599D01*
Y-35799D01*
X115130Y-35899D01*
X115230D01*
X115330Y-35799D01*
X115430Y-35899D01*
X115530D01*
X115330Y-35799D02*
Y-35599D01*
X9288Y-7834D02*
X9188Y-7934D01*
X8988D01*
X8888Y-7834D01*
Y-7434D01*
X8988Y-7334D01*
X9188D01*
X9288Y-7434D01*
X9488Y-7334D02*
X9688D01*
X9588D01*
Y-7934D01*
X9488Y-7834D01*
X9988Y-7234D02*
X10388D01*
X10587Y-7334D02*
Y-7934D01*
X10987Y-7334D01*
Y-7934D01*
X11187Y-7334D02*
X11387D01*
X11287D01*
Y-7934D01*
X11187Y-7834D01*
X19130D02*
X19030Y-7934D01*
X18830D01*
X18731Y-7834D01*
Y-7434D01*
X18830Y-7334D01*
X19030D01*
X19130Y-7434D01*
X19330Y-7334D02*
X19530D01*
X19430D01*
Y-7934D01*
X19330Y-7834D01*
X19830Y-7234D02*
X20230D01*
X20430Y-7334D02*
Y-7934D01*
X20830Y-7334D01*
Y-7934D01*
X21430Y-7334D02*
X21030D01*
X21430Y-7734D01*
Y-7834D01*
X21330Y-7934D01*
X21130D01*
X21030Y-7834D01*
X28973D02*
X28873Y-7934D01*
X28673D01*
X28573Y-7834D01*
Y-7434D01*
X28673Y-7334D01*
X28873D01*
X28973Y-7434D01*
X29173Y-7334D02*
X29373D01*
X29273D01*
Y-7934D01*
X29173Y-7834D01*
X29673Y-7234D02*
X30073D01*
X30273Y-7334D02*
Y-7934D01*
X30672Y-7334D01*
Y-7934D01*
X30872Y-7834D02*
X30972Y-7934D01*
X31172D01*
X31272Y-7834D01*
Y-7734D01*
X31172Y-7634D01*
X31072D01*
X31172D01*
X31272Y-7534D01*
Y-7434D01*
X31172Y-7334D01*
X30972D01*
X30872Y-7434D01*
X38815Y-7834D02*
X38715Y-7934D01*
X38516D01*
X38416Y-7834D01*
Y-7434D01*
X38516Y-7334D01*
X38715D01*
X38815Y-7434D01*
X39015Y-7334D02*
X39215D01*
X39115D01*
Y-7934D01*
X39015Y-7834D01*
X39515Y-7234D02*
X39915D01*
X40115Y-7334D02*
Y-7934D01*
X40515Y-7334D01*
Y-7934D01*
X41015Y-7334D02*
Y-7934D01*
X40715Y-7634D01*
X41115D01*
X48658Y-7834D02*
X48558Y-7934D01*
X48358D01*
X48258Y-7834D01*
Y-7434D01*
X48358Y-7334D01*
X48558D01*
X48658Y-7434D01*
X48858Y-7334D02*
X49058D01*
X48958D01*
Y-7934D01*
X48858Y-7834D01*
X49358Y-7234D02*
X49758D01*
X49958Y-7334D02*
Y-7934D01*
X50357Y-7334D01*
Y-7934D01*
X50957D02*
X50557D01*
Y-7634D01*
X50757Y-7734D01*
X50857D01*
X50957Y-7634D01*
Y-7434D01*
X50857Y-7334D01*
X50657D01*
X50557Y-7434D01*
X58500Y-7834D02*
X58401Y-7934D01*
X58201D01*
X58101Y-7834D01*
Y-7434D01*
X58201Y-7334D01*
X58401D01*
X58500Y-7434D01*
X58700Y-7334D02*
X58900D01*
X58800D01*
Y-7934D01*
X58700Y-7834D01*
X59200Y-7234D02*
X59600D01*
X59800Y-7334D02*
Y-7934D01*
X60200Y-7334D01*
Y-7934D01*
X60800D02*
X60600Y-7834D01*
X60400Y-7634D01*
Y-7434D01*
X60500Y-7334D01*
X60700D01*
X60800Y-7434D01*
Y-7534D01*
X60700Y-7634D01*
X60400D01*
X68343Y-7834D02*
X68243Y-7934D01*
X68043D01*
X67943Y-7834D01*
Y-7434D01*
X68043Y-7334D01*
X68243D01*
X68343Y-7434D01*
X68543Y-7334D02*
X68743D01*
X68643D01*
Y-7934D01*
X68543Y-7834D01*
X69043Y-7234D02*
X69443D01*
X69643Y-7334D02*
Y-7934D01*
X70042Y-7334D01*
Y-7934D01*
X70242D02*
X70642D01*
Y-7834D01*
X70242Y-7434D01*
Y-7334D01*
X78254Y-7834D02*
X78154Y-7934D01*
X77955D01*
X77855Y-7834D01*
Y-7434D01*
X77955Y-7334D01*
X78154D01*
X78254Y-7434D01*
X78454Y-7334D02*
X78654D01*
X78554D01*
Y-7934D01*
X78454Y-7834D01*
X78954Y-7234D02*
X79354D01*
X79554Y-7334D02*
Y-7934D01*
X79954Y-7334D01*
Y-7934D01*
X80154Y-7834D02*
X80254Y-7934D01*
X80454D01*
X80554Y-7834D01*
Y-7734D01*
X80454Y-7634D01*
X80554Y-7534D01*
Y-7434D01*
X80454Y-7334D01*
X80254D01*
X80154Y-7434D01*
Y-7534D01*
X80254Y-7634D01*
X80154Y-7734D01*
Y-7834D01*
X80254Y-7634D02*
X80454D01*
X9288Y-17677D02*
X9188Y-17777D01*
X8988D01*
X8888Y-17677D01*
Y-17277D01*
X8988Y-17177D01*
X9188D01*
X9288Y-17277D01*
X9488Y-17177D02*
X9688D01*
X9588D01*
Y-17777D01*
X9488Y-17677D01*
X9988Y-17077D02*
X10388D01*
X10587Y-17177D02*
Y-17777D01*
X10987Y-17177D01*
Y-17777D01*
X11187Y-17277D02*
X11287Y-17177D01*
X11487D01*
X11587Y-17277D01*
Y-17677D01*
X11487Y-17777D01*
X11287D01*
X11187Y-17677D01*
Y-17577D01*
X11287Y-17477D01*
X11587D01*
X19140Y-17677D02*
X19040Y-17777D01*
X18840D01*
X18740Y-17677D01*
Y-17277D01*
X18840Y-17177D01*
X19040D01*
X19140Y-17277D01*
X19340Y-17177D02*
X19540D01*
X19440D01*
Y-17777D01*
X19340Y-17677D01*
X19840Y-17077D02*
X20240D01*
X20440Y-17177D02*
Y-17777D01*
X20840Y-17177D01*
Y-17777D01*
X21040Y-17177D02*
X21240D01*
X21140D01*
Y-17777D01*
X21040Y-17677D01*
X21539D02*
X21639Y-17777D01*
X21839D01*
X21939Y-17677D01*
Y-17277D01*
X21839Y-17177D01*
X21639D01*
X21539Y-17277D01*
Y-17677D01*
X28993D02*
X28893Y-17777D01*
X28693D01*
X28593Y-17677D01*
Y-17277D01*
X28693Y-17177D01*
X28893D01*
X28993Y-17277D01*
X29193Y-17177D02*
X29392D01*
X29293D01*
Y-17777D01*
X29193Y-17677D01*
X29692Y-17077D02*
X30092D01*
X30292Y-17177D02*
Y-17777D01*
X30692Y-17177D01*
Y-17777D01*
X30892Y-17177D02*
X31092D01*
X30992D01*
Y-17777D01*
X30892Y-17677D01*
X31392Y-17177D02*
X31592D01*
X31492D01*
Y-17777D01*
X31392Y-17677D01*
X38845D02*
X38745Y-17777D01*
X38545D01*
X38445Y-17677D01*
Y-17277D01*
X38545Y-17177D01*
X38745D01*
X38845Y-17277D01*
X39045Y-17177D02*
X39245D01*
X39145D01*
Y-17777D01*
X39045Y-17677D01*
X39545Y-17077D02*
X39945D01*
X40145Y-17177D02*
Y-17777D01*
X40544Y-17177D01*
Y-17777D01*
X40744Y-17177D02*
X40944D01*
X40844D01*
Y-17777D01*
X40744Y-17677D01*
X41644Y-17177D02*
X41244D01*
X41644Y-17577D01*
Y-17677D01*
X41544Y-17777D01*
X41344D01*
X41244Y-17677D01*
X48697D02*
X48597Y-17777D01*
X48397D01*
X48297Y-17677D01*
Y-17277D01*
X48397Y-17177D01*
X48597D01*
X48697Y-17277D01*
X48897Y-17177D02*
X49097D01*
X48997D01*
Y-17777D01*
X48897Y-17677D01*
X49397Y-17077D02*
X49797D01*
X49997Y-17177D02*
Y-17777D01*
X50397Y-17177D01*
Y-17777D01*
X50597Y-17177D02*
X50797D01*
X50697D01*
Y-17777D01*
X50597Y-17677D01*
X51097D02*
X51197Y-17777D01*
X51396D01*
X51496Y-17677D01*
Y-17577D01*
X51396Y-17477D01*
X51296D01*
X51396D01*
X51496Y-17377D01*
Y-17277D01*
X51396Y-17177D01*
X51197D01*
X51097Y-17277D01*
X58550Y-17677D02*
X58450Y-17777D01*
X58250D01*
X58150Y-17677D01*
Y-17277D01*
X58250Y-17177D01*
X58450D01*
X58550Y-17277D01*
X58750Y-17177D02*
X58950D01*
X58850D01*
Y-17777D01*
X58750Y-17677D01*
X59249Y-17077D02*
X59649D01*
X59849Y-17177D02*
Y-17777D01*
X60249Y-17177D01*
Y-17777D01*
X60449Y-17177D02*
X60649D01*
X60549D01*
Y-17777D01*
X60449Y-17677D01*
X61249Y-17177D02*
Y-17777D01*
X60949Y-17477D01*
X61349D01*
X68402Y-17677D02*
X68302Y-17777D01*
X68102D01*
X68002Y-17677D01*
Y-17277D01*
X68102Y-17177D01*
X68302D01*
X68402Y-17277D01*
X68602Y-17177D02*
X68802D01*
X68702D01*
Y-17777D01*
X68602Y-17677D01*
X69102Y-17077D02*
X69502D01*
X69702Y-17177D02*
Y-17777D01*
X70102Y-17177D01*
Y-17777D01*
X70301Y-17177D02*
X70501D01*
X70401D01*
Y-17777D01*
X70301Y-17677D01*
X71201Y-17777D02*
X70801D01*
Y-17477D01*
X71001Y-17577D01*
X71101D01*
X71201Y-17477D01*
Y-17277D01*
X71101Y-17177D01*
X70901D01*
X70801Y-17277D01*
X78254Y-17677D02*
X78154Y-17777D01*
X77955D01*
X77855Y-17677D01*
Y-17277D01*
X77955Y-17177D01*
X78154D01*
X78254Y-17277D01*
X78454Y-17177D02*
X78654D01*
X78554D01*
Y-17777D01*
X78454Y-17677D01*
X78954Y-17077D02*
X79354D01*
X79554Y-17177D02*
Y-17777D01*
X79954Y-17177D01*
Y-17777D01*
X80154Y-17177D02*
X80354D01*
X80254D01*
Y-17777D01*
X80154Y-17677D01*
X81054Y-17777D02*
X80854Y-17677D01*
X80654Y-17477D01*
Y-17277D01*
X80754Y-17177D01*
X80954D01*
X81054Y-17277D01*
Y-17377D01*
X80954Y-17477D01*
X80654D01*
X104125Y333D02*
X104025Y433D01*
Y633D01*
X104125Y733D01*
X104524D01*
X104624Y633D01*
Y433D01*
X104524Y333D01*
X104624Y-266D02*
Y134D01*
X104225Y-266D01*
X104125D01*
X104025Y-166D01*
Y34D01*
X104125Y134D01*
X104724Y-466D02*
Y-866D01*
X104624Y-1066D02*
X104225D01*
X104025Y-1266D01*
X104225Y-1466D01*
X104624D01*
X104325D01*
Y-1066D01*
X104624Y-1666D02*
Y-1866D01*
Y-1766D01*
X104025D01*
X104125Y-1666D01*
X104134Y-7590D02*
X104034Y-7490D01*
Y-7290D01*
X104134Y-7190D01*
X104534D01*
X104634Y-7290D01*
Y-7490D01*
X104534Y-7590D01*
X104634Y-8190D02*
Y-7790D01*
X104234Y-8190D01*
X104134D01*
X104034Y-8090D01*
Y-7890D01*
X104134Y-7790D01*
X104734Y-8390D02*
Y-8790D01*
X104634Y-8989D02*
X104234D01*
X104034Y-9189D01*
X104234Y-9389D01*
X104634D01*
X104334D01*
Y-8989D01*
X104634Y-9989D02*
Y-9589D01*
X104234Y-9989D01*
X104134D01*
X104034Y-9889D01*
Y-9689D01*
X104134Y-9589D01*
X104016Y-15713D02*
X103916Y-15613D01*
Y-15413D01*
X104016Y-15313D01*
X104416D01*
X104516Y-15413D01*
Y-15613D01*
X104416Y-15713D01*
X104516Y-16313D02*
Y-15913D01*
X104116Y-16313D01*
X104016D01*
X103916Y-16213D01*
Y-16013D01*
X104016Y-15913D01*
X104616Y-16513D02*
Y-16913D01*
X104516Y-17113D02*
X104116D01*
X103916Y-17313D01*
X104116Y-17513D01*
X104516D01*
X104216D01*
Y-17113D01*
X104016Y-17713D02*
X103916Y-17813D01*
Y-18013D01*
X104016Y-18113D01*
X104116D01*
X104216Y-18013D01*
Y-17913D01*
Y-18013D01*
X104316Y-18113D01*
X104416D01*
X104516Y-18013D01*
Y-17813D01*
X104416Y-17713D01*
X104056Y-23837D02*
X103956Y-23737D01*
Y-23537D01*
X104056Y-23437D01*
X104456D01*
X104556Y-23537D01*
Y-23737D01*
X104456Y-23837D01*
X104556Y-24436D02*
Y-24037D01*
X104156Y-24436D01*
X104056D01*
X103956Y-24337D01*
Y-24137D01*
X104056Y-24037D01*
X104656Y-24636D02*
Y-25036D01*
X104556Y-25236D02*
X104156D01*
X103956Y-25436D01*
X104156Y-25636D01*
X104556D01*
X104256D01*
Y-25236D01*
X104556Y-26136D02*
X103956D01*
X104256Y-25836D01*
Y-26236D01*
X115569Y-19100D02*
X115669Y-19200D01*
Y-19400D01*
X115569Y-19500D01*
X115169D01*
X115069Y-19400D01*
Y-19200D01*
X115169Y-19100D01*
X115069Y-18501D02*
Y-18900D01*
X115469Y-18501D01*
X115569D01*
X115669Y-18600D01*
Y-18800D01*
X115569Y-18900D01*
X114969Y-18301D02*
Y-17901D01*
X115069Y-17701D02*
X115469D01*
X115669Y-17501D01*
X115469Y-17301D01*
X115069D01*
X115369D01*
Y-17701D01*
X115669Y-16701D02*
Y-17101D01*
X115369D01*
X115469Y-16901D01*
Y-16801D01*
X115369Y-16701D01*
X115169D01*
X115069Y-16801D01*
Y-17001D01*
X115169Y-17101D01*
X115569Y-27386D02*
X115669Y-27486D01*
Y-27686D01*
X115569Y-27786D01*
X115169D01*
X115069Y-27686D01*
Y-27486D01*
X115169Y-27386D01*
X115069Y-26787D02*
Y-27186D01*
X115469Y-26787D01*
X115569D01*
X115669Y-26887D01*
Y-27087D01*
X115569Y-27186D01*
X114969Y-26587D02*
Y-26187D01*
X115069Y-25987D02*
X115469D01*
X115669Y-25787D01*
X115469Y-25587D01*
X115069D01*
X115369D01*
Y-25987D01*
X115669Y-24987D02*
X115569Y-25187D01*
X115369Y-25387D01*
X115169D01*
X115069Y-25287D01*
Y-25087D01*
X115169Y-24987D01*
X115269D01*
X115369Y-25087D01*
Y-25387D01*
X115569Y-35673D02*
X115669Y-35772D01*
Y-35972D01*
X115569Y-36072D01*
X115169D01*
X115069Y-35972D01*
Y-35772D01*
X115169Y-35673D01*
X115069Y-35073D02*
Y-35473D01*
X115469Y-35073D01*
X115569D01*
X115669Y-35173D01*
Y-35373D01*
X115569Y-35473D01*
X114969Y-34873D02*
Y-34473D01*
X115069Y-34273D02*
X115469D01*
X115669Y-34073D01*
X115469Y-33873D01*
X115069D01*
X115369D01*
Y-34273D01*
X115669Y-33673D02*
Y-33273D01*
X115569D01*
X115169Y-33673D01*
X115069D01*
X115569Y-43959D02*
X115669Y-44059D01*
Y-44258D01*
X115569Y-44358D01*
X115169D01*
X115069Y-44258D01*
Y-44059D01*
X115169Y-43959D01*
X115069Y-43359D02*
Y-43759D01*
X115469Y-43359D01*
X115569D01*
X115669Y-43459D01*
Y-43659D01*
X115569Y-43759D01*
X114969Y-43159D02*
Y-42759D01*
X115069Y-42559D02*
X115469D01*
X115669Y-42359D01*
X115469Y-42159D01*
X115069D01*
X115369D01*
Y-42559D01*
X115569Y-41959D02*
X115669Y-41859D01*
Y-41659D01*
X115569Y-41559D01*
X115469D01*
X115369Y-41659D01*
X115269Y-41559D01*
X115169D01*
X115069Y-41659D01*
Y-41859D01*
X115169Y-41959D01*
X115269D01*
X115369Y-41859D01*
X115469Y-41959D01*
X115569D01*
X115369Y-41859D02*
Y-41659D01*
X3128Y-7873D02*
X3028Y-7973D01*
X2828D01*
X2728Y-7873D01*
Y-7474D01*
X2828Y-7374D01*
X3028D01*
X3128Y-7474D01*
X3728Y-7374D02*
X3328D01*
X3728Y-7773D01*
Y-7873D01*
X3628Y-7973D01*
X3428D01*
X3328Y-7873D01*
X3928Y-7274D02*
X4328D01*
X4528Y-7374D02*
Y-7973D01*
X4927Y-7374D01*
Y-7973D01*
X5127Y-7374D02*
X5327D01*
X5227D01*
Y-7973D01*
X5127Y-7873D01*
X12971D02*
X12871Y-7973D01*
X12671D01*
X12571Y-7873D01*
Y-7474D01*
X12671Y-7374D01*
X12871D01*
X12971Y-7474D01*
X13570Y-7374D02*
X13170D01*
X13570Y-7773D01*
Y-7873D01*
X13470Y-7973D01*
X13270D01*
X13170Y-7873D01*
X13770Y-7274D02*
X14170D01*
X14370Y-7374D02*
Y-7973D01*
X14770Y-7374D01*
Y-7973D01*
X15370Y-7374D02*
X14970D01*
X15370Y-7773D01*
Y-7873D01*
X15270Y-7973D01*
X15070D01*
X14970Y-7873D01*
X22813D02*
X22713Y-7973D01*
X22513D01*
X22413Y-7873D01*
Y-7474D01*
X22513Y-7374D01*
X22713D01*
X22813Y-7474D01*
X23413Y-7374D02*
X23013D01*
X23413Y-7773D01*
Y-7873D01*
X23313Y-7973D01*
X23113D01*
X23013Y-7873D01*
X23613Y-7274D02*
X24013D01*
X24213Y-7374D02*
Y-7973D01*
X24612Y-7374D01*
Y-7973D01*
X24812Y-7873D02*
X24912Y-7973D01*
X25112D01*
X25212Y-7873D01*
Y-7773D01*
X25112Y-7673D01*
X25012D01*
X25112D01*
X25212Y-7574D01*
Y-7474D01*
X25112Y-7374D01*
X24912D01*
X24812Y-7474D01*
X32656Y-7873D02*
X32556Y-7973D01*
X32356D01*
X32256Y-7873D01*
Y-7474D01*
X32356Y-7374D01*
X32556D01*
X32656Y-7474D01*
X33255Y-7374D02*
X32856D01*
X33255Y-7773D01*
Y-7873D01*
X33155Y-7973D01*
X32955D01*
X32856Y-7873D01*
X33455Y-7274D02*
X33855D01*
X34055Y-7374D02*
Y-7973D01*
X34455Y-7374D01*
Y-7973D01*
X34955Y-7374D02*
Y-7973D01*
X34655Y-7673D01*
X35055D01*
X42498Y-7873D02*
X42398Y-7973D01*
X42198D01*
X42098Y-7873D01*
Y-7474D01*
X42198Y-7374D01*
X42398D01*
X42498Y-7474D01*
X43098Y-7374D02*
X42698D01*
X43098Y-7773D01*
Y-7873D01*
X42998Y-7973D01*
X42798D01*
X42698Y-7873D01*
X43298Y-7274D02*
X43698D01*
X43898Y-7374D02*
Y-7973D01*
X44298Y-7374D01*
Y-7973D01*
X44897D02*
X44497D01*
Y-7673D01*
X44697Y-7773D01*
X44797D01*
X44897Y-7673D01*
Y-7474D01*
X44797Y-7374D01*
X44597D01*
X44497Y-7474D01*
X52341Y-7873D02*
X52241Y-7973D01*
X52041D01*
X51941Y-7873D01*
Y-7474D01*
X52041Y-7374D01*
X52241D01*
X52341Y-7474D01*
X52940Y-7374D02*
X52541D01*
X52940Y-7773D01*
Y-7873D01*
X52840Y-7973D01*
X52641D01*
X52541Y-7873D01*
X53140Y-7274D02*
X53540D01*
X53740Y-7374D02*
Y-7973D01*
X54140Y-7374D01*
Y-7973D01*
X54740D02*
X54540Y-7873D01*
X54340Y-7673D01*
Y-7474D01*
X54440Y-7374D01*
X54640D01*
X54740Y-7474D01*
Y-7574D01*
X54640Y-7673D01*
X54340D01*
X62183Y-7873D02*
X62083Y-7973D01*
X61883D01*
X61783Y-7873D01*
Y-7474D01*
X61883Y-7374D01*
X62083D01*
X62183Y-7474D01*
X62783Y-7374D02*
X62383D01*
X62783Y-7773D01*
Y-7873D01*
X62683Y-7973D01*
X62483D01*
X62383Y-7873D01*
X62983Y-7274D02*
X63383D01*
X63583Y-7374D02*
Y-7973D01*
X63983Y-7374D01*
Y-7973D01*
X64182D02*
X64582D01*
Y-7873D01*
X64182Y-7474D01*
Y-7374D01*
X72095Y-7873D02*
X71995Y-7973D01*
X71795D01*
X71695Y-7873D01*
Y-7474D01*
X71795Y-7374D01*
X71995D01*
X72095Y-7474D01*
X72694Y-7374D02*
X72294D01*
X72694Y-7773D01*
Y-7873D01*
X72594Y-7973D01*
X72394D01*
X72294Y-7873D01*
X72894Y-7274D02*
X73294D01*
X73494Y-7374D02*
Y-7973D01*
X73894Y-7374D01*
Y-7973D01*
X74094Y-7873D02*
X74194Y-7973D01*
X74394D01*
X74494Y-7873D01*
Y-7773D01*
X74394Y-7673D01*
X74494Y-7574D01*
Y-7474D01*
X74394Y-7374D01*
X74194D01*
X74094Y-7474D01*
Y-7574D01*
X74194Y-7673D01*
X74094Y-7773D01*
Y-7873D01*
X74194Y-7673D02*
X74394D01*
X3128Y-17716D02*
X3028Y-17816D01*
X2828D01*
X2728Y-17716D01*
Y-17316D01*
X2828Y-17216D01*
X3028D01*
X3128Y-17316D01*
X3728Y-17216D02*
X3328D01*
X3728Y-17616D01*
Y-17716D01*
X3628Y-17816D01*
X3428D01*
X3328Y-17716D01*
X3928Y-17116D02*
X4328D01*
X4528Y-17216D02*
Y-17816D01*
X4927Y-17216D01*
Y-17816D01*
X5127Y-17316D02*
X5227Y-17216D01*
X5427D01*
X5527Y-17316D01*
Y-17716D01*
X5427Y-17816D01*
X5227D01*
X5127Y-17716D01*
Y-17616D01*
X5227Y-17516D01*
X5527D01*
X12980Y-17716D02*
X12880Y-17816D01*
X12680D01*
X12581Y-17716D01*
Y-17316D01*
X12680Y-17216D01*
X12880D01*
X12980Y-17316D01*
X13580Y-17216D02*
X13180D01*
X13580Y-17616D01*
Y-17716D01*
X13480Y-17816D01*
X13280D01*
X13180Y-17716D01*
X13780Y-17116D02*
X14180D01*
X14380Y-17216D02*
Y-17816D01*
X14780Y-17216D01*
Y-17816D01*
X14980Y-17216D02*
X15180D01*
X15080D01*
Y-17816D01*
X14980Y-17716D01*
X15480D02*
X15580Y-17816D01*
X15779D01*
X15879Y-17716D01*
Y-17316D01*
X15779Y-17216D01*
X15580D01*
X15480Y-17316D01*
Y-17716D01*
X22833D02*
X22733Y-17816D01*
X22533D01*
X22433Y-17716D01*
Y-17316D01*
X22533Y-17216D01*
X22733D01*
X22833Y-17316D01*
X23433Y-17216D02*
X23033D01*
X23433Y-17616D01*
Y-17716D01*
X23333Y-17816D01*
X23133D01*
X23033Y-17716D01*
X23632Y-17116D02*
X24032D01*
X24232Y-17216D02*
Y-17816D01*
X24632Y-17216D01*
Y-17816D01*
X24832Y-17216D02*
X25032D01*
X24932D01*
Y-17816D01*
X24832Y-17716D01*
X25332Y-17216D02*
X25532D01*
X25432D01*
Y-17816D01*
X25332Y-17716D01*
X32685D02*
X32585Y-17816D01*
X32385D01*
X32285Y-17716D01*
Y-17316D01*
X32385Y-17216D01*
X32585D01*
X32685Y-17316D01*
X33285Y-17216D02*
X32885D01*
X33285Y-17616D01*
Y-17716D01*
X33185Y-17816D01*
X32985D01*
X32885Y-17716D01*
X33485Y-17116D02*
X33885D01*
X34085Y-17216D02*
Y-17816D01*
X34485Y-17216D01*
Y-17816D01*
X34684Y-17216D02*
X34884D01*
X34784D01*
Y-17816D01*
X34684Y-17716D01*
X35584Y-17216D02*
X35184D01*
X35584Y-17616D01*
Y-17716D01*
X35484Y-17816D01*
X35284D01*
X35184Y-17716D01*
X42537D02*
X42437Y-17816D01*
X42238D01*
X42138Y-17716D01*
Y-17316D01*
X42238Y-17216D01*
X42437D01*
X42537Y-17316D01*
X43137Y-17216D02*
X42737D01*
X43137Y-17616D01*
Y-17716D01*
X43037Y-17816D01*
X42837D01*
X42737Y-17716D01*
X43337Y-17116D02*
X43737D01*
X43937Y-17216D02*
Y-17816D01*
X44337Y-17216D01*
Y-17816D01*
X44537Y-17216D02*
X44737D01*
X44637D01*
Y-17816D01*
X44537Y-17716D01*
X45037D02*
X45137Y-17816D01*
X45337D01*
X45437Y-17716D01*
Y-17616D01*
X45337Y-17516D01*
X45237D01*
X45337D01*
X45437Y-17416D01*
Y-17316D01*
X45337Y-17216D01*
X45137D01*
X45037Y-17316D01*
X52390Y-17716D02*
X52290Y-17816D01*
X52090D01*
X51990Y-17716D01*
Y-17316D01*
X52090Y-17216D01*
X52290D01*
X52390Y-17316D01*
X52990Y-17216D02*
X52590D01*
X52990Y-17616D01*
Y-17716D01*
X52890Y-17816D01*
X52690D01*
X52590Y-17716D01*
X53190Y-17116D02*
X53589D01*
X53789Y-17216D02*
Y-17816D01*
X54189Y-17216D01*
Y-17816D01*
X54389Y-17216D02*
X54589D01*
X54489D01*
Y-17816D01*
X54389Y-17716D01*
X55189Y-17216D02*
Y-17816D01*
X54889Y-17516D01*
X55289D01*
X62242Y-17716D02*
X62142Y-17816D01*
X61942D01*
X61842Y-17716D01*
Y-17316D01*
X61942Y-17216D01*
X62142D01*
X62242Y-17316D01*
X62842Y-17216D02*
X62442D01*
X62842Y-17616D01*
Y-17716D01*
X62742Y-17816D01*
X62542D01*
X62442Y-17716D01*
X63042Y-17116D02*
X63442D01*
X63642Y-17216D02*
Y-17816D01*
X64042Y-17216D01*
Y-17816D01*
X64242Y-17216D02*
X64441D01*
X64342D01*
Y-17816D01*
X64242Y-17716D01*
X65141Y-17816D02*
X64741D01*
Y-17516D01*
X64941Y-17616D01*
X65041D01*
X65141Y-17516D01*
Y-17316D01*
X65041Y-17216D01*
X64841D01*
X64741Y-17316D01*
X72095Y-17716D02*
X71995Y-17816D01*
X71795D01*
X71695Y-17716D01*
Y-17316D01*
X71795Y-17216D01*
X71995D01*
X72095Y-17316D01*
X72694Y-17216D02*
X72294D01*
X72694Y-17616D01*
Y-17716D01*
X72594Y-17816D01*
X72394D01*
X72294Y-17716D01*
X72894Y-17116D02*
X73294D01*
X73494Y-17216D02*
Y-17816D01*
X73894Y-17216D01*
Y-17816D01*
X74094Y-17216D02*
X74294D01*
X74194D01*
Y-17816D01*
X74094Y-17716D01*
X74994Y-17816D02*
X74794Y-17716D01*
X74594Y-17516D01*
Y-17316D01*
X74694Y-17216D01*
X74894D01*
X74994Y-17316D01*
Y-17416D01*
X74894Y-17516D01*
X74594D01*
X88917Y-15106D02*
X88817Y-15206D01*
X88617D01*
X88517Y-15106D01*
Y-14706D01*
X88617Y-14606D01*
X88817D01*
X88917Y-14706D01*
X89517Y-14606D02*
X89117D01*
X89517Y-15006D01*
Y-15106D01*
X89417Y-15206D01*
X89217D01*
X89117Y-15106D01*
X89716D02*
X89816Y-15206D01*
X90016D01*
X90116Y-15106D01*
Y-15006D01*
X90016Y-14906D01*
X89916D01*
X90016D01*
X90116Y-14806D01*
Y-14706D01*
X90016Y-14606D01*
X89816D01*
X89716Y-14706D01*
X90316Y-14506D02*
X90716D01*
X91316Y-15206D02*
X90916D01*
Y-14606D01*
X91316D01*
X90916Y-14906D02*
X91116D01*
X91516Y-15206D02*
X91916Y-14606D01*
Y-15206D02*
X91516Y-14606D01*
X92116D02*
Y-15206D01*
X92416D01*
X92516Y-15106D01*
Y-14906D01*
X92416Y-14806D01*
X92116D01*
X92716Y-14506D02*
X93115D01*
X93315Y-15206D02*
Y-14606D01*
X93615D01*
X93715Y-14706D01*
Y-14806D01*
X93615Y-14906D01*
X93315D01*
X93615D01*
X93715Y-15006D01*
Y-15106D01*
X93615Y-15206D01*
X93315D01*
X93915D02*
X94315D01*
X94115D01*
Y-14606D01*
X94515D02*
Y-15206D01*
X94915Y-14606D01*
Y-15206D01*
X95115Y-14606D02*
X95315D01*
X95215D01*
Y-15206D01*
X95115Y-15106D01*
X98675Y-26419D02*
X98775Y-26319D01*
X98975D01*
X99075Y-26419D01*
Y-26819D01*
X98975Y-26919D01*
X98775D01*
X98675Y-26819D01*
X98075Y-26919D02*
X98475D01*
X98075Y-26519D01*
Y-26419D01*
X98175Y-26319D01*
X98375D01*
X98475Y-26419D01*
X97875D02*
X97775Y-26319D01*
X97575D01*
X97475Y-26419D01*
Y-26519D01*
X97575Y-26619D01*
X97675D01*
X97575D01*
X97475Y-26719D01*
Y-26819D01*
X97575Y-26919D01*
X97775D01*
X97875Y-26819D01*
X97275Y-27019D02*
X96876D01*
X96276Y-26319D02*
X96676D01*
Y-26919D01*
X96276D01*
X96676Y-26619D02*
X96476D01*
X96076Y-26319D02*
X95676Y-26919D01*
Y-26319D02*
X96076Y-26919D01*
X95476D02*
Y-26319D01*
X95176D01*
X95076Y-26419D01*
Y-26619D01*
X95176Y-26719D01*
X95476D01*
X94876Y-27019D02*
X94476D01*
X94276Y-26319D02*
Y-26919D01*
X93976D01*
X93876Y-26819D01*
Y-26719D01*
X93976Y-26619D01*
X94276D01*
X93976D01*
X93876Y-26519D01*
Y-26419D01*
X93976Y-26319D01*
X94276D01*
X93677D02*
X93277D01*
X93477D01*
Y-26919D01*
X93077D02*
Y-26319D01*
X92677Y-26919D01*
Y-26319D01*
X92077Y-26919D02*
X92477D01*
X92077Y-26519D01*
Y-26419D01*
X92177Y-26319D01*
X92377D01*
X92477Y-26419D01*
X89025Y-17155D02*
X88625D01*
Y-16555D01*
X89025D01*
X88625Y-16855D02*
X88825D01*
X89225Y-17155D02*
X89625Y-16555D01*
Y-17155D02*
X89225Y-16555D01*
X89825D02*
Y-17155D01*
X90125D01*
X90225Y-17055D01*
Y-16855D01*
X90125Y-16755D01*
X89825D01*
X90425Y-16555D02*
X90624D01*
X90525D01*
Y-17155D01*
X90425Y-17055D01*
X90924Y-16455D02*
X91324D01*
X91924Y-17155D02*
X91524D01*
Y-16555D01*
X91924D01*
X91524Y-16855D02*
X91724D01*
X92124Y-17155D02*
X92524Y-16555D01*
Y-17155D02*
X92124Y-16555D01*
X92724D02*
Y-17155D01*
X93024D01*
X93124Y-17055D01*
Y-16855D01*
X93024Y-16755D01*
X92724D01*
X93324Y-16455D02*
X93723D01*
X93923Y-17155D02*
Y-16555D01*
X94223D01*
X94323Y-16655D01*
Y-16755D01*
X94223Y-16855D01*
X93923D01*
X94223D01*
X94323Y-16955D01*
Y-17055D01*
X94223Y-17155D01*
X93923D01*
X94523D02*
X94923D01*
X94723D01*
Y-16555D01*
X95123D02*
Y-17155D01*
X95523Y-16555D01*
Y-17155D01*
X95723Y-16555D02*
X95923D01*
X95823D01*
Y-17155D01*
X95723Y-17055D01*
X98567Y-24371D02*
X98967D01*
Y-24970D01*
X98567D01*
X98967Y-24671D02*
X98767D01*
X98367Y-24371D02*
X97967Y-24970D01*
Y-24371D02*
X98367Y-24970D01*
X97767D02*
Y-24371D01*
X97467D01*
X97367Y-24471D01*
Y-24671D01*
X97467Y-24771D01*
X97767D01*
X97167Y-24970D02*
X96967D01*
X97067D01*
Y-24371D01*
X97167Y-24471D01*
X96667Y-25070D02*
X96267D01*
X95668Y-24371D02*
X96067D01*
Y-24970D01*
X95668D01*
X96067Y-24671D02*
X95868D01*
X95468Y-24371D02*
X95068Y-24970D01*
Y-24371D02*
X95468Y-24970D01*
X94868D02*
Y-24371D01*
X94568D01*
X94468Y-24471D01*
Y-24671D01*
X94568Y-24771D01*
X94868D01*
X94268Y-25070D02*
X93868D01*
X93668Y-24371D02*
Y-24970D01*
X93368D01*
X93268Y-24871D01*
Y-24771D01*
X93368Y-24671D01*
X93668D01*
X93368D01*
X93268Y-24571D01*
Y-24471D01*
X93368Y-24371D01*
X93668D01*
X93068D02*
X92669D01*
X92869D01*
Y-24970D01*
X92469D02*
Y-24371D01*
X92069Y-24970D01*
Y-24371D01*
X91469Y-24970D02*
X91869D01*
X91469Y-24571D01*
Y-24471D01*
X91569Y-24371D01*
X91769D01*
X91869Y-24471D01*
X102538Y-2434D02*
X101938D01*
Y-2734D01*
X102038Y-2834D01*
X102238D01*
X102338Y-2734D01*
Y-2434D01*
Y-2634D02*
X102538Y-2834D01*
Y-3034D02*
Y-3234D01*
Y-3134D01*
X101938D01*
X102038Y-3034D01*
X102638Y-3534D02*
Y-3934D01*
X102538Y-4134D02*
X102138D01*
X101938Y-4334D01*
X102138Y-4534D01*
X102538D01*
X102238D01*
Y-4134D01*
X102538Y-4734D02*
Y-4934D01*
Y-4834D01*
X101938D01*
X102038Y-4734D01*
X102548Y-10358D02*
X101948D01*
Y-10658D01*
X102048Y-10758D01*
X102248D01*
X102348Y-10658D01*
Y-10358D01*
Y-10558D02*
X102548Y-10758D01*
Y-10958D02*
Y-11158D01*
Y-11058D01*
X101948D01*
X102048Y-10958D01*
X102648Y-11457D02*
Y-11857D01*
X102548Y-12057D02*
X102148D01*
X101948Y-12257D01*
X102148Y-12457D01*
X102548D01*
X102248D01*
Y-12057D01*
X102548Y-13057D02*
Y-12657D01*
X102148Y-13057D01*
X102048D01*
X101948Y-12957D01*
Y-12757D01*
X102048Y-12657D01*
X102430Y-18481D02*
X101830D01*
Y-18781D01*
X101930Y-18881D01*
X102130D01*
X102230Y-18781D01*
Y-18481D01*
Y-18681D02*
X102430Y-18881D01*
Y-19081D02*
Y-19281D01*
Y-19181D01*
X101830D01*
X101930Y-19081D01*
X102530Y-19581D02*
Y-19981D01*
X102430Y-20181D02*
X102030D01*
X101830Y-20381D01*
X102030Y-20581D01*
X102430D01*
X102130D01*
Y-20181D01*
X101930Y-20780D02*
X101830Y-20880D01*
Y-21080D01*
X101930Y-21180D01*
X102030D01*
X102130Y-21080D01*
Y-20980D01*
Y-21080D01*
X102230Y-21180D01*
X102330D01*
X102430Y-21080D01*
Y-20880D01*
X102330Y-20780D01*
X102469Y-26605D02*
X101869D01*
Y-26904D01*
X101969Y-27004D01*
X102169D01*
X102269Y-26904D01*
Y-26605D01*
Y-26804D02*
X102469Y-27004D01*
Y-27204D02*
Y-27404D01*
Y-27304D01*
X101869D01*
X101969Y-27204D01*
X102569Y-27704D02*
Y-28104D01*
X102469Y-28304D02*
X102069D01*
X101869Y-28504D01*
X102069Y-28704D01*
X102469D01*
X102169D01*
Y-28304D01*
X102469Y-29204D02*
X101869D01*
X102169Y-28904D01*
Y-29304D01*
X117156Y-16332D02*
X117756D01*
Y-16033D01*
X117656Y-15933D01*
X117456D01*
X117356Y-16033D01*
Y-16332D01*
Y-16133D02*
X117156Y-15933D01*
Y-15733D02*
Y-15533D01*
Y-15633D01*
X117756D01*
X117656Y-15733D01*
X117056Y-15233D02*
Y-14833D01*
X117156Y-14633D02*
X117556D01*
X117756Y-14433D01*
X117556Y-14233D01*
X117156D01*
X117456D01*
Y-14633D01*
X117756Y-13633D02*
Y-14033D01*
X117456D01*
X117556Y-13833D01*
Y-13733D01*
X117456Y-13633D01*
X117256D01*
X117156Y-13733D01*
Y-13933D01*
X117256Y-14033D01*
X117156Y-24619D02*
X117756D01*
Y-24319D01*
X117656Y-24219D01*
X117456D01*
X117356Y-24319D01*
Y-24619D01*
Y-24419D02*
X117156Y-24219D01*
Y-24019D02*
Y-23819D01*
Y-23919D01*
X117756D01*
X117656Y-24019D01*
X117056Y-23519D02*
Y-23119D01*
X117156Y-22919D02*
X117556D01*
X117756Y-22719D01*
X117556Y-22519D01*
X117156D01*
X117456D01*
Y-22919D01*
X117756Y-21919D02*
X117656Y-22119D01*
X117456Y-22319D01*
X117256D01*
X117156Y-22219D01*
Y-22019D01*
X117256Y-21919D01*
X117356D01*
X117456Y-22019D01*
Y-22319D01*
X117156Y-32905D02*
X117756D01*
Y-32605D01*
X117656Y-32505D01*
X117456D01*
X117356Y-32605D01*
Y-32905D01*
Y-32705D02*
X117156Y-32505D01*
Y-32305D02*
Y-32105D01*
Y-32205D01*
X117756D01*
X117656Y-32305D01*
X117056Y-31805D02*
Y-31405D01*
X117156Y-31205D02*
X117556D01*
X117756Y-31005D01*
X117556Y-30805D01*
X117156D01*
X117456D01*
Y-31205D01*
X117756Y-30605D02*
Y-30206D01*
X117656D01*
X117256Y-30605D01*
X117156D01*
X117156Y-41191D02*
X117756D01*
Y-40891D01*
X117656Y-40791D01*
X117456D01*
X117356Y-40891D01*
Y-41191D01*
Y-40991D02*
X117156Y-40791D01*
Y-40591D02*
Y-40391D01*
Y-40491D01*
X117756D01*
X117656Y-40591D01*
X117056Y-40091D02*
Y-39691D01*
X117156Y-39491D02*
X117556D01*
X117756Y-39291D01*
X117556Y-39091D01*
X117156D01*
X117456D01*
Y-39491D01*
X117656Y-38891D02*
X117756Y-38791D01*
Y-38592D01*
X117656Y-38492D01*
X117556D01*
X117456Y-38592D01*
X117356Y-38492D01*
X117256D01*
X117156Y-38592D01*
Y-38791D01*
X117256Y-38891D01*
X117356D01*
X117456Y-38791D01*
X117556Y-38891D01*
X117656D01*
X117456Y-38791D02*
Y-38592D01*
X5896Y-9460D02*
Y-10060D01*
X6196D01*
X6296Y-9960D01*
Y-9760D01*
X6196Y-9660D01*
X5896D01*
X6096D02*
X6296Y-9460D01*
X6496D02*
X6696D01*
X6596D01*
Y-10060D01*
X6496Y-9960D01*
X6996Y-9360D02*
X7395D01*
X7595Y-9460D02*
Y-10060D01*
X7995Y-9460D01*
Y-10060D01*
X8195Y-9460D02*
X8395D01*
X8295D01*
Y-10060D01*
X8195Y-9960D01*
X15738Y-9460D02*
Y-10060D01*
X16038D01*
X16138Y-9960D01*
Y-9760D01*
X16038Y-9660D01*
X15738D01*
X15938D02*
X16138Y-9460D01*
X16338D02*
X16538D01*
X16438D01*
Y-10060D01*
X16338Y-9960D01*
X16838Y-9360D02*
X17238D01*
X17438Y-9460D02*
Y-10060D01*
X17838Y-9460D01*
Y-10060D01*
X18438Y-9460D02*
X18038D01*
X18438Y-9860D01*
Y-9960D01*
X18338Y-10060D01*
X18138D01*
X18038Y-9960D01*
X25581Y-9460D02*
Y-10060D01*
X25881D01*
X25981Y-9960D01*
Y-9760D01*
X25881Y-9660D01*
X25581D01*
X25781D02*
X25981Y-9460D01*
X26181D02*
X26381D01*
X26281D01*
Y-10060D01*
X26181Y-9960D01*
X26681Y-9360D02*
X27080D01*
X27280Y-9460D02*
Y-10060D01*
X27680Y-9460D01*
Y-10060D01*
X27880Y-9960D02*
X27980Y-10060D01*
X28180D01*
X28280Y-9960D01*
Y-9860D01*
X28180Y-9760D01*
X28080D01*
X28180D01*
X28280Y-9660D01*
Y-9560D01*
X28180Y-9460D01*
X27980D01*
X27880Y-9560D01*
X35423Y-9460D02*
Y-10060D01*
X35723D01*
X35823Y-9960D01*
Y-9760D01*
X35723Y-9660D01*
X35423D01*
X35623D02*
X35823Y-9460D01*
X36023D02*
X36223D01*
X36123D01*
Y-10060D01*
X36023Y-9960D01*
X36523Y-9360D02*
X36923D01*
X37123Y-9460D02*
Y-10060D01*
X37523Y-9460D01*
Y-10060D01*
X38023Y-9460D02*
Y-10060D01*
X37723Y-9760D01*
X38123D01*
X45266Y-9460D02*
Y-10060D01*
X45566D01*
X45666Y-9960D01*
Y-9760D01*
X45566Y-9660D01*
X45266D01*
X45466D02*
X45666Y-9460D01*
X45866D02*
X46066D01*
X45966D01*
Y-10060D01*
X45866Y-9960D01*
X46366Y-9360D02*
X46765D01*
X46965Y-9460D02*
Y-10060D01*
X47365Y-9460D01*
Y-10060D01*
X47965D02*
X47565D01*
Y-9760D01*
X47765Y-9860D01*
X47865D01*
X47965Y-9760D01*
Y-9560D01*
X47865Y-9460D01*
X47665D01*
X47565Y-9560D01*
X55108Y-9460D02*
Y-10060D01*
X55408D01*
X55508Y-9960D01*
Y-9760D01*
X55408Y-9660D01*
X55108D01*
X55308D02*
X55508Y-9460D01*
X55708D02*
X55908D01*
X55808D01*
Y-10060D01*
X55708Y-9960D01*
X56208Y-9360D02*
X56608D01*
X56808Y-9460D02*
Y-10060D01*
X57208Y-9460D01*
Y-10060D01*
X57808D02*
X57608Y-9960D01*
X57408Y-9760D01*
Y-9560D01*
X57508Y-9460D01*
X57708D01*
X57808Y-9560D01*
Y-9660D01*
X57708Y-9760D01*
X57408D01*
X64951Y-9460D02*
Y-10060D01*
X65251D01*
X65351Y-9960D01*
Y-9760D01*
X65251Y-9660D01*
X64951D01*
X65151D02*
X65351Y-9460D01*
X65551D02*
X65751D01*
X65651D01*
Y-10060D01*
X65551Y-9960D01*
X66051Y-9360D02*
X66451D01*
X66650Y-9460D02*
Y-10060D01*
X67050Y-9460D01*
Y-10060D01*
X67250D02*
X67650D01*
Y-9960D01*
X67250Y-9560D01*
Y-9460D01*
X74862Y-9460D02*
Y-10060D01*
X75162D01*
X75262Y-9960D01*
Y-9760D01*
X75162Y-9660D01*
X74862D01*
X75062D02*
X75262Y-9460D01*
X75462D02*
X75662D01*
X75562D01*
Y-10060D01*
X75462Y-9960D01*
X75962Y-9360D02*
X76362D01*
X76562Y-9460D02*
Y-10060D01*
X76962Y-9460D01*
Y-10060D01*
X77162Y-9960D02*
X77262Y-10060D01*
X77462D01*
X77562Y-9960D01*
Y-9860D01*
X77462Y-9760D01*
X77562Y-9660D01*
Y-9560D01*
X77462Y-9460D01*
X77262D01*
X77162Y-9560D01*
Y-9660D01*
X77262Y-9760D01*
X77162Y-9860D01*
Y-9960D01*
X77262Y-9760D02*
X77462D01*
X5896Y-19303D02*
Y-19903D01*
X6196D01*
X6296Y-19803D01*
Y-19603D01*
X6196Y-19503D01*
X5896D01*
X6096D02*
X6296Y-19303D01*
X6496D02*
X6696D01*
X6596D01*
Y-19903D01*
X6496Y-19803D01*
X6996Y-19203D02*
X7395D01*
X7595Y-19303D02*
Y-19903D01*
X7995Y-19303D01*
Y-19903D01*
X8195Y-19403D02*
X8295Y-19303D01*
X8495D01*
X8595Y-19403D01*
Y-19803D01*
X8495Y-19903D01*
X8295D01*
X8195Y-19803D01*
Y-19703D01*
X8295Y-19603D01*
X8595D01*
X15748Y-19303D02*
Y-19903D01*
X16048D01*
X16148Y-19803D01*
Y-19603D01*
X16048Y-19503D01*
X15748D01*
X15948D02*
X16148Y-19303D01*
X16348D02*
X16548D01*
X16448D01*
Y-19903D01*
X16348Y-19803D01*
X16848Y-19203D02*
X17248D01*
X17448Y-19303D02*
Y-19903D01*
X17848Y-19303D01*
Y-19903D01*
X18048Y-19303D02*
X18247D01*
X18147D01*
Y-19903D01*
X18048Y-19803D01*
X18547D02*
X18647Y-19903D01*
X18847D01*
X18947Y-19803D01*
Y-19403D01*
X18847Y-19303D01*
X18647D01*
X18547Y-19403D01*
Y-19803D01*
X25601Y-19303D02*
Y-19903D01*
X25901D01*
X26000Y-19803D01*
Y-19603D01*
X25901Y-19503D01*
X25601D01*
X25801D02*
X26000Y-19303D01*
X26200D02*
X26400D01*
X26300D01*
Y-19903D01*
X26200Y-19803D01*
X26700Y-19203D02*
X27100D01*
X27300Y-19303D02*
Y-19903D01*
X27700Y-19303D01*
Y-19903D01*
X27900Y-19303D02*
X28100D01*
X28000D01*
Y-19903D01*
X27900Y-19803D01*
X28400Y-19303D02*
X28600D01*
X28500D01*
Y-19903D01*
X28400Y-19803D01*
X35453Y-19303D02*
Y-19903D01*
X35753D01*
X35853Y-19803D01*
Y-19603D01*
X35753Y-19503D01*
X35453D01*
X35653D02*
X35853Y-19303D01*
X36053D02*
X36253D01*
X36153D01*
Y-19903D01*
X36053Y-19803D01*
X36553Y-19203D02*
X36952D01*
X37152Y-19303D02*
Y-19903D01*
X37552Y-19303D01*
Y-19903D01*
X37752Y-19303D02*
X37952D01*
X37852D01*
Y-19903D01*
X37752Y-19803D01*
X38652Y-19303D02*
X38252D01*
X38652Y-19703D01*
Y-19803D01*
X38552Y-19903D01*
X38352D01*
X38252Y-19803D01*
X45305Y-19303D02*
Y-19903D01*
X45605D01*
X45705Y-19803D01*
Y-19603D01*
X45605Y-19503D01*
X45305D01*
X45505D02*
X45705Y-19303D01*
X45905D02*
X46105D01*
X46005D01*
Y-19903D01*
X45905Y-19803D01*
X46405Y-19203D02*
X46805D01*
X47005Y-19303D02*
Y-19903D01*
X47405Y-19303D01*
Y-19903D01*
X47605Y-19303D02*
X47805D01*
X47705D01*
Y-19903D01*
X47605Y-19803D01*
X48104D02*
X48204Y-19903D01*
X48404D01*
X48504Y-19803D01*
Y-19703D01*
X48404Y-19603D01*
X48304D01*
X48404D01*
X48504Y-19503D01*
Y-19403D01*
X48404Y-19303D01*
X48204D01*
X48104Y-19403D01*
X55158Y-19303D02*
Y-19903D01*
X55458D01*
X55558Y-19803D01*
Y-19603D01*
X55458Y-19503D01*
X55158D01*
X55358D02*
X55558Y-19303D01*
X55758D02*
X55957D01*
X55857D01*
Y-19903D01*
X55758Y-19803D01*
X56257Y-19203D02*
X56657D01*
X56857Y-19303D02*
Y-19903D01*
X57257Y-19303D01*
Y-19903D01*
X57457Y-19303D02*
X57657D01*
X57557D01*
Y-19903D01*
X57457Y-19803D01*
X58257Y-19303D02*
Y-19903D01*
X57957Y-19603D01*
X58357D01*
X65010Y-19303D02*
Y-19903D01*
X65310D01*
X65410Y-19803D01*
Y-19603D01*
X65310Y-19503D01*
X65010D01*
X65210D02*
X65410Y-19303D01*
X65610D02*
X65810D01*
X65710D01*
Y-19903D01*
X65610Y-19803D01*
X66110Y-19203D02*
X66510D01*
X66710Y-19303D02*
Y-19903D01*
X67109Y-19303D01*
Y-19903D01*
X67309Y-19303D02*
X67509D01*
X67409D01*
Y-19903D01*
X67309Y-19803D01*
X68209Y-19903D02*
X67809D01*
Y-19603D01*
X68009Y-19703D01*
X68109D01*
X68209Y-19603D01*
Y-19403D01*
X68109Y-19303D01*
X67909D01*
X67809Y-19403D01*
X74862Y-19303D02*
Y-19903D01*
X75162D01*
X75262Y-19803D01*
Y-19603D01*
X75162Y-19503D01*
X74862D01*
X75062D02*
X75262Y-19303D01*
X75462D02*
X75662D01*
X75562D01*
Y-19903D01*
X75462Y-19803D01*
X75962Y-19203D02*
X76362D01*
X76562Y-19303D02*
Y-19903D01*
X76962Y-19303D01*
Y-19903D01*
X77162Y-19303D02*
X77362D01*
X77262D01*
Y-19903D01*
X77162Y-19803D01*
X78061Y-19903D02*
X77861Y-19803D01*
X77662Y-19603D01*
Y-19403D01*
X77761Y-19303D01*
X77961D01*
X78061Y-19403D01*
Y-19503D01*
X77961Y-19603D01*
X77662D01*
X106396Y-4464D02*
X105796D01*
Y-4763D01*
X105896Y-4863D01*
X106096D01*
X106196Y-4763D01*
Y-4464D01*
Y-4663D02*
X106396Y-4863D01*
Y-5463D02*
Y-5063D01*
X105996Y-5463D01*
X105896D01*
X105796Y-5363D01*
Y-5163D01*
X105896Y-5063D01*
X106496Y-5663D02*
Y-6063D01*
X106396Y-6263D02*
X105996D01*
X105796Y-6463D01*
X105996Y-6663D01*
X106396D01*
X106096D01*
Y-6263D01*
X106396Y-6863D02*
Y-7063D01*
Y-6963D01*
X105796D01*
X105896Y-6863D01*
X106406Y-12387D02*
X105806D01*
Y-12687D01*
X105906Y-12787D01*
X106106D01*
X106206Y-12687D01*
Y-12387D01*
Y-12587D02*
X106406Y-12787D01*
Y-13387D02*
Y-12987D01*
X106006Y-13387D01*
X105906D01*
X105806Y-13287D01*
Y-13087D01*
X105906Y-12987D01*
X106506Y-13587D02*
Y-13986D01*
X106406Y-14186D02*
X106006D01*
X105806Y-14386D01*
X106006Y-14586D01*
X106406D01*
X106106D01*
Y-14186D01*
X106406Y-15186D02*
Y-14786D01*
X106006Y-15186D01*
X105906D01*
X105806Y-15086D01*
Y-14886D01*
X105906Y-14786D01*
X106288Y-20510D02*
X105688D01*
Y-20810D01*
X105788Y-20910D01*
X105988D01*
X106088Y-20810D01*
Y-20510D01*
Y-20710D02*
X106288Y-20910D01*
Y-21510D02*
Y-21110D01*
X105888Y-21510D01*
X105788D01*
X105688Y-21410D01*
Y-21210D01*
X105788Y-21110D01*
X106388Y-21710D02*
Y-22110D01*
X106288Y-22310D02*
X105888D01*
X105688Y-22510D01*
X105888Y-22710D01*
X106288D01*
X105988D01*
Y-22310D01*
X105788Y-22910D02*
X105688Y-23009D01*
Y-23209D01*
X105788Y-23309D01*
X105888D01*
X105988Y-23209D01*
Y-23109D01*
Y-23209D01*
X106088Y-23309D01*
X106188D01*
X106288Y-23209D01*
Y-23009D01*
X106188Y-22910D01*
X106327Y-28634D02*
X105727D01*
Y-28934D01*
X105827Y-29034D01*
X106027D01*
X106127Y-28934D01*
Y-28634D01*
Y-28834D02*
X106327Y-29034D01*
Y-29633D02*
Y-29233D01*
X105927Y-29633D01*
X105827D01*
X105727Y-29533D01*
Y-29333D01*
X105827Y-29233D01*
X106427Y-29833D02*
Y-30233D01*
X106327Y-30433D02*
X105927D01*
X105727Y-30633D01*
X105927Y-30833D01*
X106327D01*
X106027D01*
Y-30433D01*
X106327Y-31333D02*
X105727D01*
X106027Y-31033D01*
Y-31433D01*
X113298Y-14303D02*
X113897D01*
Y-14003D01*
X113797Y-13903D01*
X113598D01*
X113498Y-14003D01*
Y-14303D01*
Y-14103D02*
X113298Y-13903D01*
Y-13304D02*
Y-13704D01*
X113697Y-13304D01*
X113797D01*
X113897Y-13404D01*
Y-13604D01*
X113797Y-13704D01*
X113198Y-13104D02*
Y-12704D01*
X113298Y-12504D02*
X113697D01*
X113897Y-12304D01*
X113697Y-12104D01*
X113298D01*
X113598D01*
Y-12504D01*
X113897Y-11504D02*
Y-11904D01*
X113598D01*
X113697Y-11704D01*
Y-11604D01*
X113598Y-11504D01*
X113398D01*
X113298Y-11604D01*
Y-11804D01*
X113398Y-11904D01*
X113298Y-22589D02*
X113897D01*
Y-22290D01*
X113797Y-22190D01*
X113598D01*
X113498Y-22290D01*
Y-22589D01*
Y-22390D02*
X113298Y-22190D01*
Y-21590D02*
Y-21990D01*
X113697Y-21590D01*
X113797D01*
X113897Y-21690D01*
Y-21890D01*
X113797Y-21990D01*
X113198Y-21390D02*
Y-20990D01*
X113298Y-20790D02*
X113697D01*
X113897Y-20590D01*
X113697Y-20390D01*
X113298D01*
X113598D01*
Y-20790D01*
X113897Y-19790D02*
X113797Y-19990D01*
X113598Y-20190D01*
X113398D01*
X113298Y-20090D01*
Y-19890D01*
X113398Y-19790D01*
X113498D01*
X113598Y-19890D01*
Y-20190D01*
X113298Y-30876D02*
X113897D01*
Y-30576D01*
X113797Y-30476D01*
X113598D01*
X113498Y-30576D01*
Y-30876D01*
Y-30676D02*
X113298Y-30476D01*
Y-29876D02*
Y-30276D01*
X113697Y-29876D01*
X113797D01*
X113897Y-29976D01*
Y-30176D01*
X113797Y-30276D01*
X113198Y-29676D02*
Y-29276D01*
X113298Y-29076D02*
X113697D01*
X113897Y-28876D01*
X113697Y-28676D01*
X113298D01*
X113598D01*
Y-29076D01*
X113897Y-28476D02*
Y-28076D01*
X113797D01*
X113398Y-28476D01*
X113298D01*
X113298Y-39162D02*
X113897D01*
Y-38862D01*
X113797Y-38762D01*
X113598D01*
X113498Y-38862D01*
Y-39162D01*
Y-38962D02*
X113298Y-38762D01*
Y-38162D02*
Y-38562D01*
X113697Y-38162D01*
X113797D01*
X113897Y-38262D01*
Y-38462D01*
X113797Y-38562D01*
X113198Y-37962D02*
Y-37562D01*
X113298Y-37362D02*
X113697D01*
X113897Y-37162D01*
X113697Y-36962D01*
X113298D01*
X113598D01*
Y-37362D01*
X113797Y-36762D02*
X113897Y-36662D01*
Y-36462D01*
X113797Y-36363D01*
X113697D01*
X113598Y-36462D01*
X113498Y-36363D01*
X113398D01*
X113298Y-36462D01*
Y-36662D01*
X113398Y-36762D01*
X113498D01*
X113598Y-36662D01*
X113697Y-36762D01*
X113797D01*
X113598Y-36662D02*
Y-36462D01*
X7925Y-5602D02*
Y-6202D01*
X8225D01*
X8325Y-6102D01*
Y-5902D01*
X8225Y-5802D01*
X7925D01*
X8125D02*
X8325Y-5602D01*
X8925D02*
X8525D01*
X8925Y-6002D01*
Y-6102D01*
X8825Y-6202D01*
X8625D01*
X8525Y-6102D01*
X9125Y-5502D02*
X9524D01*
X9724Y-5602D02*
Y-6202D01*
X10124Y-5602D01*
Y-6202D01*
X10324Y-5602D02*
X10524D01*
X10424D01*
Y-6202D01*
X10324Y-6102D01*
X17768Y-5602D02*
Y-6202D01*
X18067D01*
X18167Y-6102D01*
Y-5902D01*
X18067Y-5802D01*
X17768D01*
X17967D02*
X18167Y-5602D01*
X18767D02*
X18367D01*
X18767Y-6002D01*
Y-6102D01*
X18667Y-6202D01*
X18467D01*
X18367Y-6102D01*
X18967Y-5502D02*
X19367D01*
X19567Y-5602D02*
Y-6202D01*
X19967Y-5602D01*
Y-6202D01*
X20567Y-5602D02*
X20167D01*
X20567Y-6002D01*
Y-6102D01*
X20467Y-6202D01*
X20267D01*
X20167Y-6102D01*
X27610Y-5602D02*
Y-6202D01*
X27910D01*
X28010Y-6102D01*
Y-5902D01*
X27910Y-5802D01*
X27610D01*
X27810D02*
X28010Y-5602D01*
X28610D02*
X28210D01*
X28610Y-6002D01*
Y-6102D01*
X28510Y-6202D01*
X28310D01*
X28210Y-6102D01*
X28810Y-5502D02*
X29210D01*
X29409Y-5602D02*
Y-6202D01*
X29809Y-5602D01*
Y-6202D01*
X30009Y-6102D02*
X30109Y-6202D01*
X30309D01*
X30409Y-6102D01*
Y-6002D01*
X30309Y-5902D01*
X30209D01*
X30309D01*
X30409Y-5802D01*
Y-5702D01*
X30309Y-5602D01*
X30109D01*
X30009Y-5702D01*
X37453Y-5602D02*
Y-6202D01*
X37752D01*
X37852Y-6102D01*
Y-5902D01*
X37752Y-5802D01*
X37453D01*
X37652D02*
X37852Y-5602D01*
X38452D02*
X38052D01*
X38452Y-6002D01*
Y-6102D01*
X38352Y-6202D01*
X38152D01*
X38052Y-6102D01*
X38652Y-5502D02*
X39052D01*
X39252Y-5602D02*
Y-6202D01*
X39652Y-5602D01*
Y-6202D01*
X40152Y-5602D02*
Y-6202D01*
X39852Y-5902D01*
X40252D01*
X47295Y-5602D02*
Y-6202D01*
X47595D01*
X47695Y-6102D01*
Y-5902D01*
X47595Y-5802D01*
X47295D01*
X47495D02*
X47695Y-5602D01*
X48295D02*
X47895D01*
X48295Y-6002D01*
Y-6102D01*
X48195Y-6202D01*
X47995D01*
X47895Y-6102D01*
X48495Y-5502D02*
X48895D01*
X49094Y-5602D02*
Y-6202D01*
X49494Y-5602D01*
Y-6202D01*
X50094D02*
X49694D01*
Y-5902D01*
X49894Y-6002D01*
X49994D01*
X50094Y-5902D01*
Y-5702D01*
X49994Y-5602D01*
X49794D01*
X49694Y-5702D01*
X57138Y-5602D02*
Y-6202D01*
X57437D01*
X57537Y-6102D01*
Y-5902D01*
X57437Y-5802D01*
X57138D01*
X57338D02*
X57537Y-5602D01*
X58137D02*
X57737D01*
X58137Y-6002D01*
Y-6102D01*
X58037Y-6202D01*
X57837D01*
X57737Y-6102D01*
X58337Y-5502D02*
X58737D01*
X58937Y-5602D02*
Y-6202D01*
X59337Y-5602D01*
Y-6202D01*
X59937D02*
X59737Y-6102D01*
X59537Y-5902D01*
Y-5702D01*
X59637Y-5602D01*
X59837D01*
X59937Y-5702D01*
Y-5802D01*
X59837Y-5902D01*
X59537D01*
X66980Y-5602D02*
Y-6202D01*
X67280D01*
X67380Y-6102D01*
Y-5902D01*
X67280Y-5802D01*
X66980D01*
X67180D02*
X67380Y-5602D01*
X67980D02*
X67580D01*
X67980Y-6002D01*
Y-6102D01*
X67880Y-6202D01*
X67680D01*
X67580Y-6102D01*
X68180Y-5502D02*
X68580D01*
X68780Y-5602D02*
Y-6202D01*
X69179Y-5602D01*
Y-6202D01*
X69379D02*
X69779D01*
Y-6102D01*
X69379Y-5702D01*
Y-5602D01*
X76892Y-5602D02*
Y-6202D01*
X77191D01*
X77291Y-6102D01*
Y-5902D01*
X77191Y-5802D01*
X76892D01*
X77091D02*
X77291Y-5602D01*
X77891D02*
X77491D01*
X77891Y-6002D01*
Y-6102D01*
X77791Y-6202D01*
X77591D01*
X77491Y-6102D01*
X78091Y-5502D02*
X78491D01*
X78691Y-5602D02*
Y-6202D01*
X79091Y-5602D01*
Y-6202D01*
X79291Y-6102D02*
X79391Y-6202D01*
X79591D01*
X79691Y-6102D01*
Y-6002D01*
X79591Y-5902D01*
X79691Y-5802D01*
Y-5702D01*
X79591Y-5602D01*
X79391D01*
X79291Y-5702D01*
Y-5802D01*
X79391Y-5902D01*
X79291Y-6002D01*
Y-6102D01*
X79391Y-5902D02*
X79591D01*
X7925Y-15444D02*
Y-16044D01*
X8225D01*
X8325Y-15944D01*
Y-15744D01*
X8225Y-15644D01*
X7925D01*
X8125D02*
X8325Y-15444D01*
X8925D02*
X8525D01*
X8925Y-15844D01*
Y-15944D01*
X8825Y-16044D01*
X8625D01*
X8525Y-15944D01*
X9125Y-15344D02*
X9524D01*
X9724Y-15444D02*
Y-16044D01*
X10124Y-15444D01*
Y-16044D01*
X10324Y-15544D02*
X10424Y-15444D01*
X10624D01*
X10724Y-15544D01*
Y-15944D01*
X10624Y-16044D01*
X10424D01*
X10324Y-15944D01*
Y-15844D01*
X10424Y-15744D01*
X10724D01*
X17777Y-15444D02*
Y-16044D01*
X18077D01*
X18177Y-15944D01*
Y-15744D01*
X18077Y-15644D01*
X17777D01*
X17977D02*
X18177Y-15444D01*
X18777D02*
X18377D01*
X18777Y-15844D01*
Y-15944D01*
X18677Y-16044D01*
X18477D01*
X18377Y-15944D01*
X18977Y-15344D02*
X19377D01*
X19577Y-15444D02*
Y-16044D01*
X19977Y-15444D01*
Y-16044D01*
X20177Y-15444D02*
X20377D01*
X20277D01*
Y-16044D01*
X20177Y-15944D01*
X20676D02*
X20776Y-16044D01*
X20976D01*
X21076Y-15944D01*
Y-15544D01*
X20976Y-15444D01*
X20776D01*
X20676Y-15544D01*
Y-15944D01*
X27630Y-15444D02*
Y-16044D01*
X27930D01*
X28030Y-15944D01*
Y-15744D01*
X27930Y-15644D01*
X27630D01*
X27830D02*
X28030Y-15444D01*
X28629D02*
X28230D01*
X28629Y-15844D01*
Y-15944D01*
X28529Y-16044D01*
X28329D01*
X28230Y-15944D01*
X28829Y-15344D02*
X29229D01*
X29429Y-15444D02*
Y-16044D01*
X29829Y-15444D01*
Y-16044D01*
X30029Y-15444D02*
X30229D01*
X30129D01*
Y-16044D01*
X30029Y-15944D01*
X30529Y-15444D02*
X30729D01*
X30629D01*
Y-16044D01*
X30529Y-15944D01*
X37482Y-15444D02*
Y-16044D01*
X37782D01*
X37882Y-15944D01*
Y-15744D01*
X37782Y-15644D01*
X37482D01*
X37682D02*
X37882Y-15444D01*
X38482D02*
X38082D01*
X38482Y-15844D01*
Y-15944D01*
X38382Y-16044D01*
X38182D01*
X38082Y-15944D01*
X38682Y-15344D02*
X39082D01*
X39281Y-15444D02*
Y-16044D01*
X39681Y-15444D01*
Y-16044D01*
X39881Y-15444D02*
X40081D01*
X39981D01*
Y-16044D01*
X39881Y-15944D01*
X40781Y-15444D02*
X40381D01*
X40781Y-15844D01*
Y-15944D01*
X40681Y-16044D01*
X40481D01*
X40381Y-15944D01*
X47334Y-15444D02*
Y-16044D01*
X47634D01*
X47734Y-15944D01*
Y-15744D01*
X47634Y-15644D01*
X47334D01*
X47534D02*
X47734Y-15444D01*
X48334D02*
X47934D01*
X48334Y-15844D01*
Y-15944D01*
X48234Y-16044D01*
X48034D01*
X47934Y-15944D01*
X48534Y-15344D02*
X48934D01*
X49134Y-15444D02*
Y-16044D01*
X49534Y-15444D01*
Y-16044D01*
X49734Y-15444D02*
X49934D01*
X49834D01*
Y-16044D01*
X49734Y-15944D01*
X50233D02*
X50333Y-16044D01*
X50533D01*
X50633Y-15944D01*
Y-15844D01*
X50533Y-15744D01*
X50433D01*
X50533D01*
X50633Y-15644D01*
Y-15544D01*
X50533Y-15444D01*
X50333D01*
X50233Y-15544D01*
X57187Y-15444D02*
Y-16044D01*
X57487D01*
X57587Y-15944D01*
Y-15744D01*
X57487Y-15644D01*
X57187D01*
X57387D02*
X57587Y-15444D01*
X58186D02*
X57787D01*
X58186Y-15844D01*
Y-15944D01*
X58087Y-16044D01*
X57887D01*
X57787Y-15944D01*
X58386Y-15344D02*
X58786D01*
X58986Y-15444D02*
Y-16044D01*
X59386Y-15444D01*
Y-16044D01*
X59586Y-15444D02*
X59786D01*
X59686D01*
Y-16044D01*
X59586Y-15944D01*
X60386Y-15444D02*
Y-16044D01*
X60086Y-15744D01*
X60486D01*
X67039Y-15444D02*
Y-16044D01*
X67339D01*
X67439Y-15944D01*
Y-15744D01*
X67339Y-15644D01*
X67039D01*
X67239D02*
X67439Y-15444D01*
X68039D02*
X67639D01*
X68039Y-15844D01*
Y-15944D01*
X67939Y-16044D01*
X67739D01*
X67639Y-15944D01*
X68239Y-15344D02*
X68639D01*
X68839Y-15444D02*
Y-16044D01*
X69238Y-15444D01*
Y-16044D01*
X69438Y-15444D02*
X69638D01*
X69538D01*
Y-16044D01*
X69438Y-15944D01*
X70338Y-16044D02*
X69938D01*
Y-15744D01*
X70138Y-15844D01*
X70238D01*
X70338Y-15744D01*
Y-15544D01*
X70238Y-15444D01*
X70038D01*
X69938Y-15544D01*
X76892Y-15444D02*
Y-16044D01*
X77191D01*
X77291Y-15944D01*
Y-15744D01*
X77191Y-15644D01*
X76892D01*
X77091D02*
X77291Y-15444D01*
X77891D02*
X77491D01*
X77891Y-15844D01*
Y-15944D01*
X77791Y-16044D01*
X77591D01*
X77491Y-15944D01*
X78091Y-15344D02*
X78491D01*
X78691Y-15444D02*
Y-16044D01*
X79091Y-15444D01*
Y-16044D01*
X79291Y-15444D02*
X79491D01*
X79391D01*
Y-16044D01*
X79291Y-15944D01*
X80190Y-16044D02*
X79991Y-15944D01*
X79791Y-15744D01*
Y-15544D01*
X79891Y-15444D01*
X80090D01*
X80190Y-15544D01*
Y-15644D01*
X80090Y-15744D01*
X79791D01*
X106317Y-487D02*
X105718D01*
Y-787D01*
X105818Y-887D01*
X106017D01*
X106117Y-787D01*
Y-487D01*
Y-687D02*
X106317Y-887D01*
X105818Y-1087D02*
X105718Y-1187D01*
Y-1387D01*
X105818Y-1487D01*
X105917D01*
X106017Y-1387D01*
Y-1287D01*
Y-1387D01*
X106117Y-1487D01*
X106217D01*
X106317Y-1387D01*
Y-1187D01*
X106217Y-1087D01*
X106417Y-1687D02*
Y-2087D01*
X106317Y-2287D02*
X105917D01*
X105718Y-2486D01*
X105917Y-2686D01*
X106317D01*
X106017D01*
Y-2287D01*
X106317Y-2886D02*
Y-3086D01*
Y-2986D01*
X105718D01*
X105818Y-2886D01*
X106327Y-8411D02*
X105727D01*
Y-8710D01*
X105827Y-8810D01*
X106027D01*
X106127Y-8710D01*
Y-8411D01*
Y-8610D02*
X106327Y-8810D01*
X105827Y-9010D02*
X105727Y-9110D01*
Y-9310D01*
X105827Y-9410D01*
X105927D01*
X106027Y-9310D01*
Y-9210D01*
Y-9310D01*
X106127Y-9410D01*
X106227D01*
X106327Y-9310D01*
Y-9110D01*
X106227Y-9010D01*
X106427Y-9610D02*
Y-10010D01*
X106327Y-10210D02*
X105927D01*
X105727Y-10410D01*
X105927Y-10610D01*
X106327D01*
X106027D01*
Y-10210D01*
X106327Y-11210D02*
Y-10810D01*
X105927Y-11210D01*
X105827D01*
X105727Y-11110D01*
Y-10910D01*
X105827Y-10810D01*
X106209Y-16534D02*
X105609D01*
Y-16834D01*
X105709Y-16934D01*
X105909D01*
X106009Y-16834D01*
Y-16534D01*
Y-16734D02*
X106209Y-16934D01*
X105709Y-17134D02*
X105609Y-17234D01*
Y-17434D01*
X105709Y-17534D01*
X105809D01*
X105909Y-17434D01*
Y-17334D01*
Y-17434D01*
X106009Y-17534D01*
X106109D01*
X106209Y-17434D01*
Y-17234D01*
X106109Y-17134D01*
X106309Y-17734D02*
Y-18133D01*
X106209Y-18333D02*
X105809D01*
X105609Y-18533D01*
X105809Y-18733D01*
X106209D01*
X105909D01*
Y-18333D01*
X105709Y-18933D02*
X105609Y-19033D01*
Y-19233D01*
X105709Y-19333D01*
X105809D01*
X105909Y-19233D01*
Y-19133D01*
Y-19233D01*
X106009Y-19333D01*
X106109D01*
X106209Y-19233D01*
Y-19033D01*
X106109Y-18933D01*
X106248Y-24657D02*
X105649D01*
Y-24957D01*
X105749Y-25057D01*
X105949D01*
X106049Y-24957D01*
Y-24657D01*
Y-24857D02*
X106248Y-25057D01*
X105749Y-25257D02*
X105649Y-25357D01*
Y-25557D01*
X105749Y-25657D01*
X105849D01*
X105949Y-25557D01*
Y-25457D01*
Y-25557D01*
X106049Y-25657D01*
X106148D01*
X106248Y-25557D01*
Y-25357D01*
X106148Y-25257D01*
X106348Y-25857D02*
Y-26257D01*
X106248Y-26457D02*
X105849D01*
X105649Y-26657D01*
X105849Y-26857D01*
X106248D01*
X105949D01*
Y-26457D01*
X106248Y-27356D02*
X105649D01*
X105949Y-27057D01*
Y-27456D01*
X113376Y-18280D02*
X113976D01*
Y-17980D01*
X113876Y-17880D01*
X113676D01*
X113576Y-17980D01*
Y-18280D01*
Y-18080D02*
X113376Y-17880D01*
X113876Y-17680D02*
X113976Y-17580D01*
Y-17380D01*
X113876Y-17280D01*
X113776D01*
X113676Y-17380D01*
Y-17480D01*
Y-17380D01*
X113576Y-17280D01*
X113476D01*
X113376Y-17380D01*
Y-17580D01*
X113476Y-17680D01*
X113276Y-17080D02*
Y-16680D01*
X113376Y-16480D02*
X113776D01*
X113976Y-16280D01*
X113776Y-16080D01*
X113376D01*
X113676D01*
Y-16480D01*
X113976Y-15481D02*
Y-15881D01*
X113676D01*
X113776Y-15681D01*
Y-15581D01*
X113676Y-15481D01*
X113476D01*
X113376Y-15581D01*
Y-15781D01*
X113476Y-15881D01*
X113376Y-26566D02*
X113976D01*
Y-26266D01*
X113876Y-26166D01*
X113676D01*
X113576Y-26266D01*
Y-26566D01*
Y-26366D02*
X113376Y-26166D01*
X113876Y-25966D02*
X113976Y-25866D01*
Y-25666D01*
X113876Y-25566D01*
X113776D01*
X113676Y-25666D01*
Y-25766D01*
Y-25666D01*
X113576Y-25566D01*
X113476D01*
X113376Y-25666D01*
Y-25866D01*
X113476Y-25966D01*
X113276Y-25366D02*
Y-24966D01*
X113376Y-24766D02*
X113776D01*
X113976Y-24566D01*
X113776Y-24367D01*
X113376D01*
X113676D01*
Y-24766D01*
X113976Y-23767D02*
X113876Y-23967D01*
X113676Y-24167D01*
X113476D01*
X113376Y-24067D01*
Y-23867D01*
X113476Y-23767D01*
X113576D01*
X113676Y-23867D01*
Y-24167D01*
X113376Y-34852D02*
X113976D01*
Y-34552D01*
X113876Y-34452D01*
X113676D01*
X113576Y-34552D01*
Y-34852D01*
Y-34652D02*
X113376Y-34452D01*
X113876Y-34252D02*
X113976Y-34152D01*
Y-33952D01*
X113876Y-33852D01*
X113776D01*
X113676Y-33952D01*
Y-34052D01*
Y-33952D01*
X113576Y-33852D01*
X113476D01*
X113376Y-33952D01*
Y-34152D01*
X113476Y-34252D01*
X113276Y-33652D02*
Y-33252D01*
X113376Y-33052D02*
X113776D01*
X113976Y-32853D01*
X113776Y-32653D01*
X113376D01*
X113676D01*
Y-33052D01*
X113976Y-32453D02*
Y-32053D01*
X113876D01*
X113476Y-32453D01*
X113376D01*
X113376Y-43138D02*
X113976D01*
Y-42838D01*
X113876Y-42738D01*
X113676D01*
X113576Y-42838D01*
Y-43138D01*
Y-42938D02*
X113376Y-42738D01*
X113876Y-42538D02*
X113976Y-42438D01*
Y-42238D01*
X113876Y-42138D01*
X113776D01*
X113676Y-42238D01*
Y-42338D01*
Y-42238D01*
X113576Y-42138D01*
X113476D01*
X113376Y-42238D01*
Y-42438D01*
X113476Y-42538D01*
X113276Y-41938D02*
Y-41539D01*
X113376Y-41339D02*
X113776D01*
X113976Y-41139D01*
X113776Y-40939D01*
X113376D01*
X113676D01*
Y-41339D01*
X113876Y-40739D02*
X113976Y-40639D01*
Y-40439D01*
X113876Y-40339D01*
X113776D01*
X113676Y-40439D01*
X113576Y-40339D01*
X113476D01*
X113376Y-40439D01*
Y-40639D01*
X113476Y-40739D01*
X113576D01*
X113676Y-40639D01*
X113776Y-40739D01*
X113876D01*
X113676Y-40639D02*
Y-40439D01*
X3949Y-5681D02*
Y-6280D01*
X4249D01*
X4348Y-6181D01*
Y-5981D01*
X4249Y-5881D01*
X3949D01*
X4149D02*
X4348Y-5681D01*
X4548Y-6181D02*
X4648Y-6280D01*
X4848D01*
X4948Y-6181D01*
Y-6081D01*
X4848Y-5981D01*
X4748D01*
X4848D01*
X4948Y-5881D01*
Y-5781D01*
X4848Y-5681D01*
X4648D01*
X4548Y-5781D01*
X5148Y-5581D02*
X5548D01*
X5748Y-5681D02*
Y-6280D01*
X6148Y-5681D01*
Y-6280D01*
X6348Y-5681D02*
X6548D01*
X6448D01*
Y-6280D01*
X6348Y-6181D01*
X13791Y-5681D02*
Y-6280D01*
X14091D01*
X14191Y-6181D01*
Y-5981D01*
X14091Y-5881D01*
X13791D01*
X13991D02*
X14191Y-5681D01*
X14391Y-6181D02*
X14491Y-6280D01*
X14691D01*
X14791Y-6181D01*
Y-6081D01*
X14691Y-5981D01*
X14591D01*
X14691D01*
X14791Y-5881D01*
Y-5781D01*
X14691Y-5681D01*
X14491D01*
X14391Y-5781D01*
X14991Y-5581D02*
X15391D01*
X15591Y-5681D02*
Y-6280D01*
X15990Y-5681D01*
Y-6280D01*
X16590Y-5681D02*
X16190D01*
X16590Y-6081D01*
Y-6181D01*
X16490Y-6280D01*
X16290D01*
X16190Y-6181D01*
X23634Y-5681D02*
Y-6280D01*
X23934D01*
X24034Y-6181D01*
Y-5981D01*
X23934Y-5881D01*
X23634D01*
X23834D02*
X24034Y-5681D01*
X24233Y-6181D02*
X24333Y-6280D01*
X24533D01*
X24633Y-6181D01*
Y-6081D01*
X24533Y-5981D01*
X24433D01*
X24533D01*
X24633Y-5881D01*
Y-5781D01*
X24533Y-5681D01*
X24333D01*
X24233Y-5781D01*
X24833Y-5581D02*
X25233D01*
X25433Y-5681D02*
Y-6280D01*
X25833Y-5681D01*
Y-6280D01*
X26033Y-6181D02*
X26133Y-6280D01*
X26333D01*
X26433Y-6181D01*
Y-6081D01*
X26333Y-5981D01*
X26233D01*
X26333D01*
X26433Y-5881D01*
Y-5781D01*
X26333Y-5681D01*
X26133D01*
X26033Y-5781D01*
X33476Y-5681D02*
Y-6280D01*
X33776D01*
X33876Y-6181D01*
Y-5981D01*
X33776Y-5881D01*
X33476D01*
X33676D02*
X33876Y-5681D01*
X34076Y-6181D02*
X34176Y-6280D01*
X34376D01*
X34476Y-6181D01*
Y-6081D01*
X34376Y-5981D01*
X34276D01*
X34376D01*
X34476Y-5881D01*
Y-5781D01*
X34376Y-5681D01*
X34176D01*
X34076Y-5781D01*
X34676Y-5581D02*
X35076D01*
X35276Y-5681D02*
Y-6280D01*
X35675Y-5681D01*
Y-6280D01*
X36175Y-5681D02*
Y-6280D01*
X35875Y-5981D01*
X36275D01*
X43319Y-5681D02*
Y-6280D01*
X43619D01*
X43719Y-6181D01*
Y-5981D01*
X43619Y-5881D01*
X43319D01*
X43519D02*
X43719Y-5681D01*
X43918Y-6181D02*
X44018Y-6280D01*
X44218D01*
X44318Y-6181D01*
Y-6081D01*
X44218Y-5981D01*
X44118D01*
X44218D01*
X44318Y-5881D01*
Y-5781D01*
X44218Y-5681D01*
X44018D01*
X43918Y-5781D01*
X44518Y-5581D02*
X44918D01*
X45118Y-5681D02*
Y-6280D01*
X45518Y-5681D01*
Y-6280D01*
X46118D02*
X45718D01*
Y-5981D01*
X45918Y-6081D01*
X46018D01*
X46118Y-5981D01*
Y-5781D01*
X46018Y-5681D01*
X45818D01*
X45718Y-5781D01*
X53161Y-5681D02*
Y-6280D01*
X53461D01*
X53561Y-6181D01*
Y-5981D01*
X53461Y-5881D01*
X53161D01*
X53361D02*
X53561Y-5681D01*
X53761Y-6181D02*
X53861Y-6280D01*
X54061D01*
X54161Y-6181D01*
Y-6081D01*
X54061Y-5981D01*
X53961D01*
X54061D01*
X54161Y-5881D01*
Y-5781D01*
X54061Y-5681D01*
X53861D01*
X53761Y-5781D01*
X54361Y-5581D02*
X54761D01*
X54961Y-5681D02*
Y-6280D01*
X55360Y-5681D01*
Y-6280D01*
X55960D02*
X55760Y-6181D01*
X55560Y-5981D01*
Y-5781D01*
X55660Y-5681D01*
X55860D01*
X55960Y-5781D01*
Y-5881D01*
X55860Y-5981D01*
X55560D01*
X63004Y-5681D02*
Y-6280D01*
X63304D01*
X63404Y-6181D01*
Y-5981D01*
X63304Y-5881D01*
X63004D01*
X63204D02*
X63404Y-5681D01*
X63604Y-6181D02*
X63703Y-6280D01*
X63903D01*
X64003Y-6181D01*
Y-6081D01*
X63903Y-5981D01*
X63803D01*
X63903D01*
X64003Y-5881D01*
Y-5781D01*
X63903Y-5681D01*
X63703D01*
X63604Y-5781D01*
X64203Y-5581D02*
X64603D01*
X64803Y-5681D02*
Y-6280D01*
X65203Y-5681D01*
Y-6280D01*
X65403D02*
X65803D01*
Y-6181D01*
X65403Y-5781D01*
Y-5681D01*
X72915Y-5681D02*
Y-6280D01*
X73215D01*
X73315Y-6181D01*
Y-5981D01*
X73215Y-5881D01*
X72915D01*
X73115D02*
X73315Y-5681D01*
X73515Y-6181D02*
X73615Y-6280D01*
X73815D01*
X73915Y-6181D01*
Y-6081D01*
X73815Y-5981D01*
X73715D01*
X73815D01*
X73915Y-5881D01*
Y-5781D01*
X73815Y-5681D01*
X73615D01*
X73515Y-5781D01*
X74115Y-5581D02*
X74515D01*
X74715Y-5681D02*
Y-6280D01*
X75114Y-5681D01*
Y-6280D01*
X75314Y-6181D02*
X75414Y-6280D01*
X75614D01*
X75714Y-6181D01*
Y-6081D01*
X75614Y-5981D01*
X75714Y-5881D01*
Y-5781D01*
X75614Y-5681D01*
X75414D01*
X75314Y-5781D01*
Y-5881D01*
X75414Y-5981D01*
X75314Y-6081D01*
Y-6181D01*
X75414Y-5981D02*
X75614D01*
X3949Y-15523D02*
Y-16123D01*
X4249D01*
X4348Y-16023D01*
Y-15823D01*
X4249Y-15723D01*
X3949D01*
X4149D02*
X4348Y-15523D01*
X4548Y-16023D02*
X4648Y-16123D01*
X4848D01*
X4948Y-16023D01*
Y-15923D01*
X4848Y-15823D01*
X4748D01*
X4848D01*
X4948Y-15723D01*
Y-15623D01*
X4848Y-15523D01*
X4648D01*
X4548Y-15623D01*
X5148Y-15423D02*
X5548D01*
X5748Y-15523D02*
Y-16123D01*
X6148Y-15523D01*
Y-16123D01*
X6348Y-15623D02*
X6448Y-15523D01*
X6648D01*
X6748Y-15623D01*
Y-16023D01*
X6648Y-16123D01*
X6448D01*
X6348Y-16023D01*
Y-15923D01*
X6448Y-15823D01*
X6748D01*
X13801Y-15523D02*
Y-16123D01*
X14101D01*
X14201Y-16023D01*
Y-15823D01*
X14101Y-15723D01*
X13801D01*
X14001D02*
X14201Y-15523D01*
X14401Y-16023D02*
X14501Y-16123D01*
X14701D01*
X14801Y-16023D01*
Y-15923D01*
X14701Y-15823D01*
X14601D01*
X14701D01*
X14801Y-15723D01*
Y-15623D01*
X14701Y-15523D01*
X14501D01*
X14401Y-15623D01*
X15001Y-15423D02*
X15400D01*
X15600Y-15523D02*
Y-16123D01*
X16000Y-15523D01*
Y-16123D01*
X16200Y-15523D02*
X16400D01*
X16300D01*
Y-16123D01*
X16200Y-16023D01*
X16700D02*
X16800Y-16123D01*
X17000D01*
X17100Y-16023D01*
Y-15623D01*
X17000Y-15523D01*
X16800D01*
X16700Y-15623D01*
Y-16023D01*
X23653Y-15523D02*
Y-16123D01*
X23953D01*
X24053Y-16023D01*
Y-15823D01*
X23953Y-15723D01*
X23653D01*
X23853D02*
X24053Y-15523D01*
X24253Y-16023D02*
X24353Y-16123D01*
X24553D01*
X24653Y-16023D01*
Y-15923D01*
X24553Y-15823D01*
X24453D01*
X24553D01*
X24653Y-15723D01*
Y-15623D01*
X24553Y-15523D01*
X24353D01*
X24253Y-15623D01*
X24853Y-15423D02*
X25253D01*
X25453Y-15523D02*
Y-16123D01*
X25853Y-15523D01*
Y-16123D01*
X26053Y-15523D02*
X26253D01*
X26153D01*
Y-16123D01*
X26053Y-16023D01*
X26552Y-15523D02*
X26752D01*
X26652D01*
Y-16123D01*
X26552Y-16023D01*
X33506Y-15523D02*
Y-16123D01*
X33806D01*
X33906Y-16023D01*
Y-15823D01*
X33806Y-15723D01*
X33506D01*
X33706D02*
X33906Y-15523D01*
X34106Y-16023D02*
X34205Y-16123D01*
X34405D01*
X34505Y-16023D01*
Y-15923D01*
X34405Y-15823D01*
X34305D01*
X34405D01*
X34505Y-15723D01*
Y-15623D01*
X34405Y-15523D01*
X34205D01*
X34106Y-15623D01*
X34705Y-15423D02*
X35105D01*
X35305Y-15523D02*
Y-16123D01*
X35705Y-15523D01*
Y-16123D01*
X35905Y-15523D02*
X36105D01*
X36005D01*
Y-16123D01*
X35905Y-16023D01*
X36805Y-15523D02*
X36405D01*
X36805Y-15923D01*
Y-16023D01*
X36705Y-16123D01*
X36505D01*
X36405Y-16023D01*
X43358Y-15523D02*
Y-16123D01*
X43658D01*
X43758Y-16023D01*
Y-15823D01*
X43658Y-15723D01*
X43358D01*
X43558D02*
X43758Y-15523D01*
X43958Y-16023D02*
X44058Y-16123D01*
X44258D01*
X44358Y-16023D01*
Y-15923D01*
X44258Y-15823D01*
X44158D01*
X44258D01*
X44358Y-15723D01*
Y-15623D01*
X44258Y-15523D01*
X44058D01*
X43958Y-15623D01*
X44558Y-15423D02*
X44958D01*
X45157Y-15523D02*
Y-16123D01*
X45557Y-15523D01*
Y-16123D01*
X45757Y-15523D02*
X45957D01*
X45857D01*
Y-16123D01*
X45757Y-16023D01*
X46257D02*
X46357Y-16123D01*
X46557D01*
X46657Y-16023D01*
Y-15923D01*
X46557Y-15823D01*
X46457D01*
X46557D01*
X46657Y-15723D01*
Y-15623D01*
X46557Y-15523D01*
X46357D01*
X46257Y-15623D01*
X53210Y-15523D02*
Y-16123D01*
X53510D01*
X53610Y-16023D01*
Y-15823D01*
X53510Y-15723D01*
X53210D01*
X53410D02*
X53610Y-15523D01*
X53810Y-16023D02*
X53910Y-16123D01*
X54110D01*
X54210Y-16023D01*
Y-15923D01*
X54110Y-15823D01*
X54010D01*
X54110D01*
X54210Y-15723D01*
Y-15623D01*
X54110Y-15523D01*
X53910D01*
X53810Y-15623D01*
X54410Y-15423D02*
X54810D01*
X55010Y-15523D02*
Y-16123D01*
X55410Y-15523D01*
Y-16123D01*
X55610Y-15523D02*
X55810D01*
X55710D01*
Y-16123D01*
X55610Y-16023D01*
X56409Y-15523D02*
Y-16123D01*
X56109Y-15823D01*
X56509D01*
X63063Y-15523D02*
Y-16123D01*
X63363D01*
X63463Y-16023D01*
Y-15823D01*
X63363Y-15723D01*
X63063D01*
X63263D02*
X63463Y-15523D01*
X63663Y-16023D02*
X63763Y-16123D01*
X63962D01*
X64062Y-16023D01*
Y-15923D01*
X63962Y-15823D01*
X63863D01*
X63962D01*
X64062Y-15723D01*
Y-15623D01*
X63962Y-15523D01*
X63763D01*
X63663Y-15623D01*
X64262Y-15423D02*
X64662D01*
X64862Y-15523D02*
Y-16123D01*
X65262Y-15523D01*
Y-16123D01*
X65462Y-15523D02*
X65662D01*
X65562D01*
Y-16123D01*
X65462Y-16023D01*
X66362Y-16123D02*
X65962D01*
Y-15823D01*
X66162Y-15923D01*
X66262D01*
X66362Y-15823D01*
Y-15623D01*
X66262Y-15523D01*
X66062D01*
X65962Y-15623D01*
X72915Y-15523D02*
Y-16123D01*
X73215D01*
X73315Y-16023D01*
Y-15823D01*
X73215Y-15723D01*
X72915D01*
X73115D02*
X73315Y-15523D01*
X73515Y-16023D02*
X73615Y-16123D01*
X73815D01*
X73915Y-16023D01*
Y-15923D01*
X73815Y-15823D01*
X73715D01*
X73815D01*
X73915Y-15723D01*
Y-15623D01*
X73815Y-15523D01*
X73615D01*
X73515Y-15623D01*
X74115Y-15423D02*
X74515D01*
X74715Y-15523D02*
Y-16123D01*
X75114Y-15523D01*
Y-16123D01*
X75314Y-15523D02*
X75514D01*
X75414D01*
Y-16123D01*
X75314Y-16023D01*
X76214Y-16123D02*
X76014Y-16023D01*
X75814Y-15823D01*
Y-15623D01*
X75914Y-15523D01*
X76114D01*
X76214Y-15623D01*
Y-15723D01*
X76114Y-15823D01*
X75814D01*
X83268Y-6496D02*
Y-7096D01*
X83568D01*
X83668Y-6996D01*
Y-6796D01*
X83568Y-6696D01*
X83268D01*
X83468D02*
X83668Y-6496D01*
X83868Y-6596D02*
X83967Y-6496D01*
X84167D01*
X84267Y-6596D01*
Y-6996D01*
X84167Y-7096D01*
X83967D01*
X83868Y-6996D01*
Y-6896D01*
X83967Y-6796D01*
X84267D01*
X84467Y-6396D02*
X84867D01*
X85067Y-7096D02*
Y-6496D01*
X85367D01*
X85467Y-6596D01*
Y-6996D01*
X85367Y-7096D01*
X85067D01*
X85667D02*
X85867D01*
X85767D01*
Y-6496D01*
X85667D01*
X85867D01*
X86567Y-6996D02*
X86467Y-7096D01*
X86267D01*
X86167Y-6996D01*
Y-6896D01*
X86267Y-6796D01*
X86467D01*
X86567Y-6696D01*
Y-6596D01*
X86467Y-6496D01*
X86267D01*
X86167Y-6596D01*
X86767Y-6496D02*
Y-7096D01*
X87066D01*
X87166Y-6996D01*
Y-6796D01*
X87066Y-6696D01*
X86767D01*
X87366Y-6496D02*
X87566D01*
X87466D01*
Y-7096D01*
X87366Y-6996D01*
X87402Y-15354D02*
Y-14755D01*
X87102D01*
X87002Y-14854D01*
Y-15054D01*
X87102Y-15154D01*
X87402D01*
X87202D02*
X87002Y-15354D01*
X86802Y-15254D02*
X86702Y-15354D01*
X86502D01*
X86402Y-15254D01*
Y-14854D01*
X86502Y-14755D01*
X86702D01*
X86802Y-14854D01*
Y-14954D01*
X86702Y-15054D01*
X86402D01*
X86202Y-15454D02*
X85802D01*
X85602Y-14755D02*
Y-15354D01*
X85302D01*
X85202Y-15254D01*
Y-14854D01*
X85302Y-14755D01*
X85602D01*
X85002D02*
X84802D01*
X84902D01*
Y-15354D01*
X85002D01*
X84802D01*
X84103Y-14854D02*
X84203Y-14755D01*
X84403D01*
X84503Y-14854D01*
Y-14954D01*
X84403Y-15054D01*
X84203D01*
X84103Y-15154D01*
Y-15254D01*
X84203Y-15354D01*
X84403D01*
X84503Y-15254D01*
X83903Y-15354D02*
Y-14755D01*
X83603D01*
X83503Y-14854D01*
Y-15054D01*
X83603Y-15154D01*
X83903D01*
X82903Y-15354D02*
X83303D01*
X82903Y-14954D01*
Y-14854D01*
X83003Y-14755D01*
X83203D01*
X83303Y-14854D01*
X83268Y-23031D02*
Y-22432D01*
X83568D01*
X83668Y-22532D01*
Y-22732D01*
X83568Y-22832D01*
X83268D01*
X83468D02*
X83668Y-23031D01*
X83868Y-22932D02*
X83967Y-23031D01*
X84167D01*
X84267Y-22932D01*
Y-22532D01*
X84167Y-22432D01*
X83967D01*
X83868Y-22532D01*
Y-22632D01*
X83967Y-22732D01*
X84267D01*
X84467Y-23131D02*
X84867D01*
X85067Y-22432D02*
Y-23031D01*
X85367D01*
X85467Y-22932D01*
Y-22532D01*
X85367Y-22432D01*
X85067D01*
X85667D02*
X85867D01*
X85767D01*
Y-23031D01*
X85667D01*
X85867D01*
X86567Y-22532D02*
X86467Y-22432D01*
X86267D01*
X86167Y-22532D01*
Y-22632D01*
X86267Y-22732D01*
X86467D01*
X86567Y-22832D01*
Y-22932D01*
X86467Y-23031D01*
X86267D01*
X86167Y-22932D01*
X86767Y-23031D02*
Y-22432D01*
X87066D01*
X87166Y-22532D01*
Y-22732D01*
X87066Y-22832D01*
X86767D01*
X87366Y-22532D02*
X87466Y-22432D01*
X87666D01*
X87766Y-22532D01*
Y-22632D01*
X87666Y-22732D01*
X87566D01*
X87666D01*
X87766Y-22832D01*
Y-22932D01*
X87666Y-23031D01*
X87466D01*
X87366Y-22932D01*
X82677Y-31102D02*
Y-30503D01*
X82977D01*
X83077Y-30603D01*
Y-30802D01*
X82977Y-30902D01*
X82677D01*
X82877D02*
X83077Y-31102D01*
X83277Y-31002D02*
X83377Y-31102D01*
X83577D01*
X83677Y-31002D01*
Y-30603D01*
X83577Y-30503D01*
X83377D01*
X83277Y-30603D01*
Y-30702D01*
X83377Y-30802D01*
X83677D01*
X83877Y-31202D02*
X84277D01*
X84477Y-30503D02*
Y-31102D01*
X84776D01*
X84876Y-31002D01*
Y-30603D01*
X84776Y-30503D01*
X84477D01*
X85076D02*
X85276D01*
X85176D01*
Y-31102D01*
X85076D01*
X85276D01*
X85976Y-30603D02*
X85876Y-30503D01*
X85676D01*
X85576Y-30603D01*
Y-30702D01*
X85676Y-30802D01*
X85876D01*
X85976Y-30902D01*
Y-31002D01*
X85876Y-31102D01*
X85676D01*
X85576Y-31002D01*
X86176Y-31102D02*
Y-30503D01*
X86476D01*
X86576Y-30603D01*
Y-30802D01*
X86476Y-30902D01*
X86176D01*
X87076Y-31102D02*
Y-30503D01*
X86776Y-30802D01*
X87176D01*
X125394Y-5118D02*
Y-4518D01*
X125094D01*
X124994Y-4618D01*
Y-4818D01*
X125094Y-4918D01*
X125394D01*
X125194D02*
X124994Y-5118D01*
X124794Y-5018D02*
X124694Y-5118D01*
X124494D01*
X124394Y-5018D01*
Y-4618D01*
X124494Y-4518D01*
X124694D01*
X124794Y-4618D01*
Y-4718D01*
X124694Y-4818D01*
X124394D01*
X124194Y-5218D02*
X123794D01*
X123594Y-4518D02*
Y-5118D01*
X123294D01*
X123194Y-5018D01*
Y-4618D01*
X123294Y-4518D01*
X123594D01*
X122994D02*
X122795D01*
X122895D01*
Y-5118D01*
X122994D01*
X122795D01*
X122095Y-4618D02*
X122195Y-4518D01*
X122395D01*
X122495Y-4618D01*
Y-4718D01*
X122395Y-4818D01*
X122195D01*
X122095Y-4918D01*
Y-5018D01*
X122195Y-5118D01*
X122395D01*
X122495Y-5018D01*
X121895Y-5118D02*
Y-4518D01*
X121595D01*
X121495Y-4618D01*
Y-4818D01*
X121595Y-4918D01*
X121895D01*
X120895Y-4518D02*
X121295D01*
Y-4818D01*
X121095Y-4718D01*
X120995D01*
X120895Y-4818D01*
Y-5018D01*
X120995Y-5118D01*
X121195D01*
X121295Y-5018D01*
X125591Y-10039D02*
Y-9440D01*
X125291D01*
X125191Y-9540D01*
Y-9739D01*
X125291Y-9839D01*
X125591D01*
X125391D02*
X125191Y-10039D01*
X124991Y-9939D02*
X124891Y-10039D01*
X124691D01*
X124591Y-9939D01*
Y-9540D01*
X124691Y-9440D01*
X124891D01*
X124991Y-9540D01*
Y-9639D01*
X124891Y-9739D01*
X124591D01*
X124391Y-10139D02*
X123991D01*
X123791Y-9440D02*
Y-10039D01*
X123491D01*
X123391Y-9939D01*
Y-9540D01*
X123491Y-9440D01*
X123791D01*
X123191D02*
X122991D01*
X123091D01*
Y-10039D01*
X123191D01*
X122991D01*
X122292Y-9540D02*
X122392Y-9440D01*
X122592D01*
X122691Y-9540D01*
Y-9639D01*
X122592Y-9739D01*
X122392D01*
X122292Y-9839D01*
Y-9939D01*
X122392Y-10039D01*
X122592D01*
X122691Y-9939D01*
X122092Y-10039D02*
Y-9440D01*
X121792D01*
X121692Y-9540D01*
Y-9739D01*
X121792Y-9839D01*
X122092D01*
X121092Y-9440D02*
X121292Y-9540D01*
X121492Y-9739D01*
Y-9939D01*
X121392Y-10039D01*
X121192D01*
X121092Y-9939D01*
Y-9839D01*
X121192Y-9739D01*
X121492D01*
X88507Y-15472D02*
Y-16072D01*
X88807D01*
X88907Y-15972D01*
Y-15772D01*
X88807Y-15672D01*
X88507D01*
X88707D02*
X88907Y-15472D01*
X89107D02*
X89307D01*
X89207D01*
Y-16072D01*
X89107Y-15972D01*
X89607D02*
X89707Y-16072D01*
X89907D01*
X90007Y-15972D01*
Y-15572D01*
X89907Y-15472D01*
X89707D01*
X89607Y-15572D01*
Y-15972D01*
X90206Y-15372D02*
X90606D01*
X91206Y-16072D02*
X90806D01*
Y-15472D01*
X91206D01*
X90806Y-15772D02*
X91006D01*
X91406Y-16072D02*
X91806Y-15472D01*
Y-16072D02*
X91406Y-15472D01*
X92006D02*
Y-16072D01*
X92306D01*
X92406Y-15972D01*
Y-15772D01*
X92306Y-15672D01*
X92006D01*
X92606Y-15372D02*
X93006D01*
X93205Y-16072D02*
Y-15472D01*
X93505D01*
X93605Y-15572D01*
Y-15672D01*
X93505Y-15772D01*
X93205D01*
X93505D01*
X93605Y-15872D01*
Y-15972D01*
X93505Y-16072D01*
X93205D01*
X93805D02*
X94205D01*
X94005D01*
Y-15472D01*
X94405D02*
Y-16072D01*
X94805Y-15472D01*
Y-16072D01*
X95005Y-15472D02*
X95205D01*
X95105D01*
Y-16072D01*
X95005Y-15972D01*
X99085Y-26053D02*
Y-25453D01*
X98785D01*
X98685Y-25553D01*
Y-25753D01*
X98785Y-25853D01*
X99085D01*
X98885D02*
X98685Y-26053D01*
X98485D02*
X98285D01*
X98385D01*
Y-25453D01*
X98485Y-25553D01*
X97985D02*
X97885Y-25453D01*
X97685D01*
X97585Y-25553D01*
Y-25953D01*
X97685Y-26053D01*
X97885D01*
X97985Y-25953D01*
Y-25553D01*
X97385Y-26153D02*
X96985D01*
X96386Y-25453D02*
X96785D01*
Y-26053D01*
X96386D01*
X96785Y-25753D02*
X96585D01*
X96186Y-25453D02*
X95786Y-26053D01*
Y-25453D02*
X96186Y-26053D01*
X95586D02*
Y-25453D01*
X95286D01*
X95186Y-25553D01*
Y-25753D01*
X95286Y-25853D01*
X95586D01*
X94986Y-26153D02*
X94586D01*
X94386Y-25453D02*
Y-26053D01*
X94086D01*
X93986Y-25953D01*
Y-25853D01*
X94086Y-25753D01*
X94386D01*
X94086D01*
X93986Y-25653D01*
Y-25553D01*
X94086Y-25453D01*
X94386D01*
X93786D02*
X93386D01*
X93586D01*
Y-26053D01*
X93187D02*
Y-25453D01*
X92787Y-26053D01*
Y-25453D01*
X92187Y-26053D02*
X92587D01*
X92187Y-25653D01*
Y-25553D01*
X92287Y-25453D01*
X92487D01*
X92587Y-25553D01*
X88694Y-13907D02*
Y-14507D01*
X88994D01*
X89094Y-14407D01*
Y-14207D01*
X88994Y-14107D01*
X88694D01*
X88894D02*
X89094Y-13907D01*
X89294D02*
X89494D01*
X89394D01*
Y-14507D01*
X89294Y-14407D01*
X89794Y-13907D02*
X89994D01*
X89894D01*
Y-14507D01*
X89794Y-14407D01*
X90294Y-13808D02*
X90693D01*
X91293Y-14507D02*
X90893D01*
Y-13907D01*
X91293D01*
X90893Y-14207D02*
X91093D01*
X91493Y-14507D02*
X91893Y-13907D01*
Y-14507D02*
X91493Y-13907D01*
X92093D02*
Y-14507D01*
X92393D01*
X92493Y-14407D01*
Y-14207D01*
X92393Y-14107D01*
X92093D01*
X92693Y-13808D02*
X93093D01*
X93293Y-14507D02*
Y-13907D01*
X93592D01*
X93692Y-14007D01*
Y-14107D01*
X93592Y-14207D01*
X93293D01*
X93592D01*
X93692Y-14307D01*
Y-14407D01*
X93592Y-14507D01*
X93293D01*
X93892D02*
X94292D01*
X94092D01*
Y-13907D01*
X94492D02*
Y-14507D01*
X94892Y-13907D01*
Y-14507D01*
X95092Y-13907D02*
X95292D01*
X95192D01*
Y-14507D01*
X95092Y-14407D01*
X98898Y-27618D02*
Y-27018D01*
X98598D01*
X98498Y-27118D01*
Y-27318D01*
X98598Y-27418D01*
X98898D01*
X98698D02*
X98498Y-27618D01*
X98298D02*
X98098D01*
X98198D01*
Y-27018D01*
X98298Y-27118D01*
X97798Y-27618D02*
X97598D01*
X97698D01*
Y-27018D01*
X97798Y-27118D01*
X97298Y-27718D02*
X96898D01*
X96298Y-27018D02*
X96698D01*
Y-27618D01*
X96298D01*
X96698Y-27318D02*
X96498D01*
X96099Y-27018D02*
X95699Y-27618D01*
Y-27018D02*
X96099Y-27618D01*
X95499D02*
Y-27018D01*
X95199D01*
X95099Y-27118D01*
Y-27318D01*
X95199Y-27418D01*
X95499D01*
X94899Y-27718D02*
X94499D01*
X94299Y-27018D02*
Y-27618D01*
X93999D01*
X93899Y-27518D01*
Y-27418D01*
X93999Y-27318D01*
X94299D01*
X93999D01*
X93899Y-27218D01*
Y-27118D01*
X93999Y-27018D01*
X94299D01*
X93699D02*
X93299D01*
X93499D01*
Y-27618D01*
X93100D02*
Y-27018D01*
X92700Y-27618D01*
Y-27018D01*
X92100Y-27618D02*
X92500D01*
X92100Y-27218D01*
Y-27118D01*
X92200Y-27018D01*
X92400D01*
X92500Y-27118D01*
X95830Y-14016D02*
Y-14616D01*
X96130D01*
X96230Y-14516D01*
Y-14316D01*
X96130Y-14216D01*
X95830D01*
X96030D02*
X96230Y-14016D01*
X96430D02*
X96630D01*
X96530D01*
Y-14616D01*
X96430Y-14516D01*
X97329Y-14016D02*
X96930D01*
X97329Y-14416D01*
Y-14516D01*
X97229Y-14616D01*
X97029D01*
X96930Y-14516D01*
X97529Y-13916D02*
X97929D01*
X98529Y-14616D02*
X98129D01*
Y-14016D01*
X98529D01*
X98129Y-14316D02*
X98329D01*
X98729Y-14616D02*
X99129Y-14016D01*
Y-14616D02*
X98729Y-14016D01*
X99329D02*
Y-14616D01*
X99629D01*
X99729Y-14516D01*
Y-14316D01*
X99629Y-14216D01*
X99329D01*
X99929Y-13916D02*
X100328D01*
X100528Y-14616D02*
Y-14016D01*
X100828D01*
X100928Y-14116D01*
Y-14216D01*
X100828Y-14316D01*
X100528D01*
X100828D01*
X100928Y-14416D01*
Y-14516D01*
X100828Y-14616D01*
X100528D01*
X101128D02*
X101528D01*
X101328D01*
Y-14016D01*
X101728D02*
Y-14616D01*
X102128Y-14016D01*
Y-14616D01*
X102328Y-14016D02*
X102528D01*
X102428D01*
Y-14616D01*
X102328Y-14516D01*
X91762Y-27510D02*
Y-26910D01*
X91462D01*
X91362Y-27010D01*
Y-27210D01*
X91462Y-27310D01*
X91762D01*
X91562D02*
X91362Y-27510D01*
X91162D02*
X90962D01*
X91062D01*
Y-26910D01*
X91162Y-27010D01*
X90262Y-27510D02*
X90662D01*
X90262Y-27110D01*
Y-27010D01*
X90362Y-26910D01*
X90562D01*
X90662Y-27010D01*
X90062Y-27610D02*
X89662D01*
X89063Y-26910D02*
X89463D01*
Y-27510D01*
X89063D01*
X89463Y-27210D02*
X89263D01*
X88863Y-26910D02*
X88463Y-27510D01*
Y-26910D02*
X88863Y-27510D01*
X88263D02*
Y-26910D01*
X87963D01*
X87863Y-27010D01*
Y-27210D01*
X87963Y-27310D01*
X88263D01*
X87663Y-27610D02*
X87263D01*
X87063Y-26910D02*
Y-27510D01*
X86763D01*
X86663Y-27410D01*
Y-27310D01*
X86763Y-27210D01*
X87063D01*
X86763D01*
X86663Y-27110D01*
Y-27010D01*
X86763Y-26910D01*
X87063D01*
X86464D02*
X86064D01*
X86264D01*
Y-27510D01*
X85864D02*
Y-26910D01*
X85464Y-27510D01*
Y-26910D01*
X84864Y-27510D02*
X85264D01*
X84864Y-27110D01*
Y-27010D01*
X84964Y-26910D01*
X85164D01*
X85264Y-27010D01*
X90298Y-36706D02*
Y-36106D01*
X89998D01*
X89898Y-36206D01*
Y-36406D01*
X89998Y-36506D01*
X90298D01*
X90098D02*
X89898Y-36706D01*
X89298D02*
X89698D01*
X89298Y-36306D01*
Y-36206D01*
X89398Y-36106D01*
X89598D01*
X89698Y-36206D01*
X88699Y-36106D02*
X89098D01*
Y-36406D01*
X88898Y-36306D01*
X88799D01*
X88699Y-36406D01*
Y-36606D01*
X88799Y-36706D01*
X88998D01*
X89098Y-36606D01*
X103325Y-3086D02*
X102725D01*
Y-3385D01*
X102825Y-3485D01*
X103025D01*
X103125Y-3385D01*
Y-3086D01*
Y-3285D02*
X103325Y-3485D01*
X102825Y-3685D02*
X102725Y-3785D01*
Y-3985D01*
X102825Y-4085D01*
X102925D01*
X103025Y-3985D01*
Y-3885D01*
Y-3985D01*
X103125Y-4085D01*
X103225D01*
X103325Y-3985D01*
Y-3785D01*
X103225Y-3685D01*
X103325Y-4585D02*
X102725D01*
X103025Y-4285D01*
Y-4685D01*
X103425Y-4885D02*
Y-5285D01*
X103325Y-5485D02*
X102925D01*
X102725Y-5685D01*
X102925Y-5885D01*
X103325D01*
X103025D01*
Y-5485D01*
X103325Y-6085D02*
Y-6285D01*
Y-6185D01*
X102725D01*
X102825Y-6085D01*
X103335Y-11009D02*
X102735D01*
Y-11309D01*
X102835Y-11409D01*
X103035D01*
X103135Y-11309D01*
Y-11009D01*
Y-11209D02*
X103335Y-11409D01*
X102835Y-11609D02*
X102735Y-11709D01*
Y-11909D01*
X102835Y-12009D01*
X102935D01*
X103035Y-11909D01*
Y-11809D01*
Y-11909D01*
X103135Y-12009D01*
X103235D01*
X103335Y-11909D01*
Y-11709D01*
X103235Y-11609D01*
X103335Y-12508D02*
X102735D01*
X103035Y-12209D01*
Y-12608D01*
X103435Y-12808D02*
Y-13208D01*
X103335Y-13408D02*
X102935D01*
X102735Y-13608D01*
X102935Y-13808D01*
X103335D01*
X103035D01*
Y-13408D01*
X103335Y-14408D02*
Y-14008D01*
X102935Y-14408D01*
X102835D01*
X102735Y-14308D01*
Y-14108D01*
X102835Y-14008D01*
X103217Y-19132D02*
X102617D01*
Y-19432D01*
X102717Y-19532D01*
X102917D01*
X103017Y-19432D01*
Y-19132D01*
Y-19332D02*
X103217Y-19532D01*
X102717Y-19732D02*
X102617Y-19832D01*
Y-20032D01*
X102717Y-20132D01*
X102817D01*
X102917Y-20032D01*
Y-19932D01*
Y-20032D01*
X103017Y-20132D01*
X103117D01*
X103217Y-20032D01*
Y-19832D01*
X103117Y-19732D01*
X103217Y-20632D02*
X102617D01*
X102917Y-20332D01*
Y-20732D01*
X103317Y-20932D02*
Y-21332D01*
X103217Y-21532D02*
X102817D01*
X102617Y-21732D01*
X102817Y-21931D01*
X103217D01*
X102917D01*
Y-21532D01*
X102717Y-22131D02*
X102617Y-22231D01*
Y-22431D01*
X102717Y-22531D01*
X102817D01*
X102917Y-22431D01*
Y-22331D01*
Y-22431D01*
X103017Y-22531D01*
X103117D01*
X103217Y-22431D01*
Y-22231D01*
X103117Y-22131D01*
X103256Y-27256D02*
X102657D01*
Y-27556D01*
X102756Y-27656D01*
X102956D01*
X103056Y-27556D01*
Y-27256D01*
Y-27456D02*
X103256Y-27656D01*
X102756Y-27856D02*
X102657Y-27955D01*
Y-28155D01*
X102756Y-28255D01*
X102856D01*
X102956Y-28155D01*
Y-28055D01*
Y-28155D01*
X103056Y-28255D01*
X103156D01*
X103256Y-28155D01*
Y-27955D01*
X103156Y-27856D01*
X103256Y-28755D02*
X102657D01*
X102956Y-28455D01*
Y-28855D01*
X103356Y-29055D02*
Y-29455D01*
X103256Y-29655D02*
X102856D01*
X102657Y-29855D01*
X102856Y-30055D01*
X103256D01*
X102956D01*
Y-29655D01*
X103256Y-30555D02*
X102657D01*
X102956Y-30255D01*
Y-30655D01*
X116368Y-15681D02*
X116968D01*
Y-15381D01*
X116868Y-15281D01*
X116668D01*
X116568Y-15381D01*
Y-15681D01*
Y-15481D02*
X116368Y-15281D01*
X116868Y-15082D02*
X116968Y-14982D01*
Y-14782D01*
X116868Y-14682D01*
X116768D01*
X116668Y-14782D01*
Y-14882D01*
Y-14782D01*
X116568Y-14682D01*
X116468D01*
X116368Y-14782D01*
Y-14982D01*
X116468Y-15082D01*
X116368Y-14182D02*
X116968D01*
X116668Y-14482D01*
Y-14082D01*
X116269Y-13882D02*
Y-13482D01*
X116368Y-13282D02*
X116768D01*
X116968Y-13082D01*
X116768Y-12882D01*
X116368D01*
X116668D01*
Y-13282D01*
X116968Y-12282D02*
Y-12682D01*
X116668D01*
X116768Y-12482D01*
Y-12382D01*
X116668Y-12282D01*
X116468D01*
X116368Y-12382D01*
Y-12582D01*
X116468Y-12682D01*
X116368Y-23967D02*
X116968D01*
Y-23668D01*
X116868Y-23568D01*
X116668D01*
X116568Y-23668D01*
Y-23967D01*
Y-23767D02*
X116368Y-23568D01*
X116868Y-23368D02*
X116968Y-23268D01*
Y-23068D01*
X116868Y-22968D01*
X116768D01*
X116668Y-23068D01*
Y-23168D01*
Y-23068D01*
X116568Y-22968D01*
X116468D01*
X116368Y-23068D01*
Y-23268D01*
X116468Y-23368D01*
X116368Y-22468D02*
X116968D01*
X116668Y-22768D01*
Y-22368D01*
X116269Y-22168D02*
Y-21768D01*
X116368Y-21568D02*
X116768D01*
X116968Y-21368D01*
X116768Y-21168D01*
X116368D01*
X116668D01*
Y-21568D01*
X116968Y-20568D02*
X116868Y-20768D01*
X116668Y-20968D01*
X116468D01*
X116368Y-20868D01*
Y-20668D01*
X116468Y-20568D01*
X116568D01*
X116668Y-20668D01*
Y-20968D01*
X116368Y-32253D02*
X116968D01*
Y-31954D01*
X116868Y-31854D01*
X116668D01*
X116568Y-31954D01*
Y-32253D01*
Y-32054D02*
X116368Y-31854D01*
X116868Y-31654D02*
X116968Y-31554D01*
Y-31354D01*
X116868Y-31254D01*
X116768D01*
X116668Y-31354D01*
Y-31454D01*
Y-31354D01*
X116568Y-31254D01*
X116468D01*
X116368Y-31354D01*
Y-31554D01*
X116468Y-31654D01*
X116368Y-30754D02*
X116968D01*
X116668Y-31054D01*
Y-30654D01*
X116269Y-30454D02*
Y-30054D01*
X116368Y-29854D02*
X116768D01*
X116968Y-29654D01*
X116768Y-29454D01*
X116368D01*
X116668D01*
Y-29854D01*
X116968Y-29254D02*
Y-28855D01*
X116868D01*
X116468Y-29254D01*
X116368D01*
X116368Y-40540D02*
X116968D01*
Y-40240D01*
X116868Y-40140D01*
X116668D01*
X116568Y-40240D01*
Y-40540D01*
Y-40340D02*
X116368Y-40140D01*
X116868Y-39940D02*
X116968Y-39840D01*
Y-39640D01*
X116868Y-39540D01*
X116768D01*
X116668Y-39640D01*
Y-39740D01*
Y-39640D01*
X116568Y-39540D01*
X116468D01*
X116368Y-39640D01*
Y-39840D01*
X116468Y-39940D01*
X116368Y-39040D02*
X116968D01*
X116668Y-39340D01*
Y-38940D01*
X116269Y-38740D02*
Y-38340D01*
X116368Y-38140D02*
X116768D01*
X116968Y-37940D01*
X116768Y-37740D01*
X116368D01*
X116668D01*
Y-38140D01*
X116868Y-37541D02*
X116968Y-37441D01*
Y-37241D01*
X116868Y-37141D01*
X116768D01*
X116668Y-37241D01*
X116568Y-37141D01*
X116468D01*
X116368Y-37241D01*
Y-37441D01*
X116468Y-37541D01*
X116568D01*
X116668Y-37441D01*
X116768Y-37541D01*
X116868D01*
X116668Y-37441D02*
Y-37241D01*
X6547Y-8673D02*
Y-9273D01*
X6847D01*
X6947Y-9173D01*
Y-8973D01*
X6847Y-8873D01*
X6547D01*
X6747D02*
X6947Y-8673D01*
X7147Y-9173D02*
X7247Y-9273D01*
X7447D01*
X7547Y-9173D01*
Y-9073D01*
X7447Y-8973D01*
X7347D01*
X7447D01*
X7547Y-8873D01*
Y-8773D01*
X7447Y-8673D01*
X7247D01*
X7147Y-8773D01*
X8047Y-8673D02*
Y-9273D01*
X7747Y-8973D01*
X8147D01*
X8346Y-8573D02*
X8746D01*
X8946Y-8673D02*
Y-9273D01*
X9346Y-8673D01*
Y-9273D01*
X9546Y-8673D02*
X9746D01*
X9646D01*
Y-9273D01*
X9546Y-9173D01*
X16390Y-8673D02*
Y-9273D01*
X16689D01*
X16789Y-9173D01*
Y-8973D01*
X16689Y-8873D01*
X16390D01*
X16589D02*
X16789Y-8673D01*
X16989Y-9173D02*
X17089Y-9273D01*
X17289D01*
X17389Y-9173D01*
Y-9073D01*
X17289Y-8973D01*
X17189D01*
X17289D01*
X17389Y-8873D01*
Y-8773D01*
X17289Y-8673D01*
X17089D01*
X16989Y-8773D01*
X17889Y-8673D02*
Y-9273D01*
X17589Y-8973D01*
X17989D01*
X18189Y-8573D02*
X18589D01*
X18789Y-8673D02*
Y-9273D01*
X19189Y-8673D01*
Y-9273D01*
X19788Y-8673D02*
X19389D01*
X19788Y-9073D01*
Y-9173D01*
X19688Y-9273D01*
X19489D01*
X19389Y-9173D01*
X26232Y-8673D02*
Y-9273D01*
X26532D01*
X26632Y-9173D01*
Y-8973D01*
X26532Y-8873D01*
X26232D01*
X26432D02*
X26632Y-8673D01*
X26832Y-9173D02*
X26932Y-9273D01*
X27132D01*
X27232Y-9173D01*
Y-9073D01*
X27132Y-8973D01*
X27032D01*
X27132D01*
X27232Y-8873D01*
Y-8773D01*
X27132Y-8673D01*
X26932D01*
X26832Y-8773D01*
X27732Y-8673D02*
Y-9273D01*
X27432Y-8973D01*
X27832D01*
X28031Y-8573D02*
X28431D01*
X28631Y-8673D02*
Y-9273D01*
X29031Y-8673D01*
Y-9273D01*
X29231Y-9173D02*
X29331Y-9273D01*
X29531D01*
X29631Y-9173D01*
Y-9073D01*
X29531Y-8973D01*
X29431D01*
X29531D01*
X29631Y-8873D01*
Y-8773D01*
X29531Y-8673D01*
X29331D01*
X29231Y-8773D01*
X36075Y-8673D02*
Y-9273D01*
X36374D01*
X36474Y-9173D01*
Y-8973D01*
X36374Y-8873D01*
X36075D01*
X36275D02*
X36474Y-8673D01*
X36674Y-9173D02*
X36774Y-9273D01*
X36974D01*
X37074Y-9173D01*
Y-9073D01*
X36974Y-8973D01*
X36874D01*
X36974D01*
X37074Y-8873D01*
Y-8773D01*
X36974Y-8673D01*
X36774D01*
X36674Y-8773D01*
X37574Y-8673D02*
Y-9273D01*
X37274Y-8973D01*
X37674D01*
X37874Y-8573D02*
X38274D01*
X38474Y-8673D02*
Y-9273D01*
X38874Y-8673D01*
Y-9273D01*
X39374Y-8673D02*
Y-9273D01*
X39074Y-8973D01*
X39474D01*
X45917Y-8673D02*
Y-9273D01*
X46217D01*
X46317Y-9173D01*
Y-8973D01*
X46217Y-8873D01*
X45917D01*
X46117D02*
X46317Y-8673D01*
X46517Y-9173D02*
X46617Y-9273D01*
X46817D01*
X46917Y-9173D01*
Y-9073D01*
X46817Y-8973D01*
X46717D01*
X46817D01*
X46917Y-8873D01*
Y-8773D01*
X46817Y-8673D01*
X46617D01*
X46517Y-8773D01*
X47417Y-8673D02*
Y-9273D01*
X47117Y-8973D01*
X47517D01*
X47717Y-8573D02*
X48116D01*
X48316Y-8673D02*
Y-9273D01*
X48716Y-8673D01*
Y-9273D01*
X49316D02*
X48916D01*
Y-8973D01*
X49116Y-9073D01*
X49216D01*
X49316Y-8973D01*
Y-8773D01*
X49216Y-8673D01*
X49016D01*
X48916Y-8773D01*
X55760Y-8673D02*
Y-9273D01*
X56060D01*
X56160Y-9173D01*
Y-8973D01*
X56060Y-8873D01*
X55760D01*
X55960D02*
X56160Y-8673D01*
X56359Y-9173D02*
X56459Y-9273D01*
X56659D01*
X56759Y-9173D01*
Y-9073D01*
X56659Y-8973D01*
X56559D01*
X56659D01*
X56759Y-8873D01*
Y-8773D01*
X56659Y-8673D01*
X56459D01*
X56359Y-8773D01*
X57259Y-8673D02*
Y-9273D01*
X56959Y-8973D01*
X57359D01*
X57559Y-8573D02*
X57959D01*
X58159Y-8673D02*
Y-9273D01*
X58559Y-8673D01*
Y-9273D01*
X59159D02*
X58959Y-9173D01*
X58759Y-8973D01*
Y-8773D01*
X58859Y-8673D01*
X59059D01*
X59159Y-8773D01*
Y-8873D01*
X59059Y-8973D01*
X58759D01*
X65602Y-8673D02*
Y-9273D01*
X65902D01*
X66002Y-9173D01*
Y-8973D01*
X65902Y-8873D01*
X65602D01*
X65802D02*
X66002Y-8673D01*
X66202Y-9173D02*
X66302Y-9273D01*
X66502D01*
X66602Y-9173D01*
Y-9073D01*
X66502Y-8973D01*
X66402D01*
X66502D01*
X66602Y-8873D01*
Y-8773D01*
X66502Y-8673D01*
X66302D01*
X66202Y-8773D01*
X67102Y-8673D02*
Y-9273D01*
X66802Y-8973D01*
X67202D01*
X67402Y-8573D02*
X67801D01*
X68001Y-8673D02*
Y-9273D01*
X68401Y-8673D01*
Y-9273D01*
X68601D02*
X69001D01*
Y-9173D01*
X68601Y-8773D01*
Y-8673D01*
X75514Y-8673D02*
Y-9273D01*
X75813D01*
X75913Y-9173D01*
Y-8973D01*
X75813Y-8873D01*
X75514D01*
X75714D02*
X75913Y-8673D01*
X76113Y-9173D02*
X76213Y-9273D01*
X76413D01*
X76513Y-9173D01*
Y-9073D01*
X76413Y-8973D01*
X76313D01*
X76413D01*
X76513Y-8873D01*
Y-8773D01*
X76413Y-8673D01*
X76213D01*
X76113Y-8773D01*
X77013Y-8673D02*
Y-9273D01*
X76713Y-8973D01*
X77113D01*
X77313Y-8573D02*
X77713D01*
X77913Y-8673D02*
Y-9273D01*
X78313Y-8673D01*
Y-9273D01*
X78513Y-9173D02*
X78613Y-9273D01*
X78813D01*
X78912Y-9173D01*
Y-9073D01*
X78813Y-8973D01*
X78912Y-8873D01*
Y-8773D01*
X78813Y-8673D01*
X78613D01*
X78513Y-8773D01*
Y-8873D01*
X78613Y-8973D01*
X78513Y-9073D01*
Y-9173D01*
X78613Y-8973D02*
X78813D01*
X6547Y-18515D02*
Y-19115D01*
X6847D01*
X6947Y-19015D01*
Y-18815D01*
X6847Y-18715D01*
X6547D01*
X6747D02*
X6947Y-18515D01*
X7147Y-19015D02*
X7247Y-19115D01*
X7447D01*
X7547Y-19015D01*
Y-18915D01*
X7447Y-18815D01*
X7347D01*
X7447D01*
X7547Y-18715D01*
Y-18615D01*
X7447Y-18515D01*
X7247D01*
X7147Y-18615D01*
X8047Y-18515D02*
Y-19115D01*
X7747Y-18815D01*
X8147D01*
X8346Y-18415D02*
X8746D01*
X8946Y-18515D02*
Y-19115D01*
X9346Y-18515D01*
Y-19115D01*
X9546Y-18615D02*
X9646Y-18515D01*
X9846D01*
X9946Y-18615D01*
Y-19015D01*
X9846Y-19115D01*
X9646D01*
X9546Y-19015D01*
Y-18915D01*
X9646Y-18815D01*
X9946D01*
X16399Y-18515D02*
Y-19115D01*
X16699D01*
X16799Y-19015D01*
Y-18815D01*
X16699Y-18715D01*
X16399D01*
X16599D02*
X16799Y-18515D01*
X16999Y-19015D02*
X17099Y-19115D01*
X17299D01*
X17399Y-19015D01*
Y-18915D01*
X17299Y-18815D01*
X17199D01*
X17299D01*
X17399Y-18715D01*
Y-18615D01*
X17299Y-18515D01*
X17099D01*
X16999Y-18615D01*
X17899Y-18515D02*
Y-19115D01*
X17599Y-18815D01*
X17999D01*
X18199Y-18415D02*
X18599D01*
X18799Y-18515D02*
Y-19115D01*
X19198Y-18515D01*
Y-19115D01*
X19398Y-18515D02*
X19598D01*
X19498D01*
Y-19115D01*
X19398Y-19015D01*
X19898D02*
X19998Y-19115D01*
X20198D01*
X20298Y-19015D01*
Y-18615D01*
X20198Y-18515D01*
X19998D01*
X19898Y-18615D01*
Y-19015D01*
X26252Y-18515D02*
Y-19115D01*
X26552D01*
X26652Y-19015D01*
Y-18815D01*
X26552Y-18715D01*
X26252D01*
X26452D02*
X26652Y-18515D01*
X26852Y-19015D02*
X26952Y-19115D01*
X27151D01*
X27251Y-19015D01*
Y-18915D01*
X27151Y-18815D01*
X27052D01*
X27151D01*
X27251Y-18715D01*
Y-18615D01*
X27151Y-18515D01*
X26952D01*
X26852Y-18615D01*
X27751Y-18515D02*
Y-19115D01*
X27451Y-18815D01*
X27851D01*
X28051Y-18415D02*
X28451D01*
X28651Y-18515D02*
Y-19115D01*
X29051Y-18515D01*
Y-19115D01*
X29251Y-18515D02*
X29451D01*
X29351D01*
Y-19115D01*
X29251Y-19015D01*
X29751Y-18515D02*
X29951D01*
X29851D01*
Y-19115D01*
X29751Y-19015D01*
X36104Y-18515D02*
Y-19115D01*
X36404D01*
X36504Y-19015D01*
Y-18815D01*
X36404Y-18715D01*
X36104D01*
X36304D02*
X36504Y-18515D01*
X36704Y-19015D02*
X36804Y-19115D01*
X37004D01*
X37104Y-19015D01*
Y-18915D01*
X37004Y-18815D01*
X36904D01*
X37004D01*
X37104Y-18715D01*
Y-18615D01*
X37004Y-18515D01*
X36804D01*
X36704Y-18615D01*
X37604Y-18515D02*
Y-19115D01*
X37304Y-18815D01*
X37704D01*
X37904Y-18415D02*
X38303D01*
X38503Y-18515D02*
Y-19115D01*
X38903Y-18515D01*
Y-19115D01*
X39103Y-18515D02*
X39303D01*
X39203D01*
Y-19115D01*
X39103Y-19015D01*
X40003Y-18515D02*
X39603D01*
X40003Y-18915D01*
Y-19015D01*
X39903Y-19115D01*
X39703D01*
X39603Y-19015D01*
X45956Y-18515D02*
Y-19115D01*
X46256D01*
X46356Y-19015D01*
Y-18815D01*
X46256Y-18715D01*
X45956D01*
X46156D02*
X46356Y-18515D01*
X46556Y-19015D02*
X46656Y-19115D01*
X46856D01*
X46956Y-19015D01*
Y-18915D01*
X46856Y-18815D01*
X46756D01*
X46856D01*
X46956Y-18715D01*
Y-18615D01*
X46856Y-18515D01*
X46656D01*
X46556Y-18615D01*
X47456Y-18515D02*
Y-19115D01*
X47156Y-18815D01*
X47556D01*
X47756Y-18415D02*
X48156D01*
X48356Y-18515D02*
Y-19115D01*
X48756Y-18515D01*
Y-19115D01*
X48956Y-18515D02*
X49155D01*
X49055D01*
Y-19115D01*
X48956Y-19015D01*
X49455D02*
X49555Y-19115D01*
X49755D01*
X49855Y-19015D01*
Y-18915D01*
X49755Y-18815D01*
X49655D01*
X49755D01*
X49855Y-18715D01*
Y-18615D01*
X49755Y-18515D01*
X49555D01*
X49455Y-18615D01*
X55809Y-18515D02*
Y-19115D01*
X56109D01*
X56209Y-19015D01*
Y-18815D01*
X56109Y-18715D01*
X55809D01*
X56009D02*
X56209Y-18515D01*
X56409Y-19015D02*
X56509Y-19115D01*
X56709D01*
X56809Y-19015D01*
Y-18915D01*
X56709Y-18815D01*
X56609D01*
X56709D01*
X56809Y-18715D01*
Y-18615D01*
X56709Y-18515D01*
X56509D01*
X56409Y-18615D01*
X57308Y-18515D02*
Y-19115D01*
X57008Y-18815D01*
X57408D01*
X57608Y-18415D02*
X58008D01*
X58208Y-18515D02*
Y-19115D01*
X58608Y-18515D01*
Y-19115D01*
X58808Y-18515D02*
X59008D01*
X58908D01*
Y-19115D01*
X58808Y-19015D01*
X59608Y-18515D02*
Y-19115D01*
X59308Y-18815D01*
X59708D01*
X65661Y-18515D02*
Y-19115D01*
X65961D01*
X66061Y-19015D01*
Y-18815D01*
X65961Y-18715D01*
X65661D01*
X65861D02*
X66061Y-18515D01*
X66261Y-19015D02*
X66361Y-19115D01*
X66561D01*
X66661Y-19015D01*
Y-18915D01*
X66561Y-18815D01*
X66461D01*
X66561D01*
X66661Y-18715D01*
Y-18615D01*
X66561Y-18515D01*
X66361D01*
X66261Y-18615D01*
X67161Y-18515D02*
Y-19115D01*
X66861Y-18815D01*
X67261D01*
X67461Y-18415D02*
X67860D01*
X68060Y-18515D02*
Y-19115D01*
X68460Y-18515D01*
Y-19115D01*
X68660Y-18515D02*
X68860D01*
X68760D01*
Y-19115D01*
X68660Y-19015D01*
X69560Y-19115D02*
X69160D01*
Y-18815D01*
X69360Y-18915D01*
X69460D01*
X69560Y-18815D01*
Y-18615D01*
X69460Y-18515D01*
X69260D01*
X69160Y-18615D01*
X75514Y-18515D02*
Y-19115D01*
X75813D01*
X75913Y-19015D01*
Y-18815D01*
X75813Y-18715D01*
X75514D01*
X75714D02*
X75913Y-18515D01*
X76113Y-19015D02*
X76213Y-19115D01*
X76413D01*
X76513Y-19015D01*
Y-18915D01*
X76413Y-18815D01*
X76313D01*
X76413D01*
X76513Y-18715D01*
Y-18615D01*
X76413Y-18515D01*
X76213D01*
X76113Y-18615D01*
X77013Y-18515D02*
Y-19115D01*
X76713Y-18815D01*
X77113D01*
X77313Y-18415D02*
X77713D01*
X77913Y-18515D02*
Y-19115D01*
X78313Y-18515D01*
Y-19115D01*
X78513Y-18515D02*
X78713D01*
X78613D01*
Y-19115D01*
X78513Y-19015D01*
X79412Y-19115D02*
X79212Y-19015D01*
X79012Y-18815D01*
Y-18615D01*
X79112Y-18515D01*
X79312D01*
X79412Y-18615D01*
Y-18715D01*
X79312Y-18815D01*
X79012D01*
X103365Y-723D02*
X102765D01*
Y-1023D01*
X102865Y-1123D01*
X103065D01*
X103165Y-1023D01*
Y-723D01*
Y-923D02*
X103365Y-1123D01*
X102865Y-1323D02*
X102765Y-1423D01*
Y-1623D01*
X102865Y-1723D01*
X102965D01*
X103065Y-1623D01*
Y-1523D01*
Y-1623D01*
X103165Y-1723D01*
X103265D01*
X103365Y-1623D01*
Y-1423D01*
X103265Y-1323D01*
X102765Y-2323D02*
Y-1923D01*
X103065D01*
X102965Y-2123D01*
Y-2223D01*
X103065Y-2323D01*
X103265D01*
X103365Y-2223D01*
Y-2023D01*
X103265Y-1923D01*
X103465Y-2523D02*
Y-2923D01*
X103365Y-3123D02*
X102965D01*
X102765Y-3323D01*
X102965Y-3522D01*
X103365D01*
X103065D01*
Y-3123D01*
X103365Y-3722D02*
Y-3922D01*
Y-3822D01*
X102765D01*
X102865Y-3722D01*
X103374Y-8647D02*
X102775D01*
Y-8947D01*
X102875Y-9047D01*
X103075D01*
X103175Y-8947D01*
Y-8647D01*
Y-8847D02*
X103374Y-9047D01*
X102875Y-9247D02*
X102775Y-9347D01*
Y-9546D01*
X102875Y-9646D01*
X102975D01*
X103075Y-9546D01*
Y-9447D01*
Y-9546D01*
X103175Y-9646D01*
X103274D01*
X103374Y-9546D01*
Y-9347D01*
X103274Y-9247D01*
X102775Y-10246D02*
Y-9846D01*
X103075D01*
X102975Y-10046D01*
Y-10146D01*
X103075Y-10246D01*
X103274D01*
X103374Y-10146D01*
Y-9946D01*
X103274Y-9846D01*
X103474Y-10446D02*
Y-10846D01*
X103374Y-11046D02*
X102975D01*
X102775Y-11246D01*
X102975Y-11446D01*
X103374D01*
X103075D01*
Y-11046D01*
X103374Y-12046D02*
Y-11646D01*
X102975Y-12046D01*
X102875D01*
X102775Y-11946D01*
Y-11746D01*
X102875Y-11646D01*
X103256Y-16770D02*
X102657D01*
Y-17070D01*
X102756Y-17170D01*
X102956D01*
X103056Y-17070D01*
Y-16770D01*
Y-16970D02*
X103256Y-17170D01*
X102756Y-17370D02*
X102657Y-17470D01*
Y-17670D01*
X102756Y-17770D01*
X102856D01*
X102956Y-17670D01*
Y-17570D01*
Y-17670D01*
X103056Y-17770D01*
X103156D01*
X103256Y-17670D01*
Y-17470D01*
X103156Y-17370D01*
X102657Y-18370D02*
Y-17970D01*
X102956D01*
X102856Y-18170D01*
Y-18270D01*
X102956Y-18370D01*
X103156D01*
X103256Y-18270D01*
Y-18070D01*
X103156Y-17970D01*
X103356Y-18570D02*
Y-18969D01*
X103256Y-19169D02*
X102856D01*
X102657Y-19369D01*
X102856Y-19569D01*
X103256D01*
X102956D01*
Y-19169D01*
X102756Y-19769D02*
X102657Y-19869D01*
Y-20069D01*
X102756Y-20169D01*
X102856D01*
X102956Y-20069D01*
Y-19969D01*
Y-20069D01*
X103056Y-20169D01*
X103156D01*
X103256Y-20069D01*
Y-19869D01*
X103156Y-19769D01*
X103296Y-24893D02*
X102696D01*
Y-25193D01*
X102796Y-25293D01*
X102996D01*
X103096Y-25193D01*
Y-24893D01*
Y-25093D02*
X103296Y-25293D01*
X102796Y-25493D02*
X102696Y-25593D01*
Y-25793D01*
X102796Y-25893D01*
X102896D01*
X102996Y-25793D01*
Y-25693D01*
Y-25793D01*
X103096Y-25893D01*
X103196D01*
X103296Y-25793D01*
Y-25593D01*
X103196Y-25493D01*
X102696Y-26493D02*
Y-26093D01*
X102996D01*
X102896Y-26293D01*
Y-26393D01*
X102996Y-26493D01*
X103196D01*
X103296Y-26393D01*
Y-26193D01*
X103196Y-26093D01*
X103396Y-26693D02*
Y-27093D01*
X103296Y-27293D02*
X102896D01*
X102696Y-27493D01*
X102896Y-27693D01*
X103296D01*
X102996D01*
Y-27293D01*
X103296Y-28192D02*
X102696D01*
X102996Y-27893D01*
Y-28292D01*
X116329Y-18044D02*
X116929D01*
Y-17744D01*
X116829Y-17644D01*
X116629D01*
X116529Y-17744D01*
Y-18044D01*
Y-17844D02*
X116329Y-17644D01*
X116829Y-17444D02*
X116929Y-17344D01*
Y-17144D01*
X116829Y-17044D01*
X116729D01*
X116629Y-17144D01*
Y-17244D01*
Y-17144D01*
X116529Y-17044D01*
X116429D01*
X116329Y-17144D01*
Y-17344D01*
X116429Y-17444D01*
X116929Y-16444D02*
Y-16844D01*
X116629D01*
X116729Y-16644D01*
Y-16544D01*
X116629Y-16444D01*
X116429D01*
X116329Y-16544D01*
Y-16744D01*
X116429Y-16844D01*
X116229Y-16244D02*
Y-15844D01*
X116329Y-15644D02*
X116729D01*
X116929Y-15444D01*
X116729Y-15244D01*
X116329D01*
X116629D01*
Y-15644D01*
X116929Y-14645D02*
Y-15044D01*
X116629D01*
X116729Y-14845D01*
Y-14745D01*
X116629Y-14645D01*
X116429D01*
X116329Y-14745D01*
Y-14945D01*
X116429Y-15044D01*
X116329Y-26330D02*
X116929D01*
Y-26030D01*
X116829Y-25930D01*
X116629D01*
X116529Y-26030D01*
Y-26330D01*
Y-26130D02*
X116329Y-25930D01*
X116829Y-25730D02*
X116929Y-25630D01*
Y-25430D01*
X116829Y-25330D01*
X116729D01*
X116629Y-25430D01*
Y-25530D01*
Y-25430D01*
X116529Y-25330D01*
X116429D01*
X116329Y-25430D01*
Y-25630D01*
X116429Y-25730D01*
X116929Y-24730D02*
Y-25130D01*
X116629D01*
X116729Y-24930D01*
Y-24830D01*
X116629Y-24730D01*
X116429D01*
X116329Y-24830D01*
Y-25030D01*
X116429Y-25130D01*
X116229Y-24530D02*
Y-24130D01*
X116329Y-23930D02*
X116729D01*
X116929Y-23730D01*
X116729Y-23531D01*
X116329D01*
X116629D01*
Y-23930D01*
X116929Y-22931D02*
X116829Y-23131D01*
X116629Y-23331D01*
X116429D01*
X116329Y-23231D01*
Y-23031D01*
X116429Y-22931D01*
X116529D01*
X116629Y-23031D01*
Y-23331D01*
X116329Y-34616D02*
X116929D01*
Y-34316D01*
X116829Y-34216D01*
X116629D01*
X116529Y-34316D01*
Y-34616D01*
Y-34416D02*
X116329Y-34216D01*
X116829Y-34016D02*
X116929Y-33916D01*
Y-33716D01*
X116829Y-33616D01*
X116729D01*
X116629Y-33716D01*
Y-33816D01*
Y-33716D01*
X116529Y-33616D01*
X116429D01*
X116329Y-33716D01*
Y-33916D01*
X116429Y-34016D01*
X116929Y-33016D02*
Y-33416D01*
X116629D01*
X116729Y-33216D01*
Y-33116D01*
X116629Y-33016D01*
X116429D01*
X116329Y-33116D01*
Y-33316D01*
X116429Y-33416D01*
X116229Y-32816D02*
Y-32416D01*
X116329Y-32216D02*
X116729D01*
X116929Y-32017D01*
X116729Y-31817D01*
X116329D01*
X116629D01*
Y-32216D01*
X116929Y-31617D02*
Y-31217D01*
X116829D01*
X116429Y-31617D01*
X116329D01*
X116329Y-42902D02*
X116929D01*
Y-42602D01*
X116829Y-42502D01*
X116629D01*
X116529Y-42602D01*
Y-42902D01*
Y-42702D02*
X116329Y-42502D01*
X116829Y-42302D02*
X116929Y-42202D01*
Y-42002D01*
X116829Y-41902D01*
X116729D01*
X116629Y-42002D01*
Y-42102D01*
Y-42002D01*
X116529Y-41902D01*
X116429D01*
X116329Y-42002D01*
Y-42202D01*
X116429Y-42302D01*
X116929Y-41302D02*
Y-41702D01*
X116629D01*
X116729Y-41502D01*
Y-41402D01*
X116629Y-41302D01*
X116429D01*
X116329Y-41402D01*
Y-41602D01*
X116429Y-41702D01*
X116229Y-41102D02*
Y-40702D01*
X116329Y-40503D02*
X116729D01*
X116929Y-40303D01*
X116729Y-40103D01*
X116329D01*
X116629D01*
Y-40503D01*
X116829Y-39903D02*
X116929Y-39803D01*
Y-39603D01*
X116829Y-39503D01*
X116729D01*
X116629Y-39603D01*
X116529Y-39503D01*
X116429D01*
X116329Y-39603D01*
Y-39803D01*
X116429Y-39903D01*
X116529D01*
X116629Y-39803D01*
X116729Y-39903D01*
X116829D01*
X116629Y-39803D02*
Y-39603D01*
X4185Y-8633D02*
Y-9233D01*
X4485D01*
X4585Y-9133D01*
Y-8933D01*
X4485Y-8833D01*
X4185D01*
X4385D02*
X4585Y-8633D01*
X4785Y-9133D02*
X4885Y-9233D01*
X5085D01*
X5185Y-9133D01*
Y-9033D01*
X5085Y-8933D01*
X4985D01*
X5085D01*
X5185Y-8833D01*
Y-8733D01*
X5085Y-8633D01*
X4885D01*
X4785Y-8733D01*
X5784Y-9233D02*
X5384D01*
Y-8933D01*
X5584Y-9033D01*
X5684D01*
X5784Y-8933D01*
Y-8733D01*
X5684Y-8633D01*
X5484D01*
X5384Y-8733D01*
X5984Y-8533D02*
X6384D01*
X6584Y-8633D02*
Y-9233D01*
X6984Y-8633D01*
Y-9233D01*
X7184Y-8633D02*
X7384D01*
X7284D01*
Y-9233D01*
X7184Y-9133D01*
X14027Y-8633D02*
Y-9233D01*
X14327D01*
X14427Y-9133D01*
Y-8933D01*
X14327Y-8833D01*
X14027D01*
X14227D02*
X14427Y-8633D01*
X14627Y-9133D02*
X14727Y-9233D01*
X14927D01*
X15027Y-9133D01*
Y-9033D01*
X14927Y-8933D01*
X14827D01*
X14927D01*
X15027Y-8833D01*
Y-8733D01*
X14927Y-8633D01*
X14727D01*
X14627Y-8733D01*
X15627Y-9233D02*
X15227D01*
Y-8933D01*
X15427Y-9033D01*
X15527D01*
X15627Y-8933D01*
Y-8733D01*
X15527Y-8633D01*
X15327D01*
X15227Y-8733D01*
X15827Y-8533D02*
X16227D01*
X16427Y-8633D02*
Y-9233D01*
X16826Y-8633D01*
Y-9233D01*
X17426Y-8633D02*
X17026D01*
X17426Y-9033D01*
Y-9133D01*
X17326Y-9233D01*
X17126D01*
X17026Y-9133D01*
X23870Y-8633D02*
Y-9233D01*
X24170D01*
X24270Y-9133D01*
Y-8933D01*
X24170Y-8833D01*
X23870D01*
X24070D02*
X24270Y-8633D01*
X24470Y-9133D02*
X24570Y-9233D01*
X24770D01*
X24870Y-9133D01*
Y-9033D01*
X24770Y-8933D01*
X24670D01*
X24770D01*
X24870Y-8833D01*
Y-8733D01*
X24770Y-8633D01*
X24570D01*
X24470Y-8733D01*
X25469Y-9233D02*
X25069D01*
Y-8933D01*
X25269Y-9033D01*
X25369D01*
X25469Y-8933D01*
Y-8733D01*
X25369Y-8633D01*
X25169D01*
X25069Y-8733D01*
X25669Y-8533D02*
X26069D01*
X26269Y-8633D02*
Y-9233D01*
X26669Y-8633D01*
Y-9233D01*
X26869Y-9133D02*
X26969Y-9233D01*
X27169D01*
X27269Y-9133D01*
Y-9033D01*
X27169Y-8933D01*
X27069D01*
X27169D01*
X27269Y-8833D01*
Y-8733D01*
X27169Y-8633D01*
X26969D01*
X26869Y-8733D01*
X33712Y-8633D02*
Y-9233D01*
X34012D01*
X34112Y-9133D01*
Y-8933D01*
X34012Y-8833D01*
X33712D01*
X33912D02*
X34112Y-8633D01*
X34312Y-9133D02*
X34412Y-9233D01*
X34612D01*
X34712Y-9133D01*
Y-9033D01*
X34612Y-8933D01*
X34512D01*
X34612D01*
X34712Y-8833D01*
Y-8733D01*
X34612Y-8633D01*
X34412D01*
X34312Y-8733D01*
X35312Y-9233D02*
X34912D01*
Y-8933D01*
X35112Y-9033D01*
X35212D01*
X35312Y-8933D01*
Y-8733D01*
X35212Y-8633D01*
X35012D01*
X34912Y-8733D01*
X35512Y-8533D02*
X35912D01*
X36112Y-8633D02*
Y-9233D01*
X36511Y-8633D01*
Y-9233D01*
X37011Y-8633D02*
Y-9233D01*
X36711Y-8933D01*
X37111D01*
X43555Y-8633D02*
Y-9233D01*
X43855D01*
X43955Y-9133D01*
Y-8933D01*
X43855Y-8833D01*
X43555D01*
X43755D02*
X43955Y-8633D01*
X44155Y-9133D02*
X44255Y-9233D01*
X44455D01*
X44555Y-9133D01*
Y-9033D01*
X44455Y-8933D01*
X44355D01*
X44455D01*
X44555Y-8833D01*
Y-8733D01*
X44455Y-8633D01*
X44255D01*
X44155Y-8733D01*
X45154Y-9233D02*
X44755D01*
Y-8933D01*
X44954Y-9033D01*
X45054D01*
X45154Y-8933D01*
Y-8733D01*
X45054Y-8633D01*
X44854D01*
X44755Y-8733D01*
X45354Y-8533D02*
X45754D01*
X45954Y-8633D02*
Y-9233D01*
X46354Y-8633D01*
Y-9233D01*
X46954D02*
X46554D01*
Y-8933D01*
X46754Y-9033D01*
X46854D01*
X46954Y-8933D01*
Y-8733D01*
X46854Y-8633D01*
X46654D01*
X46554Y-8733D01*
X53397Y-8633D02*
Y-9233D01*
X53697D01*
X53797Y-9133D01*
Y-8933D01*
X53697Y-8833D01*
X53397D01*
X53597D02*
X53797Y-8633D01*
X53997Y-9133D02*
X54097Y-9233D01*
X54297D01*
X54397Y-9133D01*
Y-9033D01*
X54297Y-8933D01*
X54197D01*
X54297D01*
X54397Y-8833D01*
Y-8733D01*
X54297Y-8633D01*
X54097D01*
X53997Y-8733D01*
X54997Y-9233D02*
X54597D01*
Y-8933D01*
X54797Y-9033D01*
X54897D01*
X54997Y-8933D01*
Y-8733D01*
X54897Y-8633D01*
X54697D01*
X54597Y-8733D01*
X55197Y-8533D02*
X55597D01*
X55797Y-8633D02*
Y-9233D01*
X56197Y-8633D01*
Y-9233D01*
X56796D02*
X56596Y-9133D01*
X56396Y-8933D01*
Y-8733D01*
X56496Y-8633D01*
X56696D01*
X56796Y-8733D01*
Y-8833D01*
X56696Y-8933D01*
X56396D01*
X63240Y-8633D02*
Y-9233D01*
X63540D01*
X63640Y-9133D01*
Y-8933D01*
X63540Y-8833D01*
X63240D01*
X63440D02*
X63640Y-8633D01*
X63840Y-9133D02*
X63940Y-9233D01*
X64140D01*
X64240Y-9133D01*
Y-9033D01*
X64140Y-8933D01*
X64040D01*
X64140D01*
X64240Y-8833D01*
Y-8733D01*
X64140Y-8633D01*
X63940D01*
X63840Y-8733D01*
X64839Y-9233D02*
X64440D01*
Y-8933D01*
X64640Y-9033D01*
X64739D01*
X64839Y-8933D01*
Y-8733D01*
X64739Y-8633D01*
X64540D01*
X64440Y-8733D01*
X65039Y-8533D02*
X65439D01*
X65639Y-8633D02*
Y-9233D01*
X66039Y-8633D01*
Y-9233D01*
X66239D02*
X66639D01*
Y-9133D01*
X66239Y-8733D01*
Y-8633D01*
X73151Y-8633D02*
Y-9233D01*
X73451D01*
X73551Y-9133D01*
Y-8933D01*
X73451Y-8833D01*
X73151D01*
X73351D02*
X73551Y-8633D01*
X73751Y-9133D02*
X73851Y-9233D01*
X74051D01*
X74151Y-9133D01*
Y-9033D01*
X74051Y-8933D01*
X73951D01*
X74051D01*
X74151Y-8833D01*
Y-8733D01*
X74051Y-8633D01*
X73851D01*
X73751Y-8733D01*
X74751Y-9233D02*
X74351D01*
Y-8933D01*
X74551Y-9033D01*
X74651D01*
X74751Y-8933D01*
Y-8733D01*
X74651Y-8633D01*
X74451D01*
X74351Y-8733D01*
X74951Y-8533D02*
X75351D01*
X75551Y-8633D02*
Y-9233D01*
X75950Y-8633D01*
Y-9233D01*
X76150Y-9133D02*
X76250Y-9233D01*
X76450D01*
X76550Y-9133D01*
Y-9033D01*
X76450Y-8933D01*
X76550Y-8833D01*
Y-8733D01*
X76450Y-8633D01*
X76250D01*
X76150Y-8733D01*
Y-8833D01*
X76250Y-8933D01*
X76150Y-9033D01*
Y-9133D01*
X76250Y-8933D02*
X76450D01*
X4185Y-18476D02*
Y-19076D01*
X4485D01*
X4585Y-18976D01*
Y-18776D01*
X4485Y-18676D01*
X4185D01*
X4385D02*
X4585Y-18476D01*
X4785Y-18976D02*
X4885Y-19076D01*
X5085D01*
X5185Y-18976D01*
Y-18876D01*
X5085Y-18776D01*
X4985D01*
X5085D01*
X5185Y-18676D01*
Y-18576D01*
X5085Y-18476D01*
X4885D01*
X4785Y-18576D01*
X5784Y-19076D02*
X5384D01*
Y-18776D01*
X5584Y-18876D01*
X5684D01*
X5784Y-18776D01*
Y-18576D01*
X5684Y-18476D01*
X5484D01*
X5384Y-18576D01*
X5984Y-18376D02*
X6384D01*
X6584Y-18476D02*
Y-19076D01*
X6984Y-18476D01*
Y-19076D01*
X7184Y-18576D02*
X7284Y-18476D01*
X7484D01*
X7584Y-18576D01*
Y-18976D01*
X7484Y-19076D01*
X7284D01*
X7184Y-18976D01*
Y-18876D01*
X7284Y-18776D01*
X7584D01*
X14037Y-18476D02*
Y-19076D01*
X14337D01*
X14437Y-18976D01*
Y-18776D01*
X14337Y-18676D01*
X14037D01*
X14237D02*
X14437Y-18476D01*
X14637Y-18976D02*
X14737Y-19076D01*
X14937D01*
X15037Y-18976D01*
Y-18876D01*
X14937Y-18776D01*
X14837D01*
X14937D01*
X15037Y-18676D01*
Y-18576D01*
X14937Y-18476D01*
X14737D01*
X14637Y-18576D01*
X15637Y-19076D02*
X15237D01*
Y-18776D01*
X15437Y-18876D01*
X15537D01*
X15637Y-18776D01*
Y-18576D01*
X15537Y-18476D01*
X15337D01*
X15237Y-18576D01*
X15837Y-18376D02*
X16236D01*
X16436Y-18476D02*
Y-19076D01*
X16836Y-18476D01*
Y-19076D01*
X17036Y-18476D02*
X17236D01*
X17136D01*
Y-19076D01*
X17036Y-18976D01*
X17536D02*
X17636Y-19076D01*
X17836D01*
X17936Y-18976D01*
Y-18576D01*
X17836Y-18476D01*
X17636D01*
X17536Y-18576D01*
Y-18976D01*
X23890Y-18476D02*
Y-19076D01*
X24189D01*
X24289Y-18976D01*
Y-18776D01*
X24189Y-18676D01*
X23890D01*
X24090D02*
X24289Y-18476D01*
X24489Y-18976D02*
X24589Y-19076D01*
X24789D01*
X24889Y-18976D01*
Y-18876D01*
X24789Y-18776D01*
X24689D01*
X24789D01*
X24889Y-18676D01*
Y-18576D01*
X24789Y-18476D01*
X24589D01*
X24489Y-18576D01*
X25489Y-19076D02*
X25089D01*
Y-18776D01*
X25289Y-18876D01*
X25389D01*
X25489Y-18776D01*
Y-18576D01*
X25389Y-18476D01*
X25189D01*
X25089Y-18576D01*
X25689Y-18376D02*
X26089D01*
X26289Y-18476D02*
Y-19076D01*
X26689Y-18476D01*
Y-19076D01*
X26889Y-18476D02*
X27089D01*
X26989D01*
Y-19076D01*
X26889Y-18976D01*
X27388Y-18476D02*
X27588D01*
X27488D01*
Y-19076D01*
X27388Y-18976D01*
X33742Y-18476D02*
Y-19076D01*
X34042D01*
X34142Y-18976D01*
Y-18776D01*
X34042Y-18676D01*
X33742D01*
X33942D02*
X34142Y-18476D01*
X34342Y-18976D02*
X34442Y-19076D01*
X34642D01*
X34742Y-18976D01*
Y-18876D01*
X34642Y-18776D01*
X34542D01*
X34642D01*
X34742Y-18676D01*
Y-18576D01*
X34642Y-18476D01*
X34442D01*
X34342Y-18576D01*
X35341Y-19076D02*
X34942D01*
Y-18776D01*
X35141Y-18876D01*
X35241D01*
X35341Y-18776D01*
Y-18576D01*
X35241Y-18476D01*
X35041D01*
X34942Y-18576D01*
X35541Y-18376D02*
X35941D01*
X36141Y-18476D02*
Y-19076D01*
X36541Y-18476D01*
Y-19076D01*
X36741Y-18476D02*
X36941D01*
X36841D01*
Y-19076D01*
X36741Y-18976D01*
X37641Y-18476D02*
X37241D01*
X37641Y-18876D01*
Y-18976D01*
X37541Y-19076D01*
X37341D01*
X37241Y-18976D01*
X43594Y-18476D02*
Y-19076D01*
X43894D01*
X43994Y-18976D01*
Y-18776D01*
X43894Y-18676D01*
X43594D01*
X43794D02*
X43994Y-18476D01*
X44194Y-18976D02*
X44294Y-19076D01*
X44494D01*
X44594Y-18976D01*
Y-18876D01*
X44494Y-18776D01*
X44394D01*
X44494D01*
X44594Y-18676D01*
Y-18576D01*
X44494Y-18476D01*
X44294D01*
X44194Y-18576D01*
X45194Y-19076D02*
X44794D01*
Y-18776D01*
X44994Y-18876D01*
X45094D01*
X45194Y-18776D01*
Y-18576D01*
X45094Y-18476D01*
X44894D01*
X44794Y-18576D01*
X45394Y-18376D02*
X45794D01*
X45994Y-18476D02*
Y-19076D01*
X46393Y-18476D01*
Y-19076D01*
X46593Y-18476D02*
X46793D01*
X46693D01*
Y-19076D01*
X46593Y-18976D01*
X47093D02*
X47193Y-19076D01*
X47393D01*
X47493Y-18976D01*
Y-18876D01*
X47393Y-18776D01*
X47293D01*
X47393D01*
X47493Y-18676D01*
Y-18576D01*
X47393Y-18476D01*
X47193D01*
X47093Y-18576D01*
X53447Y-18476D02*
Y-19076D01*
X53747D01*
X53847Y-18976D01*
Y-18776D01*
X53747Y-18676D01*
X53447D01*
X53647D02*
X53847Y-18476D01*
X54046Y-18976D02*
X54146Y-19076D01*
X54346D01*
X54446Y-18976D01*
Y-18876D01*
X54346Y-18776D01*
X54246D01*
X54346D01*
X54446Y-18676D01*
Y-18576D01*
X54346Y-18476D01*
X54146D01*
X54046Y-18576D01*
X55046Y-19076D02*
X54646D01*
Y-18776D01*
X54846Y-18876D01*
X54946D01*
X55046Y-18776D01*
Y-18576D01*
X54946Y-18476D01*
X54746D01*
X54646Y-18576D01*
X55246Y-18376D02*
X55646D01*
X55846Y-18476D02*
Y-19076D01*
X56246Y-18476D01*
Y-19076D01*
X56446Y-18476D02*
X56646D01*
X56546D01*
Y-19076D01*
X56446Y-18976D01*
X57245Y-18476D02*
Y-19076D01*
X56946Y-18776D01*
X57345D01*
X63299Y-18476D02*
Y-19076D01*
X63599D01*
X63699Y-18976D01*
Y-18776D01*
X63599Y-18676D01*
X63299D01*
X63499D02*
X63699Y-18476D01*
X63899Y-18976D02*
X63999Y-19076D01*
X64199D01*
X64299Y-18976D01*
Y-18876D01*
X64199Y-18776D01*
X64099D01*
X64199D01*
X64299Y-18676D01*
Y-18576D01*
X64199Y-18476D01*
X63999D01*
X63899Y-18576D01*
X64898Y-19076D02*
X64499D01*
Y-18776D01*
X64699Y-18876D01*
X64799D01*
X64898Y-18776D01*
Y-18576D01*
X64799Y-18476D01*
X64599D01*
X64499Y-18576D01*
X65098Y-18376D02*
X65498D01*
X65698Y-18476D02*
Y-19076D01*
X66098Y-18476D01*
Y-19076D01*
X66298Y-18476D02*
X66498D01*
X66398D01*
Y-19076D01*
X66298Y-18976D01*
X67198Y-19076D02*
X66798D01*
Y-18776D01*
X66998Y-18876D01*
X67098D01*
X67198Y-18776D01*
Y-18576D01*
X67098Y-18476D01*
X66898D01*
X66798Y-18576D01*
X73151Y-18476D02*
Y-19076D01*
X73451D01*
X73551Y-18976D01*
Y-18776D01*
X73451Y-18676D01*
X73151D01*
X73351D02*
X73551Y-18476D01*
X73751Y-18976D02*
X73851Y-19076D01*
X74051D01*
X74151Y-18976D01*
Y-18876D01*
X74051Y-18776D01*
X73951D01*
X74051D01*
X74151Y-18676D01*
Y-18576D01*
X74051Y-18476D01*
X73851D01*
X73751Y-18576D01*
X74751Y-19076D02*
X74351D01*
Y-18776D01*
X74551Y-18876D01*
X74651D01*
X74751Y-18776D01*
Y-18576D01*
X74651Y-18476D01*
X74451D01*
X74351Y-18576D01*
X74951Y-18376D02*
X75351D01*
X75551Y-18476D02*
Y-19076D01*
X75950Y-18476D01*
Y-19076D01*
X76150Y-18476D02*
X76350D01*
X76250D01*
Y-19076D01*
X76150Y-18976D01*
X77050Y-19076D02*
X76850Y-18976D01*
X76650Y-18776D01*
Y-18576D01*
X76750Y-18476D01*
X76950D01*
X77050Y-18576D01*
Y-18676D01*
X76950Y-18776D01*
X76650D01*
X97472Y-1390D02*
Y-1890D01*
X97372Y-1990D01*
X97172D01*
X97072Y-1890D01*
Y-1390D01*
X96872Y-1490D02*
X96772Y-1390D01*
X96572D01*
X96472Y-1490D01*
Y-1590D01*
X96572Y-1690D01*
X96472Y-1790D01*
Y-1890D01*
X96572Y-1990D01*
X96772D01*
X96872Y-1890D01*
Y-1790D01*
X96772Y-1690D01*
X96872Y-1590D01*
Y-1490D01*
X96772Y-1690D02*
X96572D01*
X14114Y-35131D02*
Y-35731D01*
X13814D01*
X13714Y-35631D01*
Y-35231D01*
X13814Y-35131D01*
X14114D01*
X13515Y-35731D02*
Y-35131D01*
X13215D01*
X13115Y-35231D01*
Y-35431D01*
X13215Y-35531D01*
X13515D01*
X13315D02*
X13115Y-35731D01*
X12915Y-35131D02*
Y-35531D01*
X12715Y-35731D01*
X12515Y-35531D01*
Y-35131D01*
X12015Y-35731D02*
Y-35131D01*
X12315Y-35431D01*
X11915D01*
X33851Y-35386D02*
Y-35985D01*
X33552D01*
X33452Y-35885D01*
Y-35486D01*
X33552Y-35386D01*
X33851D01*
X33252Y-35985D02*
Y-35386D01*
X32952D01*
X32852Y-35486D01*
Y-35686D01*
X32952Y-35786D01*
X33252D01*
X33052D02*
X32852Y-35985D01*
X32652Y-35386D02*
Y-35786D01*
X32452Y-35985D01*
X32252Y-35786D01*
Y-35386D01*
X32052Y-35486D02*
X31952Y-35386D01*
X31752D01*
X31652Y-35486D01*
Y-35586D01*
X31752Y-35686D01*
X31852D01*
X31752D01*
X31652Y-35786D01*
Y-35885D01*
X31752Y-35985D01*
X31952D01*
X32052Y-35885D01*
X53740Y-35030D02*
Y-35630D01*
X53440D01*
X53340Y-35530D01*
Y-35130D01*
X53440Y-35030D01*
X53740D01*
X53140Y-35630D02*
Y-35030D01*
X52840D01*
X52740Y-35130D01*
Y-35330D01*
X52840Y-35430D01*
X53140D01*
X52940D02*
X52740Y-35630D01*
X52541Y-35030D02*
Y-35430D01*
X52341Y-35630D01*
X52141Y-35430D01*
Y-35030D01*
X51541Y-35630D02*
X51941D01*
X51541Y-35230D01*
Y-35130D01*
X51641Y-35030D01*
X51841D01*
X51941Y-35130D01*
X73154Y-35031D02*
Y-35631D01*
X72854D01*
X72754Y-35531D01*
Y-35131D01*
X72854Y-35031D01*
X73154D01*
X72555Y-35631D02*
Y-35031D01*
X72255D01*
X72155Y-35131D01*
Y-35331D01*
X72255Y-35431D01*
X72555D01*
X72355D02*
X72155Y-35631D01*
X71955Y-35031D02*
Y-35431D01*
X71755Y-35631D01*
X71555Y-35431D01*
Y-35031D01*
X71355Y-35631D02*
X71155D01*
X71255D01*
Y-35031D01*
X71355Y-35131D01*
X50975Y-1704D02*
Y-1104D01*
X50575Y-1704D01*
Y-1104D01*
X49975D02*
X50375D01*
Y-1704D01*
X49975D01*
X50375Y-1404D02*
X50175D01*
X49775Y-1704D02*
X49575D01*
X49675D01*
Y-1104D01*
X49775Y-1204D01*
D38*
X34912Y-1378D02*
G03*
X34912Y-1378I-150J0D01*
G01*
X84085Y-3770D02*
G03*
X84085Y-3770I-150J0D01*
G01*
X84194Y-11844D02*
G03*
X84194Y-11844I-150J0D01*
G01*
X84164Y-19918D02*
G03*
X84164Y-19918I-150J0D01*
G01*
X84125Y-27992D02*
G03*
X84125Y-27992I-150J0D01*
G01*
X122117Y-2037D02*
G03*
X122117Y-2037I-150J0D01*
G01*
Y-6959D02*
G03*
X122117Y-6959I-150J0D01*
G01*
D39*
X96130Y-12363D02*
X96570D01*
X96130Y-13793D02*
X96570D01*
X89949Y-12363D02*
X90389D01*
X89949Y-13793D02*
X90389D01*
X97003Y-29163D02*
X97443D01*
X97003Y-27733D02*
X97443D01*
X90822Y-29163D02*
X91262D01*
X90822Y-27733D02*
X91262D01*
X96923Y-2827D02*
X96992D01*
X95923D02*
X96211D01*
X89142Y-5527D02*
Y-2827D01*
X89211D01*
X96992Y-5527D02*
Y-2827D01*
X95923Y-5527D02*
X96181D01*
X94923D02*
X95211D01*
X93923D02*
X94211D01*
X92923D02*
X93211D01*
X91923D02*
X92211D01*
X90923D02*
X91211D01*
X89923D02*
X90211D01*
X89142D02*
X89211D01*
X89923Y-2827D02*
X90211D01*
X90923D02*
X91211D01*
X91923D02*
X92211D01*
X92923D02*
X93211D01*
X93923D02*
X94211D01*
X94923D02*
X95211D01*
D40*
X35512Y-3663D02*
Y-3497D01*
Y-3580D01*
X36012D01*
X35929Y-3663D01*
X35512Y-2914D02*
Y-3247D01*
X35845Y-2914D01*
X35929D01*
X36012Y-2997D01*
Y-3163D01*
X35929Y-3247D01*
X35512Y-3663D02*
Y-3497D01*
Y-3580D01*
X36012D01*
X35929Y-3663D01*
X35512Y-2914D02*
Y-3247D01*
X35845Y-2914D01*
X35929D01*
X36012Y-2997D01*
Y-3163D01*
X35929Y-3247D01*
X35512Y-1258D02*
Y-1091D01*
Y-1175D01*
X36012D01*
X35929Y-1258D01*
X35512D02*
Y-1091D01*
Y-1175D01*
X36012D01*
X35929Y-1258D01*
X96740Y-11746D02*
X96407Y-12079D01*
X96740D02*
X96407Y-11746D01*
X96740Y-11913D02*
X96407D01*
X96574Y-12079D02*
Y-11746D01*
X96350Y-13078D02*
Y-12578D01*
X96100D01*
X96017Y-12661D01*
Y-12828D01*
X96100Y-12911D01*
X96350D01*
X95850Y-13078D02*
Y-12578D01*
X95517Y-13078D01*
Y-12578D01*
X96350D02*
Y-13078D01*
X96100D01*
X96017Y-12994D01*
Y-12661D01*
X96100Y-12578D01*
X96350D01*
X95517D02*
X95850D01*
Y-13078D01*
X95517D01*
X95850Y-12828D02*
X95684D01*
X95350Y-12578D02*
Y-12911D01*
X95184Y-13078D01*
X95017Y-12911D01*
Y-12578D01*
X96350D02*
Y-12911D01*
X96184Y-13078D01*
X96017Y-12911D01*
Y-12578D01*
X95850Y-13078D02*
Y-12745D01*
X95684Y-12578D01*
X95517Y-12745D01*
Y-13078D01*
Y-12828D01*
X95850D01*
X95350Y-12578D02*
Y-13078D01*
X95017D01*
X96350Y-12578D02*
X96017D01*
X96184D01*
Y-13078D01*
X95600Y-12578D02*
X95767D01*
X95850Y-12661D01*
Y-12994D01*
X95767Y-13078D01*
X95600D01*
X95517Y-12994D01*
Y-12661D01*
X95600Y-12578D01*
X95350D02*
Y-13078D01*
X95017D01*
X90559Y-11746D02*
X90226Y-12079D01*
X90559D02*
X90226Y-11746D01*
X90559Y-11913D02*
X90226D01*
X90392Y-12079D02*
Y-11746D01*
X96833Y-29779D02*
X97166Y-29446D01*
X96833D02*
X97166Y-29779D01*
X96833Y-29613D02*
X97166D01*
X96999Y-29446D02*
Y-29779D01*
X90652Y-29779D02*
X90985Y-29446D01*
X90652D02*
X90985Y-29779D01*
X90652Y-29613D02*
X90985D01*
X90818Y-29446D02*
Y-29779D01*
X97538Y-5677D02*
X97205Y-5344D01*
Y-5677D02*
X97538Y-5344D01*
X97372Y-5677D02*
Y-5344D01*
X97205Y-5511D02*
X97538D01*
X84685Y-6055D02*
Y-5888D01*
Y-5972D01*
X85185D01*
X85102Y-6055D01*
X84685Y-5305D02*
Y-5638D01*
X85019Y-5305D01*
X85102D01*
X85185Y-5389D01*
Y-5555D01*
X85102Y-5638D01*
X84685Y-6055D02*
Y-5888D01*
Y-5972D01*
X85185D01*
X85102Y-6055D01*
X84685Y-5305D02*
Y-5638D01*
X85019Y-5305D01*
X85102D01*
X85185Y-5389D01*
Y-5555D01*
X85102Y-5638D01*
X84685Y-3650D02*
Y-3483D01*
Y-3566D01*
X85185D01*
X85102Y-3650D01*
X84685D02*
Y-3483D01*
Y-3566D01*
X85185D01*
X85102Y-3650D01*
X84794Y-14129D02*
Y-13962D01*
Y-14046D01*
X85293D01*
X85210Y-14129D01*
X84794Y-13379D02*
Y-13713D01*
X85127Y-13379D01*
X85210D01*
X85293Y-13463D01*
Y-13629D01*
X85210Y-13713D01*
X84794Y-14129D02*
Y-13962D01*
Y-14046D01*
X85293D01*
X85210Y-14129D01*
X84794Y-13379D02*
Y-13713D01*
X85127Y-13379D01*
X85210D01*
X85293Y-13463D01*
Y-13629D01*
X85210Y-13713D01*
X84794Y-11724D02*
Y-11557D01*
Y-11640D01*
X85293D01*
X85210Y-11724D01*
X84794D02*
Y-11557D01*
Y-11640D01*
X85293D01*
X85210Y-11724D01*
X84764Y-22203D02*
Y-22036D01*
Y-22120D01*
X85264D01*
X85181Y-22203D01*
X84764Y-21453D02*
Y-21787D01*
X85097Y-21453D01*
X85181D01*
X85264Y-21537D01*
Y-21703D01*
X85181Y-21787D01*
X84764Y-22203D02*
Y-22036D01*
Y-22120D01*
X85264D01*
X85181Y-22203D01*
X84764Y-21453D02*
Y-21787D01*
X85097Y-21453D01*
X85181D01*
X85264Y-21537D01*
Y-21703D01*
X85181Y-21787D01*
X84764Y-19798D02*
Y-19631D01*
Y-19714D01*
X85264D01*
X85181Y-19798D01*
X84764D02*
Y-19631D01*
Y-19714D01*
X85264D01*
X85181Y-19798D01*
X84725Y-30277D02*
Y-30111D01*
Y-30194D01*
X85225D01*
X85141Y-30277D01*
X84725Y-29527D02*
Y-29861D01*
X85058Y-29527D01*
X85141D01*
X85225Y-29611D01*
Y-29777D01*
X85141Y-29861D01*
X84725Y-30277D02*
Y-30111D01*
Y-30194D01*
X85225D01*
X85141Y-30277D01*
X84725Y-29527D02*
Y-29861D01*
X85058Y-29527D01*
X85141D01*
X85225Y-29611D01*
Y-29777D01*
X85141Y-29861D01*
X84725Y-27872D02*
Y-27705D01*
Y-27788D01*
X85225D01*
X85141Y-27872D01*
X84725D02*
Y-27705D01*
Y-27788D01*
X85225D01*
X85141Y-27872D01*
X122717Y-4323D02*
Y-4156D01*
Y-4239D01*
X123217D01*
X123133Y-4323D01*
X122717Y-3573D02*
Y-3906D01*
X123050Y-3573D01*
X123133D01*
X123217Y-3656D01*
Y-3823D01*
X123133Y-3906D01*
X122717Y-4323D02*
Y-4156D01*
Y-4239D01*
X123217D01*
X123133Y-4323D01*
X122717Y-3573D02*
Y-3906D01*
X123050Y-3573D01*
X123133D01*
X123217Y-3656D01*
Y-3823D01*
X123133Y-3906D01*
X122717Y-1917D02*
Y-1751D01*
Y-1834D01*
X123217D01*
X123133Y-1917D01*
X122717D02*
Y-1751D01*
Y-1834D01*
X123217D01*
X123133Y-1917D01*
X122717Y-9244D02*
Y-9078D01*
Y-9161D01*
X123217D01*
X123133Y-9244D01*
X122717Y-8495D02*
Y-8828D01*
X123050Y-8495D01*
X123133D01*
X123217Y-8578D01*
Y-8745D01*
X123133Y-8828D01*
X122717Y-9244D02*
Y-9078D01*
Y-9161D01*
X123217D01*
X123133Y-9244D01*
X122717Y-8495D02*
Y-8828D01*
X123050Y-8495D01*
X123133D01*
X123217Y-8578D01*
Y-8745D01*
X123133Y-8828D01*
X122717Y-6839D02*
Y-6672D01*
Y-6756D01*
X123217D01*
X123133Y-6839D01*
X122717D02*
Y-6672D01*
Y-6756D01*
X123217D01*
X123133Y-6839D01*
D62*
X73398Y-32070D02*
G03*
X73398Y-32070I-49J0D01*
G01*
X34042Y-32070D02*
G03*
X34042Y-32070I-49J0D01*
G01*
X14364D02*
G03*
X14364Y-32070I-49J0D01*
G01*
X53720D02*
G03*
X53720Y-32070I-49J0D01*
G01*
D63*
X33819Y-31299D02*
X34291D01*
X68839Y-3665D02*
Y-1665D01*
X60839Y-3665D02*
Y-1665D01*
X68839D01*
X60839Y-3665D02*
X68839D01*
X97953Y-22041D02*
Y-20041D01*
X89953Y-22041D02*
Y-20041D01*
X97953D01*
X89953Y-22041D02*
X97953D01*
X36535Y-2717D02*
X37008D01*
X38602Y-14752D02*
Y-12752D01*
X46602Y-14752D02*
Y-12752D01*
X38602Y-14752D02*
X46602D01*
X38602Y-12752D02*
X46602D01*
X109002Y-25551D02*
X111002D01*
X109002Y-17551D02*
X111002D01*
Y-25551D02*
Y-17551D01*
X109002Y-25551D02*
Y-17551D01*
X91407Y-16053D02*
Y-15581D01*
X95984Y-25945D02*
Y-25472D01*
X14134Y-31299D02*
X14606D01*
X53504Y-31299D02*
X53976D01*
X73189D02*
X73661D01*
X71083Y-31250D02*
Y-30364D01*
X70787Y-31250D02*
X71083D01*
X70787Y-30364D02*
X71083D01*
X70787Y-31250D02*
Y-30364D01*
X71083D02*
X72815D01*
X71083Y-31250D02*
X72815D01*
Y-30364D01*
X51496Y-31250D02*
Y-30364D01*
X51201Y-31250D02*
X51496D01*
X51201Y-30364D02*
X51496D01*
X51201Y-31250D02*
Y-30364D01*
X51496D02*
X53228D01*
X51496Y-31250D02*
X53228D01*
Y-30364D01*
X31811Y-31250D02*
Y-30364D01*
X31516Y-31250D02*
X31811D01*
X31516Y-30364D02*
X31811D01*
X31516Y-31250D02*
Y-30364D01*
X31811D02*
X33543D01*
X31811Y-31250D02*
X33543D01*
Y-30364D01*
X12126Y-31250D02*
Y-30364D01*
X11831Y-31250D02*
X12126D01*
X11831Y-30364D02*
X12126D01*
X11831Y-31250D02*
Y-30364D01*
X12126D02*
X13858D01*
X12126Y-31250D02*
X13858D01*
Y-30364D01*
X89764Y-37717D02*
X90236D01*
X6362Y-6832D02*
Y-6359D01*
X6953Y-7777D02*
X7425D01*
X10063Y-6793D02*
Y-6320D01*
X7937Y-8485D02*
X8409D01*
X8882Y-7777D02*
X9354D01*
X16795Y-7777D02*
X17268D01*
X18724D02*
X19197D01*
X16205Y-6832D02*
Y-6359D01*
X19906Y-6793D02*
Y-6320D01*
X17780Y-8485D02*
X18252D01*
X26638Y-7777D02*
X27110D01*
X28567D02*
X29039D01*
X26047Y-6832D02*
Y-6359D01*
X29748Y-6793D02*
Y-6320D01*
X27622Y-8485D02*
X28094D01*
X36480Y-7777D02*
X36953D01*
X38409D02*
X38882D01*
X35890Y-6832D02*
Y-6359D01*
X39591Y-6793D02*
Y-6320D01*
X37465Y-8485D02*
X37937D01*
X46323Y-7777D02*
X46795D01*
X48252D02*
X48724D01*
X45732Y-6832D02*
Y-6359D01*
X49433Y-6793D02*
Y-6320D01*
X47307Y-8485D02*
X47780D01*
X56165Y-7777D02*
X56638D01*
X58095D02*
X58567D01*
X55575Y-6832D02*
Y-6359D01*
X59276Y-6793D02*
Y-6320D01*
X57150Y-8485D02*
X57622D01*
X66008Y-7777D02*
X66480D01*
X67937D02*
X68409D01*
X65417Y-6832D02*
Y-6359D01*
X69118Y-6793D02*
Y-6320D01*
X66992Y-8485D02*
X67465D01*
X75919Y-7777D02*
X76392D01*
X77848D02*
X78321D01*
X75329Y-6832D02*
Y-6359D01*
X79030Y-6793D02*
Y-6320D01*
X76904Y-8485D02*
X77376D01*
X6953Y-17619D02*
X7425D01*
X8882D02*
X9354D01*
X6362Y-16674D02*
Y-16202D01*
X10063Y-16635D02*
Y-16163D01*
X7937Y-18328D02*
X8409D01*
X16805Y-17619D02*
X17278D01*
X18734D02*
X19207D01*
X16215Y-16674D02*
Y-16202D01*
X19915Y-16635D02*
Y-16163D01*
X17789Y-18328D02*
X18262D01*
X26657Y-17619D02*
X27130D01*
X28587D02*
X29059D01*
X26067Y-16674D02*
Y-16202D01*
X29768Y-16635D02*
Y-16163D01*
X27642Y-18328D02*
X28114D01*
X36510Y-17619D02*
X36982D01*
X38439D02*
X38911D01*
X35919Y-16674D02*
Y-16202D01*
X39620Y-16635D02*
Y-16163D01*
X37494Y-18328D02*
X37967D01*
X75919Y-17619D02*
X76392D01*
X77848D02*
X78321D01*
X75329Y-16674D02*
Y-16202D01*
X79030Y-16635D02*
Y-16163D01*
X76904Y-18328D02*
X77376D01*
X66067Y-17619D02*
X66539D01*
X67996D02*
X68469D01*
X65476Y-16674D02*
Y-16202D01*
X69177Y-16635D02*
Y-16163D01*
X67051Y-18328D02*
X67524D01*
X56215Y-17619D02*
X56687D01*
X58144D02*
X58616D01*
X55624Y-16674D02*
Y-16202D01*
X59325Y-16635D02*
Y-16163D01*
X57199Y-18328D02*
X57671D01*
X46362Y-17619D02*
X46835D01*
X48291D02*
X48764D01*
X45772Y-16674D02*
Y-16202D01*
X49472Y-16635D02*
Y-16163D01*
X47346Y-18328D02*
X47819D01*
X115472Y-40134D02*
Y-39661D01*
Y-38205D02*
Y-37732D01*
X114055Y-40724D02*
X114528D01*
X114016Y-37024D02*
X114488D01*
X116181Y-39150D02*
Y-38677D01*
X115472Y-31848D02*
Y-31375D01*
Y-29919D02*
Y-29446D01*
X114055Y-32438D02*
X114528D01*
X114016Y-28738D02*
X114488D01*
X116181Y-30864D02*
Y-30391D01*
X115472Y-23562D02*
Y-23089D01*
Y-21633D02*
Y-21160D01*
X114055Y-24152D02*
X114528D01*
X114016Y-20451D02*
X114488D01*
X116181Y-22577D02*
Y-22105D01*
X115472Y-15276D02*
Y-14803D01*
Y-13346D02*
Y-12874D01*
X114055Y-15866D02*
X114528D01*
X114016Y-12165D02*
X114488D01*
X116181Y-14291D02*
Y-13819D01*
X104152Y-28134D02*
Y-27661D01*
Y-30063D02*
Y-29591D01*
X105097Y-27071D02*
X105570D01*
X105137Y-30772D02*
X105609D01*
X103444Y-29118D02*
Y-28646D01*
X104113Y-20011D02*
Y-19538D01*
Y-21940D02*
Y-21467D01*
X105058Y-18947D02*
X105530D01*
X105097Y-22648D02*
X105570D01*
X103404Y-20995D02*
Y-20522D01*
X104231Y-11887D02*
Y-11415D01*
Y-13816D02*
Y-13344D01*
X105176Y-10824D02*
X105648D01*
X105215Y-14525D02*
X105688D01*
X103522Y-12871D02*
Y-12399D01*
X104221Y-3764D02*
Y-3291D01*
Y-5693D02*
Y-5220D01*
X105166Y-2701D02*
X105639D01*
X105205Y-6402D02*
X105678D01*
X103513Y-4748D02*
Y-4276D01*
X85709Y-5109D02*
X86181D01*
X85817Y-13183D02*
X86289D01*
X85787Y-21257D02*
X86260D01*
X85748Y-29331D02*
X86220D01*
X123740Y-3376D02*
X124213D01*
X123740Y-8298D02*
X124213D01*
X42500Y-4043D02*
Y-2043D01*
X50500Y-4043D02*
Y-2043D01*
X42500Y-4043D02*
X50500D01*
X42500Y-2043D02*
X50500D01*
D64*
X70935Y-30896D02*
Y-30718D01*
X70856Y-30807D02*
X71014D01*
X70856Y-31073D02*
X71014D01*
X70935Y-31161D02*
Y-30984D01*
X70856Y-30541D02*
X71014D01*
X70935Y-30630D02*
Y-30453D01*
X51348Y-30896D02*
Y-30718D01*
X51270Y-30807D02*
X51427D01*
X51270Y-31073D02*
X51427D01*
X51348Y-31161D02*
Y-30984D01*
X51270Y-30541D02*
X51427D01*
X51348Y-30630D02*
Y-30453D01*
X31663Y-30896D02*
Y-30718D01*
X31585Y-30807D02*
X31742D01*
X31585Y-31073D02*
X31742D01*
X31663Y-31161D02*
Y-30984D01*
X31585Y-30541D02*
X31742D01*
X31663Y-30630D02*
Y-30453D01*
X11978Y-30896D02*
Y-30718D01*
X11900Y-30807D02*
X12057D01*
X11900Y-31073D02*
X12057D01*
X11978Y-31161D02*
Y-30984D01*
X11900Y-30541D02*
X12057D01*
X11978Y-30630D02*
Y-30453D01*
D65*
X60672Y-2965D02*
X60339D01*
X60672Y-3299D01*
Y-3382D01*
X60588Y-3465D01*
X60422D01*
X60339Y-3382D01*
Y-1965D02*
X60505D01*
X60422D01*
Y-2465D01*
X60339Y-2382D01*
X68939Y-1965D02*
X69105D01*
X69022D01*
Y-2465D01*
X68939Y-2382D01*
X69688Y-2465D02*
X69355D01*
Y-2215D01*
X69522Y-2299D01*
X69605D01*
X69688Y-2215D01*
Y-2049D01*
X69605Y-1965D01*
X69438D01*
X69355Y-2049D01*
X68939Y-2965D02*
X69105D01*
X69022D01*
Y-3465D01*
X68939Y-3382D01*
X69688Y-3465D02*
X69522Y-3382D01*
X69355Y-3215D01*
Y-3049D01*
X69438Y-2965D01*
X69605D01*
X69688Y-3049D01*
Y-3132D01*
X69605Y-3215D01*
X69355D01*
X89786Y-21341D02*
X89453D01*
X89786Y-21675D01*
Y-21758D01*
X89703Y-21841D01*
X89536D01*
X89453Y-21758D01*
Y-20341D02*
X89619D01*
X89536D01*
Y-20841D01*
X89453Y-20758D01*
X98053Y-20341D02*
X98219D01*
X98136D01*
Y-20841D01*
X98053Y-20758D01*
X98803Y-20841D02*
X98469D01*
Y-20591D01*
X98636Y-20675D01*
X98719D01*
X98803Y-20591D01*
Y-20425D01*
X98719Y-20341D01*
X98553D01*
X98469Y-20425D01*
X98053Y-21341D02*
X98219D01*
X98136D01*
Y-21841D01*
X98053Y-21758D01*
X98803Y-21841D02*
X98636Y-21758D01*
X98469Y-21591D01*
Y-21425D01*
X98553Y-21341D01*
X98719D01*
X98803Y-21425D01*
Y-21508D01*
X98719Y-21591D01*
X98469D01*
X46769Y-13452D02*
X47102D01*
X46769Y-13119D01*
Y-13035D01*
X46852Y-12952D01*
X47019D01*
X47102Y-13035D01*
Y-14452D02*
X46936D01*
X47019D01*
Y-13952D01*
X47102Y-14035D01*
X38502Y-14452D02*
X38336D01*
X38419D01*
Y-13952D01*
X38502Y-14035D01*
X37753Y-13952D02*
X38086D01*
Y-14202D01*
X37919Y-14119D01*
X37836D01*
X37753Y-14202D01*
Y-14369D01*
X37836Y-14452D01*
X38003D01*
X38086Y-14369D01*
X38502Y-13452D02*
X38336D01*
X38419D01*
Y-12952D01*
X38502Y-13035D01*
X37753Y-12952D02*
X37919Y-13035D01*
X38086Y-13202D01*
Y-13369D01*
X38003Y-13452D01*
X37836D01*
X37753Y-13369D01*
Y-13285D01*
X37836Y-13202D01*
X38086D01*
X109702Y-17384D02*
Y-17051D01*
X109369Y-17384D01*
X109285D01*
X109202Y-17301D01*
Y-17134D01*
X109285Y-17051D01*
X110702D02*
Y-17218D01*
Y-17134D01*
X110202D01*
X110285Y-17051D01*
X110702Y-25651D02*
Y-25818D01*
Y-25734D01*
X110202D01*
X110285Y-25651D01*
X110202Y-26401D02*
Y-26068D01*
X110452D01*
X110369Y-26234D01*
Y-26318D01*
X110452Y-26401D01*
X110619D01*
X110702Y-26318D01*
Y-26151D01*
X110619Y-26068D01*
X109702Y-25651D02*
Y-25818D01*
Y-25734D01*
X109202D01*
X109285Y-25651D01*
X109202Y-26401D02*
X109285Y-26234D01*
X109452Y-26068D01*
X109619D01*
X109702Y-26151D01*
Y-26318D01*
X109619Y-26401D01*
X109535D01*
X109452Y-26318D01*
Y-26068D01*
X50667Y-2743D02*
X51000D01*
X50667Y-2410D01*
Y-2327D01*
X50750Y-2243D01*
X50917D01*
X51000Y-2327D01*
Y-3743D02*
X50833D01*
X50917D01*
Y-3243D01*
X51000Y-3327D01*
X42400Y-3743D02*
X42233D01*
X42317D01*
Y-3243D01*
X42400Y-3327D01*
X41650Y-3243D02*
X41983D01*
Y-3493D01*
X41817Y-3410D01*
X41734D01*
X41650Y-3493D01*
Y-3660D01*
X41734Y-3743D01*
X41900D01*
X41983Y-3660D01*
X42400Y-2743D02*
X42233D01*
X42317D01*
Y-2243D01*
X42400Y-2327D01*
X41650Y-2243D02*
X41817Y-2327D01*
X41983Y-2493D01*
Y-2660D01*
X41900Y-2743D01*
X41734D01*
X41650Y-2660D01*
Y-2577D01*
X41734Y-2493D01*
X41983D01*
D66*
X92297Y-15754D02*
Y-15332D01*
X92122Y-15648D02*
X92473Y-15437D01*
Y-15648D02*
X92122Y-15437D01*
X95094Y-25772D02*
Y-26194D01*
X95270Y-25877D02*
X94919Y-26088D01*
Y-25877D02*
X95270Y-26088D01*
M02*
