G04 Layer_Color=255*
%FSLAX24Y24*%
%MOIN*%
G70*
G01*
G75*
%ADD11R,0.0430X0.0120*%
%ADD13C,0.1250*%
%ADD14C,0.0700*%
%ADD15C,0.1378*%
%ADD16C,0.0600*%
%ADD17R,0.0591X0.0591*%
%ADD18C,0.0591*%
%ADD19R,0.0591X0.0591*%
%ADD20R,0.0510X0.0510*%
%ADD21C,0.0510*%
%ADD22C,0.0472*%
%ADD23C,0.0591*%
%ADD24R,0.0700X0.0700*%
%ADD25R,0.0700X0.0700*%
D11*
X35512Y-3543D02*
D03*
Y-3346D02*
D03*
Y-3150D02*
D03*
Y-2953D02*
D03*
Y-2756D02*
D03*
Y-2559D02*
D03*
Y-2362D02*
D03*
Y-2165D02*
D03*
Y-1969D02*
D03*
Y-1772D02*
D03*
Y-1575D02*
D03*
Y-1378D02*
D03*
X84685Y-5935D02*
D03*
Y-5738D02*
D03*
Y-5541D02*
D03*
Y-5344D02*
D03*
Y-5148D02*
D03*
Y-4951D02*
D03*
Y-4754D02*
D03*
Y-4557D02*
D03*
Y-4360D02*
D03*
Y-4163D02*
D03*
Y-3967D02*
D03*
Y-3770D02*
D03*
X84794Y-14009D02*
D03*
Y-13812D02*
D03*
Y-13615D02*
D03*
Y-13419D02*
D03*
Y-13222D02*
D03*
Y-13025D02*
D03*
Y-12828D02*
D03*
Y-12631D02*
D03*
Y-12434D02*
D03*
Y-12237D02*
D03*
Y-12041D02*
D03*
Y-11844D02*
D03*
X84764Y-22083D02*
D03*
Y-21886D02*
D03*
Y-21689D02*
D03*
Y-21493D02*
D03*
Y-21296D02*
D03*
Y-21099D02*
D03*
Y-20902D02*
D03*
Y-20705D02*
D03*
Y-20508D02*
D03*
Y-20311D02*
D03*
Y-20115D02*
D03*
Y-19918D02*
D03*
X84725Y-30157D02*
D03*
Y-29960D02*
D03*
Y-29763D02*
D03*
Y-29567D02*
D03*
Y-29370D02*
D03*
Y-29173D02*
D03*
Y-28976D02*
D03*
Y-28779D02*
D03*
Y-28582D02*
D03*
Y-28385D02*
D03*
Y-28189D02*
D03*
Y-27992D02*
D03*
X122717Y-4203D02*
D03*
Y-4006D02*
D03*
Y-3809D02*
D03*
Y-3612D02*
D03*
Y-3415D02*
D03*
Y-3218D02*
D03*
Y-3022D02*
D03*
Y-2825D02*
D03*
Y-2628D02*
D03*
Y-2431D02*
D03*
Y-2234D02*
D03*
Y-2037D02*
D03*
X122717Y-9124D02*
D03*
Y-8928D02*
D03*
Y-8731D02*
D03*
Y-8534D02*
D03*
Y-8337D02*
D03*
Y-8140D02*
D03*
Y-7943D02*
D03*
Y-7746D02*
D03*
Y-7550D02*
D03*
Y-7353D02*
D03*
Y-7156D02*
D03*
Y-6959D02*
D03*
D13*
X105877Y-38045D02*
D03*
X100866Y-37992D02*
D03*
X10689Y-8767D02*
D03*
X5689D02*
D03*
X20531D02*
D03*
X15532D02*
D03*
X30374D02*
D03*
X25374D02*
D03*
X40217Y-8767D02*
D03*
X35217D02*
D03*
X50059Y-8767D02*
D03*
X45059D02*
D03*
X59902D02*
D03*
X54902D02*
D03*
X69744D02*
D03*
X64744D02*
D03*
X79656Y-8767D02*
D03*
X74656D02*
D03*
X10689Y-18609D02*
D03*
X5689D02*
D03*
X20541D02*
D03*
X15541D02*
D03*
X30394D02*
D03*
X25394D02*
D03*
X40246D02*
D03*
X35246D02*
D03*
X79656Y-18609D02*
D03*
X74656D02*
D03*
X69803Y-18609D02*
D03*
X64803D02*
D03*
X59951D02*
D03*
X54951D02*
D03*
X50098D02*
D03*
X45098D02*
D03*
X116463Y-36398D02*
D03*
Y-41398D02*
D03*
Y-28112D02*
D03*
Y-33112D02*
D03*
X116463Y-19825D02*
D03*
Y-24825D02*
D03*
Y-11539D02*
D03*
Y-16539D02*
D03*
X103162Y-31398D02*
D03*
Y-26398D02*
D03*
X103123Y-23274D02*
D03*
Y-18274D02*
D03*
X103241Y-15151D02*
D03*
Y-10151D02*
D03*
X103231Y-7028D02*
D03*
Y-2028D02*
D03*
D14*
X104366Y-40942D02*
D03*
X103366D02*
D03*
X102366D02*
D03*
X9189Y-5817D02*
D03*
X8189D02*
D03*
X7189D02*
D03*
X9189Y-11517D02*
D03*
X19031Y-5817D02*
D03*
X18032D02*
D03*
X17032D02*
D03*
X19031Y-11517D02*
D03*
X28874Y-5817D02*
D03*
X27874D02*
D03*
X26874D02*
D03*
X28874Y-11517D02*
D03*
X38717Y-5817D02*
D03*
X37717D02*
D03*
X36717D02*
D03*
X38717Y-11517D02*
D03*
X48559Y-5817D02*
D03*
X47559D02*
D03*
X46559D02*
D03*
X48559Y-11517D02*
D03*
X58402Y-5817D02*
D03*
X57402D02*
D03*
X56402D02*
D03*
X58402Y-11517D02*
D03*
X68244Y-5817D02*
D03*
X67244D02*
D03*
X66244D02*
D03*
X68244Y-11517D02*
D03*
X78156Y-5817D02*
D03*
X77156D02*
D03*
X76156D02*
D03*
X78156Y-11517D02*
D03*
X9189Y-15659D02*
D03*
X8189D02*
D03*
X7189D02*
D03*
X9189Y-21359D02*
D03*
X19041Y-15659D02*
D03*
X18041D02*
D03*
X17041D02*
D03*
X19041Y-21359D02*
D03*
X28894Y-15659D02*
D03*
X27894D02*
D03*
X26894D02*
D03*
X28894Y-21359D02*
D03*
X38746Y-15659D02*
D03*
X37746D02*
D03*
X36746D02*
D03*
X38746Y-21359D02*
D03*
X78156Y-15659D02*
D03*
X77156D02*
D03*
X76156D02*
D03*
X78156Y-21359D02*
D03*
X68303Y-15659D02*
D03*
X67303D02*
D03*
X66303D02*
D03*
X68303Y-21359D02*
D03*
X58451Y-15659D02*
D03*
X57451D02*
D03*
X56451D02*
D03*
X58451Y-21359D02*
D03*
X48598Y-15659D02*
D03*
X47598D02*
D03*
X46598D02*
D03*
X48598Y-21359D02*
D03*
X113513Y-37898D02*
D03*
Y-38898D02*
D03*
Y-39898D02*
D03*
X119213Y-37898D02*
D03*
X113513Y-29612D02*
D03*
Y-30612D02*
D03*
Y-31612D02*
D03*
X119213Y-29612D02*
D03*
X113513Y-21325D02*
D03*
Y-22325D02*
D03*
Y-23325D02*
D03*
X119213Y-21325D02*
D03*
X113513Y-13039D02*
D03*
Y-14039D02*
D03*
Y-15039D02*
D03*
X119213Y-13039D02*
D03*
X106112Y-29898D02*
D03*
Y-28898D02*
D03*
Y-27898D02*
D03*
X100412Y-29898D02*
D03*
X106073Y-21774D02*
D03*
Y-20774D02*
D03*
Y-19774D02*
D03*
X100373Y-21774D02*
D03*
X106191Y-13651D02*
D03*
Y-12651D02*
D03*
Y-11651D02*
D03*
X100491Y-13651D02*
D03*
X106181Y-5528D02*
D03*
Y-4528D02*
D03*
Y-3528D02*
D03*
X100481Y-5528D02*
D03*
D15*
X94488Y-31496D02*
D03*
X52559Y-14173D02*
D03*
X90123Y-34625D02*
D03*
X97686Y-42475D02*
D03*
X97736Y-34625D02*
D03*
X90123Y-42475D02*
D03*
X43528Y-42334D02*
D03*
Y-24618D02*
D03*
X61244D02*
D03*
Y-42334D02*
D03*
X41544D02*
D03*
Y-24618D02*
D03*
X23828D02*
D03*
Y-42334D02*
D03*
X80994D02*
D03*
Y-24618D02*
D03*
X63277D02*
D03*
Y-42334D02*
D03*
X1181Y-43465D02*
D03*
X4128Y-42334D02*
D03*
Y-24618D02*
D03*
X21844D02*
D03*
Y-42334D02*
D03*
X1181Y-1181D02*
D03*
X112205Y-3937D02*
D03*
X124803Y-43465D02*
D03*
D16*
X83662Y-31890D02*
D03*
X82756D02*
D03*
X95630Y-17992D02*
D03*
X92402Y-18071D02*
D03*
D17*
X61339Y-2165D02*
D03*
X90453Y-20541D02*
D03*
X46102Y-14252D02*
D03*
X50000Y-3543D02*
D03*
D18*
X61339Y-3165D02*
D03*
X62339Y-2165D02*
D03*
Y-3165D02*
D03*
X63339Y-2165D02*
D03*
Y-3165D02*
D03*
X64339Y-2165D02*
D03*
Y-3165D02*
D03*
X65339Y-2165D02*
D03*
Y-3165D02*
D03*
X66339Y-2165D02*
D03*
Y-3165D02*
D03*
X67339Y-2165D02*
D03*
Y-3165D02*
D03*
X68339Y-2165D02*
D03*
Y-3165D02*
D03*
X90453Y-21541D02*
D03*
X91453Y-20541D02*
D03*
Y-21541D02*
D03*
X92453Y-20541D02*
D03*
Y-21541D02*
D03*
X93453Y-20541D02*
D03*
Y-21541D02*
D03*
X94453Y-20541D02*
D03*
Y-21541D02*
D03*
X95453Y-20541D02*
D03*
Y-21541D02*
D03*
X96453Y-20541D02*
D03*
Y-21541D02*
D03*
X97453Y-20541D02*
D03*
Y-21541D02*
D03*
X46102Y-13252D02*
D03*
X45102Y-14252D02*
D03*
Y-13252D02*
D03*
X44102Y-14252D02*
D03*
Y-13252D02*
D03*
X43102Y-14252D02*
D03*
Y-13252D02*
D03*
X42102Y-14252D02*
D03*
Y-13252D02*
D03*
X41102Y-14252D02*
D03*
Y-13252D02*
D03*
X40102Y-14252D02*
D03*
Y-13252D02*
D03*
X39102Y-14252D02*
D03*
Y-13252D02*
D03*
X109502Y-18051D02*
D03*
X110502Y-19051D02*
D03*
X109502D02*
D03*
X110502Y-20051D02*
D03*
X109502D02*
D03*
X110502Y-21051D02*
D03*
X109502D02*
D03*
X110502Y-22051D02*
D03*
X109502D02*
D03*
X110502Y-23051D02*
D03*
X109502D02*
D03*
X110502Y-24051D02*
D03*
X109502D02*
D03*
X110502Y-25051D02*
D03*
X109502D02*
D03*
X50000Y-2543D02*
D03*
X49000Y-3543D02*
D03*
Y-2543D02*
D03*
X48000Y-3543D02*
D03*
Y-2543D02*
D03*
X47000Y-3543D02*
D03*
Y-2543D02*
D03*
X46000Y-3543D02*
D03*
Y-2543D02*
D03*
X45000Y-3543D02*
D03*
Y-2543D02*
D03*
X44000Y-3543D02*
D03*
Y-2543D02*
D03*
X43000Y-3543D02*
D03*
Y-2543D02*
D03*
D19*
X110502Y-18051D02*
D03*
D20*
X96567Y-5677D02*
D03*
D21*
X95567D02*
D03*
X94567D02*
D03*
X93567D02*
D03*
X92567D02*
D03*
X91567D02*
D03*
X90567D02*
D03*
X89567D02*
D03*
Y-2677D02*
D03*
X90567D02*
D03*
X91567D02*
D03*
X92567D02*
D03*
X93567D02*
D03*
X94567D02*
D03*
X95567D02*
D03*
X96567D02*
D03*
D22*
X91221Y-37376D02*
D03*
X92221Y-38176D02*
D03*
X50304Y-37211D02*
D03*
X49304Y-38011D02*
D03*
X60147Y-37211D02*
D03*
X59147Y-38011D02*
D03*
X50304Y-27369D02*
D03*
X49304Y-28169D02*
D03*
X60147Y-27369D02*
D03*
X59147Y-28169D02*
D03*
X39447D02*
D03*
X40447Y-27369D02*
D03*
X29604Y-28169D02*
D03*
X30604Y-27369D02*
D03*
X39447Y-38011D02*
D03*
X40447Y-37211D02*
D03*
X29604Y-38011D02*
D03*
X30604Y-37211D02*
D03*
X78896Y-28169D02*
D03*
X79896Y-27369D02*
D03*
X69054Y-28169D02*
D03*
X70054Y-27369D02*
D03*
X78896Y-38011D02*
D03*
X79896Y-37211D02*
D03*
X69054Y-38011D02*
D03*
X70054Y-37211D02*
D03*
X10904D02*
D03*
X9904Y-38011D02*
D03*
X20747Y-37211D02*
D03*
X19747Y-38011D02*
D03*
X10904Y-27369D02*
D03*
X9904Y-28169D02*
D03*
X20747Y-27369D02*
D03*
X19747Y-28169D02*
D03*
D23*
X92879Y-38562D02*
D03*
X95241D02*
D03*
X94454D02*
D03*
X93667D02*
D03*
X48646Y-38397D02*
D03*
X46284D02*
D03*
X47071D02*
D03*
X47859D02*
D03*
X58489D02*
D03*
X56126D02*
D03*
X56914D02*
D03*
X57701D02*
D03*
X48646Y-28555D02*
D03*
X46284D02*
D03*
X47071D02*
D03*
X47859D02*
D03*
X58489D02*
D03*
X56126D02*
D03*
X56914D02*
D03*
X57701D02*
D03*
X38001D02*
D03*
X37214D02*
D03*
X36426D02*
D03*
X38789D02*
D03*
X28159D02*
D03*
X27371D02*
D03*
X26584D02*
D03*
X28946D02*
D03*
X38001Y-38397D02*
D03*
X37214D02*
D03*
X36426D02*
D03*
X38789D02*
D03*
X28159D02*
D03*
X27371D02*
D03*
X26584D02*
D03*
X28946D02*
D03*
X77450Y-28555D02*
D03*
X76663D02*
D03*
X75876D02*
D03*
X78238D02*
D03*
X67608D02*
D03*
X66820D02*
D03*
X66033D02*
D03*
X68395D02*
D03*
X77450Y-38397D02*
D03*
X76663D02*
D03*
X75876D02*
D03*
X78238D02*
D03*
X67608D02*
D03*
X66820D02*
D03*
X66033D02*
D03*
X68395D02*
D03*
X9246D02*
D03*
X6884D02*
D03*
X7671D02*
D03*
X8459D02*
D03*
X19089D02*
D03*
X16726D02*
D03*
X17514D02*
D03*
X18301D02*
D03*
X9246Y-28555D02*
D03*
X6884D02*
D03*
X7671D02*
D03*
X8459D02*
D03*
X19089D02*
D03*
X16726D02*
D03*
X17514D02*
D03*
X18301D02*
D03*
D24*
X7189Y-11517D02*
D03*
X17032D02*
D03*
X26874D02*
D03*
X36717Y-11517D02*
D03*
X46559Y-11517D02*
D03*
X56402D02*
D03*
X66244D02*
D03*
X76156Y-11517D02*
D03*
X7189Y-21359D02*
D03*
X17041D02*
D03*
X26894D02*
D03*
X36746D02*
D03*
X76156Y-21359D02*
D03*
X66303Y-21359D02*
D03*
X56451D02*
D03*
X46598D02*
D03*
D25*
X119213Y-39898D02*
D03*
Y-31612D02*
D03*
X119213Y-23325D02*
D03*
Y-15039D02*
D03*
X100412Y-27898D02*
D03*
X100373Y-19774D02*
D03*
X100491Y-11651D02*
D03*
X100481Y-3528D02*
D03*
M02*
