G04 Layer_Color=8388736*
%FSLAX24Y24*%
%MOIN*%
G70*
G01*
G75*
G36*
X76848Y-37212D02*
X76863Y-37215D01*
X76877Y-37220D01*
X76888Y-37224D01*
X76893Y-37227D01*
X76897Y-37229D01*
X76901Y-37232D01*
X76904Y-37234D01*
X76907Y-37236D01*
X76908Y-37237D01*
X76909Y-37237D01*
X76910Y-37238D01*
X76921Y-37249D01*
X76929Y-37261D01*
X76936Y-37273D01*
X76942Y-37286D01*
X76946Y-37297D01*
X76947Y-37302D01*
X76948Y-37306D01*
X76949Y-37309D01*
X76950Y-37311D01*
X76950Y-37313D01*
Y-37314D01*
X76901Y-37322D01*
X76899Y-37310D01*
X76896Y-37299D01*
X76892Y-37290D01*
X76888Y-37282D01*
X76884Y-37276D01*
X76880Y-37272D01*
X76878Y-37269D01*
X76877Y-37269D01*
X76870Y-37263D01*
X76862Y-37259D01*
X76854Y-37256D01*
X76847Y-37253D01*
X76840Y-37252D01*
X76835Y-37251D01*
X76830D01*
X76820Y-37252D01*
X76811Y-37254D01*
X76803Y-37257D01*
X76796Y-37260D01*
X76791Y-37263D01*
X76787Y-37266D01*
X76784Y-37268D01*
X76783Y-37269D01*
X76777Y-37276D01*
X76772Y-37283D01*
X76769Y-37291D01*
X76767Y-37298D01*
X76766Y-37304D01*
X76765Y-37308D01*
Y-37312D01*
Y-37312D01*
Y-37313D01*
Y-37319D01*
X76766Y-37325D01*
X76769Y-37335D01*
X76773Y-37343D01*
X76777Y-37351D01*
X76782Y-37356D01*
X76786Y-37360D01*
X76789Y-37362D01*
X76789Y-37363D01*
X76790D01*
X76800Y-37368D01*
X76809Y-37372D01*
X76819Y-37375D01*
X76827Y-37377D01*
X76835Y-37378D01*
X76841Y-37379D01*
X76849D01*
X76851Y-37378D01*
X76854D01*
X76859Y-37422D01*
X76852Y-37420D01*
X76845Y-37419D01*
X76839Y-37418D01*
X76834Y-37417D01*
X76830Y-37416D01*
X76825D01*
X76813Y-37418D01*
X76802Y-37420D01*
X76792Y-37423D01*
X76784Y-37427D01*
X76778Y-37431D01*
X76773Y-37435D01*
X76770Y-37437D01*
X76769Y-37438D01*
X76762Y-37447D01*
X76756Y-37456D01*
X76752Y-37465D01*
X76750Y-37474D01*
X76748Y-37482D01*
X76748Y-37488D01*
X76747Y-37490D01*
Y-37492D01*
Y-37493D01*
Y-37494D01*
X76748Y-37507D01*
X76751Y-37518D01*
X76754Y-37528D01*
X76759Y-37536D01*
X76764Y-37543D01*
X76767Y-37548D01*
X76770Y-37552D01*
X76771Y-37553D01*
X76780Y-37561D01*
X76790Y-37567D01*
X76800Y-37571D01*
X76809Y-37574D01*
X76817Y-37575D01*
X76823Y-37576D01*
X76826Y-37577D01*
X76829D01*
X76839Y-37576D01*
X76849Y-37574D01*
X76858Y-37571D01*
X76865Y-37567D01*
X76870Y-37564D01*
X76875Y-37562D01*
X76877Y-37559D01*
X76878Y-37559D01*
X76885Y-37551D01*
X76891Y-37542D01*
X76896Y-37532D01*
X76900Y-37521D01*
X76903Y-37513D01*
X76904Y-37509D01*
X76905Y-37505D01*
X76905Y-37502D01*
X76906Y-37500D01*
X76907Y-37499D01*
Y-37498D01*
X76955Y-37505D01*
X76954Y-37514D01*
X76952Y-37523D01*
X76947Y-37539D01*
X76941Y-37552D01*
X76938Y-37558D01*
X76934Y-37564D01*
X76931Y-37569D01*
X76927Y-37573D01*
X76924Y-37577D01*
X76921Y-37580D01*
X76920Y-37582D01*
X76918Y-37584D01*
X76917Y-37585D01*
X76916Y-37586D01*
X76909Y-37591D01*
X76902Y-37596D01*
X76896Y-37600D01*
X76888Y-37604D01*
X76874Y-37609D01*
X76860Y-37613D01*
X76854Y-37614D01*
X76848Y-37615D01*
X76843Y-37616D01*
X76838Y-37616D01*
X76835Y-37617D01*
X76830D01*
X76819Y-37616D01*
X76809Y-37615D01*
X76799Y-37613D01*
X76790Y-37611D01*
X76781Y-37608D01*
X76774Y-37605D01*
X76766Y-37602D01*
X76760Y-37598D01*
X76754Y-37595D01*
X76749Y-37592D01*
X76744Y-37589D01*
X76741Y-37586D01*
X76738Y-37584D01*
X76735Y-37582D01*
X76734Y-37581D01*
X76734Y-37581D01*
X76727Y-37574D01*
X76721Y-37566D01*
X76716Y-37559D01*
X76711Y-37551D01*
X76708Y-37544D01*
X76704Y-37537D01*
X76700Y-37523D01*
X76699Y-37517D01*
X76698Y-37511D01*
X76696Y-37506D01*
X76696Y-37501D01*
X76695Y-37498D01*
Y-37495D01*
Y-37493D01*
Y-37493D01*
X76696Y-37479D01*
X76698Y-37466D01*
X76702Y-37455D01*
X76705Y-37446D01*
X76708Y-37439D01*
X76712Y-37433D01*
X76714Y-37430D01*
X76715Y-37428D01*
X76723Y-37420D01*
X76731Y-37412D01*
X76741Y-37407D01*
X76750Y-37402D01*
X76758Y-37399D01*
X76764Y-37396D01*
X76766Y-37396D01*
X76768Y-37395D01*
X76769Y-37395D01*
X76770D01*
X76760Y-37389D01*
X76752Y-37384D01*
X76745Y-37378D01*
X76739Y-37373D01*
X76735Y-37369D01*
X76731Y-37365D01*
X76730Y-37362D01*
X76729Y-37361D01*
X76725Y-37353D01*
X76721Y-37345D01*
X76718Y-37337D01*
X76717Y-37330D01*
X76715Y-37323D01*
X76715Y-37319D01*
Y-37315D01*
Y-37314D01*
X76715Y-37304D01*
X76717Y-37295D01*
X76719Y-37286D01*
X76722Y-37279D01*
X76725Y-37272D01*
X76727Y-37267D01*
X76729Y-37264D01*
X76730Y-37263D01*
X76735Y-37255D01*
X76742Y-37247D01*
X76749Y-37241D01*
X76756Y-37235D01*
X76762Y-37231D01*
X76767Y-37228D01*
X76770Y-37226D01*
X76771Y-37225D01*
X76772D01*
X76782Y-37221D01*
X76792Y-37217D01*
X76803Y-37214D01*
X76812Y-37213D01*
X76819Y-37211D01*
X76826Y-37211D01*
X76840D01*
X76848Y-37212D01*
D02*
G37*
G36*
X67341Y-27364D02*
X67360Y-27367D01*
X67376Y-27371D01*
X67383Y-27373D01*
X67390Y-27375D01*
X67396Y-27378D01*
X67402Y-27380D01*
X67407Y-27382D01*
X67411Y-27383D01*
X67414Y-27385D01*
X67416Y-27386D01*
X67418Y-27387D01*
X67419Y-27387D01*
X67434Y-27397D01*
X67447Y-27409D01*
X67459Y-27420D01*
X67469Y-27432D01*
X67476Y-27442D01*
X67479Y-27446D01*
X67481Y-27450D01*
X67484Y-27453D01*
X67485Y-27456D01*
X67485Y-27457D01*
X67486Y-27458D01*
X67494Y-27476D01*
X67500Y-27494D01*
X67504Y-27512D01*
X67507Y-27529D01*
X67508Y-27537D01*
X67508Y-27544D01*
X67509Y-27550D01*
Y-27556D01*
X67509Y-27560D01*
Y-27563D01*
Y-27565D01*
Y-27566D01*
X67508Y-27587D01*
X67506Y-27607D01*
X67503Y-27624D01*
X67501Y-27633D01*
X67499Y-27640D01*
X67497Y-27647D01*
X67495Y-27654D01*
X67493Y-27659D01*
X67492Y-27664D01*
X67491Y-27667D01*
X67490Y-27670D01*
X67489Y-27672D01*
Y-27673D01*
X67480Y-27690D01*
X67470Y-27705D01*
X67460Y-27719D01*
X67455Y-27724D01*
X67450Y-27729D01*
X67446Y-27733D01*
X67441Y-27737D01*
X67437Y-27741D01*
X67434Y-27743D01*
X67431Y-27746D01*
X67429Y-27747D01*
X67428Y-27748D01*
X67427Y-27748D01*
X67419Y-27753D01*
X67411Y-27757D01*
X67394Y-27763D01*
X67377Y-27768D01*
X67360Y-27771D01*
X67352Y-27772D01*
X67345Y-27773D01*
X67339Y-27774D01*
X67334D01*
X67329Y-27774D01*
X67323D01*
X67311Y-27774D01*
X67301Y-27772D01*
X67290Y-27771D01*
X67280Y-27769D01*
X67271Y-27766D01*
X67263Y-27763D01*
X67255Y-27760D01*
X67247Y-27757D01*
X67241Y-27754D01*
X67234Y-27751D01*
X67230Y-27748D01*
X67225Y-27746D01*
X67222Y-27743D01*
X67220Y-27742D01*
X67218Y-27741D01*
X67218Y-27740D01*
X67210Y-27733D01*
X67203Y-27727D01*
X67197Y-27719D01*
X67190Y-27710D01*
X67180Y-27694D01*
X67172Y-27678D01*
X67168Y-27671D01*
X67166Y-27664D01*
X67163Y-27658D01*
X67162Y-27653D01*
X67160Y-27648D01*
X67159Y-27644D01*
X67158Y-27642D01*
Y-27642D01*
X67211Y-27628D01*
X67213Y-27638D01*
X67216Y-27646D01*
X67219Y-27654D01*
X67222Y-27662D01*
X67225Y-27669D01*
X67229Y-27674D01*
X67233Y-27680D01*
X67236Y-27685D01*
X67239Y-27690D01*
X67243Y-27693D01*
X67245Y-27697D01*
X67248Y-27700D01*
X67250Y-27701D01*
X67252Y-27703D01*
X67252Y-27704D01*
X67253Y-27704D01*
X67259Y-27709D01*
X67265Y-27712D01*
X67278Y-27719D01*
X67290Y-27723D01*
X67302Y-27726D01*
X67312Y-27728D01*
X67316Y-27729D01*
X67320D01*
X67323Y-27729D01*
X67327D01*
X67341Y-27729D01*
X67353Y-27727D01*
X67365Y-27724D01*
X67375Y-27720D01*
X67383Y-27717D01*
X67387Y-27715D01*
X67389Y-27714D01*
X67392Y-27713D01*
X67393Y-27712D01*
X67395Y-27711D01*
X67395D01*
X67406Y-27703D01*
X67415Y-27694D01*
X67423Y-27685D01*
X67430Y-27675D01*
X67435Y-27667D01*
X67438Y-27661D01*
X67439Y-27658D01*
X67441Y-27656D01*
X67441Y-27655D01*
Y-27654D01*
X67446Y-27639D01*
X67449Y-27624D01*
X67452Y-27609D01*
X67454Y-27596D01*
X67454Y-27589D01*
X67455Y-27584D01*
Y-27578D01*
X67455Y-27574D01*
Y-27571D01*
Y-27568D01*
Y-27566D01*
Y-27566D01*
X67455Y-27551D01*
X67454Y-27537D01*
X67451Y-27525D01*
X67449Y-27513D01*
X67447Y-27503D01*
X67446Y-27499D01*
X67445Y-27496D01*
X67445Y-27493D01*
X67444Y-27491D01*
X67443Y-27490D01*
Y-27490D01*
X67438Y-27476D01*
X67431Y-27464D01*
X67424Y-27455D01*
X67417Y-27446D01*
X67411Y-27439D01*
X67406Y-27434D01*
X67402Y-27432D01*
X67401Y-27430D01*
X67400D01*
X67388Y-27423D01*
X67375Y-27417D01*
X67362Y-27413D01*
X67350Y-27411D01*
X67340Y-27409D01*
X67335Y-27409D01*
X67331D01*
X67328Y-27408D01*
X67323D01*
X67309Y-27409D01*
X67296Y-27411D01*
X67285Y-27414D01*
X67275Y-27418D01*
X67268Y-27422D01*
X67262Y-27425D01*
X67259Y-27427D01*
X67257Y-27428D01*
X67248Y-27437D01*
X67240Y-27446D01*
X67233Y-27457D01*
X67227Y-27467D01*
X67222Y-27476D01*
X67221Y-27481D01*
X67220Y-27484D01*
X67218Y-27487D01*
X67217Y-27490D01*
X67217Y-27491D01*
Y-27491D01*
X67165Y-27479D01*
X67168Y-27469D01*
X67172Y-27460D01*
X67177Y-27451D01*
X67181Y-27442D01*
X67185Y-27435D01*
X67190Y-27428D01*
X67195Y-27421D01*
X67199Y-27415D01*
X67204Y-27411D01*
X67208Y-27406D01*
X67212Y-27402D01*
X67215Y-27399D01*
X67218Y-27397D01*
X67220Y-27395D01*
X67221Y-27394D01*
X67222Y-27394D01*
X67230Y-27388D01*
X67238Y-27383D01*
X67246Y-27379D01*
X67255Y-27376D01*
X67272Y-27371D01*
X67287Y-27367D01*
X67295Y-27366D01*
X67301Y-27365D01*
X67307Y-27364D01*
X67313Y-27364D01*
X67317Y-27363D01*
X67322D01*
X67341Y-27364D01*
D02*
G37*
G36*
Y-37305D02*
X67360Y-37308D01*
X67376Y-37312D01*
X67383Y-37314D01*
X67390Y-37316D01*
X67396Y-37319D01*
X67402Y-37321D01*
X67407Y-37323D01*
X67411Y-37324D01*
X67414Y-37326D01*
X67416Y-37327D01*
X67418Y-37328D01*
X67419Y-37328D01*
X67434Y-37338D01*
X67447Y-37350D01*
X67459Y-37361D01*
X67469Y-37373D01*
X67476Y-37383D01*
X67479Y-37387D01*
X67481Y-37391D01*
X67484Y-37394D01*
X67485Y-37397D01*
X67485Y-37398D01*
X67486Y-37399D01*
X67494Y-37417D01*
X67500Y-37435D01*
X67504Y-37453D01*
X67507Y-37470D01*
X67508Y-37478D01*
X67508Y-37485D01*
X67509Y-37491D01*
Y-37497D01*
X67509Y-37501D01*
Y-37504D01*
Y-37506D01*
Y-37507D01*
X67508Y-37528D01*
X67506Y-37548D01*
X67503Y-37565D01*
X67501Y-37574D01*
X67499Y-37581D01*
X67497Y-37588D01*
X67495Y-37595D01*
X67493Y-37600D01*
X67492Y-37605D01*
X67491Y-37608D01*
X67490Y-37611D01*
X67489Y-37613D01*
Y-37614D01*
X67480Y-37631D01*
X67470Y-37646D01*
X67460Y-37660D01*
X67455Y-37665D01*
X67450Y-37670D01*
X67446Y-37674D01*
X67441Y-37678D01*
X67437Y-37682D01*
X67434Y-37684D01*
X67431Y-37687D01*
X67429Y-37688D01*
X67428Y-37689D01*
X67427Y-37689D01*
X67419Y-37694D01*
X67411Y-37698D01*
X67394Y-37704D01*
X67377Y-37709D01*
X67360Y-37712D01*
X67352Y-37713D01*
X67345Y-37714D01*
X67339Y-37715D01*
X67334D01*
X67329Y-37715D01*
X67323D01*
X67311Y-37715D01*
X67301Y-37713D01*
X67290Y-37712D01*
X67280Y-37710D01*
X67271Y-37707D01*
X67263Y-37704D01*
X67255Y-37701D01*
X67247Y-37698D01*
X67241Y-37695D01*
X67234Y-37692D01*
X67230Y-37689D01*
X67225Y-37687D01*
X67222Y-37684D01*
X67220Y-37683D01*
X67218Y-37682D01*
X67218Y-37681D01*
X67210Y-37674D01*
X67203Y-37668D01*
X67197Y-37660D01*
X67190Y-37652D01*
X67180Y-37635D01*
X67172Y-37619D01*
X67168Y-37612D01*
X67166Y-37605D01*
X67163Y-37599D01*
X67162Y-37594D01*
X67160Y-37589D01*
X67159Y-37585D01*
X67158Y-37583D01*
Y-37583D01*
X67211Y-37569D01*
X67213Y-37579D01*
X67216Y-37587D01*
X67219Y-37595D01*
X67222Y-37603D01*
X67225Y-37610D01*
X67229Y-37615D01*
X67233Y-37621D01*
X67236Y-37626D01*
X67239Y-37631D01*
X67243Y-37634D01*
X67245Y-37638D01*
X67248Y-37641D01*
X67250Y-37642D01*
X67252Y-37644D01*
X67252Y-37645D01*
X67253Y-37645D01*
X67259Y-37650D01*
X67265Y-37653D01*
X67278Y-37660D01*
X67290Y-37664D01*
X67302Y-37667D01*
X67312Y-37669D01*
X67316Y-37670D01*
X67320D01*
X67323Y-37670D01*
X67327D01*
X67341Y-37670D01*
X67353Y-37668D01*
X67365Y-37665D01*
X67375Y-37661D01*
X67383Y-37658D01*
X67387Y-37656D01*
X67389Y-37655D01*
X67392Y-37654D01*
X67393Y-37653D01*
X67395Y-37652D01*
X67395D01*
X67406Y-37644D01*
X67415Y-37635D01*
X67423Y-37626D01*
X67430Y-37616D01*
X67435Y-37608D01*
X67438Y-37602D01*
X67439Y-37599D01*
X67441Y-37597D01*
X67441Y-37596D01*
Y-37595D01*
X67446Y-37580D01*
X67449Y-37565D01*
X67452Y-37550D01*
X67454Y-37537D01*
X67454Y-37530D01*
X67455Y-37525D01*
Y-37519D01*
X67455Y-37515D01*
Y-37512D01*
Y-37509D01*
Y-37507D01*
Y-37507D01*
X67455Y-37492D01*
X67454Y-37478D01*
X67451Y-37466D01*
X67449Y-37454D01*
X67447Y-37444D01*
X67446Y-37440D01*
X67445Y-37437D01*
X67445Y-37434D01*
X67444Y-37432D01*
X67443Y-37431D01*
Y-37431D01*
X67438Y-37417D01*
X67431Y-37405D01*
X67424Y-37396D01*
X67417Y-37387D01*
X67411Y-37380D01*
X67406Y-37375D01*
X67402Y-37373D01*
X67401Y-37371D01*
X67400D01*
X67388Y-37364D01*
X67375Y-37358D01*
X67362Y-37354D01*
X67350Y-37352D01*
X67340Y-37350D01*
X67335Y-37350D01*
X67331D01*
X67328Y-37349D01*
X67323D01*
X67309Y-37350D01*
X67296Y-37352D01*
X67285Y-37355D01*
X67275Y-37359D01*
X67268Y-37363D01*
X67262Y-37366D01*
X67259Y-37368D01*
X67257Y-37369D01*
X67248Y-37378D01*
X67240Y-37387D01*
X67233Y-37398D01*
X67227Y-37408D01*
X67222Y-37417D01*
X67221Y-37422D01*
X67220Y-37425D01*
X67218Y-37428D01*
X67217Y-37431D01*
X67217Y-37432D01*
Y-37432D01*
X67165Y-37420D01*
X67168Y-37410D01*
X67172Y-37401D01*
X67177Y-37392D01*
X67181Y-37383D01*
X67185Y-37376D01*
X67190Y-37369D01*
X67195Y-37362D01*
X67199Y-37356D01*
X67204Y-37352D01*
X67208Y-37347D01*
X67212Y-37343D01*
X67215Y-37340D01*
X67218Y-37338D01*
X67220Y-37336D01*
X67221Y-37335D01*
X67222Y-37335D01*
X67230Y-37329D01*
X67238Y-37324D01*
X67246Y-37320D01*
X67255Y-37317D01*
X67272Y-37312D01*
X67287Y-37308D01*
X67295Y-37307D01*
X67301Y-37306D01*
X67307Y-37305D01*
X67313Y-37305D01*
X67317Y-37304D01*
X67322D01*
X67341Y-37305D01*
D02*
G37*
G36*
X77184Y-37207D02*
X77202Y-37210D01*
X77218Y-37213D01*
X77226Y-37215D01*
X77233Y-37218D01*
X77239Y-37220D01*
X77245Y-37222D01*
X77249Y-37224D01*
X77254Y-37226D01*
X77257Y-37228D01*
X77259Y-37229D01*
X77261Y-37229D01*
X77261Y-37230D01*
X77277Y-37240D01*
X77290Y-37251D01*
X77301Y-37263D01*
X77311Y-37274D01*
X77319Y-37284D01*
X77322Y-37289D01*
X77324Y-37293D01*
X77326Y-37296D01*
X77327Y-37298D01*
X77328Y-37300D01*
X77328Y-37300D01*
X77336Y-37318D01*
X77342Y-37337D01*
X77346Y-37355D01*
X77349Y-37372D01*
X77350Y-37379D01*
X77351Y-37387D01*
X77351Y-37392D01*
Y-37398D01*
X77352Y-37402D01*
Y-37405D01*
Y-37408D01*
Y-37408D01*
X77351Y-37429D01*
X77348Y-37449D01*
X77346Y-37467D01*
X77343Y-37476D01*
X77342Y-37483D01*
X77340Y-37490D01*
X77338Y-37496D01*
X77336Y-37502D01*
X77335Y-37507D01*
X77333Y-37510D01*
X77332Y-37513D01*
X77331Y-37515D01*
Y-37515D01*
X77323Y-37532D01*
X77313Y-37548D01*
X77303Y-37561D01*
X77297Y-37566D01*
X77293Y-37571D01*
X77288Y-37576D01*
X77284Y-37580D01*
X77280Y-37583D01*
X77276Y-37586D01*
X77274Y-37588D01*
X77272Y-37590D01*
X77270Y-37590D01*
X77270Y-37591D01*
X77262Y-37595D01*
X77254Y-37599D01*
X77237Y-37606D01*
X77219Y-37610D01*
X77203Y-37613D01*
X77195Y-37614D01*
X77188Y-37616D01*
X77181Y-37616D01*
X77176D01*
X77172Y-37617D01*
X77165D01*
X77154Y-37616D01*
X77143Y-37615D01*
X77133Y-37614D01*
X77123Y-37612D01*
X77114Y-37609D01*
X77105Y-37606D01*
X77097Y-37603D01*
X77090Y-37599D01*
X77083Y-37597D01*
X77077Y-37594D01*
X77072Y-37591D01*
X77068Y-37588D01*
X77065Y-37586D01*
X77062Y-37585D01*
X77061Y-37583D01*
X77060Y-37583D01*
X77052Y-37576D01*
X77045Y-37569D01*
X77039Y-37561D01*
X77033Y-37553D01*
X77022Y-37537D01*
X77014Y-37521D01*
X77011Y-37513D01*
X77008Y-37507D01*
X77006Y-37500D01*
X77004Y-37495D01*
X77002Y-37490D01*
X77001Y-37487D01*
X77001Y-37485D01*
Y-37484D01*
X77053Y-37471D01*
X77056Y-37480D01*
X77059Y-37489D01*
X77062Y-37497D01*
X77064Y-37504D01*
X77068Y-37511D01*
X77071Y-37517D01*
X77075Y-37523D01*
X77079Y-37528D01*
X77082Y-37532D01*
X77085Y-37536D01*
X77088Y-37539D01*
X77090Y-37542D01*
X77092Y-37544D01*
X77094Y-37546D01*
X77095Y-37546D01*
X77095Y-37547D01*
X77101Y-37551D01*
X77107Y-37555D01*
X77120Y-37561D01*
X77132Y-37566D01*
X77144Y-37569D01*
X77154Y-37571D01*
X77158Y-37571D01*
X77163D01*
X77166Y-37572D01*
X77170D01*
X77183Y-37571D01*
X77196Y-37569D01*
X77207Y-37566D01*
X77218Y-37563D01*
X77226Y-37559D01*
X77229Y-37558D01*
X77232Y-37556D01*
X77234Y-37555D01*
X77236Y-37554D01*
X77237Y-37554D01*
X77238D01*
X77249Y-37546D01*
X77258Y-37537D01*
X77266Y-37527D01*
X77272Y-37518D01*
X77277Y-37510D01*
X77281Y-37503D01*
X77282Y-37500D01*
X77283Y-37498D01*
X77284Y-37497D01*
Y-37497D01*
X77288Y-37482D01*
X77292Y-37467D01*
X77295Y-37452D01*
X77296Y-37438D01*
X77297Y-37432D01*
X77297Y-37426D01*
Y-37421D01*
X77298Y-37417D01*
Y-37414D01*
Y-37411D01*
Y-37409D01*
Y-37408D01*
X77297Y-37393D01*
X77296Y-37380D01*
X77294Y-37367D01*
X77292Y-37356D01*
X77290Y-37346D01*
X77289Y-37342D01*
X77288Y-37338D01*
X77287Y-37335D01*
X77287Y-37334D01*
X77286Y-37333D01*
Y-37332D01*
X77280Y-37319D01*
X77274Y-37307D01*
X77267Y-37297D01*
X77260Y-37288D01*
X77253Y-37281D01*
X77248Y-37277D01*
X77244Y-37274D01*
X77243Y-37273D01*
X77243D01*
X77231Y-37265D01*
X77218Y-37260D01*
X77205Y-37256D01*
X77193Y-37253D01*
X77182Y-37252D01*
X77177Y-37251D01*
X77173D01*
X77171Y-37250D01*
X77166D01*
X77152Y-37251D01*
X77138Y-37253D01*
X77128Y-37257D01*
X77118Y-37260D01*
X77110Y-37264D01*
X77105Y-37267D01*
X77101Y-37269D01*
X77100Y-37271D01*
X77091Y-37279D01*
X77082Y-37289D01*
X77075Y-37299D01*
X77070Y-37310D01*
X77065Y-37319D01*
X77063Y-37323D01*
X77062Y-37327D01*
X77061Y-37330D01*
X77060Y-37332D01*
X77059Y-37333D01*
Y-37334D01*
X77008Y-37322D01*
X77011Y-37311D01*
X77014Y-37302D01*
X77019Y-37294D01*
X77023Y-37285D01*
X77028Y-37277D01*
X77033Y-37271D01*
X77037Y-37264D01*
X77042Y-37258D01*
X77047Y-37253D01*
X77051Y-37249D01*
X77055Y-37245D01*
X77057Y-37242D01*
X77060Y-37239D01*
X77063Y-37237D01*
X77064Y-37237D01*
X77064Y-37236D01*
X77072Y-37231D01*
X77080Y-37226D01*
X77088Y-37222D01*
X77097Y-37218D01*
X77114Y-37213D01*
X77130Y-37210D01*
X77137Y-37208D01*
X77144Y-37207D01*
X77150Y-37207D01*
X77155Y-37206D01*
X77159Y-37206D01*
X77165D01*
X77184Y-37207D01*
D02*
G37*
G36*
X66992Y-27369D02*
X67002Y-27370D01*
X67011Y-27371D01*
X67020Y-27373D01*
X67028Y-27375D01*
X67035Y-27378D01*
X67042Y-27380D01*
X67049Y-27383D01*
X67054Y-27386D01*
X67059Y-27389D01*
X67063Y-27391D01*
X67066Y-27394D01*
X67069Y-27395D01*
X67071Y-27397D01*
X67072Y-27398D01*
X67073Y-27398D01*
X67078Y-27404D01*
X67084Y-27410D01*
X67089Y-27417D01*
X67093Y-27424D01*
X67100Y-27438D01*
X67104Y-27452D01*
X67106Y-27458D01*
X67108Y-27464D01*
X67109Y-27469D01*
X67110Y-27474D01*
X67111Y-27478D01*
Y-27481D01*
X67111Y-27483D01*
Y-27483D01*
X67061Y-27488D01*
X67060Y-27475D01*
X67058Y-27464D01*
X67054Y-27453D01*
X67050Y-27445D01*
X67047Y-27438D01*
X67043Y-27434D01*
X67041Y-27431D01*
X67040Y-27430D01*
X67031Y-27423D01*
X67022Y-27418D01*
X67012Y-27414D01*
X67004Y-27411D01*
X66996Y-27410D01*
X66989Y-27409D01*
X66987Y-27409D01*
X66983D01*
X66971Y-27409D01*
X66960Y-27411D01*
X66951Y-27415D01*
X66943Y-27418D01*
X66937Y-27422D01*
X66933Y-27425D01*
X66930Y-27428D01*
X66929Y-27429D01*
X66922Y-27437D01*
X66916Y-27445D01*
X66912Y-27453D01*
X66910Y-27461D01*
X66908Y-27467D01*
X66908Y-27473D01*
X66907Y-27476D01*
Y-27477D01*
Y-27477D01*
X66908Y-27488D01*
X66911Y-27499D01*
X66915Y-27508D01*
X66919Y-27518D01*
X66923Y-27525D01*
X66927Y-27531D01*
X66929Y-27534D01*
X66930Y-27535D01*
X66931Y-27536D01*
Y-27537D01*
X66935Y-27543D01*
X66941Y-27549D01*
X66947Y-27556D01*
X66954Y-27563D01*
X66969Y-27577D01*
X66983Y-27591D01*
X66991Y-27597D01*
X66997Y-27603D01*
X67003Y-27608D01*
X67008Y-27612D01*
X67012Y-27616D01*
X67016Y-27619D01*
X67018Y-27620D01*
X67019Y-27621D01*
X67033Y-27633D01*
X67046Y-27644D01*
X67057Y-27655D01*
X67066Y-27663D01*
X67073Y-27671D01*
X67078Y-27676D01*
X67081Y-27680D01*
X67082Y-27680D01*
Y-27681D01*
X67090Y-27690D01*
X67097Y-27700D01*
X67102Y-27709D01*
X67107Y-27717D01*
X67111Y-27724D01*
X67113Y-27729D01*
X67114Y-27732D01*
X67115Y-27733D01*
Y-27733D01*
X67117Y-27740D01*
X67118Y-27746D01*
X67119Y-27751D01*
X67120Y-27756D01*
X67120Y-27761D01*
Y-27764D01*
Y-27767D01*
Y-27767D01*
X66857D01*
Y-27720D01*
X67053D01*
X67046Y-27710D01*
X67042Y-27706D01*
X67039Y-27702D01*
X67036Y-27699D01*
X67034Y-27697D01*
X67032Y-27695D01*
X67032Y-27694D01*
X67029Y-27692D01*
X67026Y-27689D01*
X67018Y-27681D01*
X67008Y-27673D01*
X66999Y-27664D01*
X66989Y-27657D01*
X66985Y-27653D01*
X66982Y-27650D01*
X66979Y-27647D01*
X66977Y-27646D01*
X66976Y-27644D01*
X66975Y-27644D01*
X66966Y-27636D01*
X66957Y-27628D01*
X66949Y-27621D01*
X66941Y-27615D01*
X66934Y-27608D01*
X66929Y-27603D01*
X66923Y-27597D01*
X66918Y-27593D01*
X66914Y-27588D01*
X66910Y-27585D01*
X66907Y-27582D01*
X66904Y-27579D01*
X66902Y-27576D01*
X66900Y-27574D01*
X66892Y-27565D01*
X66885Y-27556D01*
X66880Y-27547D01*
X66875Y-27541D01*
X66872Y-27534D01*
X66869Y-27530D01*
X66868Y-27527D01*
X66868Y-27526D01*
X66864Y-27517D01*
X66862Y-27508D01*
X66860Y-27500D01*
X66859Y-27494D01*
X66858Y-27487D01*
X66857Y-27483D01*
Y-27480D01*
Y-27479D01*
X66858Y-27470D01*
X66859Y-27462D01*
X66860Y-27454D01*
X66863Y-27447D01*
X66868Y-27433D01*
X66874Y-27422D01*
X66877Y-27417D01*
X66880Y-27413D01*
X66883Y-27409D01*
X66886Y-27406D01*
X66888Y-27404D01*
X66890Y-27402D01*
X66891Y-27401D01*
X66891Y-27401D01*
X66898Y-27395D01*
X66904Y-27390D01*
X66912Y-27386D01*
X66919Y-27382D01*
X66934Y-27376D01*
X66949Y-27372D01*
X66956Y-27371D01*
X66962Y-27370D01*
X66968Y-27370D01*
X66972Y-27369D01*
X66976Y-27368D01*
X66982D01*
X66992Y-27369D01*
D02*
G37*
G36*
X27681Y-37568D02*
Y-37613D01*
X27508D01*
Y-37708D01*
X27459D01*
Y-37613D01*
X27405D01*
Y-37568D01*
X27459D01*
Y-37311D01*
X27499D01*
X27681Y-37568D01*
D02*
G37*
G36*
X27892Y-37305D02*
X27910Y-37308D01*
X27926Y-37312D01*
X27934Y-37314D01*
X27941Y-37316D01*
X27947Y-37319D01*
X27953Y-37321D01*
X27957Y-37323D01*
X27962Y-37324D01*
X27965Y-37326D01*
X27967Y-37327D01*
X27969Y-37328D01*
X27970Y-37328D01*
X27985Y-37338D01*
X27998Y-37350D01*
X28010Y-37361D01*
X28019Y-37373D01*
X28027Y-37383D01*
X28030Y-37387D01*
X28032Y-37391D01*
X28034Y-37394D01*
X28036Y-37397D01*
X28036Y-37398D01*
X28037Y-37399D01*
X28045Y-37417D01*
X28050Y-37435D01*
X28054Y-37453D01*
X28057Y-37470D01*
X28059Y-37478D01*
X28059Y-37485D01*
X28060Y-37491D01*
Y-37497D01*
X28060Y-37501D01*
Y-37504D01*
Y-37506D01*
Y-37507D01*
X28059Y-37528D01*
X28057Y-37548D01*
X28054Y-37565D01*
X28052Y-37574D01*
X28050Y-37581D01*
X28048Y-37588D01*
X28046Y-37595D01*
X28044Y-37600D01*
X28043Y-37605D01*
X28041Y-37608D01*
X28041Y-37611D01*
X28040Y-37613D01*
Y-37614D01*
X28031Y-37631D01*
X28021Y-37646D01*
X28011Y-37660D01*
X28006Y-37665D01*
X28001Y-37670D01*
X27997Y-37674D01*
X27992Y-37678D01*
X27988Y-37682D01*
X27984Y-37684D01*
X27982Y-37687D01*
X27980Y-37688D01*
X27979Y-37689D01*
X27978Y-37689D01*
X27970Y-37694D01*
X27962Y-37698D01*
X27945Y-37704D01*
X27928Y-37709D01*
X27911Y-37712D01*
X27903Y-37713D01*
X27896Y-37714D01*
X27890Y-37715D01*
X27885D01*
X27880Y-37715D01*
X27874D01*
X27862Y-37715D01*
X27851Y-37713D01*
X27841Y-37712D01*
X27831Y-37710D01*
X27822Y-37707D01*
X27813Y-37704D01*
X27805Y-37701D01*
X27798Y-37698D01*
X27792Y-37695D01*
X27785Y-37692D01*
X27781Y-37689D01*
X27776Y-37687D01*
X27773Y-37684D01*
X27770Y-37683D01*
X27769Y-37682D01*
X27769Y-37681D01*
X27761Y-37674D01*
X27754Y-37668D01*
X27747Y-37660D01*
X27741Y-37652D01*
X27731Y-37635D01*
X27723Y-37619D01*
X27719Y-37612D01*
X27716Y-37605D01*
X27714Y-37599D01*
X27712Y-37594D01*
X27711Y-37589D01*
X27710Y-37585D01*
X27709Y-37583D01*
Y-37583D01*
X27762Y-37569D01*
X27764Y-37579D01*
X27767Y-37587D01*
X27770Y-37595D01*
X27773Y-37603D01*
X27776Y-37610D01*
X27780Y-37615D01*
X27784Y-37621D01*
X27787Y-37626D01*
X27790Y-37631D01*
X27793Y-37634D01*
X27796Y-37638D01*
X27798Y-37641D01*
X27801Y-37642D01*
X27803Y-37644D01*
X27803Y-37645D01*
X27804Y-37645D01*
X27809Y-37650D01*
X27816Y-37653D01*
X27828Y-37660D01*
X27840Y-37664D01*
X27852Y-37667D01*
X27863Y-37669D01*
X27867Y-37670D01*
X27871D01*
X27874Y-37670D01*
X27878D01*
X27891Y-37670D01*
X27904Y-37668D01*
X27916Y-37665D01*
X27926Y-37661D01*
X27934Y-37658D01*
X27937Y-37656D01*
X27940Y-37655D01*
X27943Y-37654D01*
X27944Y-37653D01*
X27945Y-37652D01*
X27946D01*
X27957Y-37644D01*
X27966Y-37635D01*
X27974Y-37626D01*
X27980Y-37616D01*
X27986Y-37608D01*
X27989Y-37602D01*
X27990Y-37599D01*
X27991Y-37597D01*
X27992Y-37596D01*
Y-37595D01*
X27997Y-37580D01*
X28000Y-37565D01*
X28003Y-37550D01*
X28005Y-37537D01*
X28005Y-37530D01*
X28006Y-37525D01*
Y-37519D01*
X28006Y-37515D01*
Y-37512D01*
Y-37509D01*
Y-37507D01*
Y-37507D01*
X28006Y-37492D01*
X28005Y-37478D01*
X28002Y-37466D01*
X28000Y-37454D01*
X27998Y-37444D01*
X27997Y-37440D01*
X27996Y-37437D01*
X27995Y-37434D01*
X27995Y-37432D01*
X27994Y-37431D01*
Y-37431D01*
X27988Y-37417D01*
X27982Y-37405D01*
X27975Y-37396D01*
X27968Y-37387D01*
X27961Y-37380D01*
X27956Y-37375D01*
X27952Y-37373D01*
X27952Y-37371D01*
X27951D01*
X27939Y-37364D01*
X27926Y-37358D01*
X27913Y-37354D01*
X27901Y-37352D01*
X27890Y-37350D01*
X27886Y-37350D01*
X27882D01*
X27879Y-37349D01*
X27874D01*
X27860Y-37350D01*
X27847Y-37352D01*
X27836Y-37355D01*
X27826Y-37359D01*
X27819Y-37363D01*
X27813Y-37366D01*
X27809Y-37368D01*
X27808Y-37369D01*
X27799Y-37378D01*
X27790Y-37387D01*
X27784Y-37398D01*
X27778Y-37408D01*
X27773Y-37417D01*
X27771Y-37422D01*
X27770Y-37425D01*
X27769Y-37428D01*
X27768Y-37431D01*
X27767Y-37432D01*
Y-37432D01*
X27716Y-37420D01*
X27719Y-37410D01*
X27723Y-37401D01*
X27727Y-37392D01*
X27731Y-37383D01*
X27736Y-37376D01*
X27741Y-37369D01*
X27746Y-37362D01*
X27750Y-37356D01*
X27755Y-37352D01*
X27759Y-37347D01*
X27763Y-37343D01*
X27766Y-37340D01*
X27769Y-37338D01*
X27771Y-37336D01*
X27772Y-37335D01*
X27773Y-37335D01*
X27781Y-37329D01*
X27789Y-37324D01*
X27797Y-37320D01*
X27805Y-37317D01*
X27823Y-37312D01*
X27838Y-37308D01*
X27846Y-37307D01*
X27852Y-37306D01*
X27858Y-37305D01*
X27863Y-37305D01*
X27867Y-37304D01*
X27873D01*
X27892Y-37305D01*
D02*
G37*
G36*
X77184Y-27364D02*
X77202Y-27367D01*
X77218Y-27371D01*
X77226Y-27373D01*
X77233Y-27375D01*
X77239Y-27378D01*
X77245Y-27380D01*
X77249Y-27382D01*
X77254Y-27383D01*
X77257Y-27385D01*
X77259Y-27386D01*
X77261Y-27387D01*
X77261Y-27387D01*
X77277Y-27397D01*
X77290Y-27409D01*
X77301Y-27420D01*
X77311Y-27432D01*
X77319Y-27442D01*
X77322Y-27446D01*
X77324Y-27450D01*
X77326Y-27453D01*
X77327Y-27456D01*
X77328Y-27457D01*
X77328Y-27458D01*
X77336Y-27476D01*
X77342Y-27494D01*
X77346Y-27512D01*
X77349Y-27529D01*
X77350Y-27537D01*
X77351Y-27544D01*
X77351Y-27550D01*
Y-27556D01*
X77352Y-27560D01*
Y-27563D01*
Y-27565D01*
Y-27566D01*
X77351Y-27587D01*
X77348Y-27607D01*
X77346Y-27624D01*
X77343Y-27633D01*
X77342Y-27640D01*
X77340Y-27647D01*
X77338Y-27654D01*
X77336Y-27659D01*
X77335Y-27664D01*
X77333Y-27667D01*
X77332Y-27670D01*
X77331Y-27672D01*
Y-27673D01*
X77323Y-27690D01*
X77313Y-27705D01*
X77303Y-27719D01*
X77297Y-27724D01*
X77293Y-27729D01*
X77288Y-27733D01*
X77284Y-27737D01*
X77280Y-27741D01*
X77276Y-27743D01*
X77274Y-27746D01*
X77272Y-27747D01*
X77270Y-27748D01*
X77270Y-27748D01*
X77262Y-27753D01*
X77254Y-27757D01*
X77237Y-27763D01*
X77219Y-27768D01*
X77203Y-27771D01*
X77195Y-27772D01*
X77188Y-27773D01*
X77181Y-27774D01*
X77176D01*
X77172Y-27774D01*
X77165D01*
X77154Y-27774D01*
X77143Y-27772D01*
X77133Y-27771D01*
X77123Y-27769D01*
X77114Y-27766D01*
X77105Y-27763D01*
X77097Y-27760D01*
X77090Y-27757D01*
X77083Y-27754D01*
X77077Y-27751D01*
X77072Y-27748D01*
X77068Y-27746D01*
X77065Y-27743D01*
X77062Y-27742D01*
X77061Y-27741D01*
X77060Y-27740D01*
X77052Y-27733D01*
X77045Y-27727D01*
X77039Y-27719D01*
X77033Y-27710D01*
X77022Y-27694D01*
X77014Y-27678D01*
X77011Y-27671D01*
X77008Y-27664D01*
X77006Y-27658D01*
X77004Y-27653D01*
X77002Y-27648D01*
X77001Y-27644D01*
X77001Y-27642D01*
Y-27642D01*
X77053Y-27628D01*
X77056Y-27638D01*
X77059Y-27646D01*
X77062Y-27654D01*
X77064Y-27662D01*
X77068Y-27669D01*
X77071Y-27674D01*
X77075Y-27680D01*
X77079Y-27685D01*
X77082Y-27690D01*
X77085Y-27693D01*
X77088Y-27697D01*
X77090Y-27700D01*
X77092Y-27701D01*
X77094Y-27703D01*
X77095Y-27704D01*
X77095Y-27704D01*
X77101Y-27709D01*
X77107Y-27712D01*
X77120Y-27719D01*
X77132Y-27723D01*
X77144Y-27726D01*
X77154Y-27728D01*
X77158Y-27729D01*
X77163D01*
X77166Y-27729D01*
X77170D01*
X77183Y-27729D01*
X77196Y-27727D01*
X77207Y-27724D01*
X77218Y-27720D01*
X77226Y-27717D01*
X77229Y-27715D01*
X77232Y-27714D01*
X77234Y-27713D01*
X77236Y-27712D01*
X77237Y-27711D01*
X77238D01*
X77249Y-27703D01*
X77258Y-27694D01*
X77266Y-27685D01*
X77272Y-27675D01*
X77277Y-27667D01*
X77281Y-27661D01*
X77282Y-27658D01*
X77283Y-27656D01*
X77284Y-27655D01*
Y-27654D01*
X77288Y-27639D01*
X77292Y-27624D01*
X77295Y-27609D01*
X77296Y-27596D01*
X77297Y-27589D01*
X77297Y-27584D01*
Y-27578D01*
X77298Y-27574D01*
Y-27571D01*
Y-27568D01*
Y-27566D01*
Y-27566D01*
X77297Y-27551D01*
X77296Y-27537D01*
X77294Y-27525D01*
X77292Y-27513D01*
X77290Y-27503D01*
X77289Y-27499D01*
X77288Y-27496D01*
X77287Y-27493D01*
X77287Y-27491D01*
X77286Y-27490D01*
Y-27490D01*
X77280Y-27476D01*
X77274Y-27464D01*
X77267Y-27455D01*
X77260Y-27446D01*
X77253Y-27439D01*
X77248Y-27434D01*
X77244Y-27432D01*
X77243Y-27430D01*
X77243D01*
X77231Y-27423D01*
X77218Y-27417D01*
X77205Y-27413D01*
X77193Y-27411D01*
X77182Y-27409D01*
X77177Y-27409D01*
X77173D01*
X77171Y-27408D01*
X77166D01*
X77152Y-27409D01*
X77138Y-27411D01*
X77128Y-27414D01*
X77118Y-27418D01*
X77110Y-27422D01*
X77105Y-27425D01*
X77101Y-27427D01*
X77100Y-27428D01*
X77091Y-27437D01*
X77082Y-27446D01*
X77075Y-27457D01*
X77070Y-27467D01*
X77065Y-27476D01*
X77063Y-27481D01*
X77062Y-27484D01*
X77061Y-27487D01*
X77060Y-27490D01*
X77059Y-27491D01*
Y-27491D01*
X77008Y-27479D01*
X77011Y-27469D01*
X77014Y-27460D01*
X77019Y-27451D01*
X77023Y-27442D01*
X77028Y-27435D01*
X77033Y-27428D01*
X77037Y-27421D01*
X77042Y-27415D01*
X77047Y-27411D01*
X77051Y-27406D01*
X77055Y-27402D01*
X77057Y-27399D01*
X77060Y-27397D01*
X77063Y-27395D01*
X77064Y-27394D01*
X77064Y-27394D01*
X77072Y-27388D01*
X77080Y-27383D01*
X77088Y-27379D01*
X77097Y-27376D01*
X77114Y-27371D01*
X77130Y-27367D01*
X77137Y-27366D01*
X77144Y-27365D01*
X77150Y-27364D01*
X77155Y-27364D01*
X77159Y-27363D01*
X77165D01*
X77184Y-27364D01*
D02*
G37*
G36*
X76810Y-27378D02*
X76816Y-27387D01*
X76823Y-27397D01*
X76830Y-27405D01*
X76837Y-27411D01*
X76842Y-27417D01*
X76845Y-27419D01*
X76846Y-27421D01*
X76847Y-27421D01*
X76847Y-27422D01*
X76859Y-27432D01*
X76872Y-27441D01*
X76883Y-27449D01*
X76894Y-27455D01*
X76904Y-27461D01*
X76908Y-27463D01*
X76912Y-27465D01*
X76915Y-27467D01*
X76917Y-27467D01*
X76918Y-27468D01*
X76919D01*
Y-27515D01*
X76910Y-27512D01*
X76901Y-27508D01*
X76893Y-27504D01*
X76885Y-27500D01*
X76878Y-27496D01*
X76872Y-27494D01*
X76869Y-27491D01*
X76868Y-27491D01*
X76867D01*
X76857Y-27484D01*
X76848Y-27478D01*
X76840Y-27472D01*
X76834Y-27467D01*
X76828Y-27463D01*
X76824Y-27460D01*
X76822Y-27457D01*
X76821Y-27457D01*
Y-27767D01*
X76772D01*
Y-27368D01*
X76804D01*
X76810Y-27378D01*
D02*
G37*
G36*
X8192Y-27364D02*
X8210Y-27367D01*
X8226Y-27371D01*
X8234Y-27373D01*
X8241Y-27375D01*
X8247Y-27378D01*
X8253Y-27380D01*
X8257Y-27382D01*
X8262Y-27383D01*
X8265Y-27385D01*
X8267Y-27386D01*
X8269Y-27387D01*
X8270Y-27387D01*
X8285Y-27397D01*
X8298Y-27409D01*
X8310Y-27420D01*
X8319Y-27432D01*
X8327Y-27442D01*
X8330Y-27446D01*
X8332Y-27450D01*
X8334Y-27453D01*
X8336Y-27456D01*
X8336Y-27457D01*
X8337Y-27458D01*
X8345Y-27476D01*
X8350Y-27494D01*
X8354Y-27512D01*
X8357Y-27529D01*
X8359Y-27537D01*
X8359Y-27544D01*
X8360Y-27550D01*
Y-27556D01*
X8360Y-27560D01*
Y-27563D01*
Y-27565D01*
Y-27566D01*
X8359Y-27587D01*
X8357Y-27607D01*
X8354Y-27624D01*
X8352Y-27633D01*
X8350Y-27640D01*
X8348Y-27647D01*
X8346Y-27654D01*
X8344Y-27659D01*
X8343Y-27664D01*
X8341Y-27667D01*
X8341Y-27670D01*
X8340Y-27672D01*
Y-27673D01*
X8331Y-27690D01*
X8321Y-27705D01*
X8311Y-27719D01*
X8306Y-27724D01*
X8301Y-27729D01*
X8297Y-27733D01*
X8292Y-27737D01*
X8288Y-27741D01*
X8284Y-27743D01*
X8282Y-27746D01*
X8280Y-27747D01*
X8279Y-27748D01*
X8278Y-27748D01*
X8270Y-27753D01*
X8262Y-27757D01*
X8245Y-27763D01*
X8228Y-27768D01*
X8211Y-27771D01*
X8203Y-27772D01*
X8196Y-27773D01*
X8190Y-27774D01*
X8185D01*
X8180Y-27774D01*
X8174D01*
X8162Y-27774D01*
X8151Y-27772D01*
X8141Y-27771D01*
X8131Y-27769D01*
X8122Y-27766D01*
X8113Y-27763D01*
X8105Y-27760D01*
X8098Y-27757D01*
X8092Y-27754D01*
X8085Y-27751D01*
X8081Y-27748D01*
X8076Y-27746D01*
X8073Y-27743D01*
X8070Y-27742D01*
X8069Y-27741D01*
X8069Y-27740D01*
X8061Y-27733D01*
X8054Y-27727D01*
X8047Y-27719D01*
X8041Y-27710D01*
X8031Y-27694D01*
X8023Y-27678D01*
X8019Y-27671D01*
X8016Y-27664D01*
X8014Y-27658D01*
X8012Y-27653D01*
X8011Y-27648D01*
X8010Y-27644D01*
X8009Y-27642D01*
Y-27642D01*
X8062Y-27628D01*
X8064Y-27638D01*
X8067Y-27646D01*
X8070Y-27654D01*
X8073Y-27662D01*
X8076Y-27669D01*
X8080Y-27674D01*
X8084Y-27680D01*
X8087Y-27685D01*
X8090Y-27690D01*
X8093Y-27693D01*
X8096Y-27697D01*
X8098Y-27700D01*
X8101Y-27701D01*
X8102Y-27703D01*
X8103Y-27704D01*
X8104Y-27704D01*
X8109Y-27709D01*
X8116Y-27712D01*
X8128Y-27719D01*
X8140Y-27723D01*
X8152Y-27726D01*
X8163Y-27728D01*
X8167Y-27729D01*
X8171D01*
X8174Y-27729D01*
X8178D01*
X8191Y-27729D01*
X8204Y-27727D01*
X8216Y-27724D01*
X8226Y-27720D01*
X8234Y-27717D01*
X8237Y-27715D01*
X8240Y-27714D01*
X8243Y-27713D01*
X8244Y-27712D01*
X8245Y-27711D01*
X8246D01*
X8257Y-27703D01*
X8266Y-27694D01*
X8274Y-27685D01*
X8280Y-27675D01*
X8286Y-27667D01*
X8289Y-27661D01*
X8290Y-27658D01*
X8291Y-27656D01*
X8292Y-27655D01*
Y-27654D01*
X8297Y-27639D01*
X8300Y-27624D01*
X8303Y-27609D01*
X8305Y-27596D01*
X8305Y-27589D01*
X8306Y-27584D01*
Y-27578D01*
X8306Y-27574D01*
Y-27571D01*
Y-27568D01*
Y-27566D01*
Y-27566D01*
X8306Y-27551D01*
X8305Y-27537D01*
X8302Y-27525D01*
X8300Y-27513D01*
X8298Y-27503D01*
X8297Y-27499D01*
X8296Y-27496D01*
X8295Y-27493D01*
X8295Y-27491D01*
X8294Y-27490D01*
Y-27490D01*
X8288Y-27476D01*
X8282Y-27464D01*
X8275Y-27455D01*
X8268Y-27446D01*
X8262Y-27439D01*
X8256Y-27434D01*
X8252Y-27432D01*
X8252Y-27430D01*
X8251D01*
X8239Y-27423D01*
X8226Y-27417D01*
X8213Y-27413D01*
X8201Y-27411D01*
X8190Y-27409D01*
X8186Y-27409D01*
X8182D01*
X8179Y-27408D01*
X8174D01*
X8160Y-27409D01*
X8147Y-27411D01*
X8136Y-27414D01*
X8126Y-27418D01*
X8119Y-27422D01*
X8113Y-27425D01*
X8109Y-27427D01*
X8108Y-27428D01*
X8099Y-27437D01*
X8090Y-27446D01*
X8084Y-27457D01*
X8078Y-27467D01*
X8073Y-27476D01*
X8072Y-27481D01*
X8070Y-27484D01*
X8069Y-27487D01*
X8068Y-27490D01*
X8067Y-27491D01*
Y-27491D01*
X8016Y-27479D01*
X8019Y-27469D01*
X8023Y-27460D01*
X8027Y-27451D01*
X8031Y-27442D01*
X8036Y-27435D01*
X8041Y-27428D01*
X8046Y-27421D01*
X8050Y-27415D01*
X8055Y-27411D01*
X8059Y-27406D01*
X8063Y-27402D01*
X8066Y-27399D01*
X8069Y-27397D01*
X8071Y-27395D01*
X8072Y-27394D01*
X8073Y-27394D01*
X8081Y-27388D01*
X8089Y-27383D01*
X8097Y-27379D01*
X8105Y-27376D01*
X8123Y-27371D01*
X8138Y-27367D01*
X8146Y-27366D01*
X8152Y-27365D01*
X8158Y-27364D01*
X8163Y-27364D01*
X8167Y-27363D01*
X8173D01*
X8192Y-27364D01*
D02*
G37*
G36*
X7843Y-27369D02*
X7853Y-27370D01*
X7862Y-27371D01*
X7871Y-27373D01*
X7879Y-27375D01*
X7886Y-27378D01*
X7893Y-27380D01*
X7899Y-27383D01*
X7905Y-27386D01*
X7910Y-27389D01*
X7914Y-27391D01*
X7917Y-27394D01*
X7920Y-27395D01*
X7922Y-27397D01*
X7923Y-27398D01*
X7923Y-27398D01*
X7929Y-27404D01*
X7934Y-27410D01*
X7939Y-27417D01*
X7944Y-27424D01*
X7950Y-27438D01*
X7955Y-27452D01*
X7957Y-27458D01*
X7958Y-27464D01*
X7960Y-27469D01*
X7961Y-27474D01*
X7961Y-27478D01*
Y-27481D01*
X7962Y-27483D01*
Y-27483D01*
X7912Y-27488D01*
X7911Y-27475D01*
X7908Y-27464D01*
X7905Y-27453D01*
X7901Y-27445D01*
X7898Y-27438D01*
X7894Y-27434D01*
X7892Y-27431D01*
X7891Y-27430D01*
X7882Y-27423D01*
X7873Y-27418D01*
X7863Y-27414D01*
X7855Y-27411D01*
X7847Y-27410D01*
X7840Y-27409D01*
X7837Y-27409D01*
X7834D01*
X7822Y-27409D01*
X7811Y-27411D01*
X7802Y-27415D01*
X7794Y-27418D01*
X7787Y-27422D01*
X7783Y-27425D01*
X7780Y-27428D01*
X7779Y-27429D01*
X7772Y-27437D01*
X7767Y-27445D01*
X7763Y-27453D01*
X7761Y-27461D01*
X7759Y-27467D01*
X7759Y-27473D01*
X7758Y-27476D01*
Y-27477D01*
Y-27477D01*
X7759Y-27488D01*
X7762Y-27499D01*
X7766Y-27508D01*
X7770Y-27518D01*
X7774Y-27525D01*
X7778Y-27531D01*
X7779Y-27534D01*
X7780Y-27535D01*
X7782Y-27536D01*
Y-27537D01*
X7786Y-27543D01*
X7792Y-27549D01*
X7798Y-27556D01*
X7805Y-27563D01*
X7820Y-27577D01*
X7834Y-27591D01*
X7841Y-27597D01*
X7848Y-27603D01*
X7854Y-27608D01*
X7859Y-27612D01*
X7863Y-27616D01*
X7867Y-27619D01*
X7869Y-27620D01*
X7869Y-27621D01*
X7884Y-27633D01*
X7897Y-27644D01*
X7908Y-27655D01*
X7917Y-27663D01*
X7924Y-27671D01*
X7929Y-27676D01*
X7932Y-27680D01*
X7933Y-27680D01*
Y-27681D01*
X7941Y-27690D01*
X7948Y-27700D01*
X7953Y-27709D01*
X7958Y-27717D01*
X7961Y-27724D01*
X7964Y-27729D01*
X7965Y-27732D01*
X7965Y-27733D01*
Y-27733D01*
X7968Y-27740D01*
X7969Y-27746D01*
X7970Y-27751D01*
X7970Y-27756D01*
X7971Y-27761D01*
Y-27764D01*
Y-27767D01*
Y-27767D01*
X7708D01*
Y-27720D01*
X7903D01*
X7896Y-27710D01*
X7893Y-27706D01*
X7890Y-27702D01*
X7887Y-27699D01*
X7885Y-27697D01*
X7883Y-27695D01*
X7883Y-27694D01*
X7880Y-27692D01*
X7876Y-27689D01*
X7868Y-27681D01*
X7859Y-27673D01*
X7849Y-27664D01*
X7840Y-27657D01*
X7836Y-27653D01*
X7833Y-27650D01*
X7830Y-27647D01*
X7828Y-27646D01*
X7826Y-27644D01*
X7826Y-27644D01*
X7817Y-27636D01*
X7807Y-27628D01*
X7799Y-27621D01*
X7792Y-27615D01*
X7785Y-27608D01*
X7779Y-27603D01*
X7774Y-27597D01*
X7769Y-27593D01*
X7764Y-27588D01*
X7761Y-27585D01*
X7758Y-27582D01*
X7755Y-27579D01*
X7752Y-27576D01*
X7751Y-27574D01*
X7743Y-27565D01*
X7736Y-27556D01*
X7731Y-27547D01*
X7726Y-27541D01*
X7723Y-27534D01*
X7720Y-27530D01*
X7719Y-27527D01*
X7718Y-27526D01*
X7715Y-27517D01*
X7713Y-27508D01*
X7710Y-27500D01*
X7709Y-27494D01*
X7709Y-27487D01*
X7708Y-27483D01*
Y-27480D01*
Y-27479D01*
X7709Y-27470D01*
X7710Y-27462D01*
X7711Y-27454D01*
X7713Y-27447D01*
X7719Y-27433D01*
X7725Y-27422D01*
X7728Y-27417D01*
X7731Y-27413D01*
X7734Y-27409D01*
X7737Y-27406D01*
X7739Y-27404D01*
X7740Y-27402D01*
X7741Y-27401D01*
X7742Y-27401D01*
X7748Y-27395D01*
X7755Y-27390D01*
X7763Y-27386D01*
X7770Y-27382D01*
X7785Y-27376D01*
X7800Y-27372D01*
X7806Y-27371D01*
X7813Y-27370D01*
X7818Y-27370D01*
X7823Y-27369D01*
X7827Y-27368D01*
X7833D01*
X7843Y-27369D01*
D02*
G37*
G36*
X18035Y-27364D02*
X18053Y-27367D01*
X18069Y-27371D01*
X18076Y-27373D01*
X18083Y-27375D01*
X18090Y-27378D01*
X18095Y-27380D01*
X18100Y-27382D01*
X18105Y-27383D01*
X18107Y-27385D01*
X18110Y-27386D01*
X18111Y-27387D01*
X18112Y-27387D01*
X18128Y-27397D01*
X18141Y-27409D01*
X18152Y-27420D01*
X18162Y-27432D01*
X18169Y-27442D01*
X18172Y-27446D01*
X18175Y-27450D01*
X18177Y-27453D01*
X18178Y-27456D01*
X18179Y-27457D01*
X18179Y-27458D01*
X18187Y-27476D01*
X18193Y-27494D01*
X18197Y-27512D01*
X18200Y-27529D01*
X18201Y-27537D01*
X18202Y-27544D01*
X18202Y-27550D01*
Y-27556D01*
X18203Y-27560D01*
Y-27563D01*
Y-27565D01*
Y-27566D01*
X18202Y-27587D01*
X18199Y-27607D01*
X18196Y-27624D01*
X18194Y-27633D01*
X18192Y-27640D01*
X18191Y-27647D01*
X18188Y-27654D01*
X18187Y-27659D01*
X18186Y-27664D01*
X18184Y-27667D01*
X18183Y-27670D01*
X18182Y-27672D01*
Y-27673D01*
X18173Y-27690D01*
X18164Y-27705D01*
X18153Y-27719D01*
X18148Y-27724D01*
X18144Y-27729D01*
X18139Y-27733D01*
X18134Y-27737D01*
X18130Y-27741D01*
X18127Y-27743D01*
X18125Y-27746D01*
X18122Y-27747D01*
X18121Y-27748D01*
X18121Y-27748D01*
X18113Y-27753D01*
X18105Y-27757D01*
X18087Y-27763D01*
X18070Y-27768D01*
X18053Y-27771D01*
X18045Y-27772D01*
X18039Y-27773D01*
X18032Y-27774D01*
X18027D01*
X18022Y-27774D01*
X18016D01*
X18005Y-27774D01*
X17994Y-27772D01*
X17983Y-27771D01*
X17974Y-27769D01*
X17965Y-27766D01*
X17956Y-27763D01*
X17948Y-27760D01*
X17940Y-27757D01*
X17934Y-27754D01*
X17928Y-27751D01*
X17923Y-27748D01*
X17919Y-27746D01*
X17916Y-27743D01*
X17913Y-27742D01*
X17912Y-27741D01*
X17911Y-27740D01*
X17903Y-27733D01*
X17896Y-27727D01*
X17890Y-27719D01*
X17884Y-27710D01*
X17873Y-27694D01*
X17865Y-27678D01*
X17862Y-27671D01*
X17859Y-27664D01*
X17857Y-27658D01*
X17855Y-27653D01*
X17853Y-27648D01*
X17852Y-27644D01*
X17851Y-27642D01*
Y-27642D01*
X17904Y-27628D01*
X17907Y-27638D01*
X17909Y-27646D01*
X17912Y-27654D01*
X17915Y-27662D01*
X17919Y-27669D01*
X17922Y-27674D01*
X17926Y-27680D01*
X17930Y-27685D01*
X17932Y-27690D01*
X17936Y-27693D01*
X17939Y-27697D01*
X17941Y-27700D01*
X17943Y-27701D01*
X17945Y-27703D01*
X17946Y-27704D01*
X17946Y-27704D01*
X17952Y-27709D01*
X17958Y-27712D01*
X17971Y-27719D01*
X17983Y-27723D01*
X17995Y-27726D01*
X18005Y-27728D01*
X18009Y-27729D01*
X18013D01*
X18017Y-27729D01*
X18021D01*
X18034Y-27729D01*
X18047Y-27727D01*
X18058Y-27724D01*
X18068Y-27720D01*
X18076Y-27717D01*
X18080Y-27715D01*
X18083Y-27714D01*
X18085Y-27713D01*
X18087Y-27712D01*
X18088Y-27711D01*
X18089D01*
X18099Y-27703D01*
X18109Y-27694D01*
X18117Y-27685D01*
X18123Y-27675D01*
X18128Y-27667D01*
X18132Y-27661D01*
X18133Y-27658D01*
X18134Y-27656D01*
X18134Y-27655D01*
Y-27654D01*
X18139Y-27639D01*
X18142Y-27624D01*
X18145Y-27609D01*
X18147Y-27596D01*
X18148Y-27589D01*
X18148Y-27584D01*
Y-27578D01*
X18149Y-27574D01*
Y-27571D01*
Y-27568D01*
Y-27566D01*
Y-27566D01*
X18148Y-27551D01*
X18147Y-27537D01*
X18145Y-27525D01*
X18142Y-27513D01*
X18141Y-27503D01*
X18140Y-27499D01*
X18138Y-27496D01*
X18138Y-27493D01*
X18137Y-27491D01*
X18137Y-27490D01*
Y-27490D01*
X18131Y-27476D01*
X18125Y-27464D01*
X18118Y-27455D01*
X18110Y-27446D01*
X18104Y-27439D01*
X18099Y-27434D01*
X18095Y-27432D01*
X18094Y-27430D01*
X18094D01*
X18082Y-27423D01*
X18068Y-27417D01*
X18056Y-27413D01*
X18044Y-27411D01*
X18033Y-27409D01*
X18028Y-27409D01*
X18024D01*
X18021Y-27408D01*
X18017D01*
X18002Y-27409D01*
X17989Y-27411D01*
X17978Y-27414D01*
X17969Y-27418D01*
X17961Y-27422D01*
X17955Y-27425D01*
X17952Y-27427D01*
X17951Y-27428D01*
X17942Y-27437D01*
X17933Y-27446D01*
X17926Y-27457D01*
X17920Y-27467D01*
X17916Y-27476D01*
X17914Y-27481D01*
X17913Y-27484D01*
X17912Y-27487D01*
X17911Y-27490D01*
X17910Y-27491D01*
Y-27491D01*
X17858Y-27479D01*
X17862Y-27469D01*
X17865Y-27460D01*
X17870Y-27451D01*
X17874Y-27442D01*
X17878Y-27435D01*
X17884Y-27428D01*
X17888Y-27421D01*
X17893Y-27415D01*
X17897Y-27411D01*
X17901Y-27406D01*
X17905Y-27402D01*
X17908Y-27399D01*
X17911Y-27397D01*
X17913Y-27395D01*
X17915Y-27394D01*
X17915Y-27394D01*
X17923Y-27388D01*
X17931Y-27383D01*
X17939Y-27379D01*
X17948Y-27376D01*
X17965Y-27371D01*
X17981Y-27367D01*
X17988Y-27366D01*
X17994Y-27365D01*
X18001Y-27364D01*
X18006Y-27364D01*
X18010Y-27363D01*
X18016D01*
X18035Y-27364D01*
D02*
G37*
G36*
X17660Y-27378D02*
X17667Y-27387D01*
X17674Y-27397D01*
X17681Y-27405D01*
X17688Y-27411D01*
X17693Y-27417D01*
X17695Y-27419D01*
X17697Y-27421D01*
X17698Y-27421D01*
X17698Y-27422D01*
X17710Y-27432D01*
X17722Y-27441D01*
X17734Y-27449D01*
X17745Y-27455D01*
X17755Y-27461D01*
X17759Y-27463D01*
X17762Y-27465D01*
X17765Y-27467D01*
X17768Y-27467D01*
X17769Y-27468D01*
X17769D01*
Y-27515D01*
X17761Y-27512D01*
X17752Y-27508D01*
X17744Y-27504D01*
X17735Y-27500D01*
X17729Y-27496D01*
X17723Y-27494D01*
X17719Y-27491D01*
X17719Y-27491D01*
X17718D01*
X17708Y-27484D01*
X17699Y-27478D01*
X17691Y-27472D01*
X17684Y-27467D01*
X17679Y-27463D01*
X17675Y-27460D01*
X17672Y-27457D01*
X17672Y-27457D01*
Y-27767D01*
X17623D01*
Y-27368D01*
X17655D01*
X17660Y-27378D01*
D02*
G37*
G36*
X18035Y-37207D02*
X18053Y-37210D01*
X18069Y-37213D01*
X18076Y-37215D01*
X18083Y-37218D01*
X18090Y-37220D01*
X18095Y-37222D01*
X18100Y-37224D01*
X18105Y-37226D01*
X18107Y-37228D01*
X18110Y-37229D01*
X18111Y-37229D01*
X18112Y-37230D01*
X18128Y-37240D01*
X18141Y-37251D01*
X18152Y-37263D01*
X18162Y-37274D01*
X18169Y-37284D01*
X18172Y-37289D01*
X18175Y-37293D01*
X18177Y-37296D01*
X18178Y-37298D01*
X18179Y-37300D01*
X18179Y-37300D01*
X18187Y-37318D01*
X18193Y-37337D01*
X18197Y-37355D01*
X18200Y-37372D01*
X18201Y-37379D01*
X18202Y-37387D01*
X18202Y-37392D01*
Y-37398D01*
X18203Y-37402D01*
Y-37405D01*
Y-37408D01*
Y-37408D01*
X18202Y-37429D01*
X18199Y-37449D01*
X18196Y-37467D01*
X18194Y-37476D01*
X18192Y-37483D01*
X18191Y-37490D01*
X18188Y-37496D01*
X18187Y-37502D01*
X18186Y-37507D01*
X18184Y-37510D01*
X18183Y-37513D01*
X18182Y-37515D01*
Y-37515D01*
X18173Y-37532D01*
X18164Y-37548D01*
X18153Y-37561D01*
X18148Y-37566D01*
X18144Y-37571D01*
X18139Y-37576D01*
X18134Y-37580D01*
X18130Y-37583D01*
X18127Y-37586D01*
X18125Y-37588D01*
X18122Y-37590D01*
X18121Y-37590D01*
X18121Y-37591D01*
X18113Y-37595D01*
X18105Y-37599D01*
X18087Y-37606D01*
X18070Y-37610D01*
X18053Y-37613D01*
X18045Y-37614D01*
X18039Y-37616D01*
X18032Y-37616D01*
X18027D01*
X18022Y-37617D01*
X18016D01*
X18005Y-37616D01*
X17994Y-37615D01*
X17983Y-37614D01*
X17974Y-37612D01*
X17965Y-37609D01*
X17956Y-37606D01*
X17948Y-37603D01*
X17940Y-37599D01*
X17934Y-37597D01*
X17928Y-37594D01*
X17923Y-37591D01*
X17919Y-37588D01*
X17916Y-37586D01*
X17913Y-37585D01*
X17912Y-37583D01*
X17911Y-37583D01*
X17903Y-37576D01*
X17896Y-37569D01*
X17890Y-37561D01*
X17884Y-37553D01*
X17873Y-37537D01*
X17865Y-37521D01*
X17862Y-37513D01*
X17859Y-37507D01*
X17857Y-37500D01*
X17855Y-37495D01*
X17853Y-37490D01*
X17852Y-37487D01*
X17851Y-37485D01*
Y-37484D01*
X17904Y-37471D01*
X17907Y-37480D01*
X17909Y-37489D01*
X17912Y-37497D01*
X17915Y-37504D01*
X17919Y-37511D01*
X17922Y-37517D01*
X17926Y-37523D01*
X17930Y-37528D01*
X17932Y-37532D01*
X17936Y-37536D01*
X17939Y-37539D01*
X17941Y-37542D01*
X17943Y-37544D01*
X17945Y-37546D01*
X17946Y-37546D01*
X17946Y-37547D01*
X17952Y-37551D01*
X17958Y-37555D01*
X17971Y-37561D01*
X17983Y-37566D01*
X17995Y-37569D01*
X18005Y-37571D01*
X18009Y-37571D01*
X18013D01*
X18017Y-37572D01*
X18021D01*
X18034Y-37571D01*
X18047Y-37569D01*
X18058Y-37566D01*
X18068Y-37563D01*
X18076Y-37559D01*
X18080Y-37558D01*
X18083Y-37556D01*
X18085Y-37555D01*
X18087Y-37554D01*
X18088Y-37554D01*
X18089D01*
X18099Y-37546D01*
X18109Y-37537D01*
X18117Y-37527D01*
X18123Y-37518D01*
X18128Y-37510D01*
X18132Y-37503D01*
X18133Y-37500D01*
X18134Y-37498D01*
X18134Y-37497D01*
Y-37497D01*
X18139Y-37482D01*
X18142Y-37467D01*
X18145Y-37452D01*
X18147Y-37438D01*
X18148Y-37432D01*
X18148Y-37426D01*
Y-37421D01*
X18149Y-37417D01*
Y-37414D01*
Y-37411D01*
Y-37409D01*
Y-37408D01*
X18148Y-37393D01*
X18147Y-37380D01*
X18145Y-37367D01*
X18142Y-37356D01*
X18141Y-37346D01*
X18140Y-37342D01*
X18138Y-37338D01*
X18138Y-37335D01*
X18137Y-37334D01*
X18137Y-37333D01*
Y-37332D01*
X18131Y-37319D01*
X18125Y-37307D01*
X18118Y-37297D01*
X18110Y-37288D01*
X18104Y-37281D01*
X18099Y-37277D01*
X18095Y-37274D01*
X18094Y-37273D01*
X18094D01*
X18082Y-37265D01*
X18068Y-37260D01*
X18056Y-37256D01*
X18044Y-37253D01*
X18033Y-37252D01*
X18028Y-37251D01*
X18024D01*
X18021Y-37250D01*
X18017D01*
X18002Y-37251D01*
X17989Y-37253D01*
X17978Y-37257D01*
X17969Y-37260D01*
X17961Y-37264D01*
X17955Y-37267D01*
X17952Y-37269D01*
X17951Y-37271D01*
X17942Y-37279D01*
X17933Y-37289D01*
X17926Y-37299D01*
X17920Y-37310D01*
X17916Y-37319D01*
X17914Y-37323D01*
X17913Y-37327D01*
X17912Y-37330D01*
X17911Y-37332D01*
X17910Y-37333D01*
Y-37334D01*
X17858Y-37322D01*
X17862Y-37311D01*
X17865Y-37302D01*
X17870Y-37294D01*
X17874Y-37285D01*
X17878Y-37277D01*
X17884Y-37271D01*
X17888Y-37264D01*
X17893Y-37258D01*
X17897Y-37253D01*
X17901Y-37249D01*
X17905Y-37245D01*
X17908Y-37242D01*
X17911Y-37239D01*
X17913Y-37237D01*
X17915Y-37237D01*
X17915Y-37236D01*
X17923Y-37231D01*
X17931Y-37226D01*
X17939Y-37222D01*
X17948Y-37218D01*
X17965Y-37213D01*
X17981Y-37210D01*
X17988Y-37208D01*
X17994Y-37207D01*
X18001Y-37207D01*
X18006Y-37206D01*
X18010Y-37206D01*
X18016D01*
X18035Y-37207D01*
D02*
G37*
G36*
X8192Y-37305D02*
X8210Y-37308D01*
X8226Y-37312D01*
X8234Y-37314D01*
X8241Y-37316D01*
X8247Y-37319D01*
X8253Y-37321D01*
X8257Y-37323D01*
X8262Y-37324D01*
X8265Y-37326D01*
X8267Y-37327D01*
X8269Y-37328D01*
X8270Y-37328D01*
X8285Y-37338D01*
X8298Y-37350D01*
X8310Y-37361D01*
X8319Y-37373D01*
X8327Y-37383D01*
X8330Y-37387D01*
X8332Y-37391D01*
X8334Y-37394D01*
X8336Y-37397D01*
X8336Y-37398D01*
X8337Y-37399D01*
X8345Y-37417D01*
X8350Y-37435D01*
X8354Y-37453D01*
X8357Y-37470D01*
X8359Y-37478D01*
X8359Y-37485D01*
X8360Y-37491D01*
Y-37497D01*
X8360Y-37501D01*
Y-37504D01*
Y-37506D01*
Y-37507D01*
X8359Y-37528D01*
X8357Y-37548D01*
X8354Y-37565D01*
X8352Y-37574D01*
X8350Y-37581D01*
X8348Y-37588D01*
X8346Y-37595D01*
X8344Y-37600D01*
X8343Y-37605D01*
X8341Y-37608D01*
X8341Y-37611D01*
X8340Y-37613D01*
Y-37614D01*
X8331Y-37631D01*
X8321Y-37646D01*
X8311Y-37660D01*
X8306Y-37665D01*
X8301Y-37670D01*
X8297Y-37674D01*
X8292Y-37678D01*
X8288Y-37682D01*
X8284Y-37684D01*
X8282Y-37687D01*
X8280Y-37688D01*
X8279Y-37689D01*
X8278Y-37689D01*
X8270Y-37694D01*
X8262Y-37698D01*
X8245Y-37704D01*
X8228Y-37709D01*
X8211Y-37712D01*
X8203Y-37713D01*
X8196Y-37714D01*
X8190Y-37715D01*
X8185D01*
X8180Y-37715D01*
X8174D01*
X8162Y-37715D01*
X8151Y-37713D01*
X8141Y-37712D01*
X8131Y-37710D01*
X8122Y-37707D01*
X8113Y-37704D01*
X8105Y-37701D01*
X8098Y-37698D01*
X8092Y-37695D01*
X8085Y-37692D01*
X8081Y-37689D01*
X8076Y-37687D01*
X8073Y-37684D01*
X8070Y-37683D01*
X8069Y-37682D01*
X8069Y-37681D01*
X8061Y-37674D01*
X8054Y-37668D01*
X8047Y-37660D01*
X8041Y-37652D01*
X8031Y-37635D01*
X8023Y-37619D01*
X8019Y-37612D01*
X8016Y-37605D01*
X8014Y-37599D01*
X8012Y-37594D01*
X8011Y-37589D01*
X8010Y-37585D01*
X8009Y-37583D01*
Y-37583D01*
X8062Y-37569D01*
X8064Y-37579D01*
X8067Y-37587D01*
X8070Y-37595D01*
X8073Y-37603D01*
X8076Y-37610D01*
X8080Y-37615D01*
X8084Y-37621D01*
X8087Y-37626D01*
X8090Y-37631D01*
X8093Y-37634D01*
X8096Y-37638D01*
X8098Y-37641D01*
X8101Y-37642D01*
X8102Y-37644D01*
X8103Y-37645D01*
X8104Y-37645D01*
X8109Y-37650D01*
X8116Y-37653D01*
X8128Y-37660D01*
X8140Y-37664D01*
X8152Y-37667D01*
X8163Y-37669D01*
X8167Y-37670D01*
X8171D01*
X8174Y-37670D01*
X8178D01*
X8191Y-37670D01*
X8204Y-37668D01*
X8216Y-37665D01*
X8226Y-37661D01*
X8234Y-37658D01*
X8237Y-37656D01*
X8240Y-37655D01*
X8243Y-37654D01*
X8244Y-37653D01*
X8245Y-37652D01*
X8246D01*
X8257Y-37644D01*
X8266Y-37635D01*
X8274Y-37626D01*
X8280Y-37616D01*
X8286Y-37608D01*
X8289Y-37602D01*
X8290Y-37599D01*
X8291Y-37597D01*
X8292Y-37596D01*
Y-37595D01*
X8297Y-37580D01*
X8300Y-37565D01*
X8303Y-37550D01*
X8305Y-37537D01*
X8305Y-37530D01*
X8306Y-37525D01*
Y-37519D01*
X8306Y-37515D01*
Y-37512D01*
Y-37509D01*
Y-37507D01*
Y-37507D01*
X8306Y-37492D01*
X8305Y-37478D01*
X8302Y-37466D01*
X8300Y-37454D01*
X8298Y-37444D01*
X8297Y-37440D01*
X8296Y-37437D01*
X8295Y-37434D01*
X8295Y-37432D01*
X8294Y-37431D01*
Y-37431D01*
X8288Y-37417D01*
X8282Y-37405D01*
X8275Y-37396D01*
X8268Y-37387D01*
X8262Y-37380D01*
X8256Y-37375D01*
X8252Y-37373D01*
X8252Y-37371D01*
X8251D01*
X8239Y-37364D01*
X8226Y-37358D01*
X8213Y-37354D01*
X8201Y-37352D01*
X8190Y-37350D01*
X8186Y-37350D01*
X8182D01*
X8179Y-37349D01*
X8174D01*
X8160Y-37350D01*
X8147Y-37352D01*
X8136Y-37355D01*
X8126Y-37359D01*
X8119Y-37363D01*
X8113Y-37366D01*
X8109Y-37368D01*
X8108Y-37369D01*
X8099Y-37378D01*
X8090Y-37387D01*
X8084Y-37398D01*
X8078Y-37408D01*
X8073Y-37417D01*
X8072Y-37422D01*
X8070Y-37425D01*
X8069Y-37428D01*
X8068Y-37431D01*
X8067Y-37432D01*
Y-37432D01*
X8016Y-37420D01*
X8019Y-37410D01*
X8023Y-37401D01*
X8027Y-37392D01*
X8031Y-37383D01*
X8036Y-37376D01*
X8041Y-37369D01*
X8046Y-37362D01*
X8050Y-37356D01*
X8055Y-37352D01*
X8059Y-37347D01*
X8063Y-37343D01*
X8066Y-37340D01*
X8069Y-37338D01*
X8071Y-37336D01*
X8072Y-37335D01*
X8073Y-37335D01*
X8081Y-37329D01*
X8089Y-37324D01*
X8097Y-37320D01*
X8105Y-37317D01*
X8123Y-37312D01*
X8138Y-37308D01*
X8146Y-37307D01*
X8152Y-37306D01*
X8158Y-37305D01*
X8163Y-37305D01*
X8167Y-37304D01*
X8173D01*
X8192Y-37305D01*
D02*
G37*
G36*
X67130Y-37568D02*
Y-37613D01*
X66957D01*
Y-37708D01*
X66908D01*
Y-37613D01*
X66855D01*
Y-37568D01*
X66908D01*
Y-37311D01*
X66948D01*
X67130Y-37568D01*
D02*
G37*
G36*
X17699Y-37212D02*
X17714Y-37215D01*
X17727Y-37220D01*
X17739Y-37224D01*
X17744Y-37227D01*
X17748Y-37229D01*
X17752Y-37232D01*
X17755Y-37234D01*
X17757Y-37236D01*
X17759Y-37237D01*
X17760Y-37237D01*
X17761Y-37238D01*
X17772Y-37249D01*
X17780Y-37261D01*
X17787Y-37273D01*
X17793Y-37286D01*
X17796Y-37297D01*
X17798Y-37302D01*
X17799Y-37306D01*
X17800Y-37309D01*
X17800Y-37311D01*
X17801Y-37313D01*
Y-37314D01*
X17752Y-37322D01*
X17750Y-37310D01*
X17746Y-37299D01*
X17742Y-37290D01*
X17738Y-37282D01*
X17734Y-37276D01*
X17731Y-37272D01*
X17729Y-37269D01*
X17728Y-37269D01*
X17721Y-37263D01*
X17713Y-37259D01*
X17705Y-37256D01*
X17698Y-37253D01*
X17691Y-37252D01*
X17686Y-37251D01*
X17681D01*
X17671Y-37252D01*
X17661Y-37254D01*
X17653Y-37257D01*
X17647Y-37260D01*
X17641Y-37263D01*
X17637Y-37266D01*
X17634Y-37268D01*
X17634Y-37269D01*
X17628Y-37276D01*
X17623Y-37283D01*
X17620Y-37291D01*
X17618Y-37298D01*
X17617Y-37304D01*
X17616Y-37308D01*
Y-37312D01*
Y-37312D01*
Y-37313D01*
Y-37319D01*
X17617Y-37325D01*
X17620Y-37335D01*
X17624Y-37343D01*
X17628Y-37351D01*
X17633Y-37356D01*
X17637Y-37360D01*
X17640Y-37362D01*
X17640Y-37363D01*
X17641D01*
X17651Y-37368D01*
X17660Y-37372D01*
X17669Y-37375D01*
X17678Y-37377D01*
X17686Y-37378D01*
X17692Y-37379D01*
X17699D01*
X17702Y-37378D01*
X17704D01*
X17710Y-37422D01*
X17703Y-37420D01*
X17696Y-37419D01*
X17690Y-37418D01*
X17685Y-37417D01*
X17681Y-37416D01*
X17676D01*
X17664Y-37418D01*
X17653Y-37420D01*
X17643Y-37423D01*
X17635Y-37427D01*
X17629Y-37431D01*
X17624Y-37435D01*
X17621Y-37437D01*
X17620Y-37438D01*
X17613Y-37447D01*
X17607Y-37456D01*
X17603Y-37465D01*
X17601Y-37474D01*
X17599Y-37482D01*
X17598Y-37488D01*
X17598Y-37490D01*
Y-37492D01*
Y-37493D01*
Y-37494D01*
X17599Y-37507D01*
X17602Y-37518D01*
X17605Y-37528D01*
X17610Y-37536D01*
X17614Y-37543D01*
X17618Y-37548D01*
X17621Y-37552D01*
X17622Y-37553D01*
X17631Y-37561D01*
X17641Y-37567D01*
X17651Y-37571D01*
X17660Y-37574D01*
X17668Y-37575D01*
X17674Y-37576D01*
X17676Y-37577D01*
X17680D01*
X17690Y-37576D01*
X17700Y-37574D01*
X17709Y-37571D01*
X17715Y-37567D01*
X17721Y-37564D01*
X17726Y-37562D01*
X17728Y-37559D01*
X17729Y-37559D01*
X17736Y-37551D01*
X17742Y-37542D01*
X17747Y-37532D01*
X17751Y-37521D01*
X17754Y-37513D01*
X17755Y-37509D01*
X17756Y-37505D01*
X17756Y-37502D01*
X17757Y-37500D01*
X17757Y-37499D01*
Y-37498D01*
X17806Y-37505D01*
X17805Y-37514D01*
X17803Y-37523D01*
X17798Y-37539D01*
X17792Y-37552D01*
X17788Y-37558D01*
X17785Y-37564D01*
X17781Y-37569D01*
X17778Y-37573D01*
X17775Y-37577D01*
X17772Y-37580D01*
X17771Y-37582D01*
X17769Y-37584D01*
X17768Y-37585D01*
X17767Y-37586D01*
X17760Y-37591D01*
X17753Y-37596D01*
X17746Y-37600D01*
X17739Y-37604D01*
X17725Y-37609D01*
X17711Y-37613D01*
X17704Y-37614D01*
X17699Y-37615D01*
X17694Y-37616D01*
X17689Y-37616D01*
X17686Y-37617D01*
X17680D01*
X17669Y-37616D01*
X17660Y-37615D01*
X17650Y-37613D01*
X17641Y-37611D01*
X17632Y-37608D01*
X17625Y-37605D01*
X17617Y-37602D01*
X17611Y-37598D01*
X17605Y-37595D01*
X17599Y-37592D01*
X17595Y-37589D01*
X17591Y-37586D01*
X17589Y-37584D01*
X17586Y-37582D01*
X17585Y-37581D01*
X17585Y-37581D01*
X17578Y-37574D01*
X17572Y-37566D01*
X17567Y-37559D01*
X17562Y-37551D01*
X17559Y-37544D01*
X17555Y-37537D01*
X17551Y-37523D01*
X17550Y-37517D01*
X17548Y-37511D01*
X17547Y-37506D01*
X17547Y-37501D01*
X17546Y-37498D01*
Y-37495D01*
Y-37493D01*
Y-37493D01*
X17547Y-37479D01*
X17549Y-37466D01*
X17552Y-37455D01*
X17556Y-37446D01*
X17559Y-37439D01*
X17563Y-37433D01*
X17565Y-37430D01*
X17566Y-37428D01*
X17574Y-37420D01*
X17582Y-37412D01*
X17591Y-37407D01*
X17601Y-37402D01*
X17609Y-37399D01*
X17615Y-37396D01*
X17617Y-37396D01*
X17619Y-37395D01*
X17620Y-37395D01*
X17621D01*
X17611Y-37389D01*
X17603Y-37384D01*
X17596Y-37378D01*
X17590Y-37373D01*
X17586Y-37369D01*
X17582Y-37365D01*
X17581Y-37362D01*
X17580Y-37361D01*
X17575Y-37353D01*
X17572Y-37345D01*
X17569Y-37337D01*
X17567Y-37330D01*
X17566Y-37323D01*
X17566Y-37319D01*
Y-37315D01*
Y-37314D01*
X17566Y-37304D01*
X17568Y-37295D01*
X17570Y-37286D01*
X17573Y-37279D01*
X17576Y-37272D01*
X17578Y-37267D01*
X17580Y-37264D01*
X17581Y-37263D01*
X17586Y-37255D01*
X17593Y-37247D01*
X17600Y-37241D01*
X17607Y-37235D01*
X17613Y-37231D01*
X17618Y-37228D01*
X17621Y-37226D01*
X17622Y-37225D01*
X17622D01*
X17633Y-37221D01*
X17643Y-37217D01*
X17653Y-37214D01*
X17663Y-37213D01*
X17670Y-37211D01*
X17676Y-37211D01*
X17691D01*
X17699Y-37212D01*
D02*
G37*
G36*
X7981Y-37568D02*
Y-37613D01*
X7808D01*
Y-37708D01*
X7759D01*
Y-37613D01*
X7705D01*
Y-37568D01*
X7759D01*
Y-37311D01*
X7799D01*
X7981Y-37568D01*
D02*
G37*
G36*
X47243Y-27369D02*
X47253Y-27370D01*
X47262Y-27371D01*
X47271Y-27373D01*
X47279Y-27375D01*
X47286Y-27378D01*
X47293Y-27380D01*
X47299Y-27383D01*
X47305Y-27386D01*
X47310Y-27389D01*
X47314Y-27391D01*
X47317Y-27394D01*
X47320Y-27395D01*
X47322Y-27397D01*
X47323Y-27398D01*
X47323Y-27398D01*
X47329Y-27404D01*
X47334Y-27410D01*
X47339Y-27417D01*
X47344Y-27424D01*
X47350Y-27438D01*
X47355Y-27452D01*
X47357Y-27458D01*
X47358Y-27464D01*
X47360Y-27469D01*
X47361Y-27474D01*
X47361Y-27478D01*
Y-27481D01*
X47362Y-27483D01*
Y-27483D01*
X47312Y-27488D01*
X47311Y-27475D01*
X47308Y-27464D01*
X47305Y-27453D01*
X47301Y-27445D01*
X47298Y-27438D01*
X47294Y-27434D01*
X47292Y-27431D01*
X47291Y-27430D01*
X47282Y-27423D01*
X47273Y-27418D01*
X47263Y-27414D01*
X47255Y-27411D01*
X47246Y-27410D01*
X47240Y-27409D01*
X47237Y-27409D01*
X47234D01*
X47222Y-27409D01*
X47211Y-27411D01*
X47202Y-27415D01*
X47194Y-27418D01*
X47187Y-27422D01*
X47183Y-27425D01*
X47180Y-27428D01*
X47179Y-27429D01*
X47172Y-27437D01*
X47167Y-27445D01*
X47163Y-27453D01*
X47161Y-27461D01*
X47159Y-27467D01*
X47159Y-27473D01*
X47158Y-27476D01*
Y-27477D01*
Y-27477D01*
X47159Y-27488D01*
X47162Y-27499D01*
X47166Y-27508D01*
X47170Y-27518D01*
X47174Y-27525D01*
X47178Y-27531D01*
X47179Y-27534D01*
X47180Y-27535D01*
X47182Y-27536D01*
Y-27537D01*
X47186Y-27543D01*
X47192Y-27549D01*
X47198Y-27556D01*
X47205Y-27563D01*
X47220Y-27577D01*
X47234Y-27591D01*
X47241Y-27597D01*
X47248Y-27603D01*
X47254Y-27608D01*
X47259Y-27612D01*
X47263Y-27616D01*
X47267Y-27619D01*
X47269Y-27620D01*
X47269Y-27621D01*
X47284Y-27633D01*
X47297Y-27644D01*
X47308Y-27655D01*
X47317Y-27663D01*
X47324Y-27671D01*
X47329Y-27676D01*
X47332Y-27680D01*
X47333Y-27680D01*
Y-27681D01*
X47341Y-27690D01*
X47348Y-27700D01*
X47353Y-27709D01*
X47358Y-27717D01*
X47361Y-27724D01*
X47364Y-27729D01*
X47365Y-27732D01*
X47365Y-27733D01*
Y-27733D01*
X47368Y-27740D01*
X47369Y-27746D01*
X47370Y-27751D01*
X47370Y-27756D01*
X47371Y-27761D01*
Y-27764D01*
Y-27767D01*
Y-27767D01*
X47108D01*
Y-27720D01*
X47303D01*
X47296Y-27710D01*
X47293Y-27706D01*
X47290Y-27702D01*
X47287Y-27699D01*
X47285Y-27697D01*
X47283Y-27695D01*
X47283Y-27694D01*
X47280Y-27692D01*
X47276Y-27689D01*
X47268Y-27681D01*
X47259Y-27673D01*
X47249Y-27664D01*
X47240Y-27657D01*
X47236Y-27653D01*
X47233Y-27650D01*
X47230Y-27647D01*
X47228Y-27646D01*
X47226Y-27644D01*
X47226Y-27644D01*
X47217Y-27636D01*
X47207Y-27628D01*
X47199Y-27621D01*
X47192Y-27615D01*
X47185Y-27608D01*
X47179Y-27603D01*
X47174Y-27597D01*
X47169Y-27593D01*
X47164Y-27588D01*
X47161Y-27585D01*
X47158Y-27582D01*
X47155Y-27579D01*
X47152Y-27576D01*
X47151Y-27574D01*
X47143Y-27565D01*
X47136Y-27556D01*
X47131Y-27547D01*
X47126Y-27541D01*
X47123Y-27534D01*
X47120Y-27530D01*
X47119Y-27527D01*
X47118Y-27526D01*
X47115Y-27517D01*
X47113Y-27508D01*
X47110Y-27500D01*
X47109Y-27494D01*
X47109Y-27487D01*
X47108Y-27483D01*
Y-27480D01*
Y-27479D01*
X47109Y-27470D01*
X47110Y-27462D01*
X47111Y-27454D01*
X47113Y-27447D01*
X47119Y-27433D01*
X47125Y-27422D01*
X47128Y-27417D01*
X47131Y-27413D01*
X47134Y-27409D01*
X47137Y-27406D01*
X47139Y-27404D01*
X47140Y-27402D01*
X47141Y-27401D01*
X47142Y-27401D01*
X47148Y-27395D01*
X47155Y-27390D01*
X47163Y-27386D01*
X47170Y-27382D01*
X47185Y-27376D01*
X47200Y-27372D01*
X47206Y-27371D01*
X47213Y-27370D01*
X47218Y-27370D01*
X47223Y-27369D01*
X47227Y-27368D01*
X47233D01*
X47243Y-27369D01*
D02*
G37*
G36*
X57435Y-37207D02*
X57453Y-37210D01*
X57469Y-37213D01*
X57476Y-37215D01*
X57483Y-37218D01*
X57490Y-37220D01*
X57495Y-37222D01*
X57500Y-37224D01*
X57505Y-37226D01*
X57507Y-37228D01*
X57510Y-37229D01*
X57511Y-37229D01*
X57512Y-37230D01*
X57528Y-37240D01*
X57541Y-37251D01*
X57552Y-37263D01*
X57562Y-37274D01*
X57569Y-37284D01*
X57572Y-37289D01*
X57575Y-37293D01*
X57577Y-37296D01*
X57578Y-37298D01*
X57579Y-37300D01*
X57579Y-37300D01*
X57587Y-37318D01*
X57593Y-37337D01*
X57597Y-37355D01*
X57600Y-37372D01*
X57601Y-37379D01*
X57602Y-37387D01*
X57602Y-37392D01*
Y-37398D01*
X57603Y-37402D01*
Y-37405D01*
Y-37408D01*
Y-37408D01*
X57602Y-37429D01*
X57599Y-37449D01*
X57596Y-37467D01*
X57594Y-37476D01*
X57592Y-37483D01*
X57591Y-37490D01*
X57588Y-37496D01*
X57587Y-37502D01*
X57586Y-37507D01*
X57584Y-37510D01*
X57583Y-37513D01*
X57582Y-37515D01*
Y-37515D01*
X57573Y-37532D01*
X57564Y-37548D01*
X57553Y-37561D01*
X57548Y-37566D01*
X57544Y-37571D01*
X57539Y-37576D01*
X57534Y-37580D01*
X57530Y-37583D01*
X57527Y-37586D01*
X57525Y-37588D01*
X57522Y-37590D01*
X57521Y-37590D01*
X57521Y-37591D01*
X57513Y-37595D01*
X57505Y-37599D01*
X57487Y-37606D01*
X57470Y-37610D01*
X57453Y-37613D01*
X57445Y-37614D01*
X57439Y-37616D01*
X57432Y-37616D01*
X57427D01*
X57422Y-37617D01*
X57416D01*
X57405Y-37616D01*
X57394Y-37615D01*
X57383Y-37614D01*
X57374Y-37612D01*
X57365Y-37609D01*
X57356Y-37606D01*
X57348Y-37603D01*
X57340Y-37599D01*
X57334Y-37597D01*
X57328Y-37594D01*
X57323Y-37591D01*
X57319Y-37588D01*
X57316Y-37586D01*
X57313Y-37585D01*
X57312Y-37583D01*
X57311Y-37583D01*
X57303Y-37576D01*
X57296Y-37569D01*
X57290Y-37561D01*
X57284Y-37553D01*
X57273Y-37537D01*
X57265Y-37521D01*
X57262Y-37513D01*
X57259Y-37507D01*
X57257Y-37500D01*
X57255Y-37495D01*
X57253Y-37490D01*
X57252Y-37487D01*
X57251Y-37485D01*
Y-37484D01*
X57304Y-37471D01*
X57307Y-37480D01*
X57309Y-37489D01*
X57312Y-37497D01*
X57315Y-37504D01*
X57319Y-37511D01*
X57322Y-37517D01*
X57326Y-37523D01*
X57330Y-37528D01*
X57332Y-37532D01*
X57336Y-37536D01*
X57339Y-37539D01*
X57341Y-37542D01*
X57343Y-37544D01*
X57345Y-37546D01*
X57346Y-37546D01*
X57346Y-37547D01*
X57352Y-37551D01*
X57358Y-37555D01*
X57371Y-37561D01*
X57383Y-37566D01*
X57395Y-37569D01*
X57405Y-37571D01*
X57409Y-37571D01*
X57413D01*
X57417Y-37572D01*
X57421D01*
X57434Y-37571D01*
X57447Y-37569D01*
X57458Y-37566D01*
X57468Y-37563D01*
X57476Y-37559D01*
X57480Y-37558D01*
X57483Y-37556D01*
X57485Y-37555D01*
X57487Y-37554D01*
X57488Y-37554D01*
X57488D01*
X57499Y-37546D01*
X57509Y-37537D01*
X57517Y-37527D01*
X57523Y-37518D01*
X57528Y-37510D01*
X57532Y-37503D01*
X57533Y-37500D01*
X57534Y-37498D01*
X57534Y-37497D01*
Y-37497D01*
X57539Y-37482D01*
X57542Y-37467D01*
X57545Y-37452D01*
X57547Y-37438D01*
X57548Y-37432D01*
X57548Y-37426D01*
Y-37421D01*
X57549Y-37417D01*
Y-37414D01*
Y-37411D01*
Y-37409D01*
Y-37408D01*
X57548Y-37393D01*
X57547Y-37380D01*
X57545Y-37367D01*
X57542Y-37356D01*
X57541Y-37346D01*
X57540Y-37342D01*
X57538Y-37338D01*
X57538Y-37335D01*
X57537Y-37334D01*
X57537Y-37333D01*
Y-37332D01*
X57531Y-37319D01*
X57525Y-37307D01*
X57518Y-37297D01*
X57510Y-37288D01*
X57504Y-37281D01*
X57499Y-37277D01*
X57495Y-37274D01*
X57494Y-37273D01*
X57494D01*
X57482Y-37265D01*
X57468Y-37260D01*
X57456Y-37256D01*
X57444Y-37253D01*
X57433Y-37252D01*
X57428Y-37251D01*
X57424D01*
X57421Y-37250D01*
X57417D01*
X57402Y-37251D01*
X57389Y-37253D01*
X57378Y-37257D01*
X57369Y-37260D01*
X57361Y-37264D01*
X57355Y-37267D01*
X57352Y-37269D01*
X57351Y-37271D01*
X57342Y-37279D01*
X57333Y-37289D01*
X57326Y-37299D01*
X57320Y-37310D01*
X57316Y-37319D01*
X57314Y-37323D01*
X57313Y-37327D01*
X57312Y-37330D01*
X57311Y-37332D01*
X57310Y-37333D01*
Y-37334D01*
X57258Y-37322D01*
X57262Y-37311D01*
X57265Y-37302D01*
X57270Y-37294D01*
X57274Y-37285D01*
X57278Y-37277D01*
X57284Y-37271D01*
X57288Y-37264D01*
X57293Y-37258D01*
X57297Y-37253D01*
X57301Y-37249D01*
X57305Y-37245D01*
X57308Y-37242D01*
X57311Y-37239D01*
X57313Y-37237D01*
X57315Y-37237D01*
X57315Y-37236D01*
X57323Y-37231D01*
X57331Y-37226D01*
X57339Y-37222D01*
X57348Y-37218D01*
X57365Y-37213D01*
X57381Y-37210D01*
X57388Y-37208D01*
X57394Y-37207D01*
X57401Y-37207D01*
X57406Y-37206D01*
X57410Y-37206D01*
X57416D01*
X57435Y-37207D01*
D02*
G37*
G36*
X57060Y-27378D02*
X57067Y-27387D01*
X57074Y-27397D01*
X57081Y-27405D01*
X57088Y-27411D01*
X57093Y-27417D01*
X57095Y-27419D01*
X57097Y-27421D01*
X57098Y-27421D01*
X57098Y-27422D01*
X57110Y-27432D01*
X57122Y-27441D01*
X57134Y-27449D01*
X57145Y-27455D01*
X57155Y-27461D01*
X57159Y-27463D01*
X57162Y-27465D01*
X57165Y-27467D01*
X57168Y-27467D01*
X57169Y-27468D01*
X57169D01*
Y-27515D01*
X57161Y-27512D01*
X57152Y-27508D01*
X57144Y-27504D01*
X57135Y-27500D01*
X57129Y-27496D01*
X57123Y-27494D01*
X57119Y-27491D01*
X57119Y-27491D01*
X57118D01*
X57108Y-27484D01*
X57099Y-27478D01*
X57091Y-27472D01*
X57084Y-27467D01*
X57079Y-27463D01*
X57075Y-27460D01*
X57072Y-27457D01*
X57072Y-27457D01*
Y-27767D01*
X57023D01*
Y-27368D01*
X57055D01*
X57060Y-27378D01*
D02*
G37*
G36*
X47592Y-27364D02*
X47610Y-27367D01*
X47626Y-27371D01*
X47634Y-27373D01*
X47641Y-27375D01*
X47647Y-27378D01*
X47653Y-27380D01*
X47657Y-27382D01*
X47662Y-27383D01*
X47665Y-27385D01*
X47667Y-27386D01*
X47669Y-27387D01*
X47670Y-27387D01*
X47685Y-27397D01*
X47698Y-27409D01*
X47710Y-27420D01*
X47719Y-27432D01*
X47727Y-27442D01*
X47730Y-27446D01*
X47732Y-27450D01*
X47734Y-27453D01*
X47736Y-27456D01*
X47736Y-27457D01*
X47737Y-27458D01*
X47745Y-27476D01*
X47750Y-27494D01*
X47754Y-27512D01*
X47757Y-27529D01*
X47758Y-27537D01*
X47759Y-27544D01*
X47760Y-27550D01*
Y-27556D01*
X47760Y-27560D01*
Y-27563D01*
Y-27565D01*
Y-27566D01*
X47759Y-27587D01*
X47757Y-27607D01*
X47754Y-27624D01*
X47752Y-27633D01*
X47750Y-27640D01*
X47748Y-27647D01*
X47746Y-27654D01*
X47744Y-27659D01*
X47743Y-27664D01*
X47741Y-27667D01*
X47741Y-27670D01*
X47740Y-27672D01*
Y-27673D01*
X47731Y-27690D01*
X47721Y-27705D01*
X47711Y-27719D01*
X47706Y-27724D01*
X47701Y-27729D01*
X47697Y-27733D01*
X47692Y-27737D01*
X47688Y-27741D01*
X47684Y-27743D01*
X47682Y-27746D01*
X47680Y-27747D01*
X47679Y-27748D01*
X47678Y-27748D01*
X47670Y-27753D01*
X47662Y-27757D01*
X47645Y-27763D01*
X47628Y-27768D01*
X47611Y-27771D01*
X47603Y-27772D01*
X47596Y-27773D01*
X47590Y-27774D01*
X47585D01*
X47580Y-27774D01*
X47574D01*
X47562Y-27774D01*
X47551Y-27772D01*
X47541Y-27771D01*
X47531Y-27769D01*
X47522Y-27766D01*
X47513Y-27763D01*
X47505Y-27760D01*
X47498Y-27757D01*
X47492Y-27754D01*
X47485Y-27751D01*
X47481Y-27748D01*
X47476Y-27746D01*
X47473Y-27743D01*
X47470Y-27742D01*
X47469Y-27741D01*
X47469Y-27740D01*
X47461Y-27733D01*
X47454Y-27727D01*
X47447Y-27719D01*
X47441Y-27710D01*
X47431Y-27694D01*
X47423Y-27678D01*
X47419Y-27671D01*
X47416Y-27664D01*
X47414Y-27658D01*
X47412Y-27653D01*
X47411Y-27648D01*
X47410Y-27644D01*
X47409Y-27642D01*
Y-27642D01*
X47462Y-27628D01*
X47464Y-27638D01*
X47467Y-27646D01*
X47470Y-27654D01*
X47473Y-27662D01*
X47476Y-27669D01*
X47480Y-27674D01*
X47484Y-27680D01*
X47487Y-27685D01*
X47490Y-27690D01*
X47493Y-27693D01*
X47496Y-27697D01*
X47498Y-27700D01*
X47501Y-27701D01*
X47502Y-27703D01*
X47503Y-27704D01*
X47504Y-27704D01*
X47509Y-27709D01*
X47516Y-27712D01*
X47528Y-27719D01*
X47540Y-27723D01*
X47552Y-27726D01*
X47563Y-27728D01*
X47567Y-27729D01*
X47571D01*
X47574Y-27729D01*
X47578D01*
X47591Y-27729D01*
X47604Y-27727D01*
X47616Y-27724D01*
X47626Y-27720D01*
X47634Y-27717D01*
X47637Y-27715D01*
X47640Y-27714D01*
X47643Y-27713D01*
X47644Y-27712D01*
X47645Y-27711D01*
X47646D01*
X47657Y-27703D01*
X47666Y-27694D01*
X47674Y-27685D01*
X47680Y-27675D01*
X47686Y-27667D01*
X47689Y-27661D01*
X47690Y-27658D01*
X47691Y-27656D01*
X47692Y-27655D01*
Y-27654D01*
X47697Y-27639D01*
X47700Y-27624D01*
X47703Y-27609D01*
X47705Y-27596D01*
X47705Y-27589D01*
X47706Y-27584D01*
Y-27578D01*
X47706Y-27574D01*
Y-27571D01*
Y-27568D01*
Y-27566D01*
Y-27566D01*
X47706Y-27551D01*
X47705Y-27537D01*
X47702Y-27525D01*
X47700Y-27513D01*
X47698Y-27503D01*
X47697Y-27499D01*
X47696Y-27496D01*
X47695Y-27493D01*
X47695Y-27491D01*
X47694Y-27490D01*
Y-27490D01*
X47688Y-27476D01*
X47682Y-27464D01*
X47675Y-27455D01*
X47668Y-27446D01*
X47661Y-27439D01*
X47656Y-27434D01*
X47652Y-27432D01*
X47652Y-27430D01*
X47651D01*
X47639Y-27423D01*
X47626Y-27417D01*
X47613Y-27413D01*
X47601Y-27411D01*
X47590Y-27409D01*
X47586Y-27409D01*
X47582D01*
X47579Y-27408D01*
X47574D01*
X47560Y-27409D01*
X47547Y-27411D01*
X47536Y-27414D01*
X47526Y-27418D01*
X47519Y-27422D01*
X47513Y-27425D01*
X47509Y-27427D01*
X47508Y-27428D01*
X47499Y-27437D01*
X47490Y-27446D01*
X47484Y-27457D01*
X47478Y-27467D01*
X47473Y-27476D01*
X47471Y-27481D01*
X47470Y-27484D01*
X47469Y-27487D01*
X47468Y-27490D01*
X47467Y-27491D01*
Y-27491D01*
X47416Y-27479D01*
X47419Y-27469D01*
X47423Y-27460D01*
X47427Y-27451D01*
X47431Y-27442D01*
X47436Y-27435D01*
X47441Y-27428D01*
X47446Y-27421D01*
X47450Y-27415D01*
X47455Y-27411D01*
X47459Y-27406D01*
X47463Y-27402D01*
X47466Y-27399D01*
X47469Y-27397D01*
X47471Y-27395D01*
X47472Y-27394D01*
X47473Y-27394D01*
X47481Y-27388D01*
X47489Y-27383D01*
X47497Y-27379D01*
X47505Y-27376D01*
X47523Y-27371D01*
X47538Y-27367D01*
X47546Y-27366D01*
X47552Y-27365D01*
X47558Y-27364D01*
X47563Y-27364D01*
X47567Y-27363D01*
X47573D01*
X47592Y-27364D01*
D02*
G37*
G36*
X57099Y-37212D02*
X57114Y-37215D01*
X57127Y-37220D01*
X57139Y-37224D01*
X57144Y-37227D01*
X57148Y-37229D01*
X57152Y-37232D01*
X57155Y-37234D01*
X57157Y-37236D01*
X57159Y-37237D01*
X57160Y-37237D01*
X57161Y-37238D01*
X57172Y-37249D01*
X57180Y-37261D01*
X57187Y-37273D01*
X57193Y-37286D01*
X57196Y-37297D01*
X57198Y-37302D01*
X57199Y-37306D01*
X57200Y-37309D01*
X57200Y-37311D01*
X57201Y-37313D01*
Y-37314D01*
X57152Y-37322D01*
X57150Y-37310D01*
X57146Y-37299D01*
X57142Y-37290D01*
X57138Y-37282D01*
X57134Y-37276D01*
X57131Y-37272D01*
X57129Y-37269D01*
X57128Y-37269D01*
X57121Y-37263D01*
X57113Y-37259D01*
X57105Y-37256D01*
X57098Y-37253D01*
X57091Y-37252D01*
X57086Y-37251D01*
X57081D01*
X57071Y-37252D01*
X57061Y-37254D01*
X57053Y-37257D01*
X57047Y-37260D01*
X57041Y-37263D01*
X57037Y-37266D01*
X57034Y-37268D01*
X57034Y-37269D01*
X57028Y-37276D01*
X57023Y-37283D01*
X57020Y-37291D01*
X57018Y-37298D01*
X57017Y-37304D01*
X57016Y-37308D01*
Y-37312D01*
Y-37312D01*
Y-37313D01*
Y-37319D01*
X57017Y-37325D01*
X57020Y-37335D01*
X57024Y-37343D01*
X57028Y-37351D01*
X57033Y-37356D01*
X57037Y-37360D01*
X57040Y-37362D01*
X57040Y-37363D01*
X57041D01*
X57051Y-37368D01*
X57060Y-37372D01*
X57069Y-37375D01*
X57078Y-37377D01*
X57086Y-37378D01*
X57092Y-37379D01*
X57099D01*
X57102Y-37378D01*
X57104D01*
X57110Y-37422D01*
X57103Y-37420D01*
X57096Y-37419D01*
X57090Y-37418D01*
X57085Y-37417D01*
X57081Y-37416D01*
X57076D01*
X57064Y-37418D01*
X57053Y-37420D01*
X57043Y-37423D01*
X57035Y-37427D01*
X57029Y-37431D01*
X57024Y-37435D01*
X57021Y-37437D01*
X57020Y-37438D01*
X57013Y-37447D01*
X57007Y-37456D01*
X57003Y-37465D01*
X57001Y-37474D01*
X56999Y-37482D01*
X56998Y-37488D01*
X56998Y-37490D01*
Y-37492D01*
Y-37493D01*
Y-37494D01*
X56999Y-37507D01*
X57002Y-37518D01*
X57005Y-37528D01*
X57010Y-37536D01*
X57014Y-37543D01*
X57018Y-37548D01*
X57021Y-37552D01*
X57022Y-37553D01*
X57031Y-37561D01*
X57041Y-37567D01*
X57051Y-37571D01*
X57060Y-37574D01*
X57068Y-37575D01*
X57074Y-37576D01*
X57076Y-37577D01*
X57080D01*
X57090Y-37576D01*
X57100Y-37574D01*
X57109Y-37571D01*
X57115Y-37567D01*
X57121Y-37564D01*
X57126Y-37562D01*
X57128Y-37559D01*
X57129Y-37559D01*
X57136Y-37551D01*
X57142Y-37542D01*
X57147Y-37532D01*
X57151Y-37521D01*
X57154Y-37513D01*
X57155Y-37509D01*
X57156Y-37505D01*
X57156Y-37502D01*
X57157Y-37500D01*
X57157Y-37499D01*
Y-37498D01*
X57206Y-37505D01*
X57205Y-37514D01*
X57203Y-37523D01*
X57198Y-37539D01*
X57192Y-37552D01*
X57188Y-37558D01*
X57185Y-37564D01*
X57181Y-37569D01*
X57178Y-37573D01*
X57175Y-37577D01*
X57172Y-37580D01*
X57171Y-37582D01*
X57169Y-37584D01*
X57168Y-37585D01*
X57167Y-37586D01*
X57160Y-37591D01*
X57153Y-37596D01*
X57146Y-37600D01*
X57139Y-37604D01*
X57125Y-37609D01*
X57111Y-37613D01*
X57104Y-37614D01*
X57099Y-37615D01*
X57094Y-37616D01*
X57089Y-37616D01*
X57086Y-37617D01*
X57080D01*
X57069Y-37616D01*
X57060Y-37615D01*
X57050Y-37613D01*
X57041Y-37611D01*
X57032Y-37608D01*
X57025Y-37605D01*
X57017Y-37602D01*
X57011Y-37598D01*
X57005Y-37595D01*
X56999Y-37592D01*
X56995Y-37589D01*
X56991Y-37586D01*
X56989Y-37584D01*
X56986Y-37582D01*
X56985Y-37581D01*
X56985Y-37581D01*
X56978Y-37574D01*
X56972Y-37566D01*
X56967Y-37559D01*
X56962Y-37551D01*
X56959Y-37544D01*
X56955Y-37537D01*
X56951Y-37523D01*
X56950Y-37517D01*
X56948Y-37511D01*
X56947Y-37506D01*
X56947Y-37501D01*
X56946Y-37498D01*
Y-37495D01*
Y-37493D01*
Y-37493D01*
X56947Y-37479D01*
X56949Y-37466D01*
X56952Y-37455D01*
X56956Y-37446D01*
X56959Y-37439D01*
X56963Y-37433D01*
X56965Y-37430D01*
X56966Y-37428D01*
X56974Y-37420D01*
X56982Y-37412D01*
X56991Y-37407D01*
X57001Y-37402D01*
X57009Y-37399D01*
X57015Y-37396D01*
X57017Y-37396D01*
X57019Y-37395D01*
X57020Y-37395D01*
X57021D01*
X57011Y-37389D01*
X57003Y-37384D01*
X56996Y-37378D01*
X56990Y-37373D01*
X56986Y-37369D01*
X56982Y-37365D01*
X56981Y-37362D01*
X56980Y-37361D01*
X56975Y-37353D01*
X56972Y-37345D01*
X56969Y-37337D01*
X56967Y-37330D01*
X56966Y-37323D01*
X56966Y-37319D01*
Y-37315D01*
Y-37314D01*
X56966Y-37304D01*
X56968Y-37295D01*
X56970Y-37286D01*
X56973Y-37279D01*
X56976Y-37272D01*
X56978Y-37267D01*
X56980Y-37264D01*
X56981Y-37263D01*
X56986Y-37255D01*
X56993Y-37247D01*
X57000Y-37241D01*
X57007Y-37235D01*
X57013Y-37231D01*
X57018Y-37228D01*
X57021Y-37226D01*
X57022Y-37225D01*
X57022D01*
X57033Y-37221D01*
X57043Y-37217D01*
X57053Y-37214D01*
X57063Y-37213D01*
X57070Y-37211D01*
X57076Y-37211D01*
X57091D01*
X57099Y-37212D01*
D02*
G37*
G36*
X94345Y-37775D02*
X94296D01*
Y-37464D01*
X94295Y-37465D01*
X94292Y-37467D01*
X94289Y-37471D01*
X94283Y-37475D01*
X94277Y-37480D01*
X94269Y-37485D01*
X94260Y-37492D01*
X94249Y-37498D01*
X94249D01*
X94248Y-37499D01*
X94245Y-37501D01*
X94239Y-37504D01*
X94232Y-37507D01*
X94224Y-37511D01*
X94216Y-37515D01*
X94207Y-37519D01*
X94198Y-37523D01*
Y-37476D01*
X94199D01*
X94200Y-37475D01*
X94202Y-37474D01*
X94205Y-37472D01*
X94209Y-37471D01*
X94213Y-37468D01*
X94222Y-37463D01*
X94234Y-37456D01*
X94245Y-37448D01*
X94257Y-37439D01*
X94269Y-37429D01*
X94270Y-37429D01*
X94271Y-37428D01*
X94272Y-37426D01*
X94275Y-37425D01*
X94280Y-37419D01*
X94287Y-37412D01*
X94294Y-37404D01*
X94301Y-37395D01*
X94307Y-37386D01*
X94313Y-37376D01*
X94345D01*
Y-37775D01*
D02*
G37*
G36*
X93962Y-37371D02*
X93967Y-37372D01*
X93973Y-37372D01*
X93980Y-37373D01*
X93987Y-37375D01*
X94003Y-37378D01*
X94020Y-37383D01*
X94028Y-37387D01*
X94036Y-37391D01*
X94044Y-37396D01*
X94052Y-37401D01*
X94053Y-37402D01*
X94054Y-37402D01*
X94057Y-37404D01*
X94059Y-37407D01*
X94062Y-37410D01*
X94066Y-37414D01*
X94070Y-37418D01*
X94075Y-37423D01*
X94079Y-37429D01*
X94084Y-37436D01*
X94089Y-37442D01*
X94094Y-37450D01*
X94098Y-37459D01*
X94102Y-37467D01*
X94106Y-37476D01*
X94109Y-37487D01*
X94058Y-37499D01*
Y-37498D01*
X94057Y-37497D01*
X94056Y-37495D01*
X94055Y-37492D01*
X94054Y-37488D01*
X94052Y-37484D01*
X94047Y-37475D01*
X94042Y-37464D01*
X94035Y-37454D01*
X94026Y-37444D01*
X94017Y-37436D01*
X94016Y-37434D01*
X94012Y-37432D01*
X94007Y-37429D01*
X93999Y-37425D01*
X93989Y-37422D01*
X93978Y-37418D01*
X93965Y-37416D01*
X93951Y-37415D01*
X93946D01*
X93943Y-37416D01*
X93939D01*
X93935Y-37417D01*
X93924Y-37418D01*
X93912Y-37421D01*
X93899Y-37425D01*
X93886Y-37430D01*
X93874Y-37438D01*
X93873D01*
X93873Y-37439D01*
X93869Y-37442D01*
X93864Y-37446D01*
X93857Y-37453D01*
X93850Y-37462D01*
X93843Y-37472D01*
X93837Y-37484D01*
X93831Y-37497D01*
Y-37498D01*
X93830Y-37499D01*
X93830Y-37500D01*
X93829Y-37503D01*
X93828Y-37507D01*
X93827Y-37511D01*
X93825Y-37521D01*
X93823Y-37532D01*
X93821Y-37545D01*
X93819Y-37558D01*
X93819Y-37573D01*
Y-37574D01*
Y-37576D01*
Y-37578D01*
Y-37582D01*
X93819Y-37586D01*
Y-37591D01*
X93820Y-37597D01*
X93821Y-37603D01*
X93822Y-37617D01*
X93825Y-37632D01*
X93829Y-37647D01*
X93833Y-37662D01*
Y-37662D01*
X93834Y-37663D01*
X93835Y-37665D01*
X93836Y-37668D01*
X93840Y-37675D01*
X93845Y-37683D01*
X93851Y-37692D01*
X93859Y-37702D01*
X93868Y-37711D01*
X93879Y-37719D01*
X93880D01*
X93881Y-37719D01*
X93883Y-37720D01*
X93885Y-37721D01*
X93888Y-37723D01*
X93891Y-37724D01*
X93899Y-37728D01*
X93910Y-37731D01*
X93921Y-37734D01*
X93934Y-37736D01*
X93947Y-37737D01*
X93951D01*
X93954Y-37736D01*
X93958D01*
X93962Y-37736D01*
X93973Y-37733D01*
X93985Y-37731D01*
X93997Y-37726D01*
X94009Y-37720D01*
X94016Y-37716D01*
X94022Y-37712D01*
X94022Y-37711D01*
X94023Y-37711D01*
X94024Y-37709D01*
X94027Y-37707D01*
X94029Y-37704D01*
X94032Y-37701D01*
X94035Y-37697D01*
X94038Y-37693D01*
X94042Y-37688D01*
X94046Y-37682D01*
X94049Y-37676D01*
X94052Y-37669D01*
X94055Y-37662D01*
X94058Y-37654D01*
X94061Y-37645D01*
X94063Y-37636D01*
X94116Y-37649D01*
Y-37650D01*
X94116Y-37652D01*
X94114Y-37655D01*
X94113Y-37660D01*
X94111Y-37665D01*
X94109Y-37671D01*
X94106Y-37678D01*
X94102Y-37686D01*
X94094Y-37702D01*
X94084Y-37718D01*
X94078Y-37726D01*
X94071Y-37734D01*
X94065Y-37741D01*
X94057Y-37748D01*
X94056Y-37748D01*
X94055Y-37750D01*
X94052Y-37751D01*
X94049Y-37753D01*
X94044Y-37756D01*
X94040Y-37759D01*
X94034Y-37762D01*
X94027Y-37764D01*
X94020Y-37768D01*
X94012Y-37771D01*
X94003Y-37774D01*
X93994Y-37777D01*
X93984Y-37779D01*
X93974Y-37780D01*
X93963Y-37781D01*
X93951Y-37782D01*
X93945D01*
X93941Y-37781D01*
X93935D01*
X93929Y-37781D01*
X93922Y-37779D01*
X93914Y-37778D01*
X93898Y-37775D01*
X93880Y-37771D01*
X93863Y-37764D01*
X93855Y-37760D01*
X93847Y-37756D01*
X93846Y-37755D01*
X93845Y-37755D01*
X93843Y-37753D01*
X93841Y-37751D01*
X93837Y-37748D01*
X93833Y-37745D01*
X93829Y-37741D01*
X93824Y-37736D01*
X93819Y-37731D01*
X93814Y-37726D01*
X93804Y-37713D01*
X93794Y-37697D01*
X93786Y-37680D01*
Y-37680D01*
X93784Y-37678D01*
X93784Y-37675D01*
X93782Y-37671D01*
X93781Y-37667D01*
X93779Y-37661D01*
X93777Y-37655D01*
X93775Y-37648D01*
X93774Y-37640D01*
X93771Y-37632D01*
X93768Y-37614D01*
X93766Y-37594D01*
X93765Y-37573D01*
Y-37573D01*
Y-37570D01*
Y-37567D01*
X93765Y-37563D01*
Y-37557D01*
X93766Y-37552D01*
X93767Y-37544D01*
X93768Y-37537D01*
X93771Y-37520D01*
X93775Y-37502D01*
X93780Y-37483D01*
X93788Y-37465D01*
X93789Y-37465D01*
X93790Y-37463D01*
X93791Y-37461D01*
X93793Y-37458D01*
X93795Y-37454D01*
X93798Y-37449D01*
X93806Y-37439D01*
X93815Y-37428D01*
X93827Y-37416D01*
X93840Y-37405D01*
X93856Y-37395D01*
X93856Y-37394D01*
X93858Y-37394D01*
X93860Y-37393D01*
X93863Y-37391D01*
X93868Y-37389D01*
X93872Y-37387D01*
X93878Y-37385D01*
X93884Y-37383D01*
X93891Y-37380D01*
X93899Y-37378D01*
X93915Y-37375D01*
X93933Y-37372D01*
X93952Y-37371D01*
X93958D01*
X93962Y-37371D01*
D02*
G37*
G36*
X47381Y-37568D02*
Y-37613D01*
X47208D01*
Y-37708D01*
X47159D01*
Y-37613D01*
X47105D01*
Y-37568D01*
X47159D01*
Y-37311D01*
X47199D01*
X47381Y-37568D01*
D02*
G37*
G36*
X47592Y-37305D02*
X47610Y-37308D01*
X47626Y-37312D01*
X47634Y-37314D01*
X47641Y-37316D01*
X47647Y-37319D01*
X47653Y-37321D01*
X47657Y-37323D01*
X47662Y-37324D01*
X47665Y-37326D01*
X47667Y-37327D01*
X47669Y-37328D01*
X47670Y-37328D01*
X47685Y-37338D01*
X47698Y-37350D01*
X47710Y-37361D01*
X47719Y-37373D01*
X47727Y-37383D01*
X47730Y-37387D01*
X47732Y-37391D01*
X47734Y-37394D01*
X47736Y-37397D01*
X47736Y-37398D01*
X47737Y-37399D01*
X47745Y-37417D01*
X47750Y-37435D01*
X47754Y-37453D01*
X47757Y-37470D01*
X47758Y-37478D01*
X47759Y-37485D01*
X47760Y-37491D01*
Y-37497D01*
X47760Y-37501D01*
Y-37504D01*
Y-37506D01*
Y-37507D01*
X47759Y-37528D01*
X47757Y-37548D01*
X47754Y-37565D01*
X47752Y-37574D01*
X47750Y-37581D01*
X47748Y-37588D01*
X47746Y-37595D01*
X47744Y-37600D01*
X47743Y-37605D01*
X47741Y-37608D01*
X47741Y-37611D01*
X47740Y-37613D01*
Y-37614D01*
X47731Y-37631D01*
X47721Y-37646D01*
X47711Y-37660D01*
X47706Y-37665D01*
X47701Y-37670D01*
X47697Y-37674D01*
X47692Y-37678D01*
X47688Y-37682D01*
X47684Y-37684D01*
X47682Y-37687D01*
X47680Y-37688D01*
X47679Y-37689D01*
X47678Y-37689D01*
X47670Y-37694D01*
X47662Y-37698D01*
X47645Y-37704D01*
X47628Y-37709D01*
X47611Y-37712D01*
X47603Y-37713D01*
X47596Y-37714D01*
X47590Y-37715D01*
X47585D01*
X47580Y-37715D01*
X47574D01*
X47562Y-37715D01*
X47551Y-37713D01*
X47541Y-37712D01*
X47531Y-37710D01*
X47522Y-37707D01*
X47513Y-37704D01*
X47505Y-37701D01*
X47498Y-37698D01*
X47492Y-37695D01*
X47485Y-37692D01*
X47481Y-37689D01*
X47476Y-37687D01*
X47473Y-37684D01*
X47470Y-37683D01*
X47469Y-37682D01*
X47469Y-37681D01*
X47461Y-37674D01*
X47454Y-37668D01*
X47447Y-37660D01*
X47441Y-37652D01*
X47431Y-37635D01*
X47423Y-37619D01*
X47419Y-37612D01*
X47416Y-37605D01*
X47414Y-37599D01*
X47412Y-37594D01*
X47411Y-37589D01*
X47410Y-37585D01*
X47409Y-37583D01*
Y-37583D01*
X47462Y-37569D01*
X47464Y-37579D01*
X47467Y-37587D01*
X47470Y-37595D01*
X47473Y-37603D01*
X47476Y-37610D01*
X47480Y-37615D01*
X47484Y-37621D01*
X47487Y-37626D01*
X47490Y-37631D01*
X47493Y-37634D01*
X47496Y-37638D01*
X47498Y-37641D01*
X47501Y-37642D01*
X47502Y-37644D01*
X47503Y-37645D01*
X47504Y-37645D01*
X47509Y-37650D01*
X47516Y-37653D01*
X47528Y-37660D01*
X47540Y-37664D01*
X47552Y-37667D01*
X47563Y-37669D01*
X47567Y-37670D01*
X47571D01*
X47574Y-37670D01*
X47578D01*
X47591Y-37670D01*
X47604Y-37668D01*
X47616Y-37665D01*
X47626Y-37661D01*
X47634Y-37658D01*
X47637Y-37656D01*
X47640Y-37655D01*
X47643Y-37654D01*
X47644Y-37653D01*
X47645Y-37652D01*
X47646D01*
X47657Y-37644D01*
X47666Y-37635D01*
X47674Y-37626D01*
X47680Y-37616D01*
X47686Y-37608D01*
X47689Y-37602D01*
X47690Y-37599D01*
X47691Y-37597D01*
X47692Y-37596D01*
Y-37595D01*
X47697Y-37580D01*
X47700Y-37565D01*
X47703Y-37550D01*
X47705Y-37537D01*
X47705Y-37530D01*
X47706Y-37525D01*
Y-37519D01*
X47706Y-37515D01*
Y-37512D01*
Y-37509D01*
Y-37507D01*
Y-37507D01*
X47706Y-37492D01*
X47705Y-37478D01*
X47702Y-37466D01*
X47700Y-37454D01*
X47698Y-37444D01*
X47697Y-37440D01*
X47696Y-37437D01*
X47695Y-37434D01*
X47695Y-37432D01*
X47694Y-37431D01*
Y-37431D01*
X47688Y-37417D01*
X47682Y-37405D01*
X47675Y-37396D01*
X47668Y-37387D01*
X47661Y-37380D01*
X47656Y-37375D01*
X47652Y-37373D01*
X47652Y-37371D01*
X47651D01*
X47639Y-37364D01*
X47626Y-37358D01*
X47613Y-37354D01*
X47601Y-37352D01*
X47590Y-37350D01*
X47586Y-37350D01*
X47582D01*
X47579Y-37349D01*
X47574D01*
X47560Y-37350D01*
X47547Y-37352D01*
X47536Y-37355D01*
X47526Y-37359D01*
X47519Y-37363D01*
X47513Y-37366D01*
X47509Y-37368D01*
X47508Y-37369D01*
X47499Y-37378D01*
X47490Y-37387D01*
X47484Y-37398D01*
X47478Y-37408D01*
X47473Y-37417D01*
X47471Y-37422D01*
X47470Y-37425D01*
X47469Y-37428D01*
X47468Y-37431D01*
X47467Y-37432D01*
Y-37432D01*
X47416Y-37420D01*
X47419Y-37410D01*
X47423Y-37401D01*
X47427Y-37392D01*
X47431Y-37383D01*
X47436Y-37376D01*
X47441Y-37369D01*
X47446Y-37362D01*
X47450Y-37356D01*
X47455Y-37352D01*
X47459Y-37347D01*
X47463Y-37343D01*
X47466Y-37340D01*
X47469Y-37338D01*
X47471Y-37336D01*
X47472Y-37335D01*
X47473Y-37335D01*
X47481Y-37329D01*
X47489Y-37324D01*
X47497Y-37320D01*
X47505Y-37317D01*
X47523Y-37312D01*
X47538Y-37308D01*
X47546Y-37307D01*
X47552Y-37306D01*
X47558Y-37305D01*
X47563Y-37305D01*
X47567Y-37304D01*
X47573D01*
X47592Y-37305D01*
D02*
G37*
G36*
X27892Y-27364D02*
X27910Y-27367D01*
X27926Y-27371D01*
X27934Y-27373D01*
X27941Y-27375D01*
X27947Y-27378D01*
X27953Y-27380D01*
X27957Y-27382D01*
X27962Y-27383D01*
X27965Y-27385D01*
X27967Y-27386D01*
X27969Y-27387D01*
X27970Y-27387D01*
X27985Y-27397D01*
X27998Y-27409D01*
X28010Y-27420D01*
X28019Y-27432D01*
X28027Y-27442D01*
X28030Y-27446D01*
X28032Y-27450D01*
X28034Y-27453D01*
X28036Y-27456D01*
X28036Y-27457D01*
X28037Y-27458D01*
X28045Y-27476D01*
X28050Y-27494D01*
X28054Y-27512D01*
X28057Y-27529D01*
X28059Y-27537D01*
X28059Y-27544D01*
X28060Y-27550D01*
Y-27556D01*
X28060Y-27560D01*
Y-27563D01*
Y-27565D01*
Y-27566D01*
X28059Y-27587D01*
X28057Y-27607D01*
X28054Y-27624D01*
X28052Y-27633D01*
X28050Y-27640D01*
X28048Y-27647D01*
X28046Y-27654D01*
X28044Y-27659D01*
X28043Y-27664D01*
X28041Y-27667D01*
X28041Y-27670D01*
X28040Y-27672D01*
Y-27673D01*
X28031Y-27690D01*
X28021Y-27705D01*
X28011Y-27719D01*
X28006Y-27724D01*
X28001Y-27729D01*
X27997Y-27733D01*
X27992Y-27737D01*
X27988Y-27741D01*
X27984Y-27743D01*
X27982Y-27746D01*
X27980Y-27747D01*
X27979Y-27748D01*
X27978Y-27748D01*
X27970Y-27753D01*
X27962Y-27757D01*
X27945Y-27763D01*
X27928Y-27768D01*
X27911Y-27771D01*
X27903Y-27772D01*
X27896Y-27773D01*
X27890Y-27774D01*
X27885D01*
X27880Y-27774D01*
X27874D01*
X27862Y-27774D01*
X27851Y-27772D01*
X27841Y-27771D01*
X27831Y-27769D01*
X27822Y-27766D01*
X27813Y-27763D01*
X27805Y-27760D01*
X27798Y-27757D01*
X27792Y-27754D01*
X27785Y-27751D01*
X27781Y-27748D01*
X27776Y-27746D01*
X27773Y-27743D01*
X27770Y-27742D01*
X27769Y-27741D01*
X27769Y-27740D01*
X27761Y-27733D01*
X27754Y-27727D01*
X27747Y-27719D01*
X27741Y-27710D01*
X27731Y-27694D01*
X27723Y-27678D01*
X27719Y-27671D01*
X27716Y-27664D01*
X27714Y-27658D01*
X27712Y-27653D01*
X27711Y-27648D01*
X27710Y-27644D01*
X27709Y-27642D01*
Y-27642D01*
X27762Y-27628D01*
X27764Y-27638D01*
X27767Y-27646D01*
X27770Y-27654D01*
X27773Y-27662D01*
X27776Y-27669D01*
X27780Y-27674D01*
X27784Y-27680D01*
X27787Y-27685D01*
X27790Y-27690D01*
X27793Y-27693D01*
X27796Y-27697D01*
X27798Y-27700D01*
X27801Y-27701D01*
X27803Y-27703D01*
X27803Y-27704D01*
X27804Y-27704D01*
X27809Y-27709D01*
X27816Y-27712D01*
X27828Y-27719D01*
X27840Y-27723D01*
X27852Y-27726D01*
X27863Y-27728D01*
X27867Y-27729D01*
X27871D01*
X27874Y-27729D01*
X27878D01*
X27891Y-27729D01*
X27904Y-27727D01*
X27916Y-27724D01*
X27926Y-27720D01*
X27934Y-27717D01*
X27937Y-27715D01*
X27940Y-27714D01*
X27943Y-27713D01*
X27944Y-27712D01*
X27945Y-27711D01*
X27946D01*
X27957Y-27703D01*
X27966Y-27694D01*
X27974Y-27685D01*
X27980Y-27675D01*
X27986Y-27667D01*
X27989Y-27661D01*
X27990Y-27658D01*
X27991Y-27656D01*
X27992Y-27655D01*
Y-27654D01*
X27997Y-27639D01*
X28000Y-27624D01*
X28003Y-27609D01*
X28005Y-27596D01*
X28005Y-27589D01*
X28006Y-27584D01*
Y-27578D01*
X28006Y-27574D01*
Y-27571D01*
Y-27568D01*
Y-27566D01*
Y-27566D01*
X28006Y-27551D01*
X28005Y-27537D01*
X28002Y-27525D01*
X28000Y-27513D01*
X27998Y-27503D01*
X27997Y-27499D01*
X27996Y-27496D01*
X27995Y-27493D01*
X27995Y-27491D01*
X27994Y-27490D01*
Y-27490D01*
X27988Y-27476D01*
X27982Y-27464D01*
X27975Y-27455D01*
X27968Y-27446D01*
X27961Y-27439D01*
X27956Y-27434D01*
X27952Y-27432D01*
X27952Y-27430D01*
X27951D01*
X27939Y-27423D01*
X27926Y-27417D01*
X27913Y-27413D01*
X27901Y-27411D01*
X27890Y-27409D01*
X27886Y-27409D01*
X27882D01*
X27879Y-27408D01*
X27874D01*
X27860Y-27409D01*
X27847Y-27411D01*
X27836Y-27414D01*
X27826Y-27418D01*
X27819Y-27422D01*
X27813Y-27425D01*
X27809Y-27427D01*
X27808Y-27428D01*
X27799Y-27437D01*
X27790Y-27446D01*
X27784Y-27457D01*
X27778Y-27467D01*
X27773Y-27476D01*
X27771Y-27481D01*
X27770Y-27484D01*
X27769Y-27487D01*
X27768Y-27490D01*
X27767Y-27491D01*
Y-27491D01*
X27716Y-27479D01*
X27719Y-27469D01*
X27723Y-27460D01*
X27727Y-27451D01*
X27731Y-27442D01*
X27736Y-27435D01*
X27741Y-27428D01*
X27746Y-27421D01*
X27750Y-27415D01*
X27755Y-27411D01*
X27759Y-27406D01*
X27763Y-27402D01*
X27766Y-27399D01*
X27769Y-27397D01*
X27771Y-27395D01*
X27772Y-27394D01*
X27773Y-27394D01*
X27781Y-27388D01*
X27789Y-27383D01*
X27797Y-27379D01*
X27805Y-27376D01*
X27823Y-27371D01*
X27838Y-27367D01*
X27846Y-27366D01*
X27852Y-27365D01*
X27858Y-27364D01*
X27863Y-27364D01*
X27867Y-27363D01*
X27873D01*
X27892Y-27364D01*
D02*
G37*
G36*
X27543Y-27369D02*
X27553Y-27370D01*
X27562Y-27371D01*
X27571Y-27373D01*
X27579Y-27375D01*
X27586Y-27378D01*
X27593Y-27380D01*
X27599Y-27383D01*
X27605Y-27386D01*
X27610Y-27389D01*
X27614Y-27391D01*
X27617Y-27394D01*
X27620Y-27395D01*
X27622Y-27397D01*
X27623Y-27398D01*
X27623Y-27398D01*
X27629Y-27404D01*
X27634Y-27410D01*
X27639Y-27417D01*
X27643Y-27424D01*
X27650Y-27438D01*
X27655Y-27452D01*
X27657Y-27458D01*
X27658Y-27464D01*
X27660Y-27469D01*
X27661Y-27474D01*
X27661Y-27478D01*
Y-27481D01*
X27662Y-27483D01*
Y-27483D01*
X27612Y-27488D01*
X27611Y-27475D01*
X27608Y-27464D01*
X27605Y-27453D01*
X27601Y-27445D01*
X27598Y-27438D01*
X27594Y-27434D01*
X27592Y-27431D01*
X27591Y-27430D01*
X27582Y-27423D01*
X27573Y-27418D01*
X27563Y-27414D01*
X27555Y-27411D01*
X27547Y-27410D01*
X27540Y-27409D01*
X27537Y-27409D01*
X27534D01*
X27522Y-27409D01*
X27511Y-27411D01*
X27502Y-27415D01*
X27494Y-27418D01*
X27487Y-27422D01*
X27483Y-27425D01*
X27480Y-27428D01*
X27479Y-27429D01*
X27472Y-27437D01*
X27467Y-27445D01*
X27463Y-27453D01*
X27461Y-27461D01*
X27459Y-27467D01*
X27459Y-27473D01*
X27458Y-27476D01*
Y-27477D01*
Y-27477D01*
X27459Y-27488D01*
X27462Y-27499D01*
X27466Y-27508D01*
X27470Y-27518D01*
X27474Y-27525D01*
X27478Y-27531D01*
X27479Y-27534D01*
X27480Y-27535D01*
X27482Y-27536D01*
Y-27537D01*
X27486Y-27543D01*
X27492Y-27549D01*
X27498Y-27556D01*
X27505Y-27563D01*
X27520Y-27577D01*
X27534Y-27591D01*
X27541Y-27597D01*
X27548Y-27603D01*
X27554Y-27608D01*
X27559Y-27612D01*
X27563Y-27616D01*
X27567Y-27619D01*
X27569Y-27620D01*
X27569Y-27621D01*
X27584Y-27633D01*
X27597Y-27644D01*
X27608Y-27655D01*
X27617Y-27663D01*
X27624Y-27671D01*
X27629Y-27676D01*
X27632Y-27680D01*
X27633Y-27680D01*
Y-27681D01*
X27641Y-27690D01*
X27648Y-27700D01*
X27653Y-27709D01*
X27658Y-27717D01*
X27661Y-27724D01*
X27664Y-27729D01*
X27665Y-27732D01*
X27665Y-27733D01*
Y-27733D01*
X27668Y-27740D01*
X27669Y-27746D01*
X27670Y-27751D01*
X27670Y-27756D01*
X27671Y-27761D01*
Y-27764D01*
Y-27767D01*
Y-27767D01*
X27408D01*
Y-27720D01*
X27603D01*
X27596Y-27710D01*
X27593Y-27706D01*
X27590Y-27702D01*
X27587Y-27699D01*
X27585Y-27697D01*
X27583Y-27695D01*
X27583Y-27694D01*
X27580Y-27692D01*
X27576Y-27689D01*
X27568Y-27681D01*
X27559Y-27673D01*
X27549Y-27664D01*
X27540Y-27657D01*
X27536Y-27653D01*
X27533Y-27650D01*
X27530Y-27647D01*
X27528Y-27646D01*
X27526Y-27644D01*
X27526Y-27644D01*
X27517Y-27636D01*
X27507Y-27628D01*
X27499Y-27621D01*
X27492Y-27615D01*
X27485Y-27608D01*
X27479Y-27603D01*
X27474Y-27597D01*
X27469Y-27593D01*
X27464Y-27588D01*
X27461Y-27585D01*
X27458Y-27582D01*
X27455Y-27579D01*
X27452Y-27576D01*
X27451Y-27574D01*
X27443Y-27565D01*
X27436Y-27556D01*
X27431Y-27547D01*
X27426Y-27541D01*
X27423Y-27534D01*
X27420Y-27530D01*
X27419Y-27527D01*
X27418Y-27526D01*
X27415Y-27517D01*
X27413Y-27508D01*
X27410Y-27500D01*
X27409Y-27494D01*
X27409Y-27487D01*
X27408Y-27483D01*
Y-27480D01*
Y-27479D01*
X27409Y-27470D01*
X27410Y-27462D01*
X27411Y-27454D01*
X27413Y-27447D01*
X27419Y-27433D01*
X27425Y-27422D01*
X27428Y-27417D01*
X27431Y-27413D01*
X27434Y-27409D01*
X27437Y-27406D01*
X27439Y-27404D01*
X27440Y-27402D01*
X27441Y-27401D01*
X27442Y-27401D01*
X27448Y-27395D01*
X27455Y-27390D01*
X27463Y-27386D01*
X27470Y-27382D01*
X27485Y-27376D01*
X27500Y-27372D01*
X27506Y-27371D01*
X27513Y-27370D01*
X27518Y-27370D01*
X27523Y-27369D01*
X27527Y-27368D01*
X27533D01*
X27543Y-27369D01*
D02*
G37*
G36*
X37735Y-37207D02*
X37753Y-37210D01*
X37769Y-37213D01*
X37776Y-37215D01*
X37783Y-37218D01*
X37790Y-37220D01*
X37795Y-37222D01*
X37800Y-37224D01*
X37805Y-37226D01*
X37807Y-37228D01*
X37810Y-37229D01*
X37811Y-37229D01*
X37812Y-37230D01*
X37828Y-37240D01*
X37841Y-37251D01*
X37852Y-37263D01*
X37862Y-37274D01*
X37869Y-37284D01*
X37872Y-37289D01*
X37875Y-37293D01*
X37877Y-37296D01*
X37878Y-37298D01*
X37879Y-37300D01*
X37879Y-37300D01*
X37887Y-37318D01*
X37893Y-37337D01*
X37897Y-37355D01*
X37900Y-37372D01*
X37901Y-37379D01*
X37902Y-37387D01*
X37902Y-37392D01*
Y-37398D01*
X37903Y-37402D01*
Y-37405D01*
Y-37408D01*
Y-37408D01*
X37902Y-37429D01*
X37899Y-37449D01*
X37896Y-37467D01*
X37894Y-37476D01*
X37892Y-37483D01*
X37891Y-37490D01*
X37888Y-37496D01*
X37887Y-37502D01*
X37886Y-37507D01*
X37884Y-37510D01*
X37883Y-37513D01*
X37882Y-37515D01*
Y-37515D01*
X37873Y-37532D01*
X37864Y-37548D01*
X37853Y-37561D01*
X37848Y-37566D01*
X37844Y-37571D01*
X37839Y-37576D01*
X37834Y-37580D01*
X37830Y-37583D01*
X37827Y-37586D01*
X37825Y-37588D01*
X37822Y-37590D01*
X37821Y-37590D01*
X37821Y-37591D01*
X37813Y-37595D01*
X37805Y-37599D01*
X37787Y-37606D01*
X37770Y-37610D01*
X37753Y-37613D01*
X37745Y-37614D01*
X37739Y-37616D01*
X37732Y-37616D01*
X37727D01*
X37722Y-37617D01*
X37716D01*
X37705Y-37616D01*
X37694Y-37615D01*
X37683Y-37614D01*
X37674Y-37612D01*
X37665Y-37609D01*
X37656Y-37606D01*
X37648Y-37603D01*
X37640Y-37599D01*
X37634Y-37597D01*
X37628Y-37594D01*
X37623Y-37591D01*
X37619Y-37588D01*
X37616Y-37586D01*
X37613Y-37585D01*
X37612Y-37583D01*
X37611Y-37583D01*
X37603Y-37576D01*
X37596Y-37569D01*
X37590Y-37561D01*
X37584Y-37553D01*
X37573Y-37537D01*
X37565Y-37521D01*
X37562Y-37513D01*
X37559Y-37507D01*
X37557Y-37500D01*
X37555Y-37495D01*
X37553Y-37490D01*
X37552Y-37487D01*
X37551Y-37485D01*
Y-37484D01*
X37604Y-37471D01*
X37607Y-37480D01*
X37609Y-37489D01*
X37612Y-37497D01*
X37615Y-37504D01*
X37619Y-37511D01*
X37622Y-37517D01*
X37626Y-37523D01*
X37629Y-37528D01*
X37632Y-37532D01*
X37636Y-37536D01*
X37639Y-37539D01*
X37641Y-37542D01*
X37643Y-37544D01*
X37645Y-37546D01*
X37646Y-37546D01*
X37646Y-37547D01*
X37652Y-37551D01*
X37658Y-37555D01*
X37671Y-37561D01*
X37683Y-37566D01*
X37695Y-37569D01*
X37705Y-37571D01*
X37709Y-37571D01*
X37713D01*
X37717Y-37572D01*
X37721D01*
X37734Y-37571D01*
X37747Y-37569D01*
X37758Y-37566D01*
X37768Y-37563D01*
X37776Y-37559D01*
X37780Y-37558D01*
X37783Y-37556D01*
X37785Y-37555D01*
X37787Y-37554D01*
X37788Y-37554D01*
X37789D01*
X37799Y-37546D01*
X37809Y-37537D01*
X37817Y-37527D01*
X37823Y-37518D01*
X37828Y-37510D01*
X37832Y-37503D01*
X37833Y-37500D01*
X37834Y-37498D01*
X37834Y-37497D01*
Y-37497D01*
X37839Y-37482D01*
X37842Y-37467D01*
X37845Y-37452D01*
X37847Y-37438D01*
X37848Y-37432D01*
X37848Y-37426D01*
Y-37421D01*
X37849Y-37417D01*
Y-37414D01*
Y-37411D01*
Y-37409D01*
Y-37408D01*
X37848Y-37393D01*
X37847Y-37380D01*
X37845Y-37367D01*
X37842Y-37356D01*
X37841Y-37346D01*
X37840Y-37342D01*
X37838Y-37338D01*
X37838Y-37335D01*
X37837Y-37334D01*
X37837Y-37333D01*
Y-37332D01*
X37831Y-37319D01*
X37825Y-37307D01*
X37818Y-37297D01*
X37810Y-37288D01*
X37804Y-37281D01*
X37799Y-37277D01*
X37795Y-37274D01*
X37794Y-37273D01*
X37794D01*
X37782Y-37265D01*
X37768Y-37260D01*
X37756Y-37256D01*
X37744Y-37253D01*
X37733Y-37252D01*
X37728Y-37251D01*
X37724D01*
X37721Y-37250D01*
X37717D01*
X37702Y-37251D01*
X37689Y-37253D01*
X37678Y-37257D01*
X37669Y-37260D01*
X37661Y-37264D01*
X37655Y-37267D01*
X37652Y-37269D01*
X37651Y-37271D01*
X37642Y-37279D01*
X37633Y-37289D01*
X37626Y-37299D01*
X37620Y-37310D01*
X37616Y-37319D01*
X37614Y-37323D01*
X37613Y-37327D01*
X37612Y-37330D01*
X37611Y-37332D01*
X37610Y-37333D01*
Y-37334D01*
X37558Y-37322D01*
X37562Y-37311D01*
X37565Y-37302D01*
X37570Y-37294D01*
X37574Y-37285D01*
X37578Y-37277D01*
X37584Y-37271D01*
X37588Y-37264D01*
X37593Y-37258D01*
X37597Y-37253D01*
X37601Y-37249D01*
X37605Y-37245D01*
X37608Y-37242D01*
X37611Y-37239D01*
X37613Y-37237D01*
X37615Y-37237D01*
X37615Y-37236D01*
X37623Y-37231D01*
X37631Y-37226D01*
X37639Y-37222D01*
X37648Y-37218D01*
X37665Y-37213D01*
X37681Y-37210D01*
X37688Y-37208D01*
X37694Y-37207D01*
X37701Y-37207D01*
X37706Y-37206D01*
X37710Y-37206D01*
X37716D01*
X37735Y-37207D01*
D02*
G37*
G36*
X37399Y-37212D02*
X37414Y-37215D01*
X37427Y-37220D01*
X37439Y-37224D01*
X37444Y-37227D01*
X37448Y-37229D01*
X37452Y-37232D01*
X37455Y-37234D01*
X37457Y-37236D01*
X37459Y-37237D01*
X37460Y-37237D01*
X37461Y-37238D01*
X37472Y-37249D01*
X37480Y-37261D01*
X37487Y-37273D01*
X37493Y-37286D01*
X37496Y-37297D01*
X37498Y-37302D01*
X37499Y-37306D01*
X37500Y-37309D01*
X37500Y-37311D01*
X37501Y-37313D01*
Y-37314D01*
X37452Y-37322D01*
X37450Y-37310D01*
X37446Y-37299D01*
X37442Y-37290D01*
X37438Y-37282D01*
X37434Y-37276D01*
X37431Y-37272D01*
X37429Y-37269D01*
X37428Y-37269D01*
X37421Y-37263D01*
X37413Y-37259D01*
X37405Y-37256D01*
X37398Y-37253D01*
X37391Y-37252D01*
X37386Y-37251D01*
X37381D01*
X37371Y-37252D01*
X37361Y-37254D01*
X37353Y-37257D01*
X37347Y-37260D01*
X37341Y-37263D01*
X37337Y-37266D01*
X37334Y-37268D01*
X37334Y-37269D01*
X37328Y-37276D01*
X37323Y-37283D01*
X37320Y-37291D01*
X37318Y-37298D01*
X37317Y-37304D01*
X37316Y-37308D01*
Y-37312D01*
Y-37312D01*
Y-37313D01*
Y-37319D01*
X37317Y-37325D01*
X37320Y-37335D01*
X37324Y-37343D01*
X37328Y-37351D01*
X37333Y-37356D01*
X37337Y-37360D01*
X37340Y-37362D01*
X37340Y-37363D01*
X37341D01*
X37351Y-37368D01*
X37360Y-37372D01*
X37369Y-37375D01*
X37378Y-37377D01*
X37386Y-37378D01*
X37392Y-37379D01*
X37399D01*
X37402Y-37378D01*
X37404D01*
X37410Y-37422D01*
X37403Y-37420D01*
X37396Y-37419D01*
X37390Y-37418D01*
X37385Y-37417D01*
X37381Y-37416D01*
X37376D01*
X37364Y-37418D01*
X37353Y-37420D01*
X37343Y-37423D01*
X37335Y-37427D01*
X37329Y-37431D01*
X37324Y-37435D01*
X37321Y-37437D01*
X37320Y-37438D01*
X37313Y-37447D01*
X37307Y-37456D01*
X37303Y-37465D01*
X37301Y-37474D01*
X37299Y-37482D01*
X37298Y-37488D01*
X37298Y-37490D01*
Y-37492D01*
Y-37493D01*
Y-37494D01*
X37299Y-37507D01*
X37302Y-37518D01*
X37305Y-37528D01*
X37310Y-37536D01*
X37314Y-37543D01*
X37318Y-37548D01*
X37321Y-37552D01*
X37322Y-37553D01*
X37331Y-37561D01*
X37341Y-37567D01*
X37351Y-37571D01*
X37360Y-37574D01*
X37368Y-37575D01*
X37374Y-37576D01*
X37376Y-37577D01*
X37380D01*
X37390Y-37576D01*
X37400Y-37574D01*
X37409Y-37571D01*
X37415Y-37567D01*
X37421Y-37564D01*
X37426Y-37562D01*
X37428Y-37559D01*
X37429Y-37559D01*
X37436Y-37551D01*
X37442Y-37542D01*
X37447Y-37532D01*
X37451Y-37521D01*
X37454Y-37513D01*
X37455Y-37509D01*
X37456Y-37505D01*
X37456Y-37502D01*
X37457Y-37500D01*
X37457Y-37499D01*
Y-37498D01*
X37506Y-37505D01*
X37505Y-37514D01*
X37503Y-37523D01*
X37498Y-37539D01*
X37492Y-37552D01*
X37488Y-37558D01*
X37485Y-37564D01*
X37481Y-37569D01*
X37478Y-37573D01*
X37475Y-37577D01*
X37472Y-37580D01*
X37471Y-37582D01*
X37469Y-37584D01*
X37468Y-37585D01*
X37467Y-37586D01*
X37460Y-37591D01*
X37453Y-37596D01*
X37446Y-37600D01*
X37439Y-37604D01*
X37425Y-37609D01*
X37411Y-37613D01*
X37404Y-37614D01*
X37399Y-37615D01*
X37394Y-37616D01*
X37389Y-37616D01*
X37386Y-37617D01*
X37380D01*
X37369Y-37616D01*
X37360Y-37615D01*
X37350Y-37613D01*
X37341Y-37611D01*
X37332Y-37608D01*
X37325Y-37605D01*
X37317Y-37602D01*
X37311Y-37598D01*
X37305Y-37595D01*
X37299Y-37592D01*
X37295Y-37589D01*
X37291Y-37586D01*
X37289Y-37584D01*
X37286Y-37582D01*
X37285Y-37581D01*
X37285Y-37581D01*
X37278Y-37574D01*
X37272Y-37566D01*
X37267Y-37559D01*
X37262Y-37551D01*
X37259Y-37544D01*
X37255Y-37537D01*
X37251Y-37523D01*
X37250Y-37517D01*
X37248Y-37511D01*
X37247Y-37506D01*
X37247Y-37501D01*
X37246Y-37498D01*
Y-37495D01*
Y-37493D01*
Y-37493D01*
X37247Y-37479D01*
X37249Y-37466D01*
X37252Y-37455D01*
X37256Y-37446D01*
X37259Y-37439D01*
X37263Y-37433D01*
X37265Y-37430D01*
X37266Y-37428D01*
X37274Y-37420D01*
X37282Y-37412D01*
X37291Y-37407D01*
X37301Y-37402D01*
X37309Y-37399D01*
X37315Y-37396D01*
X37317Y-37396D01*
X37319Y-37395D01*
X37320Y-37395D01*
X37321D01*
X37311Y-37389D01*
X37303Y-37384D01*
X37296Y-37378D01*
X37290Y-37373D01*
X37286Y-37369D01*
X37282Y-37365D01*
X37281Y-37362D01*
X37280Y-37361D01*
X37275Y-37353D01*
X37272Y-37345D01*
X37269Y-37337D01*
X37267Y-37330D01*
X37266Y-37323D01*
X37266Y-37319D01*
Y-37315D01*
Y-37314D01*
X37266Y-37304D01*
X37268Y-37295D01*
X37270Y-37286D01*
X37273Y-37279D01*
X37276Y-37272D01*
X37278Y-37267D01*
X37280Y-37264D01*
X37281Y-37263D01*
X37286Y-37255D01*
X37293Y-37247D01*
X37300Y-37241D01*
X37307Y-37235D01*
X37313Y-37231D01*
X37318Y-37228D01*
X37321Y-37226D01*
X37322Y-37225D01*
X37322D01*
X37333Y-37221D01*
X37343Y-37217D01*
X37353Y-37214D01*
X37363Y-37213D01*
X37370Y-37211D01*
X37376Y-37211D01*
X37391D01*
X37399Y-37212D01*
D02*
G37*
G36*
X37735Y-27364D02*
X37753Y-27367D01*
X37769Y-27371D01*
X37776Y-27373D01*
X37783Y-27375D01*
X37790Y-27378D01*
X37795Y-27380D01*
X37800Y-27382D01*
X37805Y-27383D01*
X37807Y-27385D01*
X37810Y-27386D01*
X37811Y-27387D01*
X37812Y-27387D01*
X37828Y-27397D01*
X37841Y-27409D01*
X37852Y-27420D01*
X37862Y-27432D01*
X37869Y-27442D01*
X37872Y-27446D01*
X37875Y-27450D01*
X37877Y-27453D01*
X37878Y-27456D01*
X37879Y-27457D01*
X37879Y-27458D01*
X37887Y-27476D01*
X37893Y-27494D01*
X37897Y-27512D01*
X37900Y-27529D01*
X37901Y-27537D01*
X37902Y-27544D01*
X37902Y-27550D01*
Y-27556D01*
X37903Y-27560D01*
Y-27563D01*
Y-27565D01*
Y-27566D01*
X37902Y-27587D01*
X37899Y-27607D01*
X37896Y-27624D01*
X37894Y-27633D01*
X37892Y-27640D01*
X37891Y-27647D01*
X37888Y-27654D01*
X37887Y-27659D01*
X37886Y-27664D01*
X37884Y-27667D01*
X37883Y-27670D01*
X37882Y-27672D01*
Y-27673D01*
X37873Y-27690D01*
X37864Y-27705D01*
X37853Y-27719D01*
X37848Y-27724D01*
X37844Y-27729D01*
X37839Y-27733D01*
X37834Y-27737D01*
X37830Y-27741D01*
X37827Y-27743D01*
X37825Y-27746D01*
X37822Y-27747D01*
X37821Y-27748D01*
X37821Y-27748D01*
X37813Y-27753D01*
X37805Y-27757D01*
X37787Y-27763D01*
X37770Y-27768D01*
X37753Y-27771D01*
X37745Y-27772D01*
X37739Y-27773D01*
X37732Y-27774D01*
X37727D01*
X37722Y-27774D01*
X37716D01*
X37705Y-27774D01*
X37694Y-27772D01*
X37683Y-27771D01*
X37674Y-27769D01*
X37665Y-27766D01*
X37656Y-27763D01*
X37648Y-27760D01*
X37640Y-27757D01*
X37634Y-27754D01*
X37628Y-27751D01*
X37623Y-27748D01*
X37619Y-27746D01*
X37616Y-27743D01*
X37613Y-27742D01*
X37612Y-27741D01*
X37611Y-27740D01*
X37603Y-27733D01*
X37596Y-27727D01*
X37590Y-27719D01*
X37584Y-27710D01*
X37573Y-27694D01*
X37565Y-27678D01*
X37562Y-27671D01*
X37559Y-27664D01*
X37557Y-27658D01*
X37555Y-27653D01*
X37553Y-27648D01*
X37552Y-27644D01*
X37551Y-27642D01*
Y-27642D01*
X37604Y-27628D01*
X37607Y-27638D01*
X37609Y-27646D01*
X37612Y-27654D01*
X37615Y-27662D01*
X37619Y-27669D01*
X37622Y-27674D01*
X37626Y-27680D01*
X37629Y-27685D01*
X37632Y-27690D01*
X37636Y-27693D01*
X37639Y-27697D01*
X37641Y-27700D01*
X37643Y-27701D01*
X37645Y-27703D01*
X37646Y-27704D01*
X37646Y-27704D01*
X37652Y-27709D01*
X37658Y-27712D01*
X37671Y-27719D01*
X37683Y-27723D01*
X37695Y-27726D01*
X37705Y-27728D01*
X37709Y-27729D01*
X37713D01*
X37717Y-27729D01*
X37721D01*
X37734Y-27729D01*
X37747Y-27727D01*
X37758Y-27724D01*
X37768Y-27720D01*
X37776Y-27717D01*
X37780Y-27715D01*
X37783Y-27714D01*
X37785Y-27713D01*
X37787Y-27712D01*
X37788Y-27711D01*
X37789D01*
X37799Y-27703D01*
X37809Y-27694D01*
X37817Y-27685D01*
X37823Y-27675D01*
X37828Y-27667D01*
X37832Y-27661D01*
X37833Y-27658D01*
X37834Y-27656D01*
X37834Y-27655D01*
Y-27654D01*
X37839Y-27639D01*
X37842Y-27624D01*
X37845Y-27609D01*
X37847Y-27596D01*
X37848Y-27589D01*
X37848Y-27584D01*
Y-27578D01*
X37849Y-27574D01*
Y-27571D01*
Y-27568D01*
Y-27566D01*
Y-27566D01*
X37848Y-27551D01*
X37847Y-27537D01*
X37845Y-27525D01*
X37842Y-27513D01*
X37841Y-27503D01*
X37840Y-27499D01*
X37838Y-27496D01*
X37838Y-27493D01*
X37837Y-27491D01*
X37837Y-27490D01*
Y-27490D01*
X37831Y-27476D01*
X37825Y-27464D01*
X37818Y-27455D01*
X37810Y-27446D01*
X37804Y-27439D01*
X37799Y-27434D01*
X37795Y-27432D01*
X37794Y-27430D01*
X37794D01*
X37782Y-27423D01*
X37768Y-27417D01*
X37756Y-27413D01*
X37744Y-27411D01*
X37733Y-27409D01*
X37728Y-27409D01*
X37724D01*
X37721Y-27408D01*
X37717D01*
X37702Y-27409D01*
X37689Y-27411D01*
X37678Y-27414D01*
X37669Y-27418D01*
X37661Y-27422D01*
X37655Y-27425D01*
X37652Y-27427D01*
X37651Y-27428D01*
X37642Y-27437D01*
X37633Y-27446D01*
X37626Y-27457D01*
X37620Y-27467D01*
X37616Y-27476D01*
X37614Y-27481D01*
X37613Y-27484D01*
X37612Y-27487D01*
X37611Y-27490D01*
X37610Y-27491D01*
Y-27491D01*
X37558Y-27479D01*
X37562Y-27469D01*
X37565Y-27460D01*
X37570Y-27451D01*
X37574Y-27442D01*
X37578Y-27435D01*
X37584Y-27428D01*
X37588Y-27421D01*
X37593Y-27415D01*
X37597Y-27411D01*
X37601Y-27406D01*
X37605Y-27402D01*
X37608Y-27399D01*
X37611Y-27397D01*
X37613Y-27395D01*
X37615Y-27394D01*
X37615Y-27394D01*
X37623Y-27388D01*
X37631Y-27383D01*
X37639Y-27379D01*
X37648Y-27376D01*
X37665Y-27371D01*
X37681Y-27367D01*
X37688Y-27366D01*
X37694Y-27365D01*
X37701Y-27364D01*
X37706Y-27364D01*
X37710Y-27363D01*
X37716D01*
X37735Y-27364D01*
D02*
G37*
G36*
X57435D02*
X57453Y-27367D01*
X57469Y-27371D01*
X57476Y-27373D01*
X57483Y-27375D01*
X57490Y-27378D01*
X57495Y-27380D01*
X57500Y-27382D01*
X57505Y-27383D01*
X57507Y-27385D01*
X57510Y-27386D01*
X57511Y-27387D01*
X57512Y-27387D01*
X57528Y-27397D01*
X57541Y-27409D01*
X57552Y-27420D01*
X57562Y-27432D01*
X57569Y-27442D01*
X57572Y-27446D01*
X57575Y-27450D01*
X57577Y-27453D01*
X57578Y-27456D01*
X57579Y-27457D01*
X57579Y-27458D01*
X57587Y-27476D01*
X57593Y-27494D01*
X57597Y-27512D01*
X57600Y-27529D01*
X57601Y-27537D01*
X57602Y-27544D01*
X57602Y-27550D01*
Y-27556D01*
X57603Y-27560D01*
Y-27563D01*
Y-27565D01*
Y-27566D01*
X57602Y-27587D01*
X57599Y-27607D01*
X57596Y-27624D01*
X57594Y-27633D01*
X57592Y-27640D01*
X57591Y-27647D01*
X57588Y-27654D01*
X57587Y-27659D01*
X57586Y-27664D01*
X57584Y-27667D01*
X57583Y-27670D01*
X57582Y-27672D01*
Y-27673D01*
X57573Y-27690D01*
X57564Y-27705D01*
X57553Y-27719D01*
X57548Y-27724D01*
X57544Y-27729D01*
X57539Y-27733D01*
X57534Y-27737D01*
X57530Y-27741D01*
X57527Y-27743D01*
X57525Y-27746D01*
X57522Y-27747D01*
X57521Y-27748D01*
X57521Y-27748D01*
X57513Y-27753D01*
X57505Y-27757D01*
X57487Y-27763D01*
X57470Y-27768D01*
X57453Y-27771D01*
X57445Y-27772D01*
X57439Y-27773D01*
X57432Y-27774D01*
X57427D01*
X57422Y-27774D01*
X57416D01*
X57405Y-27774D01*
X57394Y-27772D01*
X57383Y-27771D01*
X57374Y-27769D01*
X57365Y-27766D01*
X57356Y-27763D01*
X57348Y-27760D01*
X57340Y-27757D01*
X57334Y-27754D01*
X57328Y-27751D01*
X57323Y-27748D01*
X57319Y-27746D01*
X57316Y-27743D01*
X57313Y-27742D01*
X57312Y-27741D01*
X57311Y-27740D01*
X57303Y-27733D01*
X57296Y-27727D01*
X57290Y-27719D01*
X57284Y-27710D01*
X57273Y-27694D01*
X57265Y-27678D01*
X57262Y-27671D01*
X57259Y-27664D01*
X57257Y-27658D01*
X57255Y-27653D01*
X57253Y-27648D01*
X57252Y-27644D01*
X57251Y-27642D01*
Y-27642D01*
X57304Y-27628D01*
X57307Y-27638D01*
X57309Y-27646D01*
X57312Y-27654D01*
X57315Y-27662D01*
X57319Y-27669D01*
X57322Y-27674D01*
X57326Y-27680D01*
X57330Y-27685D01*
X57332Y-27690D01*
X57336Y-27693D01*
X57339Y-27697D01*
X57341Y-27700D01*
X57343Y-27701D01*
X57345Y-27703D01*
X57346Y-27704D01*
X57346Y-27704D01*
X57352Y-27709D01*
X57358Y-27712D01*
X57371Y-27719D01*
X57383Y-27723D01*
X57395Y-27726D01*
X57405Y-27728D01*
X57409Y-27729D01*
X57413D01*
X57417Y-27729D01*
X57421D01*
X57434Y-27729D01*
X57447Y-27727D01*
X57458Y-27724D01*
X57468Y-27720D01*
X57476Y-27717D01*
X57480Y-27715D01*
X57483Y-27714D01*
X57485Y-27713D01*
X57487Y-27712D01*
X57488Y-27711D01*
X57488D01*
X57499Y-27703D01*
X57509Y-27694D01*
X57517Y-27685D01*
X57523Y-27675D01*
X57528Y-27667D01*
X57532Y-27661D01*
X57533Y-27658D01*
X57534Y-27656D01*
X57534Y-27655D01*
Y-27654D01*
X57539Y-27639D01*
X57542Y-27624D01*
X57545Y-27609D01*
X57547Y-27596D01*
X57548Y-27589D01*
X57548Y-27584D01*
Y-27578D01*
X57549Y-27574D01*
Y-27571D01*
Y-27568D01*
Y-27566D01*
Y-27566D01*
X57548Y-27551D01*
X57547Y-27537D01*
X57545Y-27525D01*
X57542Y-27513D01*
X57541Y-27503D01*
X57540Y-27499D01*
X57538Y-27496D01*
X57538Y-27493D01*
X57537Y-27491D01*
X57537Y-27490D01*
Y-27490D01*
X57531Y-27476D01*
X57525Y-27464D01*
X57518Y-27455D01*
X57510Y-27446D01*
X57504Y-27439D01*
X57499Y-27434D01*
X57495Y-27432D01*
X57494Y-27430D01*
X57494D01*
X57482Y-27423D01*
X57468Y-27417D01*
X57456Y-27413D01*
X57444Y-27411D01*
X57433Y-27409D01*
X57428Y-27409D01*
X57424D01*
X57421Y-27408D01*
X57417D01*
X57402Y-27409D01*
X57389Y-27411D01*
X57378Y-27414D01*
X57369Y-27418D01*
X57361Y-27422D01*
X57355Y-27425D01*
X57352Y-27427D01*
X57351Y-27428D01*
X57342Y-27437D01*
X57333Y-27446D01*
X57326Y-27457D01*
X57320Y-27467D01*
X57316Y-27476D01*
X57314Y-27481D01*
X57313Y-27484D01*
X57312Y-27487D01*
X57311Y-27490D01*
X57310Y-27491D01*
Y-27491D01*
X57258Y-27479D01*
X57262Y-27469D01*
X57265Y-27460D01*
X57270Y-27451D01*
X57274Y-27442D01*
X57278Y-27435D01*
X57284Y-27428D01*
X57288Y-27421D01*
X57293Y-27415D01*
X57297Y-27411D01*
X57301Y-27406D01*
X57305Y-27402D01*
X57308Y-27399D01*
X57311Y-27397D01*
X57313Y-27395D01*
X57315Y-27394D01*
X57315Y-27394D01*
X57323Y-27388D01*
X57331Y-27383D01*
X57339Y-27379D01*
X57348Y-27376D01*
X57365Y-27371D01*
X57381Y-27367D01*
X57388Y-27366D01*
X57394Y-27365D01*
X57401Y-27364D01*
X57406Y-27364D01*
X57410Y-27363D01*
X57416D01*
X57435Y-27364D01*
D02*
G37*
G36*
X37360Y-27378D02*
X37367Y-27387D01*
X37374Y-27397D01*
X37381Y-27405D01*
X37388Y-27411D01*
X37393Y-27417D01*
X37395Y-27419D01*
X37397Y-27421D01*
X37398Y-27421D01*
X37398Y-27422D01*
X37410Y-27432D01*
X37422Y-27441D01*
X37434Y-27449D01*
X37445Y-27455D01*
X37455Y-27461D01*
X37459Y-27463D01*
X37462Y-27465D01*
X37465Y-27467D01*
X37468Y-27467D01*
X37469Y-27468D01*
X37469D01*
Y-27515D01*
X37461Y-27512D01*
X37452Y-27508D01*
X37444Y-27504D01*
X37435Y-27500D01*
X37429Y-27496D01*
X37423Y-27494D01*
X37419Y-27491D01*
X37419Y-27491D01*
X37418D01*
X37408Y-27484D01*
X37399Y-27478D01*
X37391Y-27472D01*
X37384Y-27467D01*
X37379Y-27463D01*
X37375Y-27460D01*
X37372Y-27457D01*
X37372Y-27457D01*
Y-27767D01*
X37323D01*
Y-27368D01*
X37355D01*
X37360Y-27378D01*
D02*
G37*
%LPC*%
G36*
X27508Y-37390D02*
Y-37568D01*
X27633D01*
X27508Y-37390D01*
D02*
G37*
G36*
X66957D02*
Y-37568D01*
X67082D01*
X66957Y-37390D01*
D02*
G37*
G36*
X7808D02*
Y-37568D01*
X7933D01*
X7808Y-37390D01*
D02*
G37*
G36*
X47208D02*
Y-37568D01*
X47333D01*
X47208Y-37390D01*
D02*
G37*
%LPD*%
M02*
