G04 Layer_Color=65535*
%FSLAX24Y24*%
%MOIN*%
G70*
G01*
G75*
%ADD10C,0.0100*%
%ADD38C,0.0200*%
%ADD39C,0.0060*%
%ADD40C,0.0030*%
D10*
X103816Y-38142D02*
G03*
X103816Y-38142I-450J0D01*
G01*
X8639Y-8617D02*
G03*
X8639Y-8617I-450J0D01*
G01*
X18482Y-8617D02*
G03*
X18482Y-8617I-450J0D01*
G01*
X28324Y-8617D02*
G03*
X28324Y-8617I-450J0D01*
G01*
X38167Y-8617D02*
G03*
X38167Y-8617I-450J0D01*
G01*
X48009Y-8617D02*
G03*
X48009Y-8617I-450J0D01*
G01*
X57852D02*
G03*
X57852Y-8617I-450J0D01*
G01*
X67694D02*
G03*
X67694Y-8617I-450J0D01*
G01*
X77606Y-8617D02*
G03*
X77606Y-8617I-450J0D01*
G01*
X8639Y-18459D02*
G03*
X8639Y-18459I-450J0D01*
G01*
X18491Y-18459D02*
G03*
X18491Y-18459I-450J0D01*
G01*
X28344D02*
G03*
X28344Y-18459I-450J0D01*
G01*
X38196D02*
G03*
X38196Y-18459I-450J0D01*
G01*
X77606Y-18459D02*
G03*
X77606Y-18459I-450J0D01*
G01*
X67753Y-18459D02*
G03*
X67753Y-18459I-450J0D01*
G01*
X57901D02*
G03*
X57901Y-18459I-450J0D01*
G01*
X48048D02*
G03*
X48048Y-18459I-450J0D01*
G01*
X116763Y-38898D02*
G03*
X116763Y-38898I-450J0D01*
G01*
Y-30612D02*
G03*
X116763Y-30612I-450J0D01*
G01*
X116763Y-22325D02*
G03*
X116763Y-22325I-450J0D01*
G01*
X116763Y-14039D02*
G03*
X116763Y-14039I-450J0D01*
G01*
X103762Y-28898D02*
G03*
X103762Y-28898I-450J0D01*
G01*
X103723Y-20774D02*
G03*
X103723Y-20774I-450J0D01*
G01*
X103841Y-12651D02*
G03*
X103841Y-12651I-450J0D01*
G01*
X103831Y-4528D02*
G03*
X103831Y-4528I-450J0D01*
G01*
X105866Y-40242D02*
Y-38742D01*
X100866Y-40242D02*
Y-38742D01*
Y-37242D02*
Y-35984D01*
X105866D01*
Y-37362D02*
Y-35984D01*
X100866Y-40242D02*
X105866D01*
X102916Y-38142D02*
X103816D01*
X102916D02*
X102966Y-38242D01*
X103766D01*
X103716Y-38342D02*
X103766Y-38242D01*
X102966Y-38342D02*
X103716D01*
X102966D02*
X103066Y-38442D01*
X103666D01*
X103516Y-38492D02*
X103666Y-38442D01*
X103166Y-38492D02*
X103516D01*
X8039Y-8267D02*
X8389D01*
X7889Y-8317D02*
X8039Y-8267D01*
X7889Y-8317D02*
X8489D01*
X8589Y-8417D01*
X7839D02*
X8589D01*
X7789Y-8517D02*
X7839Y-8417D01*
X7789Y-8517D02*
X8589D01*
X8639Y-8617D01*
X7739D02*
X8639D01*
X5689Y-6517D02*
X10689D01*
X5689Y-10817D02*
Y-9517D01*
Y-10817D02*
X10689D01*
Y-9517D01*
Y-8017D02*
Y-6517D01*
X5689Y-8017D02*
Y-6517D01*
X17881Y-8267D02*
X18232D01*
X17731Y-8317D02*
X17881Y-8267D01*
X17731Y-8317D02*
X18332D01*
X18432Y-8417D01*
X17681D02*
X18432D01*
X17631Y-8517D02*
X17681Y-8417D01*
X17631Y-8517D02*
X18432D01*
X18482Y-8617D01*
X17581D02*
X18482D01*
X15532Y-6517D02*
X20531D01*
X15532Y-10817D02*
Y-9517D01*
Y-10817D02*
X20531D01*
Y-9517D01*
Y-8017D02*
Y-6517D01*
X15532Y-8017D02*
Y-6517D01*
X27724Y-8267D02*
X28074D01*
X27574Y-8317D02*
X27724Y-8267D01*
X27574Y-8317D02*
X28174D01*
X28274Y-8417D01*
X27524D02*
X28274D01*
X27474Y-8517D02*
X27524Y-8417D01*
X27474Y-8517D02*
X28274D01*
X28324Y-8617D01*
X27424D02*
X28324D01*
X25374Y-6517D02*
X30374D01*
X25374Y-10817D02*
Y-9517D01*
Y-10817D02*
X30374D01*
Y-9517D01*
Y-8017D02*
Y-6517D01*
X25374Y-8017D02*
Y-6517D01*
X37567Y-8267D02*
X37917D01*
X37417Y-8317D02*
X37567Y-8267D01*
X37417Y-8317D02*
X38017D01*
X38117Y-8417D01*
X37367D02*
X38117D01*
X37317Y-8517D02*
X37367Y-8417D01*
X37317Y-8517D02*
X38117D01*
X38167Y-8617D01*
X37267D02*
X38167D01*
X35217Y-6517D02*
X40217D01*
X35217Y-10817D02*
Y-9517D01*
Y-10817D02*
X40217D01*
Y-9517D01*
Y-8017D02*
Y-6517D01*
X35217Y-8017D02*
Y-6517D01*
X47409Y-8267D02*
X47759D01*
X47259Y-8317D02*
X47409Y-8267D01*
X47259Y-8317D02*
X47859D01*
X47959Y-8417D01*
X47209D02*
X47959D01*
X47159Y-8517D02*
X47209Y-8417D01*
X47159Y-8517D02*
X47959D01*
X48009Y-8617D01*
X47109D02*
X48009D01*
X45059Y-6517D02*
X50059D01*
X45059Y-10817D02*
Y-9517D01*
Y-10817D02*
X50059D01*
Y-9517D01*
Y-8017D02*
Y-6517D01*
X45059Y-8017D02*
Y-6517D01*
X57252Y-8267D02*
X57602D01*
X57102Y-8317D02*
X57252Y-8267D01*
X57102Y-8317D02*
X57702D01*
X57802Y-8417D01*
X57052D02*
X57802D01*
X57002Y-8517D02*
X57052Y-8417D01*
X57002Y-8517D02*
X57802D01*
X57852Y-8617D01*
X56952D02*
X57852D01*
X54902Y-6517D02*
X59902D01*
X54902Y-10817D02*
Y-9517D01*
Y-10817D02*
X59902D01*
Y-9517D01*
Y-8017D02*
Y-6517D01*
X54902Y-8017D02*
Y-6517D01*
X67094Y-8267D02*
X67444D01*
X66944Y-8317D02*
X67094Y-8267D01*
X66944Y-8317D02*
X67544D01*
X67644Y-8417D01*
X66894D02*
X67644D01*
X66844Y-8517D02*
X66894Y-8417D01*
X66844Y-8517D02*
X67644D01*
X67694Y-8617D01*
X66794D02*
X67694D01*
X64744Y-6517D02*
X69744D01*
X64744Y-10817D02*
Y-9517D01*
Y-10817D02*
X69744D01*
Y-9517D01*
Y-8017D02*
Y-6517D01*
X64744Y-8017D02*
Y-6517D01*
X77006Y-8267D02*
X77356D01*
X76856Y-8317D02*
X77006Y-8267D01*
X76856Y-8317D02*
X77456D01*
X77556Y-8417D01*
X76806D02*
X77556D01*
X76756Y-8517D02*
X76806Y-8417D01*
X76756Y-8517D02*
X77556D01*
X77606Y-8617D01*
X76706D02*
X77606D01*
X74656Y-6517D02*
X79656D01*
X74656Y-10817D02*
Y-9517D01*
Y-10817D02*
X79656D01*
Y-9517D01*
Y-8017D02*
Y-6517D01*
X74656Y-8017D02*
Y-6517D01*
X8039Y-18109D02*
X8389D01*
X7889Y-18159D02*
X8039Y-18109D01*
X7889Y-18159D02*
X8489D01*
X8589Y-18259D01*
X7839D02*
X8589D01*
X7789Y-18359D02*
X7839Y-18259D01*
X7789Y-18359D02*
X8589D01*
X8639Y-18459D01*
X7739D02*
X8639D01*
X5689Y-16359D02*
X10689D01*
X5689Y-20659D02*
Y-19359D01*
Y-20659D02*
X10689D01*
Y-19359D01*
Y-17859D02*
Y-16359D01*
X5689Y-17859D02*
Y-16359D01*
X17891Y-18109D02*
X18241D01*
X17741Y-18159D02*
X17891Y-18109D01*
X17741Y-18159D02*
X18341D01*
X18441Y-18259D01*
X17691D02*
X18441D01*
X17641Y-18359D02*
X17691Y-18259D01*
X17641Y-18359D02*
X18441D01*
X18491Y-18459D01*
X17591D02*
X18491D01*
X15541Y-16359D02*
X20541D01*
X15541Y-20659D02*
Y-19359D01*
Y-20659D02*
X20541D01*
Y-19359D01*
Y-17859D02*
Y-16359D01*
X15541Y-17859D02*
Y-16359D01*
X27744Y-18109D02*
X28094D01*
X27594Y-18159D02*
X27744Y-18109D01*
X27594Y-18159D02*
X28194D01*
X28294Y-18259D01*
X27544D02*
X28294D01*
X27494Y-18359D02*
X27544Y-18259D01*
X27494Y-18359D02*
X28294D01*
X28344Y-18459D01*
X27444D02*
X28344D01*
X25394Y-16359D02*
X30394D01*
X25394Y-20659D02*
Y-19359D01*
Y-20659D02*
X30394D01*
Y-19359D01*
Y-17859D02*
Y-16359D01*
X25394Y-17859D02*
Y-16359D01*
X37596Y-18109D02*
X37946D01*
X37446Y-18159D02*
X37596Y-18109D01*
X37446Y-18159D02*
X38046D01*
X38146Y-18259D01*
X37396D02*
X38146D01*
X37346Y-18359D02*
X37396Y-18259D01*
X37346Y-18359D02*
X38146D01*
X38196Y-18459D01*
X37296D02*
X38196D01*
X35246Y-16359D02*
X40246D01*
X35246Y-20659D02*
Y-19359D01*
Y-20659D02*
X40246D01*
Y-19359D01*
Y-17859D02*
Y-16359D01*
X35246Y-17859D02*
Y-16359D01*
X77006Y-18109D02*
X77356D01*
X76856Y-18159D02*
X77006Y-18109D01*
X76856Y-18159D02*
X77456D01*
X77556Y-18259D01*
X76806D02*
X77556D01*
X76756Y-18359D02*
X76806Y-18259D01*
X76756Y-18359D02*
X77556D01*
X77606Y-18459D01*
X76706D02*
X77606D01*
X74656Y-16359D02*
X79656D01*
X74656Y-20659D02*
Y-19359D01*
Y-20659D02*
X79656D01*
Y-19359D01*
Y-17859D02*
Y-16359D01*
X74656Y-17859D02*
Y-16359D01*
X67153Y-18109D02*
X67503D01*
X67003Y-18159D02*
X67153Y-18109D01*
X67003Y-18159D02*
X67603D01*
X67703Y-18259D01*
X66953D02*
X67703D01*
X66903Y-18359D02*
X66953Y-18259D01*
X66903Y-18359D02*
X67703D01*
X67753Y-18459D01*
X66853D02*
X67753D01*
X64803Y-16359D02*
X69803D01*
X64803Y-20659D02*
Y-19359D01*
Y-20659D02*
X69803D01*
Y-19359D01*
Y-17859D02*
Y-16359D01*
X64803Y-17859D02*
Y-16359D01*
X57301Y-18109D02*
X57651D01*
X57151Y-18159D02*
X57301Y-18109D01*
X57151Y-18159D02*
X57751D01*
X57851Y-18259D01*
X57101D02*
X57851D01*
X57051Y-18359D02*
X57101Y-18259D01*
X57051Y-18359D02*
X57851D01*
X57901Y-18459D01*
X57001D02*
X57901D01*
X54951Y-16359D02*
X59951D01*
X54951Y-20659D02*
Y-19359D01*
Y-20659D02*
X59951D01*
Y-19359D01*
Y-17859D02*
Y-16359D01*
X54951Y-17859D02*
Y-16359D01*
X47448Y-18109D02*
X47798D01*
X47298Y-18159D02*
X47448Y-18109D01*
X47298Y-18159D02*
X47898D01*
X47998Y-18259D01*
X47248D02*
X47998D01*
X47198Y-18359D02*
X47248Y-18259D01*
X47198Y-18359D02*
X47998D01*
X48048Y-18459D01*
X47148D02*
X48048D01*
X45098Y-16359D02*
X50098D01*
X45098Y-20659D02*
Y-19359D01*
Y-20659D02*
X50098D01*
Y-19359D01*
Y-17859D02*
Y-16359D01*
X45098Y-17859D02*
Y-16359D01*
X115963Y-39048D02*
Y-38698D01*
Y-39048D02*
X116013Y-39198D01*
Y-38598D01*
X116113Y-38498D01*
Y-39248D02*
Y-38498D01*
Y-39248D02*
X116213Y-39298D01*
Y-38498D01*
X116313Y-38448D01*
Y-39348D02*
Y-38448D01*
X114213Y-41398D02*
Y-36398D01*
X117213Y-41398D02*
X118513D01*
Y-36398D01*
X117213D02*
X118513D01*
X114213D02*
X115713D01*
X114213Y-41398D02*
X115713D01*
X115963Y-30762D02*
Y-30412D01*
Y-30762D02*
X116013Y-30912D01*
Y-30312D01*
X116113Y-30212D01*
Y-30962D02*
Y-30212D01*
Y-30962D02*
X116213Y-31012D01*
Y-30212D01*
X116313Y-30162D01*
Y-31062D02*
Y-30162D01*
X114213Y-33112D02*
Y-28112D01*
X117213Y-33112D02*
X118513D01*
Y-28112D01*
X117213D02*
X118513D01*
X114213D02*
X115713D01*
X114213Y-33112D02*
X115713D01*
X115963Y-22475D02*
Y-22125D01*
Y-22475D02*
X116013Y-22625D01*
Y-22025D01*
X116113Y-21925D01*
Y-22675D02*
Y-21925D01*
Y-22675D02*
X116213Y-22725D01*
Y-21925D01*
X116313Y-21875D01*
Y-22775D02*
Y-21875D01*
X114213Y-24825D02*
Y-19825D01*
X117213Y-24825D02*
X118513D01*
Y-19825D01*
X117213D02*
X118513D01*
X114213D02*
X115713D01*
X114213Y-24825D02*
X115713D01*
X115963Y-14189D02*
Y-13839D01*
Y-14189D02*
X116013Y-14339D01*
Y-13739D01*
X116113Y-13639D01*
Y-14389D02*
Y-13639D01*
Y-14389D02*
X116213Y-14439D01*
Y-13639D01*
X116313Y-13589D01*
Y-14489D02*
Y-13589D01*
X114213Y-16539D02*
Y-11539D01*
X117213Y-16539D02*
X118513D01*
Y-11539D01*
X117213D02*
X118513D01*
X114213D02*
X115713D01*
X114213Y-16539D02*
X115713D01*
X103662Y-29098D02*
Y-28748D01*
X103612Y-28598D02*
X103662Y-28748D01*
X103612Y-29198D02*
Y-28598D01*
X103512Y-29298D02*
X103612Y-29198D01*
X103512Y-29298D02*
Y-28548D01*
X103412Y-28498D02*
X103512Y-28548D01*
X103412Y-29298D02*
Y-28498D01*
X103312Y-29348D02*
X103412Y-29298D01*
X103312Y-29348D02*
Y-28448D01*
X105412Y-31398D02*
Y-26398D01*
X101112D02*
X102412D01*
X101112Y-31398D02*
Y-26398D01*
Y-31398D02*
X102412D01*
X103912D02*
X105412D01*
X103912Y-26398D02*
X105412D01*
X103623Y-20974D02*
Y-20624D01*
X103573Y-20474D02*
X103623Y-20624D01*
X103573Y-21074D02*
Y-20474D01*
X103473Y-21174D02*
X103573Y-21074D01*
X103473Y-21174D02*
Y-20424D01*
X103373Y-20374D02*
X103473Y-20424D01*
X103373Y-21174D02*
Y-20374D01*
X103273Y-21224D02*
X103373Y-21174D01*
X103273Y-21224D02*
Y-20324D01*
X105373Y-23274D02*
Y-18274D01*
X101073D02*
X102373D01*
X101073Y-23274D02*
Y-18274D01*
Y-23274D02*
X102373D01*
X103873D02*
X105373D01*
X103873Y-18274D02*
X105373D01*
X103741Y-12851D02*
Y-12501D01*
X103691Y-12351D02*
X103741Y-12501D01*
X103691Y-12951D02*
Y-12351D01*
X103591Y-13051D02*
X103691Y-12951D01*
X103591Y-13051D02*
Y-12301D01*
X103491Y-12251D02*
X103591Y-12301D01*
X103491Y-13051D02*
Y-12251D01*
X103391Y-13101D02*
X103491Y-13051D01*
X103391Y-13101D02*
Y-12201D01*
X105491Y-15151D02*
Y-10151D01*
X101191D02*
X102491D01*
X101191Y-15151D02*
Y-10151D01*
Y-15151D02*
X102491D01*
X103991D02*
X105491D01*
X103991Y-10151D02*
X105491D01*
X103731Y-4728D02*
Y-4378D01*
X103681Y-4228D02*
X103731Y-4378D01*
X103681Y-4828D02*
Y-4228D01*
X103581Y-4928D02*
X103681Y-4828D01*
X103581Y-4928D02*
Y-4178D01*
X103481Y-4128D02*
X103581Y-4178D01*
X103481Y-4928D02*
Y-4128D01*
X103381Y-4978D02*
X103481Y-4928D01*
X103381Y-4978D02*
Y-4078D01*
X105481Y-7028D02*
Y-2028D01*
X101181D02*
X102481D01*
X101181Y-7028D02*
Y-2028D01*
Y-7028D02*
X102481D01*
X103981D02*
X105481D01*
X103981Y-2028D02*
X105481D01*
X100302Y-35634D02*
Y-35035D01*
X100602D01*
X100702Y-35135D01*
Y-35335D01*
X100602Y-35434D01*
X100302D01*
X100502D02*
X100702Y-35634D01*
X101202D02*
Y-35035D01*
X100902Y-35335D01*
X101302D01*
X37159Y-5718D02*
X37359D01*
X37259D01*
Y-5218D01*
X37359Y-5118D01*
X37459D01*
X37559Y-5218D01*
X36959Y-5618D02*
X36859Y-5718D01*
X36659D01*
X36559Y-5618D01*
Y-5518D01*
X36659Y-5418D01*
X36759D01*
X36659D01*
X36559Y-5318D01*
Y-5218D01*
X36659Y-5118D01*
X36859D01*
X36959Y-5218D01*
X36359Y-5018D02*
X35960D01*
X35760Y-5718D02*
Y-5118D01*
X35460D01*
X35360Y-5218D01*
Y-5618D01*
X35460Y-5718D01*
X35760D01*
X35160D02*
X34960D01*
X35060D01*
Y-5118D01*
X35160D01*
X34960D01*
X34260Y-5618D02*
X34360Y-5718D01*
X34560D01*
X34660Y-5618D01*
Y-5518D01*
X34560Y-5418D01*
X34360D01*
X34260Y-5318D01*
Y-5218D01*
X34360Y-5118D01*
X34560D01*
X34660Y-5218D01*
X34060Y-5118D02*
Y-5718D01*
X33760D01*
X33660Y-5618D01*
Y-5418D01*
X33760Y-5318D01*
X34060D01*
X33460Y-5618D02*
X33360Y-5718D01*
X33160D01*
X33061Y-5618D01*
Y-5218D01*
X33160Y-5118D01*
X33360D01*
X33460Y-5218D01*
Y-5618D01*
X83559Y-1516D02*
X83359D01*
X83459D01*
Y-2016D01*
X83359Y-2116D01*
X83259D01*
X83159Y-2016D01*
X83759Y-1616D02*
X83859Y-1516D01*
X84059D01*
X84159Y-1616D01*
Y-1716D01*
X84059Y-1816D01*
X83959D01*
X84059D01*
X84159Y-1916D01*
Y-2016D01*
X84059Y-2116D01*
X83859D01*
X83759Y-2016D01*
X84359Y-2216D02*
X84759D01*
X84959Y-1516D02*
Y-2116D01*
X85259D01*
X85359Y-2016D01*
Y-1616D01*
X85259Y-1516D01*
X84959D01*
X85559D02*
X85759D01*
X85659D01*
Y-2116D01*
X85559D01*
X85759D01*
X86458Y-1616D02*
X86358Y-1516D01*
X86158D01*
X86059Y-1616D01*
Y-1716D01*
X86158Y-1816D01*
X86358D01*
X86458Y-1916D01*
Y-2016D01*
X86358Y-2116D01*
X86158D01*
X86059Y-2016D01*
X86658Y-2116D02*
Y-1516D01*
X86958D01*
X87058Y-1616D01*
Y-1816D01*
X86958Y-1916D01*
X86658D01*
X87258Y-2116D02*
X87458D01*
X87358D01*
Y-1516D01*
X87258Y-1616D01*
X83668Y-9590D02*
X83468D01*
X83568D01*
Y-10090D01*
X83468Y-10190D01*
X83368D01*
X83268Y-10090D01*
X83868Y-9690D02*
X83967Y-9590D01*
X84167D01*
X84267Y-9690D01*
Y-9790D01*
X84167Y-9890D01*
X84067D01*
X84167D01*
X84267Y-9990D01*
Y-10090D01*
X84167Y-10190D01*
X83967D01*
X83868Y-10090D01*
X84467Y-10290D02*
X84867D01*
X85067Y-9590D02*
Y-10190D01*
X85367D01*
X85467Y-10090D01*
Y-9690D01*
X85367Y-9590D01*
X85067D01*
X85667D02*
X85867D01*
X85767D01*
Y-10190D01*
X85667D01*
X85867D01*
X86567Y-9690D02*
X86467Y-9590D01*
X86267D01*
X86167Y-9690D01*
Y-9790D01*
X86267Y-9890D01*
X86467D01*
X86567Y-9990D01*
Y-10090D01*
X86467Y-10190D01*
X86267D01*
X86167Y-10090D01*
X86767Y-10190D02*
Y-9590D01*
X87066D01*
X87166Y-9690D01*
Y-9890D01*
X87066Y-9990D01*
X86767D01*
X87766Y-10190D02*
X87366D01*
X87766Y-9790D01*
Y-9690D01*
X87666Y-9590D01*
X87466D01*
X87366Y-9690D01*
X83638Y-17664D02*
X83438D01*
X83538D01*
Y-18164D01*
X83438Y-18264D01*
X83338D01*
X83238Y-18164D01*
X83838Y-17764D02*
X83938Y-17664D01*
X84138D01*
X84238Y-17764D01*
Y-17864D01*
X84138Y-17964D01*
X84038D01*
X84138D01*
X84238Y-18064D01*
Y-18164D01*
X84138Y-18264D01*
X83938D01*
X83838Y-18164D01*
X84438Y-18364D02*
X84838D01*
X85038Y-17664D02*
Y-18264D01*
X85338D01*
X85437Y-18164D01*
Y-17764D01*
X85338Y-17664D01*
X85038D01*
X85637D02*
X85837D01*
X85737D01*
Y-18264D01*
X85637D01*
X85837D01*
X86537Y-17764D02*
X86437Y-17664D01*
X86237D01*
X86137Y-17764D01*
Y-17864D01*
X86237Y-17964D01*
X86437D01*
X86537Y-18064D01*
Y-18164D01*
X86437Y-18264D01*
X86237D01*
X86137Y-18164D01*
X86737Y-18264D02*
Y-17664D01*
X87037D01*
X87137Y-17764D01*
Y-17964D01*
X87037Y-18064D01*
X86737D01*
X87337Y-17764D02*
X87437Y-17664D01*
X87637D01*
X87737Y-17764D01*
Y-17864D01*
X87637Y-17964D01*
X87537D01*
X87637D01*
X87737Y-18064D01*
Y-18164D01*
X87637Y-18264D01*
X87437D01*
X87337Y-18164D01*
X83599Y-25738D02*
X83399D01*
X83499D01*
Y-26238D01*
X83399Y-26338D01*
X83299D01*
X83199Y-26238D01*
X83799Y-25838D02*
X83899Y-25738D01*
X84099D01*
X84199Y-25838D01*
Y-25938D01*
X84099Y-26038D01*
X83999D01*
X84099D01*
X84199Y-26138D01*
Y-26238D01*
X84099Y-26338D01*
X83899D01*
X83799Y-26238D01*
X84398Y-26438D02*
X84798D01*
X84998Y-25738D02*
Y-26338D01*
X85298D01*
X85398Y-26238D01*
Y-25838D01*
X85298Y-25738D01*
X84998D01*
X85598D02*
X85798D01*
X85698D01*
Y-26338D01*
X85598D01*
X85798D01*
X86498Y-25838D02*
X86398Y-25738D01*
X86198D01*
X86098Y-25838D01*
Y-25938D01*
X86198Y-26038D01*
X86398D01*
X86498Y-26138D01*
Y-26238D01*
X86398Y-26338D01*
X86198D01*
X86098Y-26238D01*
X86698Y-26338D02*
Y-25738D01*
X86998D01*
X87098Y-25838D01*
Y-26038D01*
X86998Y-26138D01*
X86698D01*
X87597Y-26338D02*
Y-25738D01*
X87297Y-26038D01*
X87697D01*
X121532Y-434D02*
X121332D01*
X121432D01*
Y-934D01*
X121332Y-1033D01*
X121232D01*
X121132Y-934D01*
X121732Y-534D02*
X121832Y-434D01*
X122032D01*
X122132Y-534D01*
Y-634D01*
X122032Y-734D01*
X121932D01*
X122032D01*
X122132Y-834D01*
Y-934D01*
X122032Y-1033D01*
X121832D01*
X121732Y-934D01*
X122331Y-1133D02*
X122731D01*
X122931Y-434D02*
Y-1033D01*
X123231D01*
X123331Y-934D01*
Y-534D01*
X123231Y-434D01*
X122931D01*
X123531D02*
X123731D01*
X123631D01*
Y-1033D01*
X123531D01*
X123731D01*
X124431Y-534D02*
X124331Y-434D01*
X124131D01*
X124031Y-534D01*
Y-634D01*
X124131Y-734D01*
X124331D01*
X124431Y-834D01*
Y-934D01*
X124331Y-1033D01*
X124131D01*
X124031Y-934D01*
X124631Y-1033D02*
Y-434D01*
X124931D01*
X125031Y-534D01*
Y-734D01*
X124931Y-834D01*
X124631D01*
X125630Y-434D02*
X125231D01*
Y-734D01*
X125430Y-634D01*
X125530D01*
X125630Y-734D01*
Y-934D01*
X125530Y-1033D01*
X125331D01*
X125231Y-934D01*
X121197Y-5749D02*
X120997D01*
X121097D01*
Y-6248D01*
X120997Y-6348D01*
X120897D01*
X120797Y-6248D01*
X121397Y-5849D02*
X121497Y-5749D01*
X121697D01*
X121797Y-5849D01*
Y-5949D01*
X121697Y-6049D01*
X121597D01*
X121697D01*
X121797Y-6148D01*
Y-6248D01*
X121697Y-6348D01*
X121497D01*
X121397Y-6248D01*
X121997Y-6448D02*
X122397D01*
X122597Y-5749D02*
Y-6348D01*
X122897D01*
X122997Y-6248D01*
Y-5849D01*
X122897Y-5749D01*
X122597D01*
X123196D02*
X123396D01*
X123296D01*
Y-6348D01*
X123196D01*
X123396D01*
X124096Y-5849D02*
X123996Y-5749D01*
X123796D01*
X123696Y-5849D01*
Y-5949D01*
X123796Y-6049D01*
X123996D01*
X124096Y-6148D01*
Y-6248D01*
X123996Y-6348D01*
X123796D01*
X123696Y-6248D01*
X124296Y-6348D02*
Y-5749D01*
X124596D01*
X124696Y-5849D01*
Y-6049D01*
X124596Y-6148D01*
X124296D01*
X125296Y-5749D02*
X125096Y-5849D01*
X124896Y-6049D01*
Y-6248D01*
X124996Y-6348D01*
X125196D01*
X125296Y-6248D01*
Y-6148D01*
X125196Y-6049D01*
X124896D01*
X89188Y-33290D02*
Y-32690D01*
X89488D01*
X89588Y-32790D01*
Y-32990D01*
X89488Y-33090D01*
X89188D01*
X89788Y-32790D02*
X89888Y-32690D01*
X90088D01*
X90188Y-32790D01*
Y-32890D01*
X90088Y-32990D01*
X90188Y-33090D01*
Y-33190D01*
X90088Y-33290D01*
X89888D01*
X89788Y-33190D01*
Y-33090D01*
X89888Y-32990D01*
X89788Y-32890D01*
Y-32790D01*
X89888Y-32990D02*
X90088D01*
X30955Y-296D02*
Y304D01*
X31255D01*
X31355Y204D01*
Y4D01*
X31255Y-96D01*
X30955D01*
X31155D02*
X31355Y-296D01*
X31555Y-196D02*
X31655Y-296D01*
X31854D01*
X31954Y-196D01*
Y204D01*
X31854Y304D01*
X31655D01*
X31555Y204D01*
Y104D01*
X31655Y4D01*
X31954D01*
X32154Y-396D02*
X32554D01*
X32754Y304D02*
Y-296D01*
X33054D01*
X33154Y-196D01*
Y204D01*
X33054Y304D01*
X32754D01*
X33354D02*
X33554D01*
X33454D01*
Y-296D01*
X33354D01*
X33554D01*
X34254Y204D02*
X34154Y304D01*
X33954D01*
X33854Y204D01*
Y104D01*
X33954Y4D01*
X34154D01*
X34254Y-96D01*
Y-196D01*
X34154Y-296D01*
X33954D01*
X33854Y-196D01*
X34454Y-296D02*
Y304D01*
X34753D01*
X34853Y204D01*
Y4D01*
X34753Y-96D01*
X34454D01*
X35053Y204D02*
X35153Y304D01*
X35353D01*
X35453Y204D01*
Y-196D01*
X35353Y-296D01*
X35153D01*
X35053Y-196D01*
Y204D01*
X100336Y-8206D02*
X100236Y-8306D01*
Y-8506D01*
X100336Y-8606D01*
X100436D01*
X100536Y-8506D01*
Y-8306D01*
X100635Y-8206D01*
X100735D01*
X100835Y-8306D01*
Y-8506D01*
X100735Y-8606D01*
X100835Y-8006D02*
Y-7807D01*
Y-7907D01*
X100236D01*
X100336Y-8006D01*
X100935Y-7507D02*
Y-7107D01*
X100835Y-6907D02*
X100436D01*
X100236Y-6707D01*
X100436Y-6507D01*
X100835D01*
X100536D01*
Y-6907D01*
X100835Y-6307D02*
Y-6107D01*
Y-6207D01*
X100236D01*
X100336Y-6307D01*
X100345Y-16330D02*
X100245Y-16430D01*
Y-16630D01*
X100345Y-16730D01*
X100445D01*
X100545Y-16630D01*
Y-16430D01*
X100645Y-16330D01*
X100745D01*
X100845Y-16430D01*
Y-16630D01*
X100745Y-16730D01*
X100845Y-16130D02*
Y-15930D01*
Y-16030D01*
X100245D01*
X100345Y-16130D01*
X100945Y-15630D02*
Y-15230D01*
X100845Y-15030D02*
X100445D01*
X100245Y-14830D01*
X100445Y-14630D01*
X100845D01*
X100545D01*
Y-15030D01*
X100845Y-14031D02*
Y-14430D01*
X100445Y-14031D01*
X100345D01*
X100245Y-14131D01*
Y-14330D01*
X100345Y-14430D01*
X100227Y-24453D02*
X100127Y-24553D01*
Y-24753D01*
X100227Y-24853D01*
X100327D01*
X100427Y-24753D01*
Y-24553D01*
X100527Y-24453D01*
X100627D01*
X100727Y-24553D01*
Y-24753D01*
X100627Y-24853D01*
X100727Y-24253D02*
Y-24053D01*
Y-24153D01*
X100127D01*
X100227Y-24253D01*
X100827Y-23753D02*
Y-23354D01*
X100727Y-23154D02*
X100327D01*
X100127Y-22954D01*
X100327Y-22754D01*
X100727D01*
X100427D01*
Y-23154D01*
X100227Y-22554D02*
X100127Y-22454D01*
Y-22254D01*
X100227Y-22154D01*
X100327D01*
X100427Y-22254D01*
Y-22354D01*
Y-22254D01*
X100527Y-22154D01*
X100627D01*
X100727Y-22254D01*
Y-22454D01*
X100627Y-22554D01*
X100267Y-32577D02*
X100167Y-32676D01*
Y-32876D01*
X100267Y-32976D01*
X100367D01*
X100467Y-32876D01*
Y-32676D01*
X100567Y-32577D01*
X100667D01*
X100767Y-32676D01*
Y-32876D01*
X100667Y-32976D01*
X100767Y-32377D02*
Y-32177D01*
Y-32277D01*
X100167D01*
X100267Y-32377D01*
X100866Y-31877D02*
Y-31477D01*
X100767Y-31277D02*
X100367D01*
X100167Y-31077D01*
X100367Y-30877D01*
X100767D01*
X100467D01*
Y-31277D01*
X100767Y-30377D02*
X100167D01*
X100467Y-30677D01*
Y-30277D01*
X119358Y-10361D02*
X119458Y-10261D01*
Y-10061D01*
X119358Y-9961D01*
X119258D01*
X119158Y-10061D01*
Y-10261D01*
X119058Y-10361D01*
X118958D01*
X118858Y-10261D01*
Y-10061D01*
X118958Y-9961D01*
X118858Y-10560D02*
Y-10760D01*
Y-10660D01*
X119458D01*
X119358Y-10560D01*
X118758Y-11060D02*
Y-11460D01*
X118858Y-11660D02*
X119258D01*
X119458Y-11860D01*
X119258Y-12060D01*
X118858D01*
X119158D01*
Y-11660D01*
X119458Y-12660D02*
Y-12260D01*
X119158D01*
X119258Y-12460D01*
Y-12560D01*
X119158Y-12660D01*
X118958D01*
X118858Y-12560D01*
Y-12360D01*
X118958Y-12260D01*
X119358Y-18647D02*
X119458Y-18547D01*
Y-18347D01*
X119358Y-18247D01*
X119258D01*
X119158Y-18347D01*
Y-18547D01*
X119058Y-18647D01*
X118958D01*
X118858Y-18547D01*
Y-18347D01*
X118958Y-18247D01*
X118858Y-18847D02*
Y-19046D01*
Y-18946D01*
X119458D01*
X119358Y-18847D01*
X118758Y-19346D02*
Y-19746D01*
X118858Y-19946D02*
X119258D01*
X119458Y-20146D01*
X119258Y-20346D01*
X118858D01*
X119158D01*
Y-19946D01*
X119458Y-20946D02*
X119358Y-20746D01*
X119158Y-20546D01*
X118958D01*
X118858Y-20646D01*
Y-20846D01*
X118958Y-20946D01*
X119058D01*
X119158Y-20846D01*
Y-20546D01*
X119358Y-26933D02*
X119458Y-26833D01*
Y-26633D01*
X119358Y-26533D01*
X119258D01*
X119158Y-26633D01*
Y-26833D01*
X119058Y-26933D01*
X118958D01*
X118858Y-26833D01*
Y-26633D01*
X118958Y-26533D01*
X118858Y-27133D02*
Y-27333D01*
Y-27233D01*
X119458D01*
X119358Y-27133D01*
X118758Y-27632D02*
Y-28032D01*
X118858Y-28232D02*
X119258D01*
X119458Y-28432D01*
X119258Y-28632D01*
X118858D01*
X119158D01*
Y-28232D01*
X119458Y-28832D02*
Y-29232D01*
X119358D01*
X118958Y-28832D01*
X118858D01*
X119358Y-35219D02*
X119458Y-35119D01*
Y-34919D01*
X119358Y-34819D01*
X119258D01*
X119158Y-34919D01*
Y-35119D01*
X119058Y-35219D01*
X118958D01*
X118858Y-35119D01*
Y-34919D01*
X118958Y-34819D01*
X118858Y-35419D02*
Y-35619D01*
Y-35519D01*
X119458D01*
X119358Y-35419D01*
X118758Y-35919D02*
Y-36318D01*
X118858Y-36518D02*
X119258D01*
X119458Y-36718D01*
X119258Y-36918D01*
X118858D01*
X119158D01*
Y-36518D01*
X119358Y-37118D02*
X119458Y-37218D01*
Y-37418D01*
X119358Y-37518D01*
X119258D01*
X119158Y-37418D01*
X119058Y-37518D01*
X118958D01*
X118858Y-37418D01*
Y-37218D01*
X118958Y-37118D01*
X119058D01*
X119158Y-37218D01*
X119258Y-37118D01*
X119358D01*
X119158Y-37218D02*
Y-37418D01*
X10242Y-11114D02*
X10142Y-11014D01*
X9942D01*
X9843Y-11114D01*
Y-11214D01*
X9942Y-11314D01*
X10142D01*
X10242Y-11414D01*
Y-11514D01*
X10142Y-11614D01*
X9942D01*
X9843Y-11514D01*
X10442Y-11614D02*
X10642D01*
X10542D01*
Y-11014D01*
X10442Y-11114D01*
X10942Y-11714D02*
X11342D01*
X11542Y-11614D02*
Y-11014D01*
X11942Y-11614D01*
Y-11014D01*
X12142Y-11614D02*
X12342D01*
X12242D01*
Y-11014D01*
X12142Y-11114D01*
X20085Y-11311D02*
X19985Y-11211D01*
X19785D01*
X19685Y-11311D01*
Y-11411D01*
X19785Y-11511D01*
X19985D01*
X20085Y-11611D01*
Y-11711D01*
X19985Y-11811D01*
X19785D01*
X19685Y-11711D01*
X20285Y-11811D02*
X20485D01*
X20385D01*
Y-11211D01*
X20285Y-11311D01*
X20785Y-11911D02*
X21185D01*
X21384Y-11811D02*
Y-11211D01*
X21784Y-11811D01*
Y-11211D01*
X22384Y-11811D02*
X21984D01*
X22384Y-11411D01*
Y-11311D01*
X22284Y-11211D01*
X22084D01*
X21984Y-11311D01*
X30124D02*
X30024Y-11211D01*
X29824D01*
X29724Y-11311D01*
Y-11411D01*
X29824Y-11511D01*
X30024D01*
X30124Y-11611D01*
Y-11711D01*
X30024Y-11811D01*
X29824D01*
X29724Y-11711D01*
X30324Y-11811D02*
X30524D01*
X30424D01*
Y-11211D01*
X30324Y-11311D01*
X30824Y-11911D02*
X31224D01*
X31424Y-11811D02*
Y-11211D01*
X31824Y-11811D01*
Y-11211D01*
X32024Y-11311D02*
X32124Y-11211D01*
X32324D01*
X32424Y-11311D01*
Y-11411D01*
X32324Y-11511D01*
X32224D01*
X32324D01*
X32424Y-11611D01*
Y-11711D01*
X32324Y-11811D01*
X32124D01*
X32024Y-11711D01*
X39573Y-11311D02*
X39473Y-11211D01*
X39273D01*
X39173Y-11311D01*
Y-11411D01*
X39273Y-11511D01*
X39473D01*
X39573Y-11611D01*
Y-11711D01*
X39473Y-11811D01*
X39273D01*
X39173Y-11711D01*
X39773Y-11811D02*
X39973D01*
X39873D01*
Y-11211D01*
X39773Y-11311D01*
X40273Y-11911D02*
X40673D01*
X40873Y-11811D02*
Y-11211D01*
X41273Y-11811D01*
Y-11211D01*
X41772Y-11811D02*
Y-11211D01*
X41472Y-11511D01*
X41872D01*
X49612Y-11311D02*
X49513Y-11211D01*
X49313D01*
X49213Y-11311D01*
Y-11411D01*
X49313Y-11511D01*
X49513D01*
X49612Y-11611D01*
Y-11711D01*
X49513Y-11811D01*
X49313D01*
X49213Y-11711D01*
X49812Y-11811D02*
X50012D01*
X49912D01*
Y-11211D01*
X49812Y-11311D01*
X50312Y-11911D02*
X50712D01*
X50912Y-11811D02*
Y-11211D01*
X51312Y-11811D01*
Y-11211D01*
X51912D02*
X51512D01*
Y-11511D01*
X51712Y-11411D01*
X51812D01*
X51912Y-11511D01*
Y-11711D01*
X51812Y-11811D01*
X51612D01*
X51512Y-11711D01*
X59455Y-11311D02*
X59355Y-11211D01*
X59155D01*
X59055Y-11311D01*
Y-11411D01*
X59155Y-11511D01*
X59355D01*
X59455Y-11611D01*
Y-11711D01*
X59355Y-11811D01*
X59155D01*
X59055Y-11711D01*
X59655Y-11811D02*
X59855D01*
X59755D01*
Y-11211D01*
X59655Y-11311D01*
X60155Y-11911D02*
X60555D01*
X60755Y-11811D02*
Y-11211D01*
X61154Y-11811D01*
Y-11211D01*
X61754D02*
X61554Y-11311D01*
X61354Y-11511D01*
Y-11711D01*
X61454Y-11811D01*
X61654D01*
X61754Y-11711D01*
Y-11611D01*
X61654Y-11511D01*
X61354D01*
X69298Y-11311D02*
X69198Y-11211D01*
X68998D01*
X68898Y-11311D01*
Y-11411D01*
X68998Y-11511D01*
X69198D01*
X69298Y-11611D01*
Y-11711D01*
X69198Y-11811D01*
X68998D01*
X68898Y-11711D01*
X69497Y-11811D02*
X69697D01*
X69597D01*
Y-11211D01*
X69497Y-11311D01*
X69997Y-11911D02*
X70397D01*
X70597Y-11811D02*
Y-11211D01*
X70997Y-11811D01*
Y-11211D01*
X71197D02*
X71597D01*
Y-11311D01*
X71197Y-11711D01*
Y-11811D01*
X79140Y-11311D02*
X79040Y-11211D01*
X78840D01*
X78740Y-11311D01*
Y-11411D01*
X78840Y-11511D01*
X79040D01*
X79140Y-11611D01*
Y-11711D01*
X79040Y-11811D01*
X78840D01*
X78740Y-11711D01*
X79340Y-11811D02*
X79540D01*
X79440D01*
Y-11211D01*
X79340Y-11311D01*
X79840Y-11911D02*
X80240D01*
X80440Y-11811D02*
Y-11211D01*
X80839Y-11811D01*
Y-11211D01*
X81039Y-11311D02*
X81139Y-11211D01*
X81339D01*
X81439Y-11311D01*
Y-11411D01*
X81339Y-11511D01*
X81439Y-11611D01*
Y-11711D01*
X81339Y-11811D01*
X81139D01*
X81039Y-11711D01*
Y-11611D01*
X81139Y-11511D01*
X81039Y-11411D01*
Y-11311D01*
X81139Y-11511D02*
X81339D01*
X10242Y-21154D02*
X10142Y-21054D01*
X9942D01*
X9843Y-21154D01*
Y-21254D01*
X9942Y-21354D01*
X10142D01*
X10242Y-21454D01*
Y-21554D01*
X10142Y-21654D01*
X9942D01*
X9843Y-21554D01*
X10442Y-21654D02*
X10642D01*
X10542D01*
Y-21054D01*
X10442Y-21154D01*
X10942Y-21754D02*
X11342D01*
X11542Y-21654D02*
Y-21054D01*
X11942Y-21654D01*
Y-21054D01*
X12142Y-21554D02*
X12242Y-21654D01*
X12442D01*
X12542Y-21554D01*
Y-21154D01*
X12442Y-21054D01*
X12242D01*
X12142Y-21154D01*
Y-21254D01*
X12242Y-21354D01*
X12542D01*
X20085Y-21154D02*
X19985Y-21054D01*
X19785D01*
X19685Y-21154D01*
Y-21254D01*
X19785Y-21354D01*
X19985D01*
X20085Y-21454D01*
Y-21554D01*
X19985Y-21654D01*
X19785D01*
X19685Y-21554D01*
X20285Y-21654D02*
X20485D01*
X20385D01*
Y-21054D01*
X20285Y-21154D01*
X20785Y-21754D02*
X21185D01*
X21384Y-21654D02*
Y-21054D01*
X21784Y-21654D01*
Y-21054D01*
X21984Y-21654D02*
X22184D01*
X22084D01*
Y-21054D01*
X21984Y-21154D01*
X22484D02*
X22584Y-21054D01*
X22784D01*
X22884Y-21154D01*
Y-21554D01*
X22784Y-21654D01*
X22584D01*
X22484Y-21554D01*
Y-21154D01*
X29927D02*
X29827Y-21054D01*
X29628D01*
X29528Y-21154D01*
Y-21254D01*
X29628Y-21354D01*
X29827D01*
X29927Y-21454D01*
Y-21554D01*
X29827Y-21654D01*
X29628D01*
X29528Y-21554D01*
X30127Y-21654D02*
X30327D01*
X30227D01*
Y-21054D01*
X30127Y-21154D01*
X30627Y-21754D02*
X31027D01*
X31227Y-21654D02*
Y-21054D01*
X31627Y-21654D01*
Y-21054D01*
X31827Y-21654D02*
X32027D01*
X31927D01*
Y-21054D01*
X31827Y-21154D01*
X32327Y-21654D02*
X32527D01*
X32427D01*
Y-21054D01*
X32327Y-21154D01*
X39967D02*
X39867Y-21054D01*
X39667D01*
X39567Y-21154D01*
Y-21254D01*
X39667Y-21354D01*
X39867D01*
X39967Y-21454D01*
Y-21554D01*
X39867Y-21654D01*
X39667D01*
X39567Y-21554D01*
X40167Y-21654D02*
X40367D01*
X40267D01*
Y-21054D01*
X40167Y-21154D01*
X40667Y-21754D02*
X41066D01*
X41266Y-21654D02*
Y-21054D01*
X41666Y-21654D01*
Y-21054D01*
X41866Y-21654D02*
X42066D01*
X41966D01*
Y-21054D01*
X41866Y-21154D01*
X42766Y-21654D02*
X42366D01*
X42766Y-21254D01*
Y-21154D01*
X42666Y-21054D01*
X42466D01*
X42366Y-21154D01*
X49809D02*
X49709Y-21054D01*
X49509D01*
X49409Y-21154D01*
Y-21254D01*
X49509Y-21354D01*
X49709D01*
X49809Y-21454D01*
Y-21554D01*
X49709Y-21654D01*
X49509D01*
X49409Y-21554D01*
X50009Y-21654D02*
X50209D01*
X50109D01*
Y-21054D01*
X50009Y-21154D01*
X50509Y-21754D02*
X50909D01*
X51109Y-21654D02*
Y-21054D01*
X51509Y-21654D01*
Y-21054D01*
X51709Y-21654D02*
X51909D01*
X51809D01*
Y-21054D01*
X51709Y-21154D01*
X52209D02*
X52309Y-21054D01*
X52508D01*
X52608Y-21154D01*
Y-21254D01*
X52508Y-21354D01*
X52408D01*
X52508D01*
X52608Y-21454D01*
Y-21554D01*
X52508Y-21654D01*
X52309D01*
X52209Y-21554D01*
X59652Y-21154D02*
X59552Y-21054D01*
X59352D01*
X59252Y-21154D01*
Y-21254D01*
X59352Y-21354D01*
X59552D01*
X59652Y-21454D01*
Y-21554D01*
X59552Y-21654D01*
X59352D01*
X59252Y-21554D01*
X59852Y-21654D02*
X60052D01*
X59952D01*
Y-21054D01*
X59852Y-21154D01*
X60352Y-21754D02*
X60751D01*
X60951Y-21654D02*
Y-21054D01*
X61351Y-21654D01*
Y-21054D01*
X61551Y-21654D02*
X61751D01*
X61651D01*
Y-21054D01*
X61551Y-21154D01*
X62351Y-21654D02*
Y-21054D01*
X62051Y-21354D01*
X62451D01*
X69494Y-21154D02*
X69394Y-21054D01*
X69194D01*
X69094Y-21154D01*
Y-21254D01*
X69194Y-21354D01*
X69394D01*
X69494Y-21454D01*
Y-21554D01*
X69394Y-21654D01*
X69194D01*
X69094Y-21554D01*
X69694Y-21654D02*
X69894D01*
X69794D01*
Y-21054D01*
X69694Y-21154D01*
X70194Y-21754D02*
X70594D01*
X70794Y-21654D02*
Y-21054D01*
X71194Y-21654D01*
Y-21054D01*
X71394Y-21654D02*
X71594D01*
X71494D01*
Y-21054D01*
X71394Y-21154D01*
X72293Y-21054D02*
X71894D01*
Y-21354D01*
X72094Y-21254D01*
X72193D01*
X72293Y-21354D01*
Y-21554D01*
X72193Y-21654D01*
X71994D01*
X71894Y-21554D01*
X79140Y-21154D02*
X79040Y-21054D01*
X78840D01*
X78740Y-21154D01*
Y-21254D01*
X78840Y-21354D01*
X79040D01*
X79140Y-21454D01*
Y-21554D01*
X79040Y-21654D01*
X78840D01*
X78740Y-21554D01*
X79340Y-21654D02*
X79540D01*
X79440D01*
Y-21054D01*
X79340Y-21154D01*
X79840Y-21754D02*
X80240D01*
X80440Y-21654D02*
Y-21054D01*
X80839Y-21654D01*
Y-21054D01*
X81039Y-21654D02*
X81239D01*
X81139D01*
Y-21054D01*
X81039Y-21154D01*
X81939Y-21054D02*
X81739Y-21154D01*
X81539Y-21354D01*
Y-21554D01*
X81639Y-21654D01*
X81839D01*
X81939Y-21554D01*
Y-21454D01*
X81839Y-21354D01*
X81539D01*
X32294Y-23121D02*
Y-22521D01*
X32594D01*
X32694Y-22621D01*
Y-22821D01*
X32594Y-22921D01*
X32294D01*
X32894Y-22621D02*
X32994Y-22521D01*
X33194D01*
X33294Y-22621D01*
Y-22721D01*
X33194Y-22821D01*
X33094D01*
X33194D01*
X33294Y-22921D01*
Y-23021D01*
X33194Y-23121D01*
X32994D01*
X32894Y-23021D01*
X51684Y-23251D02*
Y-22651D01*
X51984D01*
X52084Y-22751D01*
Y-22951D01*
X51984Y-23051D01*
X51684D01*
X52684Y-23251D02*
X52284D01*
X52684Y-22851D01*
Y-22751D01*
X52584Y-22651D01*
X52384D01*
X52284Y-22751D01*
X72034Y-23071D02*
Y-22471D01*
X72333D01*
X72433Y-22571D01*
Y-22771D01*
X72333Y-22871D01*
X72034D01*
X72633Y-23071D02*
X72833D01*
X72733D01*
Y-22471D01*
X72633Y-22571D01*
X12754Y-23051D02*
Y-22451D01*
X13054D01*
X13154Y-22551D01*
Y-22751D01*
X13054Y-22851D01*
X12754D01*
X13654Y-23051D02*
Y-22451D01*
X13354Y-22751D01*
X13754D01*
D38*
X34912Y-1378D02*
G03*
X34912Y-1378I-150J0D01*
G01*
X84085Y-3770D02*
G03*
X84085Y-3770I-150J0D01*
G01*
X84194Y-11844D02*
G03*
X84194Y-11844I-150J0D01*
G01*
X84164Y-19918D02*
G03*
X84164Y-19918I-150J0D01*
G01*
X84125Y-27992D02*
G03*
X84125Y-27992I-150J0D01*
G01*
X122117Y-2037D02*
G03*
X122117Y-2037I-150J0D01*
G01*
Y-6959D02*
G03*
X122117Y-6959I-150J0D01*
G01*
D39*
X35462Y-161D02*
X37292D01*
Y-4761D02*
Y-161D01*
X35462Y-4761D02*
X37292D01*
X35462Y-1187D02*
Y-161D01*
Y-4761D02*
Y-3734D01*
X84635Y-2552D02*
X86465D01*
Y-7152D02*
Y-2552D01*
X84635Y-7152D02*
X86465D01*
X84635Y-3579D02*
Y-2552D01*
Y-7152D02*
Y-6126D01*
X84744Y-10626D02*
X86574D01*
Y-15226D02*
Y-10626D01*
X84744Y-15226D02*
X86574D01*
X84744Y-11653D02*
Y-10626D01*
Y-15226D02*
Y-14200D01*
X84714Y-18700D02*
X86544D01*
Y-23300D02*
Y-18700D01*
X84714Y-23300D02*
X86544D01*
X84714Y-19727D02*
Y-18700D01*
Y-23300D02*
Y-22274D01*
X84675Y-26774D02*
X86505D01*
Y-31374D02*
Y-26774D01*
X84675Y-31374D02*
X86505D01*
X84675Y-27801D02*
Y-26774D01*
Y-31374D02*
Y-30348D01*
X122667Y-820D02*
X124497D01*
Y-5420D02*
Y-820D01*
X122667Y-5420D02*
X124497D01*
X122667Y-1846D02*
Y-820D01*
Y-5420D02*
Y-4394D01*
X122667Y-5742D02*
X124497D01*
Y-10342D02*
Y-5742D01*
X122667Y-10342D02*
X124497D01*
X122667Y-6768D02*
Y-5742D01*
Y-10342D02*
Y-9315D01*
D40*
X35512Y-3663D02*
Y-3830D01*
Y-3747D01*
X36012D01*
X35929Y-3663D01*
X35512Y-4413D02*
Y-4080D01*
X35845Y-4413D01*
X35929D01*
X36012Y-4330D01*
Y-4163D01*
X35929Y-4080D01*
X35512Y-1258D02*
Y-1425D01*
Y-1341D01*
X36012D01*
X35929Y-1258D01*
X35512D02*
Y-1425D01*
Y-1341D01*
X36012D01*
X35929Y-1258D01*
X84685Y-6055D02*
Y-6222D01*
Y-6138D01*
X85185D01*
X85102Y-6055D01*
X84685Y-6805D02*
Y-6472D01*
X85019Y-6805D01*
X85102D01*
X85185Y-6721D01*
Y-6555D01*
X85102Y-6472D01*
X84685Y-6055D02*
Y-6222D01*
Y-6138D01*
X85185D01*
X85102Y-6055D01*
X84685Y-6805D02*
Y-6472D01*
X85019Y-6805D01*
X85102D01*
X85185Y-6721D01*
Y-6555D01*
X85102Y-6472D01*
X84685Y-3650D02*
Y-3816D01*
Y-3733D01*
X85185D01*
X85102Y-3650D01*
X84685D02*
Y-3816D01*
Y-3733D01*
X85185D01*
X85102Y-3650D01*
X84794Y-14129D02*
Y-14296D01*
Y-14212D01*
X85293D01*
X85210Y-14129D01*
X84794Y-14879D02*
Y-14546D01*
X85127Y-14879D01*
X85210D01*
X85293Y-14796D01*
Y-14629D01*
X85210Y-14546D01*
X84794Y-14129D02*
Y-14296D01*
Y-14212D01*
X85293D01*
X85210Y-14129D01*
X84794Y-14879D02*
Y-14546D01*
X85127Y-14879D01*
X85210D01*
X85293Y-14796D01*
Y-14629D01*
X85210Y-14546D01*
X84794Y-11724D02*
Y-11890D01*
Y-11807D01*
X85293D01*
X85210Y-11724D01*
X84794D02*
Y-11890D01*
Y-11807D01*
X85293D01*
X85210Y-11724D01*
X84764Y-22203D02*
Y-22370D01*
Y-22286D01*
X85264D01*
X85181Y-22203D01*
X84764Y-22953D02*
Y-22620D01*
X85097Y-22953D01*
X85181D01*
X85264Y-22870D01*
Y-22703D01*
X85181Y-22620D01*
X84764Y-22203D02*
Y-22370D01*
Y-22286D01*
X85264D01*
X85181Y-22203D01*
X84764Y-22953D02*
Y-22620D01*
X85097Y-22953D01*
X85181D01*
X85264Y-22870D01*
Y-22703D01*
X85181Y-22620D01*
X84764Y-19798D02*
Y-19964D01*
Y-19881D01*
X85264D01*
X85181Y-19798D01*
X84764D02*
Y-19964D01*
Y-19881D01*
X85264D01*
X85181Y-19798D01*
X84725Y-30277D02*
Y-30444D01*
Y-30360D01*
X85225D01*
X85141Y-30277D01*
X84725Y-31027D02*
Y-30694D01*
X85058Y-31027D01*
X85141D01*
X85225Y-30944D01*
Y-30777D01*
X85141Y-30694D01*
X84725Y-30277D02*
Y-30444D01*
Y-30360D01*
X85225D01*
X85141Y-30277D01*
X84725Y-31027D02*
Y-30694D01*
X85058Y-31027D01*
X85141D01*
X85225Y-30944D01*
Y-30777D01*
X85141Y-30694D01*
X84725Y-27872D02*
Y-28038D01*
Y-27955D01*
X85225D01*
X85141Y-27872D01*
X84725D02*
Y-28038D01*
Y-27955D01*
X85225D01*
X85141Y-27872D01*
X122717Y-4323D02*
Y-4489D01*
Y-4406D01*
X123217D01*
X123133Y-4323D01*
X122717Y-5073D02*
Y-4739D01*
X123050Y-5073D01*
X123133D01*
X123217Y-4989D01*
Y-4823D01*
X123133Y-4739D01*
X122717Y-4323D02*
Y-4489D01*
Y-4406D01*
X123217D01*
X123133Y-4323D01*
X122717Y-5073D02*
Y-4739D01*
X123050Y-5073D01*
X123133D01*
X123217Y-4989D01*
Y-4823D01*
X123133Y-4739D01*
X122717Y-1917D02*
Y-2084D01*
Y-2001D01*
X123217D01*
X123133Y-1917D01*
X122717D02*
Y-2084D01*
Y-2001D01*
X123217D01*
X123133Y-1917D01*
X122717Y-9244D02*
Y-9411D01*
Y-9328D01*
X123217D01*
X123133Y-9244D01*
X122717Y-9994D02*
Y-9661D01*
X123050Y-9994D01*
X123133D01*
X123217Y-9911D01*
Y-9744D01*
X123133Y-9661D01*
X122717Y-9244D02*
Y-9411D01*
Y-9328D01*
X123217D01*
X123133Y-9244D01*
X122717Y-9994D02*
Y-9661D01*
X123050Y-9994D01*
X123133D01*
X123217Y-9911D01*
Y-9744D01*
X123133Y-9661D01*
X122717Y-6839D02*
Y-7006D01*
Y-6922D01*
X123217D01*
X123133Y-6839D01*
X122717D02*
Y-7006D01*
Y-6922D01*
X123217D01*
X123133Y-6839D01*
M02*
