G04 Layer_Color=8421504*
%FSLAX24Y24*%
%MOIN*%
G70*
G01*
G75*
%ADD11R,0.0430X0.0120*%
D11*
X35512Y-3543D02*
D03*
Y-3346D02*
D03*
Y-3150D02*
D03*
Y-2953D02*
D03*
Y-2756D02*
D03*
Y-2559D02*
D03*
Y-2362D02*
D03*
Y-2165D02*
D03*
Y-1969D02*
D03*
Y-1772D02*
D03*
Y-1575D02*
D03*
Y-1378D02*
D03*
X84685Y-5935D02*
D03*
Y-5738D02*
D03*
Y-5541D02*
D03*
Y-5344D02*
D03*
Y-5148D02*
D03*
Y-4951D02*
D03*
Y-4754D02*
D03*
Y-4557D02*
D03*
Y-4360D02*
D03*
Y-4163D02*
D03*
Y-3967D02*
D03*
Y-3770D02*
D03*
X84794Y-14009D02*
D03*
Y-13812D02*
D03*
Y-13615D02*
D03*
Y-13419D02*
D03*
Y-13222D02*
D03*
Y-13025D02*
D03*
Y-12828D02*
D03*
Y-12631D02*
D03*
Y-12434D02*
D03*
Y-12237D02*
D03*
Y-12041D02*
D03*
Y-11844D02*
D03*
X84764Y-22083D02*
D03*
Y-21886D02*
D03*
Y-21689D02*
D03*
Y-21493D02*
D03*
Y-21296D02*
D03*
Y-21099D02*
D03*
Y-20902D02*
D03*
Y-20705D02*
D03*
Y-20508D02*
D03*
Y-20311D02*
D03*
Y-20115D02*
D03*
Y-19918D02*
D03*
X84725Y-30157D02*
D03*
Y-29960D02*
D03*
Y-29763D02*
D03*
Y-29567D02*
D03*
Y-29370D02*
D03*
Y-29173D02*
D03*
Y-28976D02*
D03*
Y-28779D02*
D03*
Y-28582D02*
D03*
Y-28385D02*
D03*
Y-28189D02*
D03*
Y-27992D02*
D03*
X122717Y-4203D02*
D03*
Y-4006D02*
D03*
Y-3809D02*
D03*
Y-3612D02*
D03*
Y-3415D02*
D03*
Y-3218D02*
D03*
Y-3022D02*
D03*
Y-2825D02*
D03*
Y-2628D02*
D03*
Y-2431D02*
D03*
Y-2234D02*
D03*
Y-2037D02*
D03*
X122717Y-9124D02*
D03*
Y-8928D02*
D03*
Y-8731D02*
D03*
Y-8534D02*
D03*
Y-8337D02*
D03*
Y-8140D02*
D03*
Y-7943D02*
D03*
Y-7746D02*
D03*
Y-7550D02*
D03*
Y-7353D02*
D03*
Y-7156D02*
D03*
Y-6959D02*
D03*
M02*
