G04 Layer_Color=16711935*
%FSLAX24Y24*%
%MOIN*%
G70*
G01*
G75*
%ADD10C,0.0100*%
%ADD39C,0.0060*%
%ADD66C,0.0078*%
D10*
X92714Y-15092D02*
Y-14972D01*
X92274Y-15092D02*
X92714D01*
X92274D02*
Y-14972D01*
X92714D01*
Y-14832D02*
Y-14712D01*
X92274Y-14832D02*
X92714D01*
X92274D02*
Y-14712D01*
X92714D01*
Y-14592D02*
Y-14472D01*
X92274Y-14592D02*
X92714D01*
X92274D02*
Y-14462D01*
X92714Y-14472D01*
Y-14332D02*
Y-14212D01*
X92274Y-14332D02*
X92714D01*
X92274D02*
Y-14212D01*
X92714D01*
Y-14092D02*
Y-13972D01*
X92274Y-14092D02*
X92714D01*
X92274D02*
Y-13962D01*
X92714Y-13972D01*
Y-13832D02*
Y-13712D01*
X92274Y-13832D02*
X92714D01*
X92274D02*
Y-13712D01*
X92714D01*
Y-13592D02*
Y-13472D01*
X92274Y-13582D02*
X92714Y-13592D01*
X92274Y-13582D02*
Y-13462D01*
X92714Y-13472D01*
Y-13332D02*
Y-13212D01*
X92274Y-13332D02*
X92714D01*
X92274D02*
Y-13212D01*
X92714D01*
Y-13092D02*
Y-12972D01*
X92274Y-13092D02*
X92714D01*
X92274D02*
Y-12962D01*
X92714Y-12972D01*
Y-12832D02*
Y-12712D01*
X92274Y-12832D02*
X92714D01*
X92274D02*
Y-12712D01*
X92714D01*
Y-12592D02*
Y-12472D01*
X92274Y-12592D02*
X92714D01*
X92274D02*
Y-12472D01*
X92714D01*
Y-12332D02*
Y-12212D01*
X92274Y-12332D02*
X92714D01*
X92274D02*
Y-12212D01*
X92714D01*
X94274Y-12332D02*
Y-12212D01*
X94714D01*
Y-12332D02*
Y-12212D01*
X94274Y-12332D02*
X94714D01*
X94274Y-12592D02*
Y-12472D01*
X94714D01*
Y-12592D02*
Y-12472D01*
X94274Y-12592D02*
X94714D01*
X94274Y-12832D02*
Y-12712D01*
X94714D01*
Y-12842D02*
Y-12712D01*
X94274Y-12832D02*
X94714Y-12842D01*
X94274Y-13092D02*
Y-12972D01*
X94714D01*
Y-13092D02*
Y-12972D01*
X94274Y-13092D02*
X94714D01*
X94274Y-13332D02*
Y-13212D01*
X94714D01*
Y-13342D02*
Y-13212D01*
X94274Y-13332D02*
X94714Y-13342D01*
X94274Y-13592D02*
Y-13472D01*
X94714D01*
Y-13592D02*
Y-13472D01*
X94274Y-13592D02*
X94714D01*
X94274Y-13832D02*
Y-13712D01*
X94714Y-13722D01*
Y-13842D02*
Y-13722D01*
X94274Y-13832D02*
X94714Y-13842D01*
X94274Y-14092D02*
Y-13972D01*
X94714D01*
Y-14092D02*
Y-13972D01*
X94274Y-14092D02*
X94714D01*
X94274Y-14332D02*
Y-14212D01*
X94714D01*
Y-14342D02*
Y-14212D01*
X94274Y-14332D02*
X94714Y-14342D01*
X94274Y-14592D02*
Y-14472D01*
X94714D01*
Y-14592D02*
Y-14472D01*
X94274Y-14592D02*
X94714D01*
X94274Y-14832D02*
Y-14712D01*
X94714D01*
Y-14832D02*
Y-14712D01*
X94274Y-14832D02*
X94714D01*
X94274Y-15092D02*
Y-14972D01*
X94714D01*
Y-15092D02*
Y-14972D01*
X94274Y-15092D02*
X94714D01*
X92714Y-11932D02*
X94274D01*
Y-15372D02*
Y-11932D01*
X93614Y-15372D02*
X94274D01*
X93374D02*
X93614D01*
X92714D02*
X93374D01*
X92714D02*
Y-11932D01*
X94678Y-26554D02*
Y-26434D01*
X95118D01*
Y-26554D02*
Y-26434D01*
X94678Y-26554D02*
X95118D01*
X94678Y-26814D02*
Y-26694D01*
X95118D01*
Y-26814D02*
Y-26694D01*
X94678Y-26814D02*
X95118D01*
X94678Y-27054D02*
Y-26934D01*
X95118D01*
Y-27064D02*
Y-26934D01*
X94678Y-27054D02*
X95118Y-27064D01*
X94678Y-27314D02*
Y-27194D01*
X95118D01*
Y-27314D02*
Y-27194D01*
X94678Y-27314D02*
X95118D01*
X94678Y-27554D02*
Y-27434D01*
X95118D01*
Y-27564D02*
Y-27434D01*
X94678Y-27554D02*
X95118Y-27564D01*
X94678Y-27814D02*
Y-27694D01*
X95118D01*
Y-27814D02*
Y-27694D01*
X94678Y-27814D02*
X95118D01*
X94678Y-28054D02*
Y-27934D01*
X95118Y-27944D01*
Y-28064D02*
Y-27944D01*
X94678Y-28054D02*
X95118Y-28064D01*
X94678Y-28314D02*
Y-28194D01*
X95118D01*
Y-28314D02*
Y-28194D01*
X94678Y-28314D02*
X95118D01*
X94678Y-28554D02*
Y-28434D01*
X95118D01*
Y-28564D02*
Y-28434D01*
X94678Y-28554D02*
X95118Y-28564D01*
X94678Y-28814D02*
Y-28694D01*
X95118D01*
Y-28814D02*
Y-28694D01*
X94678Y-28814D02*
X95118D01*
X94678Y-29054D02*
Y-28934D01*
X95118D01*
Y-29054D02*
Y-28934D01*
X94678Y-29054D02*
X95118D01*
X94678Y-29314D02*
Y-29194D01*
X95118D01*
Y-29314D02*
Y-29194D01*
X94678Y-29314D02*
X95118D01*
X93118D02*
Y-29194D01*
X92678Y-29314D02*
X93118D01*
X92678D02*
Y-29194D01*
X93118D01*
Y-29054D02*
Y-28934D01*
X92678Y-29054D02*
X93118D01*
X92678D02*
Y-28934D01*
X93118D01*
Y-28814D02*
Y-28694D01*
X92678Y-28814D02*
X93118D01*
X92678D02*
Y-28684D01*
X93118Y-28694D01*
Y-28554D02*
Y-28434D01*
X92678Y-28554D02*
X93118D01*
X92678D02*
Y-28434D01*
X93118D01*
Y-28314D02*
Y-28194D01*
X92678Y-28314D02*
X93118D01*
X92678D02*
Y-28184D01*
X93118Y-28194D01*
Y-28054D02*
Y-27934D01*
X92678Y-28054D02*
X93118D01*
X92678D02*
Y-27934D01*
X93118D01*
Y-27814D02*
Y-27694D01*
X92678Y-27804D02*
X93118Y-27814D01*
X92678Y-27804D02*
Y-27684D01*
X93118Y-27694D01*
Y-27554D02*
Y-27434D01*
X92678Y-27554D02*
X93118D01*
X92678D02*
Y-27434D01*
X93118D01*
Y-27314D02*
Y-27194D01*
X92678Y-27314D02*
X93118D01*
X92678D02*
Y-27184D01*
X93118Y-27194D01*
Y-27054D02*
Y-26934D01*
X92678Y-27054D02*
X93118D01*
X92678D02*
Y-26934D01*
X93118D01*
Y-26814D02*
Y-26694D01*
X92678Y-26814D02*
X93118D01*
X92678D02*
Y-26694D01*
X93118D01*
Y-26554D02*
Y-26434D01*
X92678Y-26554D02*
X93118D01*
X92678D02*
Y-26434D01*
X93118D01*
Y-29594D02*
X94678D01*
X93118D02*
Y-26154D01*
X93778D01*
X94018D01*
X94678D01*
Y-29594D02*
Y-26154D01*
D39*
X93614Y-15372D02*
G03*
X93374Y-15372I-120J0D01*
G01*
X93778Y-26154D02*
G03*
X94018Y-26154I120J0D01*
G01*
D66*
X92809Y-15482D02*
Y-15060D01*
X92633Y-15377D02*
X92985Y-15166D01*
Y-15377D02*
X92633Y-15166D01*
X94583Y-26043D02*
Y-26465D01*
X94758Y-26149D02*
X94407Y-26360D01*
Y-26149D02*
X94758Y-26360D01*
M02*
