G04 Layer_Color=255*
%FSLAX24Y24*%
%MOIN*%
G70*
G01*
G75*
%ADD13C,0.1250*%
%ADD14C,0.0700*%
%ADD15C,0.1378*%
%ADD16C,0.0600*%
%ADD17R,0.0591X0.0591*%
%ADD18C,0.0591*%
%ADD19R,0.0591X0.0591*%
%ADD20R,0.0510X0.0510*%
%ADD21C,0.0510*%
%ADD22C,0.0472*%
%ADD23C,0.0591*%
%ADD24R,0.0700X0.0700*%
%ADD25R,0.0700X0.0700*%
%ADD27R,0.0551X0.0472*%
%ADD28R,0.0472X0.0551*%
%ADD29R,0.0310X0.0130*%
%ADD30R,0.0630X0.0140*%
%ADD31R,0.0551X0.0433*%
%ADD32R,0.0374X0.0689*%
%ADD33R,0.0433X0.0551*%
%ADD34O,0.0669X0.0138*%
%ADD35R,0.1083X0.1350*%
D13*
X105877Y-38045D02*
D03*
X100866Y-37992D02*
D03*
X10689Y-8767D02*
D03*
X5689D02*
D03*
X20531D02*
D03*
X15532D02*
D03*
X30374D02*
D03*
X25374D02*
D03*
X40217Y-8767D02*
D03*
X35217D02*
D03*
X50059Y-8767D02*
D03*
X45059D02*
D03*
X59902D02*
D03*
X54902D02*
D03*
X69744D02*
D03*
X64744D02*
D03*
X79656Y-8767D02*
D03*
X74656D02*
D03*
X10689Y-18609D02*
D03*
X5689D02*
D03*
X20541D02*
D03*
X15541D02*
D03*
X30394D02*
D03*
X25394D02*
D03*
X40246D02*
D03*
X35246D02*
D03*
X79656Y-18609D02*
D03*
X74656D02*
D03*
X69803Y-18609D02*
D03*
X64803D02*
D03*
X59951D02*
D03*
X54951D02*
D03*
X50098D02*
D03*
X45098D02*
D03*
X116463Y-36398D02*
D03*
Y-41398D02*
D03*
Y-28112D02*
D03*
Y-33112D02*
D03*
X116463Y-19825D02*
D03*
Y-24825D02*
D03*
Y-11539D02*
D03*
Y-16539D02*
D03*
X103162Y-31398D02*
D03*
Y-26398D02*
D03*
X103123Y-23274D02*
D03*
Y-18274D02*
D03*
X103241Y-15151D02*
D03*
Y-10151D02*
D03*
X103231Y-7028D02*
D03*
Y-2028D02*
D03*
D14*
X104366Y-40942D02*
D03*
X103366D02*
D03*
X102366D02*
D03*
X9189Y-5817D02*
D03*
X8189D02*
D03*
X7189D02*
D03*
X9189Y-11517D02*
D03*
X19031Y-5817D02*
D03*
X18032D02*
D03*
X17032D02*
D03*
X19031Y-11517D02*
D03*
X28874Y-5817D02*
D03*
X27874D02*
D03*
X26874D02*
D03*
X28874Y-11517D02*
D03*
X38717Y-5817D02*
D03*
X37717D02*
D03*
X36717D02*
D03*
X38717Y-11517D02*
D03*
X48559Y-5817D02*
D03*
X47559D02*
D03*
X46559D02*
D03*
X48559Y-11517D02*
D03*
X58402Y-5817D02*
D03*
X57402D02*
D03*
X56402D02*
D03*
X58402Y-11517D02*
D03*
X68244Y-5817D02*
D03*
X67244D02*
D03*
X66244D02*
D03*
X68244Y-11517D02*
D03*
X78156Y-5817D02*
D03*
X77156D02*
D03*
X76156D02*
D03*
X78156Y-11517D02*
D03*
X9189Y-15659D02*
D03*
X8189D02*
D03*
X7189D02*
D03*
X9189Y-21359D02*
D03*
X19041Y-15659D02*
D03*
X18041D02*
D03*
X17041D02*
D03*
X19041Y-21359D02*
D03*
X28894Y-15659D02*
D03*
X27894D02*
D03*
X26894D02*
D03*
X28894Y-21359D02*
D03*
X38746Y-15659D02*
D03*
X37746D02*
D03*
X36746D02*
D03*
X38746Y-21359D02*
D03*
X78156Y-15659D02*
D03*
X77156D02*
D03*
X76156D02*
D03*
X78156Y-21359D02*
D03*
X68303Y-15659D02*
D03*
X67303D02*
D03*
X66303D02*
D03*
X68303Y-21359D02*
D03*
X58451Y-15659D02*
D03*
X57451D02*
D03*
X56451D02*
D03*
X58451Y-21359D02*
D03*
X48598Y-15659D02*
D03*
X47598D02*
D03*
X46598D02*
D03*
X48598Y-21359D02*
D03*
X113513Y-37898D02*
D03*
Y-38898D02*
D03*
Y-39898D02*
D03*
X119213Y-37898D02*
D03*
X113513Y-29612D02*
D03*
Y-30612D02*
D03*
Y-31612D02*
D03*
X119213Y-29612D02*
D03*
X113513Y-21325D02*
D03*
Y-22325D02*
D03*
Y-23325D02*
D03*
X119213Y-21325D02*
D03*
X113513Y-13039D02*
D03*
Y-14039D02*
D03*
Y-15039D02*
D03*
X119213Y-13039D02*
D03*
X106112Y-29898D02*
D03*
Y-28898D02*
D03*
Y-27898D02*
D03*
X100412Y-29898D02*
D03*
X106073Y-21774D02*
D03*
Y-20774D02*
D03*
Y-19774D02*
D03*
X100373Y-21774D02*
D03*
X106191Y-13651D02*
D03*
Y-12651D02*
D03*
Y-11651D02*
D03*
X100491Y-13651D02*
D03*
X106181Y-5528D02*
D03*
Y-4528D02*
D03*
Y-3528D02*
D03*
X100481Y-5528D02*
D03*
D15*
X94488Y-31496D02*
D03*
X52559Y-14173D02*
D03*
X90123Y-34625D02*
D03*
X97686Y-42475D02*
D03*
X97736Y-34625D02*
D03*
X90123Y-42475D02*
D03*
X43528Y-42334D02*
D03*
Y-24618D02*
D03*
X61244D02*
D03*
Y-42334D02*
D03*
X41544D02*
D03*
Y-24618D02*
D03*
X23828D02*
D03*
Y-42334D02*
D03*
X80994D02*
D03*
Y-24618D02*
D03*
X63277D02*
D03*
Y-42334D02*
D03*
X1181Y-43465D02*
D03*
X4128Y-42334D02*
D03*
Y-24618D02*
D03*
X21844D02*
D03*
Y-42334D02*
D03*
X1181Y-1181D02*
D03*
X112205Y-3937D02*
D03*
X124803Y-43465D02*
D03*
D16*
X83662Y-31890D02*
D03*
X82756D02*
D03*
X95630Y-17992D02*
D03*
X92402Y-18071D02*
D03*
D17*
X61339Y-2165D02*
D03*
X90453Y-20541D02*
D03*
X46102Y-14252D02*
D03*
X50000Y-3543D02*
D03*
D18*
X61339Y-3165D02*
D03*
X62339Y-2165D02*
D03*
Y-3165D02*
D03*
X63339Y-2165D02*
D03*
Y-3165D02*
D03*
X64339Y-2165D02*
D03*
Y-3165D02*
D03*
X65339Y-2165D02*
D03*
Y-3165D02*
D03*
X66339Y-2165D02*
D03*
Y-3165D02*
D03*
X67339Y-2165D02*
D03*
Y-3165D02*
D03*
X68339Y-2165D02*
D03*
Y-3165D02*
D03*
X90453Y-21541D02*
D03*
X91453Y-20541D02*
D03*
Y-21541D02*
D03*
X92453Y-20541D02*
D03*
Y-21541D02*
D03*
X93453Y-20541D02*
D03*
Y-21541D02*
D03*
X94453Y-20541D02*
D03*
Y-21541D02*
D03*
X95453Y-20541D02*
D03*
Y-21541D02*
D03*
X96453Y-20541D02*
D03*
Y-21541D02*
D03*
X97453Y-20541D02*
D03*
Y-21541D02*
D03*
X46102Y-13252D02*
D03*
X45102Y-14252D02*
D03*
Y-13252D02*
D03*
X44102Y-14252D02*
D03*
Y-13252D02*
D03*
X43102Y-14252D02*
D03*
Y-13252D02*
D03*
X42102Y-14252D02*
D03*
Y-13252D02*
D03*
X41102Y-14252D02*
D03*
Y-13252D02*
D03*
X40102Y-14252D02*
D03*
Y-13252D02*
D03*
X39102Y-14252D02*
D03*
Y-13252D02*
D03*
X109502Y-18051D02*
D03*
X110502Y-19051D02*
D03*
X109502D02*
D03*
X110502Y-20051D02*
D03*
X109502D02*
D03*
X110502Y-21051D02*
D03*
X109502D02*
D03*
X110502Y-22051D02*
D03*
X109502D02*
D03*
X110502Y-23051D02*
D03*
X109502D02*
D03*
X110502Y-24051D02*
D03*
X109502D02*
D03*
X110502Y-25051D02*
D03*
X109502D02*
D03*
X50000Y-2543D02*
D03*
X49000Y-3543D02*
D03*
Y-2543D02*
D03*
X48000Y-3543D02*
D03*
Y-2543D02*
D03*
X47000Y-3543D02*
D03*
Y-2543D02*
D03*
X46000Y-3543D02*
D03*
Y-2543D02*
D03*
X45000Y-3543D02*
D03*
Y-2543D02*
D03*
X44000Y-3543D02*
D03*
Y-2543D02*
D03*
X43000Y-3543D02*
D03*
Y-2543D02*
D03*
D19*
X110502Y-18051D02*
D03*
D20*
X96567Y-5677D02*
D03*
D21*
X95567D02*
D03*
X94567D02*
D03*
X93567D02*
D03*
X92567D02*
D03*
X91567D02*
D03*
X90567D02*
D03*
X89567D02*
D03*
Y-2677D02*
D03*
X90567D02*
D03*
X91567D02*
D03*
X92567D02*
D03*
X93567D02*
D03*
X94567D02*
D03*
X95567D02*
D03*
X96567D02*
D03*
D22*
X91221Y-37376D02*
D03*
X92221Y-38176D02*
D03*
X50304Y-37211D02*
D03*
X49304Y-38011D02*
D03*
X60147Y-37211D02*
D03*
X59147Y-38011D02*
D03*
X50304Y-27369D02*
D03*
X49304Y-28169D02*
D03*
X60147Y-27369D02*
D03*
X59147Y-28169D02*
D03*
X39447D02*
D03*
X40447Y-27369D02*
D03*
X29604Y-28169D02*
D03*
X30604Y-27369D02*
D03*
X39447Y-38011D02*
D03*
X40447Y-37211D02*
D03*
X29604Y-38011D02*
D03*
X30604Y-37211D02*
D03*
X78896Y-28169D02*
D03*
X79896Y-27369D02*
D03*
X69054Y-28169D02*
D03*
X70054Y-27369D02*
D03*
X78896Y-38011D02*
D03*
X79896Y-37211D02*
D03*
X69054Y-38011D02*
D03*
X70054Y-37211D02*
D03*
X10904D02*
D03*
X9904Y-38011D02*
D03*
X20747Y-37211D02*
D03*
X19747Y-38011D02*
D03*
X10904Y-27369D02*
D03*
X9904Y-28169D02*
D03*
X20747Y-27369D02*
D03*
X19747Y-28169D02*
D03*
D23*
X92879Y-38562D02*
D03*
X95241D02*
D03*
X94454D02*
D03*
X93667D02*
D03*
X48646Y-38397D02*
D03*
X46284D02*
D03*
X47071D02*
D03*
X47859D02*
D03*
X58489D02*
D03*
X56126D02*
D03*
X56914D02*
D03*
X57701D02*
D03*
X48646Y-28555D02*
D03*
X46284D02*
D03*
X47071D02*
D03*
X47859D02*
D03*
X58489D02*
D03*
X56126D02*
D03*
X56914D02*
D03*
X57701D02*
D03*
X38001D02*
D03*
X37214D02*
D03*
X36426D02*
D03*
X38789D02*
D03*
X28159D02*
D03*
X27371D02*
D03*
X26584D02*
D03*
X28946D02*
D03*
X38001Y-38397D02*
D03*
X37214D02*
D03*
X36426D02*
D03*
X38789D02*
D03*
X28159D02*
D03*
X27371D02*
D03*
X26584D02*
D03*
X28946D02*
D03*
X77450Y-28555D02*
D03*
X76663D02*
D03*
X75876D02*
D03*
X78238D02*
D03*
X67608D02*
D03*
X66820D02*
D03*
X66033D02*
D03*
X68395D02*
D03*
X77450Y-38397D02*
D03*
X76663D02*
D03*
X75876D02*
D03*
X78238D02*
D03*
X67608D02*
D03*
X66820D02*
D03*
X66033D02*
D03*
X68395D02*
D03*
X9246D02*
D03*
X6884D02*
D03*
X7671D02*
D03*
X8459D02*
D03*
X19089D02*
D03*
X16726D02*
D03*
X17514D02*
D03*
X18301D02*
D03*
X9246Y-28555D02*
D03*
X6884D02*
D03*
X7671D02*
D03*
X8459D02*
D03*
X19089D02*
D03*
X16726D02*
D03*
X17514D02*
D03*
X18301D02*
D03*
D24*
X7189Y-11517D02*
D03*
X17032D02*
D03*
X26874D02*
D03*
X36717Y-11517D02*
D03*
X46559Y-11517D02*
D03*
X56402D02*
D03*
X66244D02*
D03*
X76156Y-11517D02*
D03*
X7189Y-21359D02*
D03*
X17041D02*
D03*
X26894D02*
D03*
X36746D02*
D03*
X76156Y-21359D02*
D03*
X66303Y-21359D02*
D03*
X56451D02*
D03*
X46598D02*
D03*
D25*
X119213Y-39898D02*
D03*
Y-31612D02*
D03*
X119213Y-23325D02*
D03*
Y-15039D02*
D03*
X100412Y-27898D02*
D03*
X100373Y-19774D02*
D03*
X100491Y-11651D02*
D03*
X100481Y-3528D02*
D03*
D27*
X34055Y-30945D02*
D03*
Y-31654D02*
D03*
X36772Y-3071D02*
D03*
Y-2363D02*
D03*
X14370Y-30945D02*
D03*
Y-31654D02*
D03*
X53740Y-30945D02*
D03*
Y-31654D02*
D03*
X73425Y-30945D02*
D03*
Y-31654D02*
D03*
X90000Y-38071D02*
D03*
Y-37362D02*
D03*
X7189Y-7422D02*
D03*
Y-8131D02*
D03*
X8173Y-8840D02*
D03*
Y-8131D02*
D03*
X9118Y-7422D02*
D03*
Y-8131D02*
D03*
X17032Y-7422D02*
D03*
Y-8131D02*
D03*
X18961Y-7422D02*
D03*
Y-8131D02*
D03*
X18016Y-8840D02*
D03*
Y-8131D02*
D03*
X26874Y-7422D02*
D03*
Y-8131D02*
D03*
X28803Y-7422D02*
D03*
Y-8131D02*
D03*
X27858Y-8840D02*
D03*
Y-8131D02*
D03*
X36717Y-7422D02*
D03*
Y-8131D02*
D03*
X38646Y-7422D02*
D03*
Y-8131D02*
D03*
X37701Y-8840D02*
D03*
Y-8131D02*
D03*
X46559Y-7422D02*
D03*
Y-8131D02*
D03*
X48488Y-7422D02*
D03*
Y-8131D02*
D03*
X47543Y-8840D02*
D03*
Y-8131D02*
D03*
X56402Y-7422D02*
D03*
Y-8131D02*
D03*
X58331Y-7422D02*
D03*
Y-8131D02*
D03*
X57386Y-8840D02*
D03*
Y-8131D02*
D03*
X66244Y-7422D02*
D03*
Y-8131D02*
D03*
X68173Y-7422D02*
D03*
Y-8131D02*
D03*
X67228Y-8840D02*
D03*
Y-8131D02*
D03*
X76156Y-7422D02*
D03*
Y-8131D02*
D03*
X78085Y-7422D02*
D03*
Y-8131D02*
D03*
X77140Y-8840D02*
D03*
Y-8131D02*
D03*
X7189Y-17265D02*
D03*
Y-17974D02*
D03*
X9118Y-17265D02*
D03*
Y-17974D02*
D03*
X8173Y-18682D02*
D03*
Y-17974D02*
D03*
X17041Y-17265D02*
D03*
Y-17974D02*
D03*
X18970Y-17265D02*
D03*
Y-17974D02*
D03*
X18026Y-18682D02*
D03*
Y-17974D02*
D03*
X26894Y-17265D02*
D03*
Y-17974D02*
D03*
X28823Y-17265D02*
D03*
Y-17974D02*
D03*
X27878Y-18682D02*
D03*
Y-17974D02*
D03*
X36746Y-17265D02*
D03*
Y-17974D02*
D03*
X38675Y-17265D02*
D03*
Y-17974D02*
D03*
X37730Y-18682D02*
D03*
Y-17974D02*
D03*
X76156Y-17265D02*
D03*
Y-17974D02*
D03*
X78085Y-17265D02*
D03*
Y-17974D02*
D03*
X77140Y-18682D02*
D03*
Y-17974D02*
D03*
X66303Y-17265D02*
D03*
Y-17974D02*
D03*
X68232Y-17265D02*
D03*
Y-17974D02*
D03*
X67287Y-18682D02*
D03*
Y-17974D02*
D03*
X56451Y-17265D02*
D03*
Y-17974D02*
D03*
X58380Y-17265D02*
D03*
Y-17974D02*
D03*
X57435Y-18682D02*
D03*
Y-17974D02*
D03*
X46598Y-17265D02*
D03*
Y-17974D02*
D03*
X48528Y-17265D02*
D03*
Y-17974D02*
D03*
X47583Y-18682D02*
D03*
Y-17974D02*
D03*
X114291Y-41079D02*
D03*
Y-40370D02*
D03*
X114252Y-36669D02*
D03*
Y-37378D02*
D03*
X114291Y-32793D02*
D03*
Y-32084D02*
D03*
X114252Y-28383D02*
D03*
Y-29092D02*
D03*
X114291Y-24507D02*
D03*
Y-23798D02*
D03*
X114252Y-20097D02*
D03*
Y-20806D02*
D03*
X114291Y-16220D02*
D03*
Y-15512D02*
D03*
X114252Y-11811D02*
D03*
Y-12520D02*
D03*
X105333Y-26717D02*
D03*
Y-27425D02*
D03*
X105373Y-31126D02*
D03*
Y-30417D02*
D03*
X105294Y-18593D02*
D03*
Y-19302D02*
D03*
X105333Y-23003D02*
D03*
Y-22294D02*
D03*
X105412Y-10470D02*
D03*
Y-11178D02*
D03*
X105452Y-14879D02*
D03*
Y-14171D02*
D03*
X105402Y-2346D02*
D03*
Y-3055D02*
D03*
X105442Y-6756D02*
D03*
Y-6047D02*
D03*
X85945Y-5463D02*
D03*
Y-4754D02*
D03*
X86053Y-13537D02*
D03*
Y-12828D02*
D03*
X86024Y-21611D02*
D03*
Y-20902D02*
D03*
X85984Y-29685D02*
D03*
Y-28976D02*
D03*
X123976Y-3731D02*
D03*
Y-3022D02*
D03*
X123976Y-8652D02*
D03*
Y-7944D02*
D03*
D28*
X91053Y-15817D02*
D03*
X91762D02*
D03*
X96339Y-25709D02*
D03*
X95630D02*
D03*
X6008Y-6596D02*
D03*
X6717D02*
D03*
X10417Y-6556D02*
D03*
X9709D02*
D03*
X15850Y-6596D02*
D03*
X16559D02*
D03*
X20260Y-6556D02*
D03*
X19551D02*
D03*
X25693Y-6596D02*
D03*
X26402D02*
D03*
X30102Y-6556D02*
D03*
X29394D02*
D03*
X35535Y-6596D02*
D03*
X36244D02*
D03*
X39945Y-6556D02*
D03*
X39236D02*
D03*
X45378Y-6596D02*
D03*
X46087D02*
D03*
X49787Y-6556D02*
D03*
X49079D02*
D03*
X55220Y-6596D02*
D03*
X55929D02*
D03*
X59630Y-6556D02*
D03*
X58921D02*
D03*
X65063Y-6596D02*
D03*
X65772D02*
D03*
X69472Y-6556D02*
D03*
X68764D02*
D03*
X74974Y-6596D02*
D03*
X75683D02*
D03*
X79384Y-6556D02*
D03*
X78675D02*
D03*
X6008Y-16438D02*
D03*
X6717D02*
D03*
X10417Y-16399D02*
D03*
X9709D02*
D03*
X15860Y-16438D02*
D03*
X16569D02*
D03*
X20270Y-16399D02*
D03*
X19561D02*
D03*
X25713Y-16438D02*
D03*
X26421D02*
D03*
X30122Y-16399D02*
D03*
X29413D02*
D03*
X35565Y-16438D02*
D03*
X36274D02*
D03*
X39974Y-16399D02*
D03*
X39266D02*
D03*
X74974Y-16438D02*
D03*
X75683D02*
D03*
X79384Y-16399D02*
D03*
X78675D02*
D03*
X65122Y-16438D02*
D03*
X65831D02*
D03*
X69532Y-16399D02*
D03*
X68823D02*
D03*
X55270Y-16438D02*
D03*
X55978D02*
D03*
X59679Y-16399D02*
D03*
X58970D02*
D03*
X45417Y-16438D02*
D03*
X46126D02*
D03*
X49827Y-16399D02*
D03*
X49118D02*
D03*
X115118Y-39898D02*
D03*
X115827D02*
D03*
X115118Y-37968D02*
D03*
X115827D02*
D03*
X116535Y-38913D02*
D03*
X115827D02*
D03*
X115118Y-31612D02*
D03*
X115827D02*
D03*
X115118Y-29682D02*
D03*
X115827D02*
D03*
X116535Y-30627D02*
D03*
X115827D02*
D03*
X115118Y-23325D02*
D03*
X115827D02*
D03*
X115118Y-21396D02*
D03*
X115827D02*
D03*
X116535Y-22341D02*
D03*
X115827D02*
D03*
X115118Y-15039D02*
D03*
X115827D02*
D03*
X115118Y-13110D02*
D03*
X115827D02*
D03*
X116535Y-14055D02*
D03*
X115827D02*
D03*
X104507Y-27898D02*
D03*
X103798D02*
D03*
X104507Y-29827D02*
D03*
X103798D02*
D03*
X103089Y-28882D02*
D03*
X103798D02*
D03*
X104467Y-19774D02*
D03*
X103759D02*
D03*
X104467Y-21703D02*
D03*
X103759D02*
D03*
X103050Y-20759D02*
D03*
X103759D02*
D03*
X104585Y-11651D02*
D03*
X103877D02*
D03*
X104585Y-13580D02*
D03*
X103877D02*
D03*
X103168Y-12635D02*
D03*
X103877D02*
D03*
X104576Y-3528D02*
D03*
X103867D02*
D03*
X104576Y-5457D02*
D03*
X103867D02*
D03*
X103158Y-4512D02*
D03*
X103867D02*
D03*
D29*
X96710Y-12578D02*
D03*
Y-12828D02*
D03*
Y-13078D02*
D03*
Y-13328D02*
D03*
Y-13578D02*
D03*
X95990D02*
D03*
Y-13328D02*
D03*
Y-13078D02*
D03*
Y-12828D02*
D03*
Y-12578D02*
D03*
X90529Y-12578D02*
D03*
Y-12828D02*
D03*
Y-13078D02*
D03*
Y-13328D02*
D03*
Y-13578D02*
D03*
X89809D02*
D03*
Y-13328D02*
D03*
Y-13078D02*
D03*
Y-12828D02*
D03*
Y-12578D02*
D03*
X96863Y-28948D02*
D03*
Y-28698D02*
D03*
Y-28448D02*
D03*
Y-28198D02*
D03*
Y-27948D02*
D03*
X97583D02*
D03*
Y-28198D02*
D03*
Y-28448D02*
D03*
Y-28698D02*
D03*
Y-28948D02*
D03*
X90682Y-28948D02*
D03*
Y-28698D02*
D03*
Y-28448D02*
D03*
Y-28198D02*
D03*
Y-27948D02*
D03*
X91402D02*
D03*
Y-28198D02*
D03*
Y-28448D02*
D03*
Y-28698D02*
D03*
Y-28948D02*
D03*
D30*
X92449Y-15027D02*
D03*
Y-14777D02*
D03*
Y-14527D02*
D03*
Y-14277D02*
D03*
Y-14027D02*
D03*
Y-13777D02*
D03*
Y-13527D02*
D03*
Y-13277D02*
D03*
Y-13027D02*
D03*
Y-12777D02*
D03*
Y-12527D02*
D03*
Y-12277D02*
D03*
X94539D02*
D03*
Y-12527D02*
D03*
Y-12777D02*
D03*
Y-13027D02*
D03*
Y-13277D02*
D03*
Y-13527D02*
D03*
Y-13777D02*
D03*
Y-14027D02*
D03*
Y-14277D02*
D03*
Y-14527D02*
D03*
Y-14777D02*
D03*
Y-15027D02*
D03*
X94943Y-26499D02*
D03*
Y-26749D02*
D03*
Y-26999D02*
D03*
Y-27249D02*
D03*
Y-27499D02*
D03*
Y-27749D02*
D03*
Y-27999D02*
D03*
Y-28249D02*
D03*
Y-28499D02*
D03*
Y-28749D02*
D03*
Y-28999D02*
D03*
Y-29249D02*
D03*
X92853D02*
D03*
Y-28999D02*
D03*
Y-28749D02*
D03*
Y-28499D02*
D03*
Y-28249D02*
D03*
Y-27999D02*
D03*
Y-27749D02*
D03*
Y-27499D02*
D03*
Y-27249D02*
D03*
Y-26999D02*
D03*
Y-26749D02*
D03*
Y-26499D02*
D03*
D31*
X91389Y-14338D02*
D03*
Y-14928D02*
D03*
X96002Y-27188D02*
D03*
Y-26597D02*
D03*
X10299Y-7836D02*
D03*
Y-7245D02*
D03*
X6047Y-7836D02*
D03*
Y-7245D02*
D03*
X15890Y-7836D02*
D03*
Y-7245D02*
D03*
X20142Y-7836D02*
D03*
Y-7245D02*
D03*
X25732Y-7836D02*
D03*
Y-7245D02*
D03*
X29984Y-7836D02*
D03*
Y-7245D02*
D03*
X35575Y-7836D02*
D03*
Y-7245D02*
D03*
X39827Y-7836D02*
D03*
Y-7245D02*
D03*
X45417Y-7836D02*
D03*
Y-7245D02*
D03*
X49669Y-7836D02*
D03*
Y-7245D02*
D03*
X55260Y-7836D02*
D03*
Y-7245D02*
D03*
X59512Y-7836D02*
D03*
Y-7245D02*
D03*
X65102Y-7836D02*
D03*
Y-7245D02*
D03*
X69354Y-7836D02*
D03*
Y-7245D02*
D03*
X75014Y-7836D02*
D03*
Y-7245D02*
D03*
X79266Y-7836D02*
D03*
Y-7245D02*
D03*
X6047Y-17678D02*
D03*
Y-17088D02*
D03*
X10299Y-17678D02*
D03*
Y-17088D02*
D03*
X15900Y-17678D02*
D03*
Y-17088D02*
D03*
X20152Y-17678D02*
D03*
Y-17088D02*
D03*
X25752Y-17678D02*
D03*
Y-17088D02*
D03*
X30004Y-17678D02*
D03*
Y-17088D02*
D03*
X35604Y-17678D02*
D03*
Y-17088D02*
D03*
X39856Y-17678D02*
D03*
Y-17088D02*
D03*
X75014Y-17678D02*
D03*
Y-17088D02*
D03*
X79266Y-17678D02*
D03*
Y-17088D02*
D03*
X65161Y-17678D02*
D03*
Y-17088D02*
D03*
X69413Y-17678D02*
D03*
Y-17088D02*
D03*
X55309Y-17678D02*
D03*
Y-17088D02*
D03*
X59561Y-17678D02*
D03*
Y-17088D02*
D03*
X45457Y-17678D02*
D03*
Y-17088D02*
D03*
X49709Y-17678D02*
D03*
Y-17088D02*
D03*
D32*
X71368Y-30807D02*
D03*
X72530D02*
D03*
X51782D02*
D03*
X52943D02*
D03*
X32096D02*
D03*
X33258D02*
D03*
X12411D02*
D03*
X13573D02*
D03*
D33*
X71654Y-31693D02*
D03*
X72244D02*
D03*
X51968D02*
D03*
X52559D02*
D03*
X32283D02*
D03*
X32874D02*
D03*
X12500Y-31693D02*
D03*
X13091D02*
D03*
X115532Y-41039D02*
D03*
X114941D02*
D03*
X115532Y-36787D02*
D03*
X114941D02*
D03*
X115532Y-32753D02*
D03*
X114941D02*
D03*
X115532Y-28501D02*
D03*
X114941D02*
D03*
X115532Y-24467D02*
D03*
X114941D02*
D03*
X115532Y-20215D02*
D03*
X114941D02*
D03*
X115532Y-16181D02*
D03*
X114941D02*
D03*
X115532Y-11929D02*
D03*
X114941D02*
D03*
X104093Y-26756D02*
D03*
X104684D02*
D03*
X104093Y-31008D02*
D03*
X104684D02*
D03*
X104054Y-18633D02*
D03*
X104644D02*
D03*
X104054Y-22885D02*
D03*
X104644D02*
D03*
X104172Y-10509D02*
D03*
X104763D02*
D03*
X104172Y-14761D02*
D03*
X104763D02*
D03*
X104162Y-2386D02*
D03*
X104753D02*
D03*
X104162Y-6638D02*
D03*
X104753D02*
D03*
D34*
X73348Y-32355D02*
D03*
Y-32611D02*
D03*
Y-32867D02*
D03*
Y-33123D02*
D03*
Y-33379D02*
D03*
Y-33635D02*
D03*
Y-33891D02*
D03*
Y-34146D02*
D03*
Y-34402D02*
D03*
Y-34658D02*
D03*
X71104Y-32355D02*
D03*
Y-32611D02*
D03*
Y-32867D02*
D03*
Y-33123D02*
D03*
Y-33379D02*
D03*
Y-33635D02*
D03*
Y-33891D02*
D03*
Y-34146D02*
D03*
Y-34402D02*
D03*
Y-34658D02*
D03*
X33992Y-32355D02*
D03*
Y-32611D02*
D03*
Y-32867D02*
D03*
Y-33123D02*
D03*
Y-33379D02*
D03*
Y-33635D02*
D03*
Y-33891D02*
D03*
Y-34146D02*
D03*
Y-34402D02*
D03*
Y-34658D02*
D03*
X31748Y-32355D02*
D03*
Y-32611D02*
D03*
Y-32867D02*
D03*
Y-33123D02*
D03*
Y-33379D02*
D03*
Y-33635D02*
D03*
Y-33891D02*
D03*
Y-34146D02*
D03*
Y-34402D02*
D03*
Y-34658D02*
D03*
X14314Y-32355D02*
D03*
Y-32611D02*
D03*
Y-32867D02*
D03*
Y-33123D02*
D03*
Y-33379D02*
D03*
Y-33635D02*
D03*
Y-33891D02*
D03*
Y-34146D02*
D03*
Y-34402D02*
D03*
Y-34658D02*
D03*
X12070Y-32355D02*
D03*
Y-32611D02*
D03*
Y-32867D02*
D03*
Y-33123D02*
D03*
Y-33379D02*
D03*
Y-33635D02*
D03*
Y-33891D02*
D03*
Y-34146D02*
D03*
Y-34402D02*
D03*
Y-34658D02*
D03*
X53670Y-32355D02*
D03*
Y-32611D02*
D03*
Y-32867D02*
D03*
Y-33123D02*
D03*
Y-33379D02*
D03*
Y-33635D02*
D03*
Y-33891D02*
D03*
Y-34146D02*
D03*
Y-34402D02*
D03*
Y-34658D02*
D03*
X51426Y-32355D02*
D03*
Y-32611D02*
D03*
Y-32867D02*
D03*
Y-33123D02*
D03*
Y-33379D02*
D03*
Y-33635D02*
D03*
Y-33891D02*
D03*
Y-34146D02*
D03*
Y-34402D02*
D03*
Y-34658D02*
D03*
D35*
X72226Y-33507D02*
D03*
X32870D02*
D03*
X13192D02*
D03*
X52548D02*
D03*
M02*
