M48
;Layer_Color=9474304
;FILE_FORMAT=2:4
INCH,LZ
;TYPE=PLATED
T1F00S00C0.0150
T2F00S00C0.0236
T3F00S00C0.0300
T4F00S00C0.0310
T5F00S00C0.0354
T6F00S00C0.0394
T7F00S00C0.0400
T8F00S00C0.1070
T9F00S00C0.1181
%
T01
X097638Y-03622
X082244Y-037165
X081801Y-037244
X081299Y-037402
X080866Y-037362
X084567Y-044252
X085079Y-044016
X085472Y-04378
X085906Y-043465
X073661Y-041063
X070748Y-039449
X070214Y-035371
X074444
X065118Y-041535
X061314Y-038321
X054724Y-035371
X050494
X051614Y-039173
X053071Y-040709
X032402Y-039803
X035034Y-035371
X030804
X030886Y-041319
X022835Y-039843
X019724Y-041575
X015284Y-035351
X015244Y-034544
X013409Y-03394
Y-033507
Y-033074
X012976
Y-033507
Y-03394
X009224Y-033401
Y-031951
X007624
Y-032901
X010512Y-024882
X013032Y-024252
Y-022953
X020354Y-024921
X030236Y-024961
X028934Y-031951
Y-033401
X027334Y-032901
Y-031951
X030634Y-034601
X017474Y-032901
Y-032001
X016674
Y-033401
X032654Y-033507
Y-033074
X033087
Y-033507
Y-03394
X032654
X034994Y-034564
X036384Y-033401
X037184Y-032901
Y-032001
X036384
X040039Y-024961
X032096Y-024557
Y-023179
X049921Y-025
X056772Y-024764
X059764Y-024803
X062087Y-023583
X060787Y-019803
X056874Y-032011
X056074
Y-033411
X056874Y-032911
X054684Y-034564
X052765Y-03394
X052332
Y-033507
Y-033074
X052765
Y-033507
X050314Y-034651
X048624Y-033411
Y-031961
X047024
Y-032911
X066754
Y-031961
X068354
Y-033411
X070034Y-034611
X07201Y-03394
Y-033507
Y-033074
X072443
Y-033507
Y-03394
X074404Y-034564
X075804Y-033411
X076604Y-032911
Y-032011
X075804
X074803Y-025551
X069646Y-024843
X064213Y-026063
X062795Y-019803
X081693Y-020709
X082483Y-021099
X083268Y-021496
X085394Y-021611
Y-020902
X087323Y-021654
X087677Y-021417
X08811Y-021378
X087677Y-024409
X087126Y-024094
X090984Y-023307
X091811Y-023701
X092244Y-023583
X093386Y-023622
X09374Y-025118
X093239Y-026499
X092638Y-026142
X093465Y-027283
X093701Y-02752
X09189Y-027756
Y-028091
X091858Y-028446
X09189Y-02876
X091875Y-029075
X090197Y-029094
X090256Y-028739
X090197Y-028425
Y-028091
Y-027756
X085354Y-028976
Y-029685
X083268Y-029528
X08252Y-029094
X081929Y-026929
X079488Y-024882
X083678Y-033937
X094567Y-033268
X094291Y-027992
X094016Y-027756
X096396Y-027779
X098051Y-028742
Y-029114
X098504Y-02873
X098863Y-028604
X098888Y-029606
X097451Y-025354
X098386Y-023622
X098071Y-023189
X09878Y-01937
X094449Y-025591
X112759Y-032793
X11315Y-017441
X118819Y-009803
X11878Y-008189
X119764Y-00815
X12122Y-008465
X121811Y-00815
X123346Y-007944
Y-008652
X123346Y-003731
X121191Y-003613
X120827Y-003937
X108071Y-006339
X108701Y-007441
Y-008583
X108071
X107283Y-016378
X106339Y-016457
X099528Y-016417
X097195Y-01377
Y-013435
Y-0131
Y-012766
X0972Y-012422
X095516Y-012432
X095497Y-012776
X095535Y-013111
X095502Y-013435
Y-01377
X094843Y-017165
X098543Y-006299
X090945Y-007835
X089173Y-008386
X087677Y-007323
X087283
X08685Y-007185
X087677Y-004921
X085315Y-004754
Y-005463
X083858Y-004921
X083268Y-005413
X08248Y-004921
X079409Y-005118
X081575Y-012953
X082487Y-013025
X083268Y-013425
X085423Y-013537
Y-012828
X085866Y-010197
X08622Y-010236
X086614
X088865Y-011214
X089342Y-012428
Y-012763
Y-013097
Y-013432
Y-013767
X090996Y-013747
Y-013412
Y-013078
Y-012743
X090978Y-012426
X092362Y-011457
X093504Y-011142
X092047Y-009094
X093514Y-014774
X093583Y-018583
X089941Y-016171
X08811Y-015551
X087677Y-015906
X087323Y-016378
X07815Y-01437
X077628Y-00937
X074843Y-005118
X069724Y-005
X065118Y-005079
X067717Y-00937
X068244Y-013843
X061516Y-011614
X058402Y-013484
X057874Y-00937
X059646Y-005079
X060728Y-005118
X062303
X055236Y-005079
X049409Y-004843
X048032Y-00937
X045965Y-005118
X045433
X039469
X036516Y-004429
X036122
X036319Y-004232
X035896Y-004252
X034449Y-005118
X032913Y-004291
X032087Y-008563
X041831
X045Y-014882
X030039Y-014449
X025748Y-014331
X020256Y-014429
X015827Y-014331
X01748Y-004331
X022638Y-007874
X027323Y-004331
X014016Y-00437
X013583Y-007087
X007638Y-004331
X005472Y-004134
X006024Y-014409
X010512Y-01437
X034154Y-002559
X036142Y-002363
Y-003071
X040295Y-002323
X032972Y-000492
X083268Y-002756
X089213Y-003386
X093937
X121811Y-003219
X123346Y-003022
T02
X078896Y-038011
X079896Y-037211
X091221Y-037376
X092221Y-038176
X070054Y-037211
X069054Y-038011
X060147Y-037211
X059147Y-038011
X050304Y-037211
X049304Y-038011
X040447Y-037211
X039447Y-038011
X030604Y-037211
X029604Y-038011
X020747Y-037211
X019747Y-038011
X010904Y-037211
X009904Y-038011
Y-028169
X010904Y-027369
X019747Y-028169
X020747Y-027369
X029604Y-028169
X030604Y-027369
X039447Y-028169
X040447Y-027369
X049304Y-028169
X050304Y-027369
X059147Y-028169
X060147Y-027369
X069054Y-028169
X070054Y-027369
X078896Y-028169
X079896Y-027369
T03
X082756Y-03189
X083662
X09563Y-017992
X092402Y-018071
T04
X094567Y-005677
X095567
X096567
X093567
X092567
X091567
X090567
X089567
Y-002677
X090567
X091567
X092567
X093567
X094567
X095567
X096567
T05
X090453Y-021541
Y-020541
X091453
Y-021541
X092453
Y-020541
X093453
Y-021541
X094453
Y-020541
X095453
Y-021541
X096453
Y-020541
X097453
Y-021541
X109502Y-021051
Y-020051
X110502
Y-021051
Y-022051
X109502
Y-023051
X110502
Y-024051
X109502
Y-025051
X110502
Y-019051
Y-018051
X109502
Y-019051
X046102Y-014252
Y-013252
X045102
Y-014252
X044102
Y-013252
X043102
Y-014252
X042102
Y-013252
X041102
Y-014252
X040102
Y-013252
X039102
Y-014252
X043Y-003543
X044
X045
X046
Y-002543
X045
X044
X043
X047
X048
X049
X05
Y-003543
X049
X048
X047
X061339Y-003165
Y-002165
X062339
Y-003165
X063339
Y-002165
X064339
Y-003165
X065339
Y-002165
X066339
Y-003165
X067339
Y-002165
X068339
Y-003165
T06
X094454Y-038562
X095241
X093667
X092879
X078238Y-038397
X07745
X076663
X075876
X068395
X067608
X06682
X066033
X058489
X057701
X056914
X056126
X048646
X047859
X047071
X046284
X038789
X038001
X037214
X036426
X028946
X028159
X027371
X026584
X019089
X018301
X017514
X016726
X009246
X008459
X007671
X006884
Y-028555
X007671
X008459
X009246
X016726
X017514
X018301
X019089
X026584
X027371
X028159
X028946
X036426
X037214
X038001
X038789
X046284
X047071
X047859
X048646
X056126
X056914
X057701
X058489
X066033
X06682
X067608
X068395
X075876
X076663
X07745
X078238
T07
X113513Y-039898
Y-038898
Y-037898
X119213
Y-039898
X104366Y-040942
X103366
X102366
X009189Y-021359
X007189
X017041
X019041
X026894
X028894
X036746
X038746
X046598
X048598
X056451
X058451
X066303
X068303
X076156Y-021359
X078156
X100373Y-021774
Y-019774
X106073
Y-020774
Y-021774
X106112Y-027898
Y-028898
Y-029898
X100412
Y-027898
X113513Y-029612
Y-030612
Y-031612
X119213
Y-029612
X119213Y-023325
Y-021325
X113513
Y-022325
Y-023325
Y-015039
Y-014039
Y-013039
X119213
Y-015039
X106191Y-013651
Y-012651
Y-011651
X100491
Y-013651
X100481Y-005528
X106181
Y-004528
X078156Y-005817
X077156
X076156
Y-011517
X078156
X078156Y-015659
X077156
X076156
X068303Y-015659
X067303
X066303
X066244Y-011517
X068244
Y-005817
X067244
X066244
X058402
X057402
X056402
Y-011517
X058402
X058451Y-015659
X057451
X056451
X048598
X047598
X048559Y-011517
Y-005817
X047559
X046559
Y-011517
X046598Y-015659
X038746
X037746
X036746
X036717Y-011517
X038717
Y-005817
X037717
X036717
X028874Y-005817
X027874
X026874
Y-011517
X028874
X028894Y-015659
X027894
X026894
X019041
X018041
X017041
X017032Y-011517
X019031
Y-005817
X018032
X017032
X009189
X008189
X007189
Y-011517
X009189
Y-015659
X008189
X007189
X100481Y-003528
X106181
T08
X116463Y-041398
Y-036398
X105877Y-038045
X100866Y-037992
X103162Y-031398
Y-026398
X103123Y-023274
X116463Y-024825
X116463Y-028112
Y-033112
X116463Y-019825
Y-016539
Y-011539
X103241Y-010151
X103231Y-007028
X103241Y-015151
X103123Y-018274
X079656Y-018609
X079656Y-008767
X074656
X069744Y-008767
X064744
X064803Y-018609
X069803
X074656Y-018609
X059951Y-018609
X054951
X050098
X050059Y-008767
X054902
X059902
X045059
X040217Y-008767
X035217
X035246Y-018609
X040246
X045098
X030394
X025394
X020541
X020531Y-008767
X025374
X030374
X015532
X010689
X005689
Y-018609
X010689
X015541
X103231Y-002028
T09
X124803Y-043465
X097686Y-042475
X090123
X080994Y-042334
X063277
X061244
X043528
X041544
X023828
X021844
X004128
X001181Y-043465
X004128Y-024618
X021844
X023828
X041544
X043528
X061244
X063277
X080994
X090123Y-034625
X094488Y-031496
X097736Y-034625
X112205Y-003937
X052559Y-014173
X001181Y-001181
M30
