G04 Layer_Color=16711935*
%FSLAX24Y24*%
%MOIN*%
G70*
G01*
G75*
%ADD10C,0.0100*%
%ADD38C,0.0200*%
%ADD40C,0.0030*%
%ADD64C,0.0039*%
%ADD67C,0.0000*%
%ADD68C,0.0010*%
D10*
X73112Y-34806D02*
Y-32207D01*
X71341Y-34806D02*
Y-32207D01*
X73112D01*
X71341Y-34806D02*
X73112D01*
X33756D02*
Y-32207D01*
X31985Y-34806D02*
Y-32207D01*
X33756D01*
X31985Y-34806D02*
X33756D01*
X14078D02*
Y-32207D01*
X12306Y-34806D02*
Y-32207D01*
X14078D01*
X12306Y-34806D02*
X14078D01*
X53434D02*
Y-32207D01*
X51663Y-34806D02*
Y-32207D01*
X53434D01*
X51663Y-34806D02*
X53434D01*
D38*
X34912Y-1378D02*
G03*
X34912Y-1378I-150J0D01*
G01*
X84085Y-3770D02*
G03*
X84085Y-3770I-150J0D01*
G01*
X84194Y-11844D02*
G03*
X84194Y-11844I-150J0D01*
G01*
X84164Y-19918D02*
G03*
X84164Y-19918I-150J0D01*
G01*
X84125Y-27992D02*
G03*
X84125Y-27992I-150J0D01*
G01*
X122117Y-2037D02*
G03*
X122117Y-2037I-150J0D01*
G01*
Y-6959D02*
G03*
X122117Y-6959I-150J0D01*
G01*
D40*
X35512Y-3663D02*
Y-3830D01*
Y-3747D01*
X36012D01*
X35929Y-3663D01*
X35512Y-4413D02*
Y-4080D01*
X35845Y-4413D01*
X35929D01*
X36012Y-4330D01*
Y-4163D01*
X35929Y-4080D01*
X35512Y-1258D02*
Y-1425D01*
Y-1341D01*
X36012D01*
X35929Y-1258D01*
X35512D02*
Y-1425D01*
Y-1341D01*
X36012D01*
X35929Y-1258D01*
X96420Y-11896D02*
X96087Y-12229D01*
X96420D02*
X96087Y-11896D01*
X96420Y-12063D02*
X96087D01*
X96254Y-12229D02*
Y-11896D01*
X90239Y-11896D02*
X89906Y-12229D01*
X90239D02*
X89906Y-11896D01*
X90239Y-12063D02*
X89906D01*
X90072Y-12229D02*
Y-11896D01*
X97153Y-29629D02*
X97486Y-29296D01*
X97153D02*
X97486Y-29629D01*
X97153Y-29463D02*
X97486D01*
X97319Y-29296D02*
Y-29629D01*
X90972Y-29629D02*
X91305Y-29296D01*
X90972D02*
X91305Y-29629D01*
X90972Y-29463D02*
X91305D01*
X91138Y-29296D02*
Y-29629D01*
X96983Y-5377D02*
X96650Y-5044D01*
Y-5377D02*
X96983Y-5044D01*
X96817Y-5377D02*
Y-5044D01*
X96650Y-5211D02*
X96983D01*
X84685Y-6055D02*
Y-6222D01*
Y-6138D01*
X85185D01*
X85102Y-6055D01*
X84685Y-6805D02*
Y-6472D01*
X85019Y-6805D01*
X85102D01*
X85185Y-6721D01*
Y-6555D01*
X85102Y-6472D01*
X84685Y-6055D02*
Y-6222D01*
Y-6138D01*
X85185D01*
X85102Y-6055D01*
X84685Y-6805D02*
Y-6472D01*
X85019Y-6805D01*
X85102D01*
X85185Y-6721D01*
Y-6555D01*
X85102Y-6472D01*
X84685Y-3650D02*
Y-3816D01*
Y-3733D01*
X85185D01*
X85102Y-3650D01*
X84685D02*
Y-3816D01*
Y-3733D01*
X85185D01*
X85102Y-3650D01*
X84794Y-14129D02*
Y-14296D01*
Y-14212D01*
X85293D01*
X85210Y-14129D01*
X84794Y-14879D02*
Y-14546D01*
X85127Y-14879D01*
X85210D01*
X85293Y-14796D01*
Y-14629D01*
X85210Y-14546D01*
X84794Y-14129D02*
Y-14296D01*
Y-14212D01*
X85293D01*
X85210Y-14129D01*
X84794Y-14879D02*
Y-14546D01*
X85127Y-14879D01*
X85210D01*
X85293Y-14796D01*
Y-14629D01*
X85210Y-14546D01*
X84794Y-11724D02*
Y-11890D01*
Y-11807D01*
X85293D01*
X85210Y-11724D01*
X84794D02*
Y-11890D01*
Y-11807D01*
X85293D01*
X85210Y-11724D01*
X84764Y-22203D02*
Y-22370D01*
Y-22286D01*
X85264D01*
X85181Y-22203D01*
X84764Y-22953D02*
Y-22620D01*
X85097Y-22953D01*
X85181D01*
X85264Y-22870D01*
Y-22703D01*
X85181Y-22620D01*
X84764Y-22203D02*
Y-22370D01*
Y-22286D01*
X85264D01*
X85181Y-22203D01*
X84764Y-22953D02*
Y-22620D01*
X85097Y-22953D01*
X85181D01*
X85264Y-22870D01*
Y-22703D01*
X85181Y-22620D01*
X84764Y-19798D02*
Y-19964D01*
Y-19881D01*
X85264D01*
X85181Y-19798D01*
X84764D02*
Y-19964D01*
Y-19881D01*
X85264D01*
X85181Y-19798D01*
X84725Y-30277D02*
Y-30444D01*
Y-30360D01*
X85225D01*
X85141Y-30277D01*
X84725Y-31027D02*
Y-30694D01*
X85058Y-31027D01*
X85141D01*
X85225Y-30944D01*
Y-30777D01*
X85141Y-30694D01*
X84725Y-30277D02*
Y-30444D01*
Y-30360D01*
X85225D01*
X85141Y-30277D01*
X84725Y-31027D02*
Y-30694D01*
X85058Y-31027D01*
X85141D01*
X85225Y-30944D01*
Y-30777D01*
X85141Y-30694D01*
X84725Y-27872D02*
Y-28038D01*
Y-27955D01*
X85225D01*
X85141Y-27872D01*
X84725D02*
Y-28038D01*
Y-27955D01*
X85225D01*
X85141Y-27872D01*
X122717Y-3120D02*
X123217D01*
Y-3370D01*
X123133Y-3453D01*
X122967D01*
X122883Y-3370D01*
Y-3120D01*
Y-3287D02*
X122717Y-3453D01*
Y-3870D02*
Y-3703D01*
X122800Y-3620D01*
X122967D01*
X123050Y-3703D01*
Y-3870D01*
X122967Y-3953D01*
X122883D01*
Y-3620D01*
X122717Y-4203D02*
X123133D01*
X122967D01*
Y-4120D01*
Y-4286D01*
Y-4203D01*
X123133D01*
X123217Y-4286D01*
Y-4536D02*
X122717D01*
Y-4786D01*
X122800Y-4870D01*
X123133D01*
X123217Y-4786D01*
Y-4536D01*
X122717Y-5286D02*
Y-5119D01*
X122800Y-5036D01*
X122967D01*
X123050Y-5119D01*
Y-5286D01*
X122967Y-5369D01*
X122883D01*
Y-5036D01*
X122717Y-5536D02*
Y-5786D01*
X122800Y-5869D01*
X122883Y-5786D01*
Y-5619D01*
X122967Y-5536D01*
X123050Y-5619D01*
Y-5869D01*
X122717Y-6369D02*
Y-6036D01*
X123050Y-6369D01*
X123133D01*
X123217Y-6286D01*
Y-6119D01*
X123133Y-6036D01*
X122717Y-4323D02*
Y-4489D01*
Y-4406D01*
X123217D01*
X123133Y-4323D01*
X122717Y-5073D02*
Y-4739D01*
X123050Y-5073D01*
X123133D01*
X123217Y-4989D01*
Y-4823D01*
X123133Y-4739D01*
X122717Y-4323D02*
Y-4489D01*
Y-4406D01*
X123217D01*
X123133Y-4323D01*
X122717Y-5073D02*
Y-4739D01*
X123050Y-5073D01*
X123133D01*
X123217Y-4989D01*
Y-4823D01*
X123133Y-4739D01*
X122717Y-1917D02*
Y-2084D01*
Y-2001D01*
X123217D01*
X123133Y-1917D01*
X122717D02*
Y-2084D01*
Y-2001D01*
X123217D01*
X123133Y-1917D01*
X122717Y-9244D02*
Y-9411D01*
Y-9328D01*
X123217D01*
X123133Y-9244D01*
X122717Y-9994D02*
Y-9661D01*
X123050Y-9994D01*
X123133D01*
X123217Y-9911D01*
Y-9744D01*
X123133Y-9661D01*
X122717Y-9244D02*
Y-9411D01*
Y-9328D01*
X123217D01*
X123133Y-9244D01*
X122717Y-9994D02*
Y-9661D01*
X123050Y-9994D01*
X123133D01*
X123217Y-9911D01*
Y-9744D01*
X123133Y-9661D01*
X122717Y-6839D02*
Y-7006D01*
Y-6922D01*
X123217D01*
X123133Y-6839D01*
X122717D02*
Y-7006D01*
Y-6922D01*
X123217D01*
X123133Y-6839D01*
D64*
X72955Y-32562D02*
G03*
X72955Y-32562I-197J0D01*
G01*
X33599Y-32562D02*
G03*
X33599Y-32562I-197J0D01*
G01*
X13921D02*
G03*
X13921Y-32562I-197J0D01*
G01*
X53277D02*
G03*
X53277Y-32562I-197J0D01*
G01*
X33780Y-30876D02*
X34331D01*
X33780Y-31722D02*
X34331D01*
X33780D02*
Y-30876D01*
X34331Y-31722D02*
Y-30876D01*
X37047Y-3140D02*
Y-2294D01*
X36496Y-3140D02*
Y-2294D01*
Y-3140D02*
X37047D01*
X36496Y-2294D02*
X37047D01*
X90984Y-16093D02*
X91831D01*
X90984Y-15541D02*
X91831D01*
X90984Y-16093D02*
Y-15541D01*
X91831Y-16093D02*
Y-15541D01*
X95561Y-25433D02*
X96407D01*
X95561Y-25984D02*
X96407D01*
Y-25433D01*
X95561Y-25984D02*
Y-25433D01*
X91104Y-15066D02*
Y-14200D01*
X91675Y-15066D02*
Y-14200D01*
X91104D02*
X91675D01*
X91104Y-15066D02*
X91675D01*
X96288Y-27326D02*
Y-26460D01*
X95717Y-27326D02*
Y-26460D01*
Y-27326D02*
X96288D01*
X95717Y-26460D02*
X96288D01*
X14094Y-30876D02*
X14646D01*
X14094Y-31722D02*
X14646D01*
X14094D02*
Y-30876D01*
X14646Y-31722D02*
Y-30876D01*
X53465Y-30876D02*
X54016D01*
X53465Y-31722D02*
X54016D01*
X53465D02*
Y-30876D01*
X54016Y-31722D02*
Y-30876D01*
X73150D02*
X73701D01*
X73150Y-31722D02*
X73701D01*
X73150D02*
Y-30876D01*
X73701Y-31722D02*
Y-30876D01*
X71319Y-31122D02*
Y-30492D01*
X72579Y-31122D02*
Y-30492D01*
X71319Y-31122D02*
X72579D01*
X71319Y-30492D02*
X72579D01*
X71516Y-31978D02*
X72382D01*
X71516Y-31407D02*
X72382D01*
X71516Y-31978D02*
Y-31407D01*
X72382Y-31978D02*
Y-31407D01*
X51732Y-31122D02*
Y-30492D01*
X52992Y-31122D02*
Y-30492D01*
X51732Y-31122D02*
X52992D01*
X51732Y-30492D02*
X52992D01*
X51831Y-31978D02*
X52697D01*
X51831Y-31407D02*
X52697D01*
X51831Y-31978D02*
Y-31407D01*
X52697Y-31978D02*
Y-31407D01*
X32047Y-31122D02*
Y-30492D01*
X33307Y-31122D02*
Y-30492D01*
X32047Y-31122D02*
X33307D01*
X32047Y-30492D02*
X33307D01*
X32146Y-31978D02*
X33012D01*
X32146Y-31407D02*
X33012D01*
X32146Y-31978D02*
Y-31407D01*
X33012Y-31978D02*
Y-31407D01*
X12362Y-31122D02*
Y-30492D01*
X13622Y-31122D02*
Y-30492D01*
X12362Y-31122D02*
X13622D01*
X12362Y-30492D02*
X13622D01*
X12362Y-31978D02*
X13228D01*
X12362Y-31407D02*
X13228D01*
X12362Y-31978D02*
Y-31407D01*
X13228Y-31978D02*
Y-31407D01*
X89724Y-38140D02*
X90276D01*
X89724Y-37293D02*
X90276D01*
Y-38140D02*
Y-37293D01*
X89724Y-38140D02*
Y-37293D01*
X5939Y-6871D02*
X6785D01*
X5939Y-6320D02*
X6785D01*
X5939Y-6871D02*
Y-6320D01*
X6785Y-6871D02*
Y-6320D01*
X6913Y-8200D02*
Y-7354D01*
X7465Y-8200D02*
Y-7354D01*
X6913D02*
X7465D01*
X6913Y-8200D02*
X7465D01*
X9640Y-6281D02*
X10486D01*
X9640Y-6832D02*
X10486D01*
Y-6281D01*
X9640Y-6832D02*
Y-6281D01*
X10014Y-7974D02*
X10585D01*
X10014Y-7107D02*
X10585D01*
Y-7974D02*
Y-7107D01*
X10014Y-7974D02*
Y-7107D01*
X5762Y-7974D02*
X6333D01*
X5762Y-7107D02*
X6333D01*
Y-7974D02*
Y-7107D01*
X5762Y-7974D02*
Y-7107D01*
X8449Y-8909D02*
Y-8062D01*
X7898Y-8909D02*
Y-8062D01*
Y-8909D02*
X8449D01*
X7898Y-8062D02*
X8449D01*
X8843Y-8200D02*
Y-7354D01*
X9394Y-8200D02*
Y-7354D01*
X8843D02*
X9394D01*
X8843Y-8200D02*
X9394D01*
X16756Y-8200D02*
Y-7354D01*
X17307Y-8200D02*
Y-7354D01*
X16756D02*
X17307D01*
X16756Y-8200D02*
X17307D01*
X18685D02*
Y-7354D01*
X19236Y-8200D02*
Y-7354D01*
X18685D02*
X19236D01*
X18685Y-8200D02*
X19236D01*
X15782Y-6871D02*
X16628D01*
X15782Y-6320D02*
X16628D01*
X15782Y-6871D02*
Y-6320D01*
X16628Y-6871D02*
Y-6320D01*
X19482Y-6281D02*
X20329D01*
X19482Y-6832D02*
X20329D01*
Y-6281D01*
X19482Y-6832D02*
Y-6281D01*
X18291Y-8909D02*
Y-8062D01*
X17740Y-8909D02*
Y-8062D01*
Y-8909D02*
X18291D01*
X17740Y-8062D02*
X18291D01*
X15604Y-7974D02*
X16175D01*
X15604Y-7107D02*
X16175D01*
Y-7974D02*
Y-7107D01*
X15604Y-7974D02*
Y-7107D01*
X19856Y-7974D02*
X20427D01*
X19856Y-7107D02*
X20427D01*
Y-7974D02*
Y-7107D01*
X19856Y-7974D02*
Y-7107D01*
X26598Y-8200D02*
Y-7354D01*
X27150Y-8200D02*
Y-7354D01*
X26598D02*
X27150D01*
X26598Y-8200D02*
X27150D01*
X28528D02*
Y-7354D01*
X29079Y-8200D02*
Y-7354D01*
X28528D02*
X29079D01*
X28528Y-8200D02*
X29079D01*
X25624Y-6871D02*
X26470D01*
X25624Y-6320D02*
X26470D01*
X25624Y-6871D02*
Y-6320D01*
X26470Y-6871D02*
Y-6320D01*
X29325Y-6281D02*
X30171D01*
X29325Y-6832D02*
X30171D01*
Y-6281D01*
X29325Y-6832D02*
Y-6281D01*
X28134Y-8909D02*
Y-8062D01*
X27583Y-8909D02*
Y-8062D01*
Y-8909D02*
X28134D01*
X27583Y-8062D02*
X28134D01*
X25447Y-7974D02*
X26018D01*
X25447Y-7107D02*
X26018D01*
Y-7974D02*
Y-7107D01*
X25447Y-7974D02*
Y-7107D01*
X29699Y-7974D02*
X30270D01*
X29699Y-7107D02*
X30270D01*
Y-7974D02*
Y-7107D01*
X29699Y-7974D02*
Y-7107D01*
X36441Y-8200D02*
Y-7354D01*
X36992Y-8200D02*
Y-7354D01*
X36441D02*
X36992D01*
X36441Y-8200D02*
X36992D01*
X38370D02*
Y-7354D01*
X38921Y-8200D02*
Y-7354D01*
X38370D02*
X38921D01*
X38370Y-8200D02*
X38921D01*
X35467Y-6871D02*
X36313D01*
X35467Y-6320D02*
X36313D01*
X35467Y-6871D02*
Y-6320D01*
X36313Y-6871D02*
Y-6320D01*
X39167Y-6281D02*
X40014D01*
X39167Y-6832D02*
X40014D01*
Y-6281D01*
X39167Y-6832D02*
Y-6281D01*
X37976Y-8909D02*
Y-8062D01*
X37425Y-8909D02*
Y-8062D01*
Y-8909D02*
X37976D01*
X37425Y-8062D02*
X37976D01*
X35289Y-7974D02*
X35860D01*
X35289Y-7107D02*
X35860D01*
Y-7974D02*
Y-7107D01*
X35289Y-7974D02*
Y-7107D01*
X39541Y-7974D02*
X40112D01*
X39541Y-7107D02*
X40112D01*
Y-7974D02*
Y-7107D01*
X39541Y-7974D02*
Y-7107D01*
X46283Y-8200D02*
Y-7354D01*
X46835Y-8200D02*
Y-7354D01*
X46283D02*
X46835D01*
X46283Y-8200D02*
X46835D01*
X48213D02*
Y-7354D01*
X48764Y-8200D02*
Y-7354D01*
X48213D02*
X48764D01*
X48213Y-8200D02*
X48764D01*
X45309Y-6871D02*
X46156D01*
X45309Y-6320D02*
X46156D01*
X45309Y-6871D02*
Y-6320D01*
X46156Y-6871D02*
Y-6320D01*
X49010Y-6281D02*
X49856D01*
X49010Y-6832D02*
X49856D01*
Y-6281D01*
X49010Y-6832D02*
Y-6281D01*
X47819Y-8909D02*
Y-8062D01*
X47268Y-8909D02*
Y-8062D01*
Y-8909D02*
X47819D01*
X47268Y-8062D02*
X47819D01*
X45132Y-7974D02*
X45703D01*
X45132Y-7107D02*
X45703D01*
Y-7974D02*
Y-7107D01*
X45132Y-7974D02*
Y-7107D01*
X49384Y-7974D02*
X49955D01*
X49384Y-7107D02*
X49955D01*
Y-7974D02*
Y-7107D01*
X49384Y-7974D02*
Y-7107D01*
X56126Y-8200D02*
Y-7354D01*
X56677Y-8200D02*
Y-7354D01*
X56126D02*
X56677D01*
X56126Y-8200D02*
X56677D01*
X58055D02*
Y-7354D01*
X58606Y-8200D02*
Y-7354D01*
X58055D02*
X58606D01*
X58055Y-8200D02*
X58606D01*
X55152Y-6871D02*
X55998D01*
X55152Y-6320D02*
X55998D01*
X55152Y-6871D02*
Y-6320D01*
X55998Y-6871D02*
Y-6320D01*
X58852Y-6281D02*
X59699D01*
X58852Y-6832D02*
X59699D01*
Y-6281D01*
X58852Y-6832D02*
Y-6281D01*
X57661Y-8909D02*
Y-8062D01*
X57110Y-8909D02*
Y-8062D01*
Y-8909D02*
X57661D01*
X57110Y-8062D02*
X57661D01*
X54974Y-7974D02*
X55545D01*
X54974Y-7107D02*
X55545D01*
Y-7974D02*
Y-7107D01*
X54974Y-7974D02*
Y-7107D01*
X59226Y-7974D02*
X59797D01*
X59226Y-7107D02*
X59797D01*
Y-7974D02*
Y-7107D01*
X59226Y-7974D02*
Y-7107D01*
X65968Y-8200D02*
Y-7354D01*
X66520Y-8200D02*
Y-7354D01*
X65968D02*
X66520D01*
X65968Y-8200D02*
X66520D01*
X67898D02*
Y-7354D01*
X68449Y-8200D02*
Y-7354D01*
X67898D02*
X68449D01*
X67898Y-8200D02*
X68449D01*
X64994Y-6871D02*
X65841D01*
X64994Y-6320D02*
X65841D01*
X64994Y-6871D02*
Y-6320D01*
X65841Y-6871D02*
Y-6320D01*
X68695Y-6281D02*
X69541D01*
X68695Y-6832D02*
X69541D01*
Y-6281D01*
X68695Y-6832D02*
Y-6281D01*
X67504Y-8909D02*
Y-8062D01*
X66953Y-8909D02*
Y-8062D01*
Y-8909D02*
X67504D01*
X66953Y-8062D02*
X67504D01*
X64817Y-7974D02*
X65388D01*
X64817Y-7107D02*
X65388D01*
Y-7974D02*
Y-7107D01*
X64817Y-7974D02*
Y-7107D01*
X69069Y-7974D02*
X69640D01*
X69069Y-7107D02*
X69640D01*
Y-7974D02*
Y-7107D01*
X69069Y-7974D02*
Y-7107D01*
X75880Y-8200D02*
Y-7354D01*
X76431Y-8200D02*
Y-7354D01*
X75880D02*
X76431D01*
X75880Y-8200D02*
X76431D01*
X77809D02*
Y-7354D01*
X78360Y-8200D02*
Y-7354D01*
X77809D02*
X78360D01*
X77809Y-8200D02*
X78360D01*
X74906Y-6871D02*
X75752D01*
X74906Y-6320D02*
X75752D01*
X74906Y-6871D02*
Y-6320D01*
X75752Y-6871D02*
Y-6320D01*
X78606Y-6281D02*
X79453D01*
X78606Y-6832D02*
X79453D01*
Y-6281D01*
X78606Y-6832D02*
Y-6281D01*
X77415Y-8909D02*
Y-8062D01*
X76864Y-8909D02*
Y-8062D01*
Y-8909D02*
X77415D01*
X76864Y-8062D02*
X77415D01*
X74728Y-7974D02*
X75299D01*
X74728Y-7107D02*
X75299D01*
Y-7974D02*
Y-7107D01*
X74728Y-7974D02*
Y-7107D01*
X78980Y-7974D02*
X79551D01*
X78980Y-7107D02*
X79551D01*
Y-7974D02*
Y-7107D01*
X78980Y-7974D02*
Y-7107D01*
X6913Y-18042D02*
Y-17196D01*
X7465Y-18042D02*
Y-17196D01*
X6913D02*
X7465D01*
X6913Y-18042D02*
X7465D01*
X8843D02*
Y-17196D01*
X9394Y-18042D02*
Y-17196D01*
X8843D02*
X9394D01*
X8843Y-18042D02*
X9394D01*
X5939Y-16714D02*
X6785D01*
X5939Y-16163D02*
X6785D01*
X5939Y-16714D02*
Y-16163D01*
X6785Y-16714D02*
Y-16163D01*
X9640Y-16123D02*
X10486D01*
X9640Y-16674D02*
X10486D01*
Y-16123D01*
X9640Y-16674D02*
Y-16123D01*
X8449Y-18751D02*
Y-17905D01*
X7898Y-18751D02*
Y-17905D01*
Y-18751D02*
X8449D01*
X7898Y-17905D02*
X8449D01*
X5762Y-17816D02*
X6333D01*
X5762Y-16950D02*
X6333D01*
Y-17816D02*
Y-16950D01*
X5762Y-17816D02*
Y-16950D01*
X10014Y-17816D02*
X10585D01*
X10014Y-16950D02*
X10585D01*
Y-17816D02*
Y-16950D01*
X10014Y-17816D02*
Y-16950D01*
X16766Y-18042D02*
Y-17196D01*
X17317Y-18042D02*
Y-17196D01*
X16766D02*
X17317D01*
X16766Y-18042D02*
X17317D01*
X18695D02*
Y-17196D01*
X19246Y-18042D02*
Y-17196D01*
X18695D02*
X19246D01*
X18695Y-18042D02*
X19246D01*
X15791Y-16714D02*
X16638D01*
X15791Y-16163D02*
X16638D01*
X15791Y-16714D02*
Y-16163D01*
X16638Y-16714D02*
Y-16163D01*
X19492Y-16123D02*
X20339D01*
X19492Y-16674D02*
X20339D01*
Y-16123D01*
X19492Y-16674D02*
Y-16123D01*
X18301Y-18751D02*
Y-17905D01*
X17750Y-18751D02*
Y-17905D01*
Y-18751D02*
X18301D01*
X17750Y-17905D02*
X18301D01*
X15614Y-17816D02*
X16185D01*
X15614Y-16950D02*
X16185D01*
Y-17816D02*
Y-16950D01*
X15614Y-17816D02*
Y-16950D01*
X19866Y-17816D02*
X20437D01*
X19866Y-16950D02*
X20437D01*
Y-17816D02*
Y-16950D01*
X19866Y-17816D02*
Y-16950D01*
X26618Y-18042D02*
Y-17196D01*
X27169Y-18042D02*
Y-17196D01*
X26618D02*
X27169D01*
X26618Y-18042D02*
X27169D01*
X28547D02*
Y-17196D01*
X29098Y-18042D02*
Y-17196D01*
X28547D02*
X29098D01*
X28547Y-18042D02*
X29098D01*
X25644Y-16714D02*
X26490D01*
X25644Y-16163D02*
X26490D01*
X25644Y-16714D02*
Y-16163D01*
X26490Y-16714D02*
Y-16163D01*
X29345Y-16123D02*
X30191D01*
X29345Y-16674D02*
X30191D01*
Y-16123D01*
X29345Y-16674D02*
Y-16123D01*
X28154Y-18751D02*
Y-17905D01*
X27602Y-18751D02*
Y-17905D01*
Y-18751D02*
X28154D01*
X27602Y-17905D02*
X28154D01*
X25467Y-17816D02*
X26037D01*
X25467Y-16950D02*
X26037D01*
Y-17816D02*
Y-16950D01*
X25467Y-17816D02*
Y-16950D01*
X29719Y-17816D02*
X30289D01*
X29719Y-16950D02*
X30289D01*
Y-17816D02*
Y-16950D01*
X29719Y-17816D02*
Y-16950D01*
X36470Y-18042D02*
Y-17196D01*
X37022Y-18042D02*
Y-17196D01*
X36470D02*
X37022D01*
X36470Y-18042D02*
X37022D01*
X38400D02*
Y-17196D01*
X38951Y-18042D02*
Y-17196D01*
X38400D02*
X38951D01*
X38400Y-18042D02*
X38951D01*
X35496Y-16714D02*
X36343D01*
X35496Y-16163D02*
X36343D01*
X35496Y-16714D02*
Y-16163D01*
X36343Y-16714D02*
Y-16163D01*
X39197Y-16123D02*
X40043D01*
X39197Y-16674D02*
X40043D01*
Y-16123D01*
X39197Y-16674D02*
Y-16123D01*
X38006Y-18751D02*
Y-17905D01*
X37455Y-18751D02*
Y-17905D01*
Y-18751D02*
X38006D01*
X37455Y-17905D02*
X38006D01*
X35319Y-17816D02*
X35890D01*
X35319Y-16950D02*
X35890D01*
Y-17816D02*
Y-16950D01*
X35319Y-17816D02*
Y-16950D01*
X39571Y-17816D02*
X40142D01*
X39571Y-16950D02*
X40142D01*
Y-17816D02*
Y-16950D01*
X39571Y-17816D02*
Y-16950D01*
X75880Y-18042D02*
Y-17196D01*
X76431Y-18042D02*
Y-17196D01*
X75880D02*
X76431D01*
X75880Y-18042D02*
X76431D01*
X77809D02*
Y-17196D01*
X78360Y-18042D02*
Y-17196D01*
X77809D02*
X78360D01*
X77809Y-18042D02*
X78360D01*
X74906Y-16714D02*
X75752D01*
X74906Y-16163D02*
X75752D01*
X74906Y-16714D02*
Y-16163D01*
X75752Y-16714D02*
Y-16163D01*
X78606Y-16123D02*
X79453D01*
X78606Y-16674D02*
X79453D01*
Y-16123D01*
X78606Y-16674D02*
Y-16123D01*
X77415Y-18751D02*
Y-17905D01*
X76864Y-18751D02*
Y-17905D01*
Y-18751D02*
X77415D01*
X76864Y-17905D02*
X77415D01*
X74728Y-17816D02*
X75299D01*
X74728Y-16950D02*
X75299D01*
Y-17816D02*
Y-16950D01*
X74728Y-17816D02*
Y-16950D01*
X78980Y-17816D02*
X79551D01*
X78980Y-16950D02*
X79551D01*
Y-17816D02*
Y-16950D01*
X78980Y-17816D02*
Y-16950D01*
X66028Y-18042D02*
Y-17196D01*
X66579Y-18042D02*
Y-17196D01*
X66028D02*
X66579D01*
X66028Y-18042D02*
X66579D01*
X67957D02*
Y-17196D01*
X68508Y-18042D02*
Y-17196D01*
X67957D02*
X68508D01*
X67957Y-18042D02*
X68508D01*
X65053Y-16714D02*
X65900D01*
X65053Y-16163D02*
X65900D01*
X65053Y-16714D02*
Y-16163D01*
X65900Y-16714D02*
Y-16163D01*
X68754Y-16123D02*
X69600D01*
X68754Y-16674D02*
X69600D01*
Y-16123D01*
X68754Y-16674D02*
Y-16123D01*
X67563Y-18751D02*
Y-17905D01*
X67012Y-18751D02*
Y-17905D01*
Y-18751D02*
X67563D01*
X67012Y-17905D02*
X67563D01*
X64876Y-17816D02*
X65447D01*
X64876Y-16950D02*
X65447D01*
Y-17816D02*
Y-16950D01*
X64876Y-17816D02*
Y-16950D01*
X69128Y-17816D02*
X69699D01*
X69128Y-16950D02*
X69699D01*
Y-17816D02*
Y-16950D01*
X69128Y-17816D02*
Y-16950D01*
X56175Y-18042D02*
Y-17196D01*
X56726Y-18042D02*
Y-17196D01*
X56175D02*
X56726D01*
X56175Y-18042D02*
X56726D01*
X58104D02*
Y-17196D01*
X58656Y-18042D02*
Y-17196D01*
X58104D02*
X58656D01*
X58104Y-18042D02*
X58656D01*
X55201Y-16714D02*
X56047D01*
X55201Y-16163D02*
X56047D01*
X55201Y-16714D02*
Y-16163D01*
X56047Y-16714D02*
Y-16163D01*
X58902Y-16123D02*
X59748D01*
X58902Y-16674D02*
X59748D01*
Y-16123D01*
X58902Y-16674D02*
Y-16123D01*
X57711Y-18751D02*
Y-17905D01*
X57159Y-18751D02*
Y-17905D01*
Y-18751D02*
X57711D01*
X57159Y-17905D02*
X57711D01*
X55024Y-17816D02*
X55594D01*
X55024Y-16950D02*
X55594D01*
Y-17816D02*
Y-16950D01*
X55024Y-17816D02*
Y-16950D01*
X59276Y-17816D02*
X59846D01*
X59276Y-16950D02*
X59846D01*
Y-17816D02*
Y-16950D01*
X59276Y-17816D02*
Y-16950D01*
X46323Y-18042D02*
Y-17196D01*
X46874Y-18042D02*
Y-17196D01*
X46323D02*
X46874D01*
X46323Y-18042D02*
X46874D01*
X48252D02*
Y-17196D01*
X48803Y-18042D02*
Y-17196D01*
X48252D02*
X48803D01*
X48252Y-18042D02*
X48803D01*
X45348Y-16714D02*
X46195D01*
X45348Y-16163D02*
X46195D01*
X45348Y-16714D02*
Y-16163D01*
X46195Y-16714D02*
Y-16163D01*
X49049Y-16123D02*
X49896D01*
X49049Y-16674D02*
X49896D01*
Y-16123D01*
X49049Y-16674D02*
Y-16123D01*
X47858Y-18751D02*
Y-17905D01*
X47307Y-18751D02*
Y-17905D01*
Y-18751D02*
X47858D01*
X47307Y-17905D02*
X47858D01*
X45171Y-17816D02*
X45742D01*
X45171Y-16950D02*
X45742D01*
Y-17816D02*
Y-16950D01*
X45171Y-17816D02*
Y-16950D01*
X49423Y-17816D02*
X49994D01*
X49423Y-16950D02*
X49994D01*
Y-17816D02*
Y-16950D01*
X49423Y-17816D02*
Y-16950D01*
X115049Y-40173D02*
X115896D01*
X115049Y-39622D02*
X115896D01*
X115049Y-40173D02*
Y-39622D01*
X115896Y-40173D02*
Y-39622D01*
X115049Y-38244D02*
X115896D01*
X115049Y-37693D02*
X115896D01*
X115049Y-38244D02*
Y-37693D01*
X115896Y-38244D02*
Y-37693D01*
X114567Y-41148D02*
Y-40301D01*
X114016Y-41148D02*
Y-40301D01*
Y-41148D02*
X114567D01*
X114016Y-40301D02*
X114567D01*
X113976Y-37447D02*
Y-36600D01*
X114528Y-37447D02*
Y-36600D01*
X113976D02*
X114528D01*
X113976Y-37447D02*
X114528D01*
X115758Y-38638D02*
X116604D01*
X115758Y-39189D02*
X116604D01*
Y-38638D01*
X115758Y-39189D02*
Y-38638D01*
X115669Y-41325D02*
Y-40754D01*
X114803Y-41325D02*
Y-40754D01*
X115669D01*
X114803Y-41325D02*
X115669D01*
Y-37073D02*
Y-36502D01*
X114803Y-37073D02*
Y-36502D01*
X115669D01*
X114803Y-37073D02*
X115669D01*
X115049Y-31887D02*
X115896D01*
X115049Y-31336D02*
X115896D01*
X115049Y-31887D02*
Y-31336D01*
X115896Y-31887D02*
Y-31336D01*
X115049Y-29958D02*
X115896D01*
X115049Y-29407D02*
X115896D01*
X115049Y-29958D02*
Y-29407D01*
X115896Y-29958D02*
Y-29407D01*
X114567Y-32862D02*
Y-32015D01*
X114016Y-32862D02*
Y-32015D01*
Y-32862D02*
X114567D01*
X114016Y-32015D02*
X114567D01*
X113976Y-29161D02*
Y-28314D01*
X114528Y-29161D02*
Y-28314D01*
X113976D02*
X114528D01*
X113976Y-29161D02*
X114528D01*
X115758Y-30352D02*
X116604D01*
X115758Y-30903D02*
X116604D01*
Y-30352D01*
X115758Y-30903D02*
Y-30352D01*
X115669Y-33039D02*
Y-32468D01*
X114803Y-33039D02*
Y-32468D01*
X115669D01*
X114803Y-33039D02*
X115669D01*
Y-28787D02*
Y-28216D01*
X114803Y-28787D02*
Y-28216D01*
X115669D01*
X114803Y-28787D02*
X115669D01*
X115049Y-23601D02*
X115896D01*
X115049Y-23050D02*
X115896D01*
X115049Y-23601D02*
Y-23050D01*
X115896Y-23601D02*
Y-23050D01*
X115049Y-21672D02*
X115896D01*
X115049Y-21121D02*
X115896D01*
X115049Y-21672D02*
Y-21121D01*
X115896Y-21672D02*
Y-21121D01*
X114567Y-24575D02*
Y-23729D01*
X114016Y-24575D02*
Y-23729D01*
Y-24575D02*
X114567D01*
X114016Y-23729D02*
X114567D01*
X113976Y-20875D02*
Y-20028D01*
X114528Y-20875D02*
Y-20028D01*
X113976D02*
X114528D01*
X113976Y-20875D02*
X114528D01*
X115758Y-22066D02*
X116604D01*
X115758Y-22617D02*
X116604D01*
Y-22066D01*
X115758Y-22617D02*
Y-22066D01*
X115669Y-24753D02*
Y-24182D01*
X114803Y-24753D02*
Y-24182D01*
X115669D01*
X114803Y-24753D02*
X115669D01*
Y-20501D02*
Y-19930D01*
X114803Y-20501D02*
Y-19930D01*
X115669D01*
X114803Y-20501D02*
X115669D01*
X115049Y-15315D02*
X115896D01*
X115049Y-14764D02*
X115896D01*
X115049Y-15315D02*
Y-14764D01*
X115896Y-15315D02*
Y-14764D01*
X115049Y-13386D02*
X115896D01*
X115049Y-12835D02*
X115896D01*
X115049Y-13386D02*
Y-12835D01*
X115896Y-13386D02*
Y-12835D01*
X114567Y-16289D02*
Y-15443D01*
X114016Y-16289D02*
Y-15443D01*
Y-16289D02*
X114567D01*
X114016Y-15443D02*
X114567D01*
X113976Y-12589D02*
Y-11742D01*
X114528Y-12589D02*
Y-11742D01*
X113976D02*
X114528D01*
X113976Y-12589D02*
X114528D01*
X115758Y-13780D02*
X116604D01*
X115758Y-14331D02*
X116604D01*
Y-13780D01*
X115758Y-14331D02*
Y-13780D01*
X115669Y-16467D02*
Y-15896D01*
X114803Y-16467D02*
Y-15896D01*
X115669D01*
X114803Y-16467D02*
X115669D01*
Y-12215D02*
Y-11644D01*
X114803Y-12215D02*
Y-11644D01*
X115669D01*
X114803Y-12215D02*
X115669D01*
X103729Y-27622D02*
X104576D01*
X103729Y-28173D02*
X104576D01*
Y-27622D01*
X103729Y-28173D02*
Y-27622D01*
Y-29551D02*
X104576D01*
X103729Y-30102D02*
X104576D01*
Y-29551D01*
X103729Y-30102D02*
Y-29551D01*
X105058Y-27494D02*
Y-26648D01*
X105609Y-27494D02*
Y-26648D01*
X105058D02*
X105609D01*
X105058Y-27494D02*
X105609D01*
X105648Y-31195D02*
Y-30348D01*
X105097Y-31195D02*
Y-30348D01*
Y-31195D02*
X105648D01*
X105097Y-30348D02*
X105648D01*
X103020Y-29157D02*
X103867D01*
X103020Y-28606D02*
X103867D01*
X103020Y-29157D02*
Y-28606D01*
X103867Y-29157D02*
Y-28606D01*
X103956Y-27041D02*
Y-26470D01*
X104822Y-27041D02*
Y-26470D01*
X103956Y-27041D02*
X104822D01*
X103956Y-26470D02*
X104822D01*
X103956Y-31293D02*
Y-30722D01*
X104822Y-31293D02*
Y-30722D01*
X103956Y-31293D02*
X104822D01*
X103956Y-30722D02*
X104822D01*
X103690Y-19499D02*
X104536D01*
X103690Y-20050D02*
X104536D01*
Y-19499D01*
X103690Y-20050D02*
Y-19499D01*
Y-21428D02*
X104536D01*
X103690Y-21979D02*
X104536D01*
Y-21428D01*
X103690Y-21979D02*
Y-21428D01*
X105019Y-19371D02*
Y-18524D01*
X105570Y-19371D02*
Y-18524D01*
X105019D02*
X105570D01*
X105019Y-19371D02*
X105570D01*
X105609Y-23072D02*
Y-22225D01*
X105058Y-23072D02*
Y-22225D01*
Y-23072D02*
X105609D01*
X105058Y-22225D02*
X105609D01*
X102981Y-21034D02*
X103828D01*
X102981Y-20483D02*
X103828D01*
X102981Y-21034D02*
Y-20483D01*
X103828Y-21034D02*
Y-20483D01*
X103916Y-18918D02*
Y-18347D01*
X104782Y-18918D02*
Y-18347D01*
X103916Y-18918D02*
X104782D01*
X103916Y-18347D02*
X104782D01*
X103916Y-23170D02*
Y-22599D01*
X104782Y-23170D02*
Y-22599D01*
X103916Y-23170D02*
X104782D01*
X103916Y-22599D02*
X104782D01*
X103808Y-11375D02*
X104654D01*
X103808Y-11926D02*
X104654D01*
Y-11375D01*
X103808Y-11926D02*
Y-11375D01*
Y-13304D02*
X104654D01*
X103808Y-13856D02*
X104654D01*
Y-13304D01*
X103808Y-13856D02*
Y-13304D01*
X105137Y-11247D02*
Y-10401D01*
X105688Y-11247D02*
Y-10401D01*
X105137D02*
X105688D01*
X105137Y-11247D02*
X105688D01*
X105727Y-14948D02*
Y-14102D01*
X105176Y-14948D02*
Y-14102D01*
Y-14948D02*
X105727D01*
X105176Y-14102D02*
X105727D01*
X103099Y-12911D02*
X103946D01*
X103099Y-12360D02*
X103946D01*
X103099Y-12911D02*
Y-12360D01*
X103946Y-12911D02*
Y-12360D01*
X104034Y-10795D02*
Y-10224D01*
X104900Y-10795D02*
Y-10224D01*
X104034Y-10795D02*
X104900D01*
X104034Y-10224D02*
X104900D01*
X104034Y-15047D02*
Y-14476D01*
X104900Y-15047D02*
Y-14476D01*
X104034Y-15047D02*
X104900D01*
X104034Y-14476D02*
X104900D01*
X103798Y-3252D02*
X104644D01*
X103798Y-3803D02*
X104644D01*
Y-3252D01*
X103798Y-3803D02*
Y-3252D01*
Y-5181D02*
X104644D01*
X103798Y-5732D02*
X104644D01*
Y-5181D01*
X103798Y-5732D02*
Y-5181D01*
X105127Y-3124D02*
Y-2278D01*
X105678Y-3124D02*
Y-2278D01*
X105127D02*
X105678D01*
X105127Y-3124D02*
X105678D01*
X105717Y-6825D02*
Y-5978D01*
X105166Y-6825D02*
Y-5978D01*
Y-6825D02*
X105717D01*
X105166Y-5978D02*
X105717D01*
X103089Y-4787D02*
X103936D01*
X103089Y-4236D02*
X103936D01*
X103089Y-4787D02*
Y-4236D01*
X103936Y-4787D02*
Y-4236D01*
X104024Y-2671D02*
Y-2100D01*
X104891Y-2671D02*
Y-2100D01*
X104024Y-2671D02*
X104891D01*
X104024Y-2100D02*
X104891D01*
X104024Y-6923D02*
Y-6352D01*
X104891Y-6923D02*
Y-6352D01*
X104024Y-6923D02*
X104891D01*
X104024Y-6352D02*
X104891D01*
X86220Y-5532D02*
Y-4685D01*
X85669Y-5532D02*
Y-4685D01*
Y-5532D02*
X86220D01*
X85669Y-4685D02*
X86220D01*
X86329Y-13606D02*
Y-12759D01*
X85778Y-13606D02*
Y-12759D01*
Y-13606D02*
X86329D01*
X85778Y-12759D02*
X86329D01*
X86299Y-21680D02*
Y-20833D01*
X85748Y-21680D02*
Y-20833D01*
Y-21680D02*
X86299D01*
X85748Y-20833D02*
X86299D01*
X86260Y-29754D02*
Y-28907D01*
X85709Y-29754D02*
Y-28907D01*
Y-29754D02*
X86260D01*
X85709Y-28907D02*
X86260D01*
X124252Y-3800D02*
Y-2953D01*
X123701Y-3800D02*
Y-2953D01*
Y-3800D02*
X124252D01*
X123701Y-2953D02*
X124252D01*
X124252Y-8721D02*
Y-7875D01*
X123701Y-8721D02*
Y-7875D01*
Y-8721D02*
X124252D01*
X123701Y-7875D02*
X124252D01*
D67*
X96520Y-12643D02*
G03*
X96520Y-12763I0J-60D01*
G01*
Y-12893D02*
G03*
X96520Y-13013I0J-60D01*
G01*
Y-13143D02*
G03*
X96520Y-13263I0J-60D01*
G01*
Y-13393D02*
G03*
X96520Y-13513I0J-60D01*
G01*
X96180Y-12763D02*
G03*
X96180Y-12643I0J60D01*
G01*
Y-13013D02*
G03*
X96180Y-12893I0J60D01*
G01*
Y-13263D02*
G03*
X96180Y-13143I0J60D01*
G01*
Y-13513D02*
G03*
X96180Y-13393I0J60D01*
G01*
X90339Y-12643D02*
G03*
X90339Y-12763I0J-60D01*
G01*
Y-12893D02*
G03*
X90339Y-13013I0J-60D01*
G01*
Y-13143D02*
G03*
X90339Y-13263I0J-60D01*
G01*
Y-13393D02*
G03*
X90339Y-13513I0J-60D01*
G01*
X89999Y-12763D02*
G03*
X89999Y-12643I0J60D01*
G01*
Y-13013D02*
G03*
X89999Y-12893I0J60D01*
G01*
Y-13263D02*
G03*
X89999Y-13143I0J60D01*
G01*
Y-13513D02*
G03*
X89999Y-13393I0J60D01*
G01*
X97053Y-28883D02*
G03*
X97053Y-28763I0J60D01*
G01*
Y-28633D02*
G03*
X97053Y-28513I0J60D01*
G01*
Y-28383D02*
G03*
X97053Y-28263I0J60D01*
G01*
Y-28133D02*
G03*
X97053Y-28013I0J60D01*
G01*
X97393Y-28763D02*
G03*
X97393Y-28883I0J-60D01*
G01*
Y-28513D02*
G03*
X97393Y-28633I0J-60D01*
G01*
Y-28263D02*
G03*
X97393Y-28383I0J-60D01*
G01*
Y-28013D02*
G03*
X97393Y-28133I0J-60D01*
G01*
X90872Y-28883D02*
G03*
X90872Y-28763I0J60D01*
G01*
Y-28633D02*
G03*
X90872Y-28513I0J60D01*
G01*
Y-28383D02*
G03*
X90872Y-28263I0J60D01*
G01*
Y-28133D02*
G03*
X90872Y-28013I0J60D01*
G01*
X91212Y-28763D02*
G03*
X91212Y-28883I0J-60D01*
G01*
Y-28513D02*
G03*
X91212Y-28633I0J-60D01*
G01*
Y-28263D02*
G03*
X91212Y-28383I0J-60D01*
G01*
Y-28013D02*
G03*
X91212Y-28133I0J-60D01*
G01*
X96942Y-4057D02*
G03*
X96942Y-4297I0J-120D01*
G01*
D68*
X35512Y-211D02*
X37242D01*
Y-4711D02*
Y-211D01*
X35512Y-4711D02*
X37242D01*
X35512D02*
Y-211D01*
X96180Y-12413D02*
X96520D01*
Y-12513D02*
Y-12413D01*
Y-13743D02*
Y-13643D01*
X96180Y-13743D02*
X96520D01*
X96180D02*
Y-13643D01*
Y-12513D02*
Y-12413D01*
X96520Y-12643D02*
Y-12513D01*
Y-12893D02*
Y-12763D01*
Y-13143D02*
Y-13013D01*
Y-13393D02*
Y-13263D01*
Y-13643D02*
Y-13513D01*
X96180Y-12643D02*
Y-12513D01*
Y-12893D02*
Y-12763D01*
Y-13143D02*
Y-13013D01*
Y-13393D02*
Y-13263D01*
Y-13643D02*
Y-13513D01*
X89999Y-12413D02*
X90339D01*
Y-12513D02*
Y-12413D01*
Y-13743D02*
Y-13643D01*
X89999Y-13743D02*
X90339D01*
X89999D02*
Y-13643D01*
Y-12513D02*
Y-12413D01*
X90339Y-12643D02*
Y-12513D01*
Y-12893D02*
Y-12763D01*
Y-13143D02*
Y-13013D01*
Y-13393D02*
Y-13263D01*
Y-13643D02*
Y-13513D01*
X89999Y-12643D02*
Y-12513D01*
Y-12893D02*
Y-12763D01*
Y-13143D02*
Y-13013D01*
Y-13393D02*
Y-13263D01*
Y-13643D02*
Y-13513D01*
X97053Y-29113D02*
X97393D01*
X97053D02*
Y-29013D01*
Y-27883D02*
Y-27783D01*
X97393D01*
Y-27883D02*
Y-27783D01*
Y-29113D02*
Y-29013D01*
X97053D02*
Y-28883D01*
Y-28763D02*
Y-28633D01*
Y-28513D02*
Y-28383D01*
Y-28263D02*
Y-28133D01*
Y-28013D02*
Y-27883D01*
X97393Y-29013D02*
Y-28883D01*
Y-28763D02*
Y-28633D01*
Y-28513D02*
Y-28383D01*
Y-28263D02*
Y-28133D01*
Y-28013D02*
Y-27883D01*
X90872Y-29113D02*
X91212D01*
X90872D02*
Y-29013D01*
Y-27883D02*
Y-27783D01*
X91212D01*
Y-27883D02*
Y-27783D01*
Y-29113D02*
Y-29013D01*
X90872D02*
Y-28883D01*
Y-28763D02*
Y-28633D01*
Y-28513D02*
Y-28383D01*
Y-28263D02*
Y-28133D01*
Y-28013D02*
Y-27883D01*
X91212Y-29013D02*
Y-28883D01*
Y-28763D02*
Y-28633D01*
Y-28513D02*
Y-28383D01*
Y-28263D02*
Y-28133D01*
Y-28013D02*
Y-27883D01*
X96412Y-5477D02*
X96722D01*
Y-5832D02*
Y-5477D01*
X96412Y-5832D02*
X96722D01*
X96412D02*
Y-5477D01*
X95412D02*
X95722D01*
Y-5832D02*
Y-5477D01*
X95412Y-5832D02*
X95722D01*
X95412D02*
Y-5477D01*
X94412D02*
X94722D01*
Y-5832D02*
Y-5477D01*
X94412Y-5832D02*
X94722D01*
X94412D02*
Y-5477D01*
X93412D02*
X93722D01*
Y-5832D02*
Y-5477D01*
X93412Y-5832D02*
X93722D01*
X93412D02*
Y-5477D01*
X92412D02*
X92722D01*
Y-5832D02*
Y-5477D01*
X92412Y-5832D02*
X92722D01*
X92412D02*
Y-5477D01*
X91412D02*
X91722D01*
Y-5832D02*
Y-5477D01*
X91412Y-5832D02*
X91722D01*
X91412D02*
Y-5477D01*
X90412D02*
X90722D01*
Y-5832D02*
Y-5477D01*
X90412Y-5832D02*
X90722D01*
X90412D02*
Y-5477D01*
X89412D02*
X89722D01*
Y-5832D02*
Y-5477D01*
X89412Y-5832D02*
X89722D01*
X89412D02*
Y-5477D01*
Y-2877D02*
X89722D01*
X89412D02*
Y-2522D01*
X89722D01*
Y-2877D02*
Y-2522D01*
X90412Y-2877D02*
X90722D01*
X90412D02*
Y-2522D01*
X90722D01*
Y-2877D02*
Y-2522D01*
X91412Y-2877D02*
X91722D01*
X91412D02*
Y-2522D01*
X91722D01*
Y-2877D02*
Y-2522D01*
X92412Y-2877D02*
X92722D01*
X92412D02*
Y-2522D01*
X92722D01*
Y-2877D02*
Y-2522D01*
X93412Y-2877D02*
X93722D01*
X93412D02*
Y-2522D01*
X93722D01*
Y-2877D02*
Y-2522D01*
X94412Y-2877D02*
X94722D01*
X94412D02*
Y-2522D01*
X94722D01*
Y-2877D02*
Y-2522D01*
X95412Y-2877D02*
X95722D01*
X95412D02*
Y-2522D01*
X95722D01*
Y-2877D02*
Y-2522D01*
X96412Y-2877D02*
X96722D01*
X96412D02*
Y-2522D01*
X96722D01*
Y-2877D02*
Y-2522D01*
X89192Y-5477D02*
Y-2877D01*
X96942D01*
Y-5477D02*
Y-2877D01*
X89192Y-5477D02*
X96942D01*
X84685Y-2602D02*
X86415D01*
Y-7102D02*
Y-2602D01*
X84685Y-7102D02*
X86415D01*
X84685D02*
Y-2602D01*
X84794Y-10676D02*
X86524D01*
Y-15176D02*
Y-10676D01*
X84794Y-15176D02*
X86524D01*
X84794D02*
Y-10676D01*
X84764Y-18750D02*
X86494D01*
Y-23250D02*
Y-18750D01*
X84764Y-23250D02*
X86494D01*
X84764D02*
Y-18750D01*
X84725Y-26824D02*
X86455D01*
Y-31324D02*
Y-26824D01*
X84725Y-31324D02*
X86455D01*
X84725D02*
Y-26824D01*
X122717Y-870D02*
X124447D01*
Y-5370D02*
Y-870D01*
X122717Y-5370D02*
X124447D01*
X122717D02*
Y-870D01*
X122717Y-5792D02*
X124447D01*
Y-10292D02*
Y-5792D01*
X122717Y-10292D02*
X124447D01*
X122717D02*
Y-5792D01*
M02*
