G04 Layer_Color=32768*
%FSLAX24Y24*%
%MOIN*%
G70*
G01*
G75*
%ADD10C,0.0100*%
%ADD65C,0.0080*%
D10*
X89139Y-43475D02*
X98736D01*
Y-33641D01*
X89139D02*
X98736D01*
X89139Y-43475D02*
Y-33641D01*
X42544Y-43319D02*
X62229D01*
X42544D02*
Y-23634D01*
X62229D01*
Y-43319D02*
Y-23634D01*
X42529Y-43319D02*
Y-23634D01*
X22844D02*
X42529D01*
X22844Y-43319D02*
Y-23634D01*
Y-43319D02*
X42529D01*
X81978D02*
Y-23634D01*
X62293D02*
X81978D01*
X62293Y-43319D02*
Y-23634D01*
Y-43319D02*
X81978D01*
X3144D02*
X22829D01*
X3144D02*
Y-23634D01*
X22829D01*
Y-43319D02*
Y-23634D01*
D65*
X95143Y-38070D02*
G03*
X92879Y-37775I-1206J-418D01*
G01*
Y-39350D02*
G03*
X95143Y-39054I1058J714D01*
G01*
X48646Y-37610D02*
G03*
X46382Y-37905I-1058J-714D01*
G01*
Y-38889D02*
G03*
X48646Y-39185I1206J418D01*
G01*
X58489Y-37610D02*
G03*
X56225Y-37905I-1058J-714D01*
G01*
Y-38889D02*
G03*
X58489Y-39185I1206J418D01*
G01*
X48646Y-27767D02*
G03*
X46382Y-28063I-1058J-714D01*
G01*
Y-29047D02*
G03*
X48646Y-29342I1206J418D01*
G01*
X58489Y-27767D02*
G03*
X56225Y-28063I-1058J-714D01*
G01*
Y-29047D02*
G03*
X58489Y-29342I1206J418D01*
G01*
X36525Y-29047D02*
G03*
X38789Y-29342I1206J418D01*
G01*
Y-27767D02*
G03*
X36525Y-28063I-1058J-714D01*
G01*
X26682Y-29047D02*
G03*
X28946Y-29342I1206J418D01*
G01*
Y-27767D02*
G03*
X26682Y-28063I-1058J-714D01*
G01*
X36525Y-38889D02*
G03*
X38789Y-39185I1206J418D01*
G01*
Y-37610D02*
G03*
X36525Y-37905I-1058J-714D01*
G01*
X26682Y-38889D02*
G03*
X28946Y-39185I1206J418D01*
G01*
Y-37610D02*
G03*
X26682Y-37905I-1058J-714D01*
G01*
X75974Y-29047D02*
G03*
X78238Y-29342I1206J418D01*
G01*
Y-27767D02*
G03*
X75974Y-28063I-1058J-714D01*
G01*
X66131Y-29047D02*
G03*
X68395Y-29342I1206J418D01*
G01*
Y-27767D02*
G03*
X66131Y-28063I-1058J-714D01*
G01*
X75974Y-38889D02*
G03*
X78238Y-39185I1206J418D01*
G01*
Y-37610D02*
G03*
X75974Y-37905I-1058J-714D01*
G01*
X66131Y-38889D02*
G03*
X68395Y-39185I1206J418D01*
G01*
Y-37610D02*
G03*
X66131Y-37905I-1058J-714D01*
G01*
X9246Y-37610D02*
G03*
X6982Y-37905I-1058J-714D01*
G01*
Y-38889D02*
G03*
X9246Y-39185I1206J418D01*
G01*
X19089Y-37610D02*
G03*
X16825Y-37905I-1058J-714D01*
G01*
Y-38889D02*
G03*
X19089Y-39185I1206J418D01*
G01*
X9246Y-27767D02*
G03*
X6982Y-28063I-1058J-714D01*
G01*
Y-29047D02*
G03*
X9246Y-29342I1206J418D01*
G01*
X19089Y-27767D02*
G03*
X16825Y-28063I-1058J-714D01*
G01*
Y-29047D02*
G03*
X19089Y-29342I1206J418D01*
G01*
X92879Y-39350D02*
Y-39054D01*
Y-38070D02*
Y-37775D01*
X48646Y-39185D02*
Y-38889D01*
Y-37905D02*
Y-37610D01*
X58489Y-39185D02*
Y-38889D01*
Y-37905D02*
Y-37610D01*
X48646Y-29342D02*
Y-29047D01*
Y-28063D02*
Y-27767D01*
X58489Y-29342D02*
Y-29047D01*
Y-28063D02*
Y-27767D01*
X38789Y-28063D02*
Y-27767D01*
Y-29342D02*
Y-29047D01*
X28946Y-28063D02*
Y-27767D01*
Y-29342D02*
Y-29047D01*
X38789Y-37905D02*
Y-37610D01*
Y-39185D02*
Y-38889D01*
X28946Y-37905D02*
Y-37610D01*
Y-39185D02*
Y-38889D01*
X78238Y-28063D02*
Y-27767D01*
Y-29342D02*
Y-29047D01*
X68395Y-28063D02*
Y-27767D01*
Y-29342D02*
Y-29047D01*
X78238Y-37905D02*
Y-37610D01*
Y-39185D02*
Y-38889D01*
X68395Y-37905D02*
Y-37610D01*
Y-39185D02*
Y-38889D01*
X9246Y-39185D02*
Y-38889D01*
Y-37905D02*
Y-37610D01*
X19089Y-39185D02*
Y-38889D01*
Y-37905D02*
Y-37610D01*
X9246Y-29342D02*
Y-29047D01*
Y-28063D02*
Y-27767D01*
X19089Y-29342D02*
Y-29047D01*
Y-28063D02*
Y-27767D01*
M02*
