M48
;Layer_Color=9474304
;FILE_FORMAT=2:5
INCH,LZ
;TYPE=PLATED
T1F00S00C0.00787
T2F00S00C0.02362
T3F00S00C0.02756
T4F00S00C0.02800
T5F00S00C0.03346
T6F00S00C0.03543
T7F00S00C0.03937
T8F00S00C0.11811
T9F00S00C0.12500
%
T01
X1004955Y0230713
Y0235043
Y0239374
X1009286
Y0235043
Y0230713
X0812506
X0808175
Y0235043
Y0239374
X0812506
Y0235043
X0615725Y0235043
Y0239374
X0611395
Y0235043
Y0230713
X0615725
X0418945
Y0235043
Y0239374
X0414614
Y0235043
Y0230713
T02
X0941575Y019
X103Y0198
X104Y019
Y0288425
X103Y0296425
X0941575Y0288425
X0931575Y0296425
X0843Y0288425
X0833Y0296425
Y0198
X0843Y019
X0931575Y0198
X0744575Y019
X0734575Y0198
X0646Y019
X0636Y0198
Y0296425
X0646Y0288425
X0734575Y0296425
X0744575Y0288425
X0547575
X0537575Y0296425
Y0198
X0547575Y019
X0449
X0439Y0198
X0350575Y019
X0340575Y0198
Y0296425
X0350575Y0288425
X0439Y0296425
X0449Y0288425
T03
X10043Y02551
X10143
X10195Y02702
X09995
X08222Y027
X08181Y02552
X08081
X08022Y027
X06251
X0621467Y0255
X0611467
X06051Y027
X0428
X0408
X0413Y0255
X0423
X057Y0422
X058
X0604
X0614
X0623Y0446
X0603
X0584
X0564
X07197Y03909
X07297
T04
X03721Y01442
X04855Y01504
X09862Y02166
X09866Y0224666
X09723Y02361
X09643Y02411
Y02501
X09723
X09815Y02515
X10468Y02506
Y02361
X10628Y02411
Y02506
X10356Y02174
X09198Y019
X08657Y02411
Y02506
X08497
Y02361
X08327Y02241
X0831Y02164
X07887
X07891Y0224466
X07842Y02519
X08137Y01803
X0924Y03061
X07752Y02501
X07672
Y02411
X07752Y02361
X06688Y0241
Y02505
X06528
Y0236
X06359Y02236
X06341Y02164
X05918
X05922Y0224466
X05783Y0236
X05703Y0241
Y025
X05783
X05876Y02518
X06137Y01823
X06011Y01594
X05259Y01869
X04715Y0241
Y02505
X05308Y03061
X04555Y02505
Y0236
X04387Y0224
X04369Y02164
X03946
X0395Y0224466
X0381Y0236
X0373Y0241
Y025
X0381
X0391Y02517
X03972Y01597
X0417Y01779
X02971Y03803
X03043Y04071
X03356Y04317
X04162Y03237
X04614
X0562032Y0321368
X054955Y034235
X06043Y03824
X0660332Y0321868
X0766Y04
X08238Y03492
X07977Y03221
X08556
X0906Y03424
X0955832Y0321768
X09945Y03535
X103405Y034245
X08079Y04904
X07793Y04947
X07724Y04943
X07501Y049
X07393Y04861
X07296Y04814
X07194Y04754
T05
X09249Y02364
Y02664
X07269Y02667
Y02367
X0531Y02365
Y02665
X03336Y02662
Y02362
X06936Y03991
Y04291
T06
X04872Y04344
X04972
X0558Y0433
X0568
X0587
X0597
X0615
X0625
X06441Y04328
X06541
X06641
X06741
X06996Y04571
X07096
X07196
X07296
X07396
X07496
X07596
X07696
X07796
Y03671
X07696
X07596
X07496
X07396
X07296
X07196
X07096
X06996
X07896
Y04571
T07
X0948158Y0186138
X0956032
X0963906
X097178
X1046583
X1054457
X1062331
X1070205
Y0284563
X1062331
X1054457
X1046583
X097178
X0963906
X0956032
X0948158
X0873205
X0865331
X0857457
X0849583
Y0186138
X0857457
X0865331
X0873205
X077478
X0766906
X0759032
X0751158
X0676205
X0668331
X0660457
X0652583
Y0284563
X0660457
X0668331
X0676205
X0751158
X0759032
X0766906
X077478
X057778
X0569906
X0562032
X0554158
X0479205
X0471331
Y0186138
X0479205
X0554158
X0562032
X0569906
X057778
X0463457
X0455583
X038078
X0372906
X0365032
X0357158
Y0284563
X0365032
X0372906
X038078
X0455583
X0463457
T08
X0329599Y0146768
X0506764
X0526599
X0703764
X0723599
X0900764
X0920599
X1097764
X0329599Y0323933
X0506764
X0526599
X0703764
X0723599
X0900764
X0920599
X1097764
T09
X0284Y0145
X1136
Y0495
X0284
M30
