G04 Layer_Color=255*
%FSLAX25Y25*%
%MOIN*%
G70*
G01*
G75*
%ADD10R,0.01400X0.06300*%
%ADD11O,0.06693X0.01378*%
%ADD12R,0.10827X0.13504*%
%ADD17C,0.11811*%
%ADD18C,0.03543*%
%ADD19C,0.05905*%
%ADD20C,0.05512*%
%ADD21R,0.05905X0.05905*%
%ADD22C,0.05905*%
%ADD23C,0.04724*%
%ADD24C,0.06000*%
D10*
X726850Y423550D02*
D03*
X729350D02*
D03*
X731850D02*
D03*
X734350D02*
D03*
X736850D02*
D03*
X739350D02*
D03*
X741850D02*
D03*
X744350D02*
D03*
X746850D02*
D03*
X749350D02*
D03*
X751850D02*
D03*
X754350D02*
D03*
Y402650D02*
D03*
X751850D02*
D03*
X749350D02*
D03*
X746850D02*
D03*
X744350D02*
D03*
X741850D02*
D03*
X739350D02*
D03*
X736850D02*
D03*
X734350D02*
D03*
X731850D02*
D03*
X729350D02*
D03*
X726850D02*
D03*
D11*
X405559Y246559D02*
D03*
Y244000D02*
D03*
Y241441D02*
D03*
Y238882D02*
D03*
Y236323D02*
D03*
Y233764D02*
D03*
Y231205D02*
D03*
Y228646D02*
D03*
Y226087D02*
D03*
Y223528D02*
D03*
X428000Y246559D02*
D03*
Y244000D02*
D03*
Y241441D02*
D03*
Y238882D02*
D03*
Y236323D02*
D03*
Y233764D02*
D03*
Y231205D02*
D03*
Y228646D02*
D03*
Y226087D02*
D03*
Y223528D02*
D03*
X602340Y246559D02*
D03*
Y244000D02*
D03*
Y241441D02*
D03*
Y238882D02*
D03*
Y236323D02*
D03*
Y233764D02*
D03*
Y231205D02*
D03*
Y228646D02*
D03*
Y226087D02*
D03*
Y223528D02*
D03*
X624780Y246559D02*
D03*
Y244000D02*
D03*
Y241441D02*
D03*
Y238882D02*
D03*
Y236323D02*
D03*
Y233764D02*
D03*
Y231205D02*
D03*
Y228646D02*
D03*
Y226087D02*
D03*
Y223528D02*
D03*
X799120Y246559D02*
D03*
Y244000D02*
D03*
Y241441D02*
D03*
Y238882D02*
D03*
Y236323D02*
D03*
Y233764D02*
D03*
Y231205D02*
D03*
Y228646D02*
D03*
Y226087D02*
D03*
Y223528D02*
D03*
X821560Y246559D02*
D03*
Y244000D02*
D03*
Y241441D02*
D03*
Y238882D02*
D03*
Y236323D02*
D03*
Y233764D02*
D03*
Y231205D02*
D03*
Y228646D02*
D03*
Y226087D02*
D03*
Y223528D02*
D03*
X995900Y246559D02*
D03*
Y244000D02*
D03*
Y241441D02*
D03*
Y238882D02*
D03*
Y236323D02*
D03*
Y233764D02*
D03*
Y231205D02*
D03*
Y228646D02*
D03*
Y226087D02*
D03*
Y223528D02*
D03*
X1018341Y246559D02*
D03*
Y244000D02*
D03*
Y241441D02*
D03*
Y238882D02*
D03*
Y236323D02*
D03*
Y233764D02*
D03*
Y231205D02*
D03*
Y228646D02*
D03*
Y226087D02*
D03*
Y223528D02*
D03*
D12*
X416780Y235043D02*
D03*
X613560D02*
D03*
X810340Y235043D02*
D03*
X1007120D02*
D03*
D17*
X1097764Y146768D02*
D03*
Y323933D02*
D03*
X920599D02*
D03*
Y146768D02*
D03*
X723599D02*
D03*
Y323933D02*
D03*
X900764D02*
D03*
Y146768D02*
D03*
X703764D02*
D03*
Y323933D02*
D03*
X526599D02*
D03*
Y146768D02*
D03*
X329599D02*
D03*
Y323933D02*
D03*
X506764D02*
D03*
Y146768D02*
D03*
D18*
X1030000Y198000D02*
D03*
X1040000Y190000D02*
D03*
X931575Y198000D02*
D03*
X941575Y190000D02*
D03*
X1030000Y296425D02*
D03*
X1040000Y288425D02*
D03*
X931575Y296425D02*
D03*
X941575Y288425D02*
D03*
X744575D02*
D03*
X734575Y296425D02*
D03*
X843000Y288425D02*
D03*
X833000Y296425D02*
D03*
X744575Y190000D02*
D03*
X734575Y198000D02*
D03*
X843000Y190000D02*
D03*
X833000Y198000D02*
D03*
X636000D02*
D03*
X646000Y190000D02*
D03*
X537575Y198000D02*
D03*
X547575Y190000D02*
D03*
X636000Y296425D02*
D03*
X646000Y288425D02*
D03*
X537575Y296425D02*
D03*
X547575Y288425D02*
D03*
X350575D02*
D03*
X340575Y296425D02*
D03*
X449000Y288425D02*
D03*
X439000Y296425D02*
D03*
X350575Y190000D02*
D03*
X340575Y198000D02*
D03*
X449000Y190000D02*
D03*
X439000Y198000D02*
D03*
D19*
X1046583Y186138D02*
D03*
X1070205D02*
D03*
X1062331D02*
D03*
X1054457D02*
D03*
X948158D02*
D03*
X971780D02*
D03*
X963906D02*
D03*
X956032D02*
D03*
X1046583Y284563D02*
D03*
X1070205D02*
D03*
X1062331D02*
D03*
X1054457D02*
D03*
X948158D02*
D03*
X971780D02*
D03*
X963906D02*
D03*
X956032D02*
D03*
X759032D02*
D03*
X766906D02*
D03*
X774780D02*
D03*
X751158D02*
D03*
X857457D02*
D03*
X865331D02*
D03*
X873205D02*
D03*
X849583D02*
D03*
X759032Y186138D02*
D03*
X766906D02*
D03*
X774780D02*
D03*
X751158D02*
D03*
X857457D02*
D03*
X865331D02*
D03*
X873205D02*
D03*
X849583D02*
D03*
X652583D02*
D03*
X676205D02*
D03*
X668331D02*
D03*
X660457D02*
D03*
X554158D02*
D03*
X577780D02*
D03*
X569906D02*
D03*
X562032D02*
D03*
X652583Y284563D02*
D03*
X676205D02*
D03*
X668331D02*
D03*
X660457D02*
D03*
X554158D02*
D03*
X577780D02*
D03*
X569906D02*
D03*
X562032D02*
D03*
X365032D02*
D03*
X372906D02*
D03*
X380780D02*
D03*
X357158D02*
D03*
X463457D02*
D03*
X471331D02*
D03*
X479205D02*
D03*
X455583D02*
D03*
X365032Y186138D02*
D03*
X372906D02*
D03*
X380780D02*
D03*
X357158D02*
D03*
X463457D02*
D03*
X471331D02*
D03*
X479205D02*
D03*
X455583D02*
D03*
D20*
X924900Y236400D02*
D03*
Y266400D02*
D03*
X531000Y236500D02*
D03*
Y266500D02*
D03*
X726900Y266700D02*
D03*
Y236700D02*
D03*
X693600Y399100D02*
D03*
Y429100D02*
D03*
X333600Y236200D02*
D03*
Y266200D02*
D03*
D21*
X644100Y432800D02*
D03*
X699600Y367100D02*
D03*
X487200Y434400D02*
D03*
X568000Y433000D02*
D03*
X597000D02*
D03*
X615000D02*
D03*
X699600Y457100D02*
D03*
D22*
X654100Y432800D02*
D03*
X664100D02*
D03*
X674100D02*
D03*
X719600Y367100D02*
D03*
X789600D02*
D03*
X779600D02*
D03*
X769600D02*
D03*
X759600D02*
D03*
X749600D02*
D03*
X739600D02*
D03*
X729600D02*
D03*
X709600D02*
D03*
X497200Y434400D02*
D03*
X558000Y433000D02*
D03*
X587000D02*
D03*
X625000D02*
D03*
X719600Y457100D02*
D03*
X789600D02*
D03*
X779600D02*
D03*
X769600D02*
D03*
X759600D02*
D03*
X749600D02*
D03*
X739600D02*
D03*
X729600D02*
D03*
X709600D02*
D03*
D23*
X605100Y270000D02*
D03*
X625100D02*
D03*
X408000D02*
D03*
X428000D02*
D03*
X584000Y446000D02*
D03*
X564000D02*
D03*
X570000Y422000D02*
D03*
X580000D02*
D03*
X623000Y446000D02*
D03*
X603000D02*
D03*
X729700Y390900D02*
D03*
X719700D02*
D03*
X423000Y255000D02*
D03*
X413000D02*
D03*
X621467D02*
D03*
X611467D02*
D03*
X818100Y255200D02*
D03*
X808100D02*
D03*
X614000Y422000D02*
D03*
X604000D02*
D03*
X1014300Y255100D02*
D03*
X1004300D02*
D03*
X999500Y270200D02*
D03*
X1019500D02*
D03*
X802200Y270000D02*
D03*
X822200D02*
D03*
D24*
X1136000Y495000D02*
D03*
Y145000D02*
D03*
X284000D02*
D03*
Y495000D02*
D03*
M02*
