G04 Layer_Color=8388736*
%FSLAX25Y25*%
%MOIN*%
G70*
G01*
G75*
%ADD31R,0.02200X0.07100*%
%ADD32O,0.07493X0.02178*%
%ADD33R,0.11627X0.14304*%
%ADD34C,0.12611*%
%ADD35C,0.04343*%
%ADD36C,0.06706*%
%ADD37C,0.06312*%
%ADD38R,0.06706X0.06706*%
%ADD39C,0.06706*%
%ADD40C,0.05524*%
%ADD41C,0.06800*%
%ADD42C,0.05800*%
%ADD43C,0.02768*%
D31*
X726850Y423550D02*
D03*
X729350D02*
D03*
X731850D02*
D03*
X734350D02*
D03*
X736850D02*
D03*
X739350D02*
D03*
X741850D02*
D03*
X744350D02*
D03*
X746850D02*
D03*
X749350D02*
D03*
X751850D02*
D03*
X754350D02*
D03*
Y402650D02*
D03*
X751850D02*
D03*
X749350D02*
D03*
X746850D02*
D03*
X744350D02*
D03*
X741850D02*
D03*
X739350D02*
D03*
X736850D02*
D03*
X734350D02*
D03*
X731850D02*
D03*
X729350D02*
D03*
X726850D02*
D03*
D32*
X405559Y246559D02*
D03*
Y244000D02*
D03*
Y241441D02*
D03*
Y238882D02*
D03*
Y236323D02*
D03*
Y233764D02*
D03*
Y231205D02*
D03*
Y228646D02*
D03*
Y226087D02*
D03*
Y223528D02*
D03*
X428000Y246559D02*
D03*
Y244000D02*
D03*
Y241441D02*
D03*
Y238882D02*
D03*
Y236323D02*
D03*
Y233764D02*
D03*
Y231205D02*
D03*
Y228646D02*
D03*
Y226087D02*
D03*
Y223528D02*
D03*
X602340Y246559D02*
D03*
Y244000D02*
D03*
Y241441D02*
D03*
Y238882D02*
D03*
Y236323D02*
D03*
Y233764D02*
D03*
Y231205D02*
D03*
Y228646D02*
D03*
Y226087D02*
D03*
Y223528D02*
D03*
X624780Y246559D02*
D03*
Y244000D02*
D03*
Y241441D02*
D03*
Y238882D02*
D03*
Y236323D02*
D03*
Y233764D02*
D03*
Y231205D02*
D03*
Y228646D02*
D03*
Y226087D02*
D03*
Y223528D02*
D03*
X799120Y246559D02*
D03*
Y244000D02*
D03*
Y241441D02*
D03*
Y238882D02*
D03*
Y236323D02*
D03*
Y233764D02*
D03*
Y231205D02*
D03*
Y228646D02*
D03*
Y226087D02*
D03*
Y223528D02*
D03*
X821560Y246559D02*
D03*
Y244000D02*
D03*
Y241441D02*
D03*
Y238882D02*
D03*
Y236323D02*
D03*
Y233764D02*
D03*
Y231205D02*
D03*
Y228646D02*
D03*
Y226087D02*
D03*
Y223528D02*
D03*
X995900Y246559D02*
D03*
Y244000D02*
D03*
Y241441D02*
D03*
Y238882D02*
D03*
Y236323D02*
D03*
Y233764D02*
D03*
Y231205D02*
D03*
Y228646D02*
D03*
Y226087D02*
D03*
Y223528D02*
D03*
X1018341Y246559D02*
D03*
Y244000D02*
D03*
Y241441D02*
D03*
Y238882D02*
D03*
Y236323D02*
D03*
Y233764D02*
D03*
Y231205D02*
D03*
Y228646D02*
D03*
Y226087D02*
D03*
Y223528D02*
D03*
D33*
X416780Y235043D02*
D03*
X613560D02*
D03*
X810340Y235043D02*
D03*
X1007120D02*
D03*
D34*
X1097764Y146768D02*
D03*
Y323933D02*
D03*
X920599D02*
D03*
Y146768D02*
D03*
X723599D02*
D03*
Y323933D02*
D03*
X900764D02*
D03*
Y146768D02*
D03*
X703764D02*
D03*
Y323933D02*
D03*
X526599D02*
D03*
Y146768D02*
D03*
X329599D02*
D03*
Y323933D02*
D03*
X506764D02*
D03*
Y146768D02*
D03*
D35*
X1030000Y198000D02*
D03*
X1040000Y190000D02*
D03*
X931575Y198000D02*
D03*
X941575Y190000D02*
D03*
X1030000Y296425D02*
D03*
X1040000Y288425D02*
D03*
X931575Y296425D02*
D03*
X941575Y288425D02*
D03*
X744575D02*
D03*
X734575Y296425D02*
D03*
X843000Y288425D02*
D03*
X833000Y296425D02*
D03*
X744575Y190000D02*
D03*
X734575Y198000D02*
D03*
X843000Y190000D02*
D03*
X833000Y198000D02*
D03*
X636000D02*
D03*
X646000Y190000D02*
D03*
X537575Y198000D02*
D03*
X547575Y190000D02*
D03*
X636000Y296425D02*
D03*
X646000Y288425D02*
D03*
X537575Y296425D02*
D03*
X547575Y288425D02*
D03*
X350575D02*
D03*
X340575Y296425D02*
D03*
X449000Y288425D02*
D03*
X439000Y296425D02*
D03*
X350575Y190000D02*
D03*
X340575Y198000D02*
D03*
X449000Y190000D02*
D03*
X439000Y198000D02*
D03*
D36*
X1046583Y186138D02*
D03*
X1070205D02*
D03*
X1062331D02*
D03*
X1054457D02*
D03*
X948158D02*
D03*
X971780D02*
D03*
X963906D02*
D03*
X956032D02*
D03*
X1046583Y284563D02*
D03*
X1070205D02*
D03*
X1062331D02*
D03*
X1054457D02*
D03*
X948158D02*
D03*
X971780D02*
D03*
X963906D02*
D03*
X956032D02*
D03*
X759032D02*
D03*
X766906D02*
D03*
X774780D02*
D03*
X751158D02*
D03*
X857457D02*
D03*
X865331D02*
D03*
X873205D02*
D03*
X849583D02*
D03*
X759032Y186138D02*
D03*
X766906D02*
D03*
X774780D02*
D03*
X751158D02*
D03*
X857457D02*
D03*
X865331D02*
D03*
X873205D02*
D03*
X849583D02*
D03*
X652583D02*
D03*
X676205D02*
D03*
X668331D02*
D03*
X660457D02*
D03*
X554158D02*
D03*
X577780D02*
D03*
X569906D02*
D03*
X562032D02*
D03*
X652583Y284563D02*
D03*
X676205D02*
D03*
X668331D02*
D03*
X660457D02*
D03*
X554158D02*
D03*
X577780D02*
D03*
X569906D02*
D03*
X562032D02*
D03*
X365032D02*
D03*
X372906D02*
D03*
X380780D02*
D03*
X357158D02*
D03*
X463457D02*
D03*
X471331D02*
D03*
X479205D02*
D03*
X455583D02*
D03*
X365032Y186138D02*
D03*
X372906D02*
D03*
X380780D02*
D03*
X357158D02*
D03*
X463457D02*
D03*
X471331D02*
D03*
X479205D02*
D03*
X455583D02*
D03*
D37*
X924900Y236400D02*
D03*
Y266400D02*
D03*
X531000Y236500D02*
D03*
Y266500D02*
D03*
X726900Y266700D02*
D03*
Y236700D02*
D03*
X693600Y399100D02*
D03*
Y429100D02*
D03*
X333600Y236200D02*
D03*
Y266200D02*
D03*
D38*
X644100Y432800D02*
D03*
X699600Y367100D02*
D03*
X487200Y434400D02*
D03*
X568000Y433000D02*
D03*
X597000D02*
D03*
X615000D02*
D03*
X699600Y457100D02*
D03*
D39*
X654100Y432800D02*
D03*
X664100D02*
D03*
X674100D02*
D03*
X719600Y367100D02*
D03*
X789600D02*
D03*
X779600D02*
D03*
X769600D02*
D03*
X759600D02*
D03*
X749600D02*
D03*
X739600D02*
D03*
X729600D02*
D03*
X709600D02*
D03*
X497200Y434400D02*
D03*
X558000Y433000D02*
D03*
X587000D02*
D03*
X625000D02*
D03*
X719600Y457100D02*
D03*
X789600D02*
D03*
X779600D02*
D03*
X769600D02*
D03*
X759600D02*
D03*
X749600D02*
D03*
X739600D02*
D03*
X729600D02*
D03*
X709600D02*
D03*
D40*
X605100Y270000D02*
D03*
X625100D02*
D03*
X408000D02*
D03*
X428000D02*
D03*
X584000Y446000D02*
D03*
X564000D02*
D03*
X570000Y422000D02*
D03*
X580000D02*
D03*
X623000Y446000D02*
D03*
X603000D02*
D03*
X729700Y390900D02*
D03*
X719700D02*
D03*
X423000Y255000D02*
D03*
X413000D02*
D03*
X621467D02*
D03*
X611467D02*
D03*
X818100Y255200D02*
D03*
X808100D02*
D03*
X614000Y422000D02*
D03*
X604000D02*
D03*
X1014300Y255100D02*
D03*
X1004300D02*
D03*
X999500Y270200D02*
D03*
X1019500D02*
D03*
X802200Y270000D02*
D03*
X822200D02*
D03*
D41*
X1136000Y495000D02*
D03*
Y145000D02*
D03*
X284000D02*
D03*
Y495000D02*
D03*
D42*
X335600Y431700D02*
D03*
X297100Y380300D02*
D03*
X397200Y159700D02*
D03*
X372100Y144200D02*
D03*
X601100Y159400D02*
D03*
X613700Y182300D02*
D03*
X779300Y494700D02*
D03*
X304300Y407100D02*
D03*
X485500Y150400D02*
D03*
X525900Y186900D02*
D03*
X455500Y250500D02*
D03*
X417000Y177900D02*
D03*
X416200Y323700D02*
D03*
X855600Y322100D02*
D03*
X797700D02*
D03*
X1034050Y342450D02*
D03*
X906000Y342400D02*
D03*
X660332Y321868D02*
D03*
X924000Y306100D02*
D03*
X955832Y321768D02*
D03*
X530800Y306100D02*
D03*
X562032Y321368D02*
D03*
X461400Y323700D02*
D03*
X549550Y342350D02*
D03*
X832700Y224100D02*
D03*
X635900Y223600D02*
D03*
X438700Y224000D02*
D03*
X986600Y224666D02*
D03*
X986200Y216600D02*
D03*
X789100Y224466D02*
D03*
X788700Y216400D02*
D03*
X831000D02*
D03*
X592200Y224466D02*
D03*
X591800Y216400D02*
D03*
X634100D02*
D03*
X436900D02*
D03*
X394600D02*
D03*
X395000Y224466D02*
D03*
X1062800Y250600D02*
D03*
X981500Y251500D02*
D03*
X784200Y251900D02*
D03*
X391000Y251700D02*
D03*
X587600Y251800D02*
D03*
X972300Y250100D02*
D03*
X964300Y241100D02*
D03*
X1046800Y250600D02*
D03*
X972300Y236100D02*
D03*
X1062800Y241100D02*
D03*
X1046800Y236100D02*
D03*
X964300Y250100D02*
D03*
X775200D02*
D03*
X767200Y241100D02*
D03*
X849700Y250600D02*
D03*
X865700D02*
D03*
X775200Y236100D02*
D03*
X865700Y241100D02*
D03*
X849700Y236100D02*
D03*
X767200Y250100D02*
D03*
X578300Y250000D02*
D03*
X570300Y241000D02*
D03*
X652800Y250500D02*
D03*
X668800D02*
D03*
X578300Y236000D02*
D03*
X668800Y241000D02*
D03*
X652800Y236000D02*
D03*
X570300Y250000D02*
D03*
X373000D02*
D03*
X455500Y236000D02*
D03*
X471500Y241000D02*
D03*
X381000Y236000D02*
D03*
X471500Y250500D02*
D03*
X373000Y241000D02*
D03*
X381000Y250000D02*
D03*
X772400Y494300D02*
D03*
X807900Y490400D02*
D03*
X750100Y490000D02*
D03*
X813700Y180300D02*
D03*
X739300Y486100D02*
D03*
X919800Y190000D02*
D03*
X729600Y481400D02*
D03*
X1035600Y217400D02*
D03*
X719400Y475400D02*
D03*
X604300Y382400D02*
D03*
X823800Y349200D02*
D03*
X994500Y353500D02*
D03*
X766000Y400000D02*
D03*
D43*
X418945Y239374D02*
D03*
X414614Y235043D02*
D03*
X418945Y230713D02*
D03*
Y235043D02*
D03*
X414614Y239374D02*
D03*
Y230713D02*
D03*
X611395D02*
D03*
X615725D02*
D03*
X808175Y239374D02*
D03*
X812506D02*
D03*
X808175Y230713D02*
D03*
X812506D02*
D03*
X1004955Y239374D02*
D03*
Y235043D02*
D03*
Y230713D02*
D03*
X812506Y235043D02*
D03*
X808175D02*
D03*
X1009286Y230713D02*
D03*
Y235043D02*
D03*
Y239374D02*
D03*
X611395Y239374D02*
D03*
X615725Y235043D02*
D03*
Y239374D02*
D03*
X611395Y235043D02*
D03*
M02*
