G04 Layer_Color=32896*
%FSLAX25Y25*%
%MOIN*%
G70*
G01*
G75*
%ADD13C,0.01000*%
D13*
X679100Y427800D02*
Y437800D01*
X639100D02*
X679100D01*
X639100Y427800D02*
X679100D01*
X639100D02*
Y437800D01*
X482200Y429400D02*
X502200D01*
X482200D02*
Y439400D01*
X502200D01*
Y429400D02*
Y439400D01*
X553000Y438000D02*
X573000D01*
Y428000D02*
Y438000D01*
X553000Y428000D02*
X573000D01*
X553000D02*
Y438000D01*
X582000Y428000D02*
Y438000D01*
Y428000D02*
X602000D01*
Y438000D01*
X582000D02*
X602000D01*
X610000Y428000D02*
X630000D01*
X610000D02*
Y438000D01*
X630000D01*
Y428000D02*
Y438000D01*
X419200Y339400D02*
Y345398D01*
X416201D01*
X415201Y344398D01*
Y342399D01*
X416201Y341399D01*
X419200D01*
X413202Y339400D02*
X411203D01*
X412202D01*
Y345398D01*
X413202Y344398D01*
X597000Y421000D02*
Y426998D01*
X594001D01*
X593001Y425998D01*
Y423999D01*
X594001Y422999D01*
X597000D01*
X587003Y426998D02*
X589003Y425998D01*
X591002Y423999D01*
Y422000D01*
X590002Y421000D01*
X588003D01*
X587003Y422000D01*
Y422999D01*
X588003Y423999D01*
X591002D01*
X551000Y432000D02*
Y437998D01*
X548001D01*
X547001Y436998D01*
Y434999D01*
X548001Y433999D01*
X551000D01*
X541003Y437998D02*
X545002D01*
Y434999D01*
X543003Y435999D01*
X542003D01*
X541003Y434999D01*
Y433000D01*
X542003Y432000D01*
X544002D01*
X545002Y433000D01*
X678200Y441800D02*
Y447798D01*
X675201D01*
X674201Y446798D01*
Y444799D01*
X675201Y443799D01*
X678200D01*
X672202Y447798D02*
X668203D01*
Y446798D01*
X672202Y442800D01*
Y441800D01*
X501700Y442900D02*
Y448898D01*
X498701D01*
X497701Y447898D01*
Y445899D01*
X498701Y444899D01*
X501700D01*
X495702Y447898D02*
X494702Y448898D01*
X492703D01*
X491703Y447898D01*
Y446899D01*
X492703Y445899D01*
X491703Y444899D01*
Y443900D01*
X492703Y442900D01*
X494702D01*
X495702Y443900D01*
Y444899D01*
X494702Y445899D01*
X495702Y446899D01*
Y447898D01*
X494702Y445899D02*
X492703D01*
X629400Y441400D02*
Y447398D01*
X626401D01*
X625401Y446398D01*
Y444399D01*
X626401Y443399D01*
X629400D01*
X623402Y441400D02*
X621403D01*
X622402D01*
Y447398D01*
X623402Y446398D01*
X618404Y441400D02*
X616404D01*
X617404D01*
Y447398D01*
X618404Y446398D01*
X622200Y337600D02*
Y343598D01*
X619201D01*
X618201Y342598D01*
Y340599D01*
X619201Y339599D01*
X622200D01*
X612203Y337600D02*
X616202D01*
X612203Y341599D01*
Y342598D01*
X613203Y343598D01*
X615202D01*
X616202Y342598D01*
X816100Y338900D02*
Y344898D01*
X813101D01*
X812101Y343898D01*
Y341899D01*
X813101Y340899D01*
X816100D01*
X810102Y343898D02*
X809102Y344898D01*
X807103D01*
X806103Y343898D01*
Y342899D01*
X807103Y341899D01*
X808103D01*
X807103D01*
X806103Y340899D01*
Y339900D01*
X807103Y338900D01*
X809102D01*
X810102Y339900D01*
X1011500Y339600D02*
Y345598D01*
X1008501D01*
X1007501Y344598D01*
Y342599D01*
X1008501Y341599D01*
X1011500D01*
X1002503Y339600D02*
Y345598D01*
X1005502Y342599D01*
X1001503D01*
M02*
