G04 Layer_Color=65535*
%FSLAX24Y24*%
%MOIN*%
G70*
G01*
G75*
%ADD24C,0.0100*%
%ADD40C,0.0060*%
%ADD41C,0.0098*%
%ADD42C,0.0236*%
%ADD43C,0.0200*%
%ADD44C,0.0079*%
%ADD45C,0.0039*%
%ADD46C,0.0030*%
%ADD47C,0.0080*%
%ADD48C,0.0020*%
%ADD49R,0.0748X0.0315*%
D24*
X5204Y-21949D02*
Y-21349D01*
X5504D01*
X5603Y-21449D01*
Y-21649D01*
X5504Y-21749D01*
X5204D01*
X5803Y-21849D02*
X5903Y-21949D01*
X6103D01*
X6203Y-21849D01*
Y-21449D01*
X6103Y-21349D01*
X5903D01*
X5803Y-21449D01*
Y-21549D01*
X5903Y-21649D01*
X6203D01*
X2270Y-17512D02*
X2170Y-17412D01*
X1970D01*
X1870Y-17512D01*
Y-17912D01*
X1970Y-18012D01*
X2170D01*
X2270Y-17912D01*
X2470Y-18112D02*
X2870D01*
X3470Y-17412D02*
X3070D01*
Y-17712D01*
X3270Y-17612D01*
X3370D01*
X3470Y-17712D01*
Y-17912D01*
X3370Y-18012D01*
X3170D01*
X3070Y-17912D01*
X3670Y-17412D02*
Y-17812D01*
X3869Y-18012D01*
X4069Y-17812D01*
Y-17412D01*
X2299Y-23851D02*
X2200Y-23751D01*
X2000D01*
X1900Y-23851D01*
Y-24250D01*
X2000Y-24350D01*
X2200D01*
X2299Y-24250D01*
X2499Y-24450D02*
X2899D01*
X3099Y-24350D02*
X3299D01*
X3199D01*
Y-23751D01*
X3099Y-23851D01*
X3999Y-24350D02*
X3599D01*
X3999Y-23951D01*
Y-23851D01*
X3899Y-23751D01*
X3699D01*
X3599Y-23851D01*
X4199Y-23751D02*
Y-24150D01*
X4399Y-24350D01*
X4599Y-24150D01*
Y-23751D01*
X1876Y-30179D02*
X1776Y-30079D01*
X1576D01*
X1476Y-30179D01*
Y-30579D01*
X1576Y-30679D01*
X1776D01*
X1876Y-30579D01*
X2076Y-30779D02*
X2476D01*
X2676Y-30379D02*
X3076D01*
X3276Y-30679D02*
X3476D01*
X3376D01*
Y-30079D01*
X3276Y-30179D01*
X4175Y-30679D02*
X3776D01*
X4175Y-30279D01*
Y-30179D01*
X4076Y-30079D01*
X3876D01*
X3776Y-30179D01*
X4375Y-30079D02*
Y-30479D01*
X4575Y-30679D01*
X4775Y-30479D01*
Y-30079D01*
X1262Y-28262D02*
X1162Y-28362D01*
Y-28561D01*
X1262Y-28661D01*
X1662D01*
X1762Y-28561D01*
Y-28362D01*
X1662Y-28262D01*
X1262Y-28062D02*
X1162Y-27962D01*
Y-27762D01*
X1262Y-27662D01*
X1362D01*
X1462Y-27762D01*
X1562Y-27662D01*
X1662D01*
X1762Y-27762D01*
Y-27962D01*
X1662Y-28062D01*
X1562D01*
X1462Y-27962D01*
X1362Y-28062D01*
X1262D01*
X1462Y-27962D02*
Y-27762D01*
X1862Y-27462D02*
Y-27062D01*
X1762Y-26862D02*
X1162D01*
Y-26562D01*
X1262Y-26462D01*
X1462D01*
X1562Y-26562D01*
Y-26862D01*
X1162Y-26262D02*
X1762D01*
X1562Y-26062D01*
X1762Y-25862D01*
X1162D01*
X1762Y-25662D02*
X1162D01*
Y-25362D01*
X1262Y-25263D01*
X1462D01*
X1562Y-25362D01*
Y-25662D01*
Y-25462D02*
X1762Y-25263D01*
X8132Y-23242D02*
X8032Y-23342D01*
Y-23542D01*
X8132Y-23642D01*
X8532D01*
X8632Y-23542D01*
Y-23342D01*
X8532Y-23242D01*
X8032Y-23042D02*
Y-22642D01*
X8132D01*
X8532Y-23042D01*
X8632D01*
X8732Y-22442D02*
Y-22042D01*
X8632Y-21842D02*
X8032D01*
Y-21542D01*
X8132Y-21442D01*
X8332D01*
X8432Y-21542D01*
Y-21842D01*
X8032Y-21243D02*
X8632D01*
X8432Y-21043D01*
X8632Y-20843D01*
X8032D01*
X8632Y-20643D02*
X8032D01*
Y-20343D01*
X8132Y-20243D01*
X8332D01*
X8432Y-20343D01*
Y-20643D01*
Y-20443D02*
X8632Y-20243D01*
X103297Y-19818D02*
X103197Y-19718D01*
X102997D01*
X102897Y-19818D01*
Y-20218D01*
X102997Y-20318D01*
X103197D01*
X103297Y-20218D01*
X103797Y-20318D02*
Y-19718D01*
X103497Y-20018D01*
X103897D01*
X103097Y-31278D02*
X102997Y-31178D01*
X102797D01*
X102697Y-31278D01*
Y-31678D01*
X102797Y-31778D01*
X102997D01*
X103097Y-31678D01*
X103597Y-31778D02*
Y-31178D01*
X103297Y-31478D01*
X103697D01*
X1262Y-34462D02*
X1162Y-34562D01*
Y-34762D01*
X1262Y-34862D01*
X1662D01*
X1762Y-34762D01*
Y-34562D01*
X1662Y-34462D01*
X1262Y-34262D02*
X1162Y-34162D01*
Y-33963D01*
X1262Y-33863D01*
X1362D01*
X1462Y-33963D01*
Y-34062D01*
Y-33963D01*
X1562Y-33863D01*
X1662D01*
X1762Y-33963D01*
Y-34162D01*
X1662Y-34262D01*
X1862Y-33663D02*
Y-33263D01*
X1762Y-33063D02*
X1162D01*
Y-32763D01*
X1262Y-32663D01*
X1462D01*
X1562Y-32763D01*
Y-33063D01*
X1162Y-32463D02*
X1762D01*
X1562Y-32263D01*
X1762Y-32063D01*
X1162D01*
X1762Y-31863D02*
X1162D01*
Y-31563D01*
X1262Y-31463D01*
X1462D01*
X1562Y-31563D01*
Y-31863D01*
Y-31663D02*
X1762Y-31463D01*
X86797Y-32018D02*
X86697Y-31918D01*
X86497D01*
X86397Y-32018D01*
Y-32418D01*
X86497Y-32518D01*
X86697D01*
X86797Y-32418D01*
X86997Y-32018D02*
X87097Y-31918D01*
X87297D01*
X87397Y-32018D01*
Y-32118D01*
X87297Y-32218D01*
X87197D01*
X87297D01*
X87397Y-32318D01*
Y-32418D01*
X87297Y-32518D01*
X87097D01*
X86997Y-32418D01*
X97408Y-26971D02*
X97308Y-26871D01*
X97108D01*
X97008Y-26971D01*
Y-27371D01*
X97108Y-27470D01*
X97308D01*
X97408Y-27371D01*
X97608Y-26971D02*
X97708Y-26871D01*
X97908D01*
X98008Y-26971D01*
Y-27071D01*
X97908Y-27171D01*
X97808D01*
X97908D01*
X98008Y-27271D01*
Y-27371D01*
X97908Y-27470D01*
X97708D01*
X97608Y-27371D01*
X97398Y-37729D02*
X97298Y-37629D01*
X97098D01*
X96998Y-37729D01*
Y-38128D01*
X97098Y-38228D01*
X97298D01*
X97398Y-38128D01*
X97598Y-37729D02*
X97698Y-37629D01*
X97898D01*
X97998Y-37729D01*
Y-37828D01*
X97898Y-37928D01*
X97798D01*
X97898D01*
X97998Y-38028D01*
Y-38128D01*
X97898Y-38228D01*
X97698D01*
X97598Y-38128D01*
X75283Y-15173D02*
X75383Y-15074D01*
Y-14874D01*
X75283Y-14774D01*
X74883D01*
X74783Y-14874D01*
Y-15074D01*
X74883Y-15173D01*
X74783Y-15773D02*
Y-15373D01*
X75183Y-15773D01*
X75283D01*
X75383Y-15673D01*
Y-15473D01*
X75283Y-15373D01*
X74683Y-15973D02*
Y-16373D01*
X74783Y-16573D02*
X75383D01*
Y-16873D01*
X75283Y-16973D01*
X75083D01*
X74983Y-16873D01*
Y-16573D01*
X75383Y-17173D02*
X74783D01*
X74983Y-17373D01*
X74783Y-17573D01*
X75383D01*
X74783Y-17773D02*
X75383D01*
Y-18073D01*
X75283Y-18173D01*
X75083D01*
X74983Y-18073D01*
Y-17773D01*
Y-17973D02*
X74783Y-18173D01*
X82969Y-38162D02*
X82869Y-38062D01*
X82669D01*
X82569Y-38162D01*
Y-38561D01*
X82669Y-38661D01*
X82869D01*
X82969Y-38561D01*
X83569Y-38661D02*
X83169D01*
X83569Y-38262D01*
Y-38162D01*
X83469Y-38062D01*
X83269D01*
X83169Y-38162D01*
X84986Y-26823D02*
X84887Y-26723D01*
X84687D01*
X84587Y-26823D01*
Y-27223D01*
X84687Y-27323D01*
X84887D01*
X84986Y-27223D01*
X85586Y-27323D02*
X85186D01*
X85586Y-26923D01*
Y-26823D01*
X85486Y-26723D01*
X85286D01*
X85186Y-26823D01*
X86847Y-20868D02*
X86747Y-20768D01*
X86547D01*
X86447Y-20868D01*
Y-21268D01*
X86547Y-21368D01*
X86747D01*
X86847Y-21268D01*
X87447Y-21368D02*
X87047D01*
X87447Y-20968D01*
Y-20868D01*
X87347Y-20768D01*
X87147D01*
X87047Y-20868D01*
X91719Y-11065D02*
X91619Y-10965D01*
X91419D01*
X91319Y-11065D01*
Y-11465D01*
X91419Y-11565D01*
X91619D01*
X91719Y-11465D01*
X92319Y-11565D02*
X91919D01*
X92319Y-11165D01*
Y-11065D01*
X92219Y-10965D01*
X92019D01*
X91919Y-11065D01*
X82227Y-10768D02*
X82127Y-10668D01*
X81927D01*
X81827Y-10768D01*
Y-11168D01*
X81927Y-11268D01*
X82127D01*
X82227Y-11168D01*
X82827Y-11268D02*
X82427D01*
X82827Y-10868D01*
Y-10768D01*
X82727Y-10668D01*
X82527D01*
X82427Y-10768D01*
X1114Y-21893D02*
X1014Y-21993D01*
Y-22193D01*
X1114Y-22293D01*
X1514D01*
X1614Y-22193D01*
Y-21993D01*
X1514Y-21893D01*
X1614Y-21693D02*
Y-21494D01*
Y-21594D01*
X1014D01*
X1114Y-21693D01*
X1714Y-21194D02*
Y-20794D01*
X1614Y-20594D02*
X1014D01*
Y-20294D01*
X1114Y-20194D01*
X1314D01*
X1414Y-20294D01*
Y-20594D01*
X1014Y-19994D02*
X1614D01*
X1414Y-19794D01*
X1614Y-19594D01*
X1014D01*
X1614Y-19394D02*
X1014D01*
Y-19094D01*
X1114Y-18994D01*
X1314D01*
X1414Y-19094D01*
Y-19394D01*
Y-19194D02*
X1614Y-18994D01*
X62167Y-10278D02*
X62067Y-10178D01*
X61867D01*
X61767Y-10278D01*
Y-10678D01*
X61867Y-10778D01*
X62067D01*
X62167Y-10678D01*
X62367Y-10778D02*
X62567D01*
X62467D01*
Y-10178D01*
X62367Y-10278D01*
X81089Y-31666D02*
X80989Y-31566D01*
X80789D01*
X80689Y-31666D01*
Y-32065D01*
X80789Y-32165D01*
X80989D01*
X81089Y-32065D01*
X81289Y-32165D02*
X81489D01*
X81389D01*
Y-31566D01*
X81289Y-31666D01*
X83628Y-25091D02*
X83528Y-24991D01*
X83328D01*
X83228Y-25091D01*
Y-25491D01*
X83328Y-25591D01*
X83528D01*
X83628Y-25491D01*
X83828Y-25591D02*
X84028D01*
X83928D01*
Y-24991D01*
X83828Y-25091D01*
X86158Y-12945D02*
X86058Y-12845D01*
X85858D01*
X85758Y-12945D01*
Y-13345D01*
X85858Y-13445D01*
X86058D01*
X86158Y-13345D01*
X86358Y-13445D02*
X86558D01*
X86458D01*
Y-12845D01*
X86358Y-12945D01*
X78746Y-15042D02*
X78646Y-14942D01*
X78446D01*
X78346Y-15042D01*
Y-15441D01*
X78446Y-15541D01*
X78646D01*
X78746Y-15441D01*
X78946Y-15541D02*
X79146D01*
X79046D01*
Y-14942D01*
X78946Y-15042D01*
X32293Y-2717D02*
Y-2117D01*
X32693Y-2717D01*
Y-2117D01*
X32993Y-2717D02*
X33193D01*
X33293Y-2617D01*
Y-2417D01*
X33193Y-2317D01*
X32993D01*
X32893Y-2417D01*
Y-2617D01*
X32993Y-2717D01*
X33593Y-2217D02*
Y-2317D01*
X33493D01*
X33693D01*
X33593D01*
Y-2617D01*
X33693Y-2717D01*
X34293D02*
X34093D01*
X33993Y-2617D01*
Y-2417D01*
X34093Y-2317D01*
X34293D01*
X34393Y-2417D01*
Y-2517D01*
X33993D01*
X35592Y-2117D02*
X35192D01*
Y-2717D01*
X35592D01*
X35192Y-2417D02*
X35392D01*
X35792Y-2717D02*
Y-2317D01*
X36092D01*
X36192Y-2417D01*
Y-2717D01*
X36792Y-2317D02*
X36492D01*
X36392Y-2417D01*
Y-2617D01*
X36492Y-2717D01*
X36792D01*
X37092D02*
X37292D01*
X37392Y-2617D01*
Y-2417D01*
X37292Y-2317D01*
X37092D01*
X36992Y-2417D01*
Y-2617D01*
X37092Y-2717D01*
X37991Y-2117D02*
Y-2717D01*
X37692D01*
X37592Y-2617D01*
Y-2417D01*
X37692Y-2317D01*
X37991D01*
X38491Y-2717D02*
X38291D01*
X38191Y-2617D01*
Y-2417D01*
X38291Y-2317D01*
X38491D01*
X38591Y-2417D01*
Y-2517D01*
X38191D01*
X38791Y-2317D02*
Y-2717D01*
Y-2517D01*
X38891Y-2417D01*
X38991Y-2317D01*
X39091D01*
X39391Y-2717D02*
X39691D01*
X39791Y-2617D01*
X39691Y-2517D01*
X39491D01*
X39391Y-2417D01*
X39491Y-2317D01*
X39791D01*
X40591Y-2717D02*
X40791D01*
X40691D01*
Y-2117D01*
X40591Y-2217D01*
X58012Y-2126D02*
Y-1526D01*
X58412Y-2126D01*
Y-1526D01*
X58712Y-2126D02*
X58912D01*
X59011Y-2026D01*
Y-1826D01*
X58912Y-1726D01*
X58712D01*
X58612Y-1826D01*
Y-2026D01*
X58712Y-2126D01*
X59311Y-1626D02*
Y-1726D01*
X59211D01*
X59411D01*
X59311D01*
Y-2026D01*
X59411Y-2126D01*
X60011D02*
X59811D01*
X59711Y-2026D01*
Y-1826D01*
X59811Y-1726D01*
X60011D01*
X60111Y-1826D01*
Y-1926D01*
X59711D01*
X61311Y-1526D02*
X60911D01*
Y-2126D01*
X61311D01*
X60911Y-1826D02*
X61111D01*
X61511Y-2126D02*
Y-1726D01*
X61811D01*
X61911Y-1826D01*
Y-2126D01*
X62510Y-1726D02*
X62210D01*
X62110Y-1826D01*
Y-2026D01*
X62210Y-2126D01*
X62510D01*
X62810D02*
X63010D01*
X63110Y-2026D01*
Y-1826D01*
X63010Y-1726D01*
X62810D01*
X62710Y-1826D01*
Y-2026D01*
X62810Y-2126D01*
X63710Y-1526D02*
Y-2126D01*
X63410D01*
X63310Y-2026D01*
Y-1826D01*
X63410Y-1726D01*
X63710D01*
X64210Y-2126D02*
X64010D01*
X63910Y-2026D01*
Y-1826D01*
X64010Y-1726D01*
X64210D01*
X64310Y-1826D01*
Y-1926D01*
X63910D01*
X64510Y-1726D02*
Y-2126D01*
Y-1926D01*
X64610Y-1826D01*
X64710Y-1726D01*
X64810D01*
X65110Y-2126D02*
X65409D01*
X65509Y-2026D01*
X65409Y-1926D01*
X65209D01*
X65110Y-1826D01*
X65209Y-1726D01*
X65509D01*
X66709Y-2126D02*
X66309D01*
X66709Y-1726D01*
Y-1626D01*
X66609Y-1526D01*
X66409D01*
X66309Y-1626D01*
X71654Y-1909D02*
Y-1510D01*
X71853Y-1310D01*
X72053Y-1510D01*
Y-1909D01*
Y-1610D01*
X71654D01*
X72253Y-1510D02*
Y-1809D01*
X72353Y-1909D01*
X72653D01*
Y-1510D01*
X72853D02*
X73253Y-1909D01*
X73053Y-1710D01*
X73253Y-1510D01*
X72853Y-1909D01*
X74453Y-1310D02*
X74053D01*
Y-1909D01*
X74453D01*
X74053Y-1610D02*
X74253D01*
X74653Y-1909D02*
Y-1510D01*
X74952D01*
X75052Y-1610D01*
Y-1909D01*
X75652Y-1510D02*
X75352D01*
X75252Y-1610D01*
Y-1809D01*
X75352Y-1909D01*
X75652D01*
X75952D02*
X76152D01*
X76252Y-1809D01*
Y-1610D01*
X76152Y-1510D01*
X75952D01*
X75852Y-1610D01*
Y-1809D01*
X75952Y-1909D01*
X76852Y-1310D02*
Y-1909D01*
X76552D01*
X76452Y-1809D01*
Y-1610D01*
X76552Y-1510D01*
X76852D01*
X77352Y-1909D02*
X77152D01*
X77052Y-1809D01*
Y-1610D01*
X77152Y-1510D01*
X77352D01*
X77452Y-1610D01*
Y-1710D01*
X77052D01*
X77652Y-1510D02*
Y-1909D01*
Y-1710D01*
X77752Y-1610D01*
X77852Y-1510D01*
X77952D01*
X78251Y-1909D02*
X78551D01*
X78651Y-1809D01*
X78551Y-1710D01*
X78351D01*
X78251Y-1610D01*
X78351Y-1510D01*
X78651D01*
X74033Y-29209D02*
X74133Y-29109D01*
Y-28909D01*
X74033Y-28809D01*
X73933D01*
X73833Y-28909D01*
Y-29109D01*
X73733Y-29209D01*
X73633D01*
X73533Y-29109D01*
Y-28909D01*
X73633Y-28809D01*
X73533Y-29409D02*
Y-29609D01*
Y-29509D01*
X73933D01*
Y-29409D01*
X73334Y-30109D02*
Y-30209D01*
X73433Y-30309D01*
X73933D01*
Y-30009D01*
X73833Y-29909D01*
X73633D01*
X73533Y-30009D01*
Y-30309D01*
Y-30509D02*
X73933D01*
Y-30808D01*
X73833Y-30908D01*
X73533D01*
X73933Y-31208D02*
Y-31408D01*
X73833Y-31508D01*
X73533D01*
Y-31208D01*
X73633Y-31108D01*
X73733Y-31208D01*
Y-31508D01*
X73533Y-31708D02*
Y-31908D01*
Y-31808D01*
X74133D01*
Y-31708D01*
X73533Y-32208D02*
Y-32508D01*
X73633Y-32608D01*
X73733Y-32508D01*
Y-32308D01*
X73833Y-32208D01*
X73933Y-32308D01*
Y-32608D01*
X73494Y-17756D02*
X74094D01*
Y-18056D01*
X73994Y-18156D01*
X73794D01*
X73694Y-18056D01*
Y-17756D01*
X73494Y-18456D02*
Y-18656D01*
X73594Y-18756D01*
X73794D01*
X73894Y-18656D01*
Y-18456D01*
X73794Y-18356D01*
X73594D01*
X73494Y-18456D01*
X73894Y-18956D02*
X73594D01*
X73494Y-19055D01*
X73594Y-19155D01*
X73494Y-19255D01*
X73594Y-19355D01*
X73894D01*
X73494Y-19855D02*
Y-19655D01*
X73594Y-19555D01*
X73794D01*
X73894Y-19655D01*
Y-19855D01*
X73794Y-19955D01*
X73694D01*
Y-19555D01*
X73894Y-20155D02*
X73494D01*
X73694D01*
X73794Y-20255D01*
X73894Y-20355D01*
Y-20455D01*
X56772Y-23032D02*
X57172Y-23632D01*
Y-23032D02*
X56772Y-23632D01*
X57771Y-23132D02*
X57671Y-23032D01*
X57471D01*
X57371Y-23132D01*
Y-23532D01*
X57471Y-23632D01*
X57671D01*
X57771Y-23532D01*
X57971Y-23632D02*
X58171D01*
X58071D01*
Y-23032D01*
X57971Y-23132D01*
X81217Y-39047D02*
X81117Y-38947D01*
X80917D01*
X80817Y-39047D01*
Y-39447D01*
X80917Y-39547D01*
X81117D01*
X81217Y-39447D01*
X81417Y-38947D02*
Y-39547D01*
X81817D01*
X82017Y-38947D02*
Y-39547D01*
Y-39347D01*
X82416Y-38947D01*
X82117Y-39247D01*
X82416Y-39547D01*
X82616Y-39647D02*
X83016D01*
X83516Y-38947D02*
X83316D01*
X83216Y-39047D01*
Y-39447D01*
X83316Y-39547D01*
X83516D01*
X83616Y-39447D01*
Y-39047D01*
X83516Y-38947D01*
X83816D02*
Y-39447D01*
X83916Y-39547D01*
X84116D01*
X84216Y-39447D01*
Y-38947D01*
X84416D02*
X84816D01*
X84616D01*
Y-39547D01*
X85615D02*
X86015Y-39147D01*
X86815Y-38947D02*
Y-39547D01*
X87215D01*
X87815Y-38947D02*
X87415D01*
Y-39547D01*
X87815D01*
X87415Y-39247D02*
X87615D01*
X88015Y-38947D02*
Y-39547D01*
X88315D01*
X88414Y-39447D01*
Y-39047D01*
X88315Y-38947D01*
X88015D01*
X58140Y-11073D02*
Y-11673D01*
X58440D01*
X58540Y-11573D01*
Y-11473D01*
X58440Y-11373D01*
X58140D01*
X58440D01*
X58540Y-11273D01*
Y-11173D01*
X58440Y-11073D01*
X58140D01*
X58740Y-11673D02*
Y-11073D01*
X59039D01*
X59139Y-11173D01*
Y-11373D01*
X59039Y-11473D01*
X58740D01*
X59339Y-11673D02*
Y-11073D01*
X59539Y-11273D01*
X59739Y-11073D01*
Y-11673D01*
X59939Y-11773D02*
X60339D01*
X60539Y-11073D02*
X60739D01*
X60639D01*
Y-11673D01*
X60539D01*
X60739D01*
X61039D02*
Y-11073D01*
X61439Y-11673D01*
Y-11073D01*
X82388Y-19234D02*
X82288Y-19134D01*
X82088D01*
X81988Y-19234D01*
Y-19634D01*
X82088Y-19734D01*
X82288D01*
X82388Y-19634D01*
Y-19434D01*
X82188D01*
X82688Y-19334D02*
X82888D01*
X82988Y-19434D01*
Y-19734D01*
X82688D01*
X82588Y-19634D01*
X82688Y-19534D01*
X82988D01*
X83288Y-19234D02*
Y-19334D01*
X83188D01*
X83388D01*
X83288D01*
Y-19634D01*
X83388Y-19734D01*
X83988D02*
X83788D01*
X83688Y-19634D01*
Y-19434D01*
X83788Y-19334D01*
X83988D01*
X84088Y-19434D01*
Y-19534D01*
X83688D01*
X85287Y-19234D02*
X85187Y-19134D01*
X84987D01*
X84887Y-19234D01*
Y-19634D01*
X84987Y-19734D01*
X85187D01*
X85287Y-19634D01*
X85587Y-19234D02*
Y-19334D01*
X85487D01*
X85687D01*
X85587D01*
Y-19634D01*
X85687Y-19734D01*
X85987Y-19334D02*
Y-19734D01*
Y-19534D01*
X86087Y-19434D01*
X86187Y-19334D01*
X86287D01*
X86587Y-19734D02*
X86787D01*
X86687D01*
Y-19134D01*
X86587D01*
X87087Y-19734D02*
X87286D01*
X87187D01*
Y-19134D01*
X87087Y-19234D01*
X99503Y-26634D02*
X99303D01*
X99203Y-26734D01*
Y-27134D01*
X99303Y-27234D01*
X99503D01*
X99603Y-27134D01*
Y-26734D01*
X99503Y-26634D01*
X99803Y-27234D02*
Y-26634D01*
X100102D01*
X100202Y-26734D01*
Y-26934D01*
X100102Y-27034D01*
X99803D01*
X100402Y-27334D02*
X100802D01*
X101402Y-26734D02*
X101302Y-26634D01*
X101102D01*
X101002Y-26734D01*
Y-27134D01*
X101102Y-27234D01*
X101302D01*
X101402Y-27134D01*
X101602Y-26634D02*
Y-27034D01*
X101802Y-27234D01*
X102002Y-27034D01*
Y-26634D01*
X103201Y-26734D02*
X103101Y-26634D01*
X102902D01*
X102802Y-26734D01*
Y-27134D01*
X102902Y-27234D01*
X103101D01*
X103201Y-27134D01*
X103501Y-26734D02*
Y-26834D01*
X103401D01*
X103601D01*
X103501D01*
Y-27134D01*
X103601Y-27234D01*
X103901Y-26834D02*
Y-27234D01*
Y-27034D01*
X104001Y-26934D01*
X104101Y-26834D01*
X104201D01*
X104501Y-27234D02*
X104701D01*
X104601D01*
Y-26634D01*
X104501D01*
X105401Y-27234D02*
X105001D01*
X105401Y-26834D01*
Y-26734D01*
X105301Y-26634D01*
X105101D01*
X105001Y-26734D01*
X85522Y-9085D02*
Y-9685D01*
X85822D01*
X85922Y-9585D01*
Y-9185D01*
X85822Y-9085D01*
X85522D01*
X86121Y-9685D02*
Y-9285D01*
X86321Y-9085D01*
X86521Y-9285D01*
Y-9685D01*
Y-9385D01*
X86121D01*
X87121Y-9185D02*
X87021Y-9085D01*
X86821D01*
X86721Y-9185D01*
Y-9585D01*
X86821Y-9685D01*
X87021D01*
X87121Y-9585D01*
X87321Y-9785D02*
X87721D01*
X88321Y-9185D02*
X88221Y-9085D01*
X88021D01*
X87921Y-9185D01*
Y-9585D01*
X88021Y-9685D01*
X88221D01*
X88321Y-9585D01*
X88521Y-9085D02*
Y-9485D01*
X88721Y-9685D01*
X88921Y-9485D01*
Y-9085D01*
X90120Y-9185D02*
X90020Y-9085D01*
X89820D01*
X89720Y-9185D01*
Y-9585D01*
X89820Y-9685D01*
X90020D01*
X90120Y-9585D01*
X90420Y-9185D02*
Y-9285D01*
X90320D01*
X90520D01*
X90420D01*
Y-9585D01*
X90520Y-9685D01*
X90820Y-9285D02*
Y-9685D01*
Y-9485D01*
X90920Y-9385D01*
X91020Y-9285D01*
X91120D01*
X91420Y-9685D02*
X91620D01*
X91520D01*
Y-9085D01*
X91420D01*
X92319Y-9685D02*
X91920D01*
X92319Y-9285D01*
Y-9185D01*
X92219Y-9085D01*
X92020D01*
X91920Y-9185D01*
X75246Y-22805D02*
Y-22205D01*
X75546D01*
X75646Y-22305D01*
Y-22505D01*
X75546Y-22605D01*
X75246D01*
X75446D02*
X75646Y-22805D01*
X75846Y-22305D02*
X75946Y-22205D01*
X76146D01*
X76246Y-22305D01*
Y-22405D01*
X76146Y-22505D01*
X76046D01*
X76146D01*
X76246Y-22605D01*
Y-22705D01*
X76146Y-22805D01*
X75946D01*
X75846Y-22705D01*
X76446Y-22805D02*
X76646D01*
X76546D01*
Y-22205D01*
X76446Y-22305D01*
X86722Y-38647D02*
Y-38047D01*
X87022D01*
X87122Y-38147D01*
Y-38347D01*
X87022Y-38447D01*
X86722D01*
X86922D02*
X87122Y-38647D01*
X87322Y-38147D02*
X87422Y-38047D01*
X87622D01*
X87722Y-38147D01*
Y-38247D01*
X87622Y-38347D01*
X87522D01*
X87622D01*
X87722Y-38447D01*
Y-38547D01*
X87622Y-38647D01*
X87422D01*
X87322Y-38547D01*
X87922Y-38147D02*
X88022Y-38047D01*
X88222D01*
X88322Y-38147D01*
Y-38547D01*
X88222Y-38647D01*
X88022D01*
X87922Y-38547D01*
Y-38147D01*
X88179Y-33972D02*
Y-33372D01*
X88479D01*
X88579Y-33472D01*
Y-33672D01*
X88479Y-33772D01*
X88179D01*
X88379D02*
X88579Y-33972D01*
X89179D02*
X88779D01*
X89179Y-33572D01*
Y-33472D01*
X89079Y-33372D01*
X88879D01*
X88779Y-33472D01*
X89379Y-33872D02*
X89479Y-33972D01*
X89679D01*
X89779Y-33872D01*
Y-33472D01*
X89679Y-33372D01*
X89479D01*
X89379Y-33472D01*
Y-33572D01*
X89479Y-33672D01*
X89779D01*
X80167Y-34001D02*
Y-33401D01*
X80467D01*
X80567Y-33501D01*
Y-33701D01*
X80467Y-33801D01*
X80167D01*
X80367D02*
X80567Y-34001D01*
X81167D02*
X80767D01*
X81167Y-33601D01*
Y-33501D01*
X81067Y-33401D01*
X80867D01*
X80767Y-33501D01*
X81367D02*
X81467Y-33401D01*
X81667D01*
X81767Y-33501D01*
Y-33601D01*
X81667Y-33701D01*
X81767Y-33801D01*
Y-33901D01*
X81667Y-34001D01*
X81467D01*
X81367Y-33901D01*
Y-33801D01*
X81467Y-33701D01*
X81367Y-33601D01*
Y-33501D01*
X81467Y-33701D02*
X81667D01*
X78258Y-34021D02*
Y-33421D01*
X78558D01*
X78658Y-33521D01*
Y-33721D01*
X78558Y-33821D01*
X78258D01*
X78458D02*
X78658Y-34021D01*
X79258D02*
X78858D01*
X79258Y-33621D01*
Y-33521D01*
X79158Y-33421D01*
X78958D01*
X78858Y-33521D01*
X79457Y-33421D02*
X79857D01*
Y-33521D01*
X79457Y-33921D01*
Y-34021D01*
X89537Y-38647D02*
Y-38047D01*
X89837D01*
X89937Y-38147D01*
Y-38347D01*
X89837Y-38447D01*
X89537D01*
X89737D02*
X89937Y-38647D01*
X90537D02*
X90137D01*
X90537Y-38247D01*
Y-38147D01*
X90437Y-38047D01*
X90237D01*
X90137Y-38147D01*
X91137Y-38047D02*
X90937Y-38147D01*
X90737Y-38347D01*
Y-38547D01*
X90837Y-38647D01*
X91037D01*
X91137Y-38547D01*
Y-38447D01*
X91037Y-38347D01*
X90737D01*
X53663Y-12511D02*
Y-11911D01*
X53963D01*
X54063Y-12011D01*
Y-12211D01*
X53963Y-12311D01*
X53663D01*
X53863D02*
X54063Y-12511D01*
X54663D02*
X54263D01*
X54663Y-12111D01*
Y-12011D01*
X54563Y-11911D01*
X54363D01*
X54263Y-12011D01*
X55163Y-12511D02*
Y-11911D01*
X54863Y-12211D01*
X55263D01*
X55256Y-18297D02*
Y-17697D01*
X55556D01*
X55656Y-17797D01*
Y-17997D01*
X55556Y-18097D01*
X55256D01*
X55456D02*
X55656Y-18297D01*
X56256D02*
X55856D01*
X56256Y-17897D01*
Y-17797D01*
X56156Y-17697D01*
X55956D01*
X55856Y-17797D01*
X56456D02*
X56555Y-17697D01*
X56755D01*
X56855Y-17797D01*
Y-17897D01*
X56755Y-17997D01*
X56655D01*
X56755D01*
X56855Y-18097D01*
Y-18197D01*
X56755Y-18297D01*
X56555D01*
X56456Y-18197D01*
X87136Y-25207D02*
Y-24607D01*
X87436D01*
X87536Y-24707D01*
Y-24907D01*
X87436Y-25007D01*
X87136D01*
X87336D02*
X87536Y-25207D01*
X88135D02*
X87736D01*
X88135Y-24807D01*
Y-24707D01*
X88036Y-24607D01*
X87836D01*
X87736Y-24707D01*
X88735Y-25207D02*
X88335D01*
X88735Y-24807D01*
Y-24707D01*
X88635Y-24607D01*
X88435D01*
X88335Y-24707D01*
X89017Y-20618D02*
Y-20018D01*
X89317D01*
X89417Y-20118D01*
Y-20318D01*
X89317Y-20418D01*
X89017D01*
X89217D02*
X89417Y-20618D01*
X90017D02*
X89617D01*
X90017Y-20218D01*
Y-20118D01*
X89917Y-20018D01*
X89717D01*
X89617Y-20118D01*
X90217Y-20618D02*
X90417D01*
X90317D01*
Y-20018D01*
X90217Y-20118D01*
X78366Y-20596D02*
Y-19996D01*
X78666D01*
X78766Y-20096D01*
Y-20296D01*
X78666Y-20396D01*
X78366D01*
X78566D02*
X78766Y-20596D01*
X79366D02*
X78966D01*
X79366Y-20196D01*
Y-20096D01*
X79266Y-19996D01*
X79066D01*
X78966Y-20096D01*
X79566D02*
X79666Y-19996D01*
X79866D01*
X79966Y-20096D01*
Y-20496D01*
X79866Y-20596D01*
X79666D01*
X79566Y-20496D01*
Y-20096D01*
X80374Y-20596D02*
Y-19996D01*
X80674D01*
X80774Y-20096D01*
Y-20296D01*
X80674Y-20396D01*
X80374D01*
X80574D02*
X80774Y-20596D01*
X80974D02*
X81174D01*
X81074D01*
Y-19996D01*
X80974Y-20096D01*
X81474Y-20496D02*
X81574Y-20596D01*
X81774D01*
X81874Y-20496D01*
Y-20096D01*
X81774Y-19996D01*
X81574D01*
X81474Y-20096D01*
Y-20196D01*
X81574Y-20296D01*
X81874D01*
X105551Y-21890D02*
Y-21290D01*
X105851D01*
X105951Y-21390D01*
Y-21590D01*
X105851Y-21690D01*
X105551D01*
X105751D02*
X105951Y-21890D01*
X106151D02*
X106351D01*
X106251D01*
Y-21290D01*
X106151Y-21390D01*
X107051Y-21290D02*
X106851Y-21390D01*
X106651Y-21590D01*
Y-21790D01*
X106751Y-21890D01*
X106951D01*
X107051Y-21790D01*
Y-21690D01*
X106951Y-21590D01*
X106651D01*
X94656Y-21781D02*
Y-21182D01*
X94955D01*
X95055Y-21282D01*
Y-21482D01*
X94955Y-21582D01*
X94656D01*
X94855D02*
X95055Y-21781D01*
X95255D02*
X95455D01*
X95355D01*
Y-21182D01*
X95255Y-21282D01*
X95755D02*
X95855Y-21182D01*
X96055D01*
X96155Y-21282D01*
Y-21382D01*
X96055Y-21482D01*
X95955D01*
X96055D01*
X96155Y-21582D01*
Y-21682D01*
X96055Y-21781D01*
X95855D01*
X95755Y-21682D01*
X63131Y-13231D02*
Y-12631D01*
X63430D01*
X63530Y-12731D01*
Y-12931D01*
X63430Y-13031D01*
X63131D01*
X63730Y-12631D02*
X64130D01*
Y-12731D01*
X63730Y-13131D01*
Y-13231D01*
X123048Y-36685D02*
X122948Y-36585D01*
X122748D01*
X122648Y-36685D01*
Y-37085D01*
X122748Y-37185D01*
X122948D01*
X123048Y-37085D01*
X123247Y-36585D02*
Y-36985D01*
X123447Y-37185D01*
X123647Y-36985D01*
Y-36585D01*
X124147Y-37185D02*
Y-36585D01*
X123847Y-36885D01*
X124247D01*
X122359Y-33211D02*
X122259Y-33111D01*
X122059D01*
X121959Y-33211D01*
Y-33611D01*
X122059Y-33711D01*
X122259D01*
X122359Y-33611D01*
Y-33411D01*
X122159D01*
X122558Y-33711D02*
Y-33311D01*
X122758Y-33111D01*
X122958Y-33311D01*
Y-33711D01*
Y-33411D01*
X122558D01*
X123158Y-33111D02*
X123558D01*
X123358D01*
Y-33711D01*
X124158Y-33111D02*
X123758D01*
Y-33711D01*
X124158D01*
X123758Y-33411D02*
X123958D01*
X124658Y-33711D02*
Y-33111D01*
X124358Y-33411D01*
X124758D01*
X122349Y-26301D02*
X122249Y-26201D01*
X122049D01*
X121949Y-26301D01*
Y-26701D01*
X122049Y-26801D01*
X122249D01*
X122349Y-26701D01*
Y-26501D01*
X122149D01*
X122549Y-26801D02*
Y-26401D01*
X122749Y-26201D01*
X122949Y-26401D01*
Y-26801D01*
Y-26501D01*
X122549D01*
X123148Y-26201D02*
X123548D01*
X123348D01*
Y-26801D01*
X124148Y-26201D02*
X123748D01*
Y-26801D01*
X124148D01*
X123748Y-26501D02*
X123948D01*
X124348Y-26301D02*
X124448Y-26201D01*
X124648D01*
X124748Y-26301D01*
Y-26401D01*
X124648Y-26501D01*
X124548D01*
X124648D01*
X124748Y-26601D01*
Y-26701D01*
X124648Y-26801D01*
X124448D01*
X124348Y-26701D01*
X122949Y-22955D02*
X122849Y-22855D01*
X122649D01*
X122549Y-22955D01*
Y-23355D01*
X122649Y-23455D01*
X122849D01*
X122949Y-23355D01*
X123149Y-22855D02*
Y-23255D01*
X123349Y-23455D01*
X123549Y-23255D01*
Y-22855D01*
X124149Y-23455D02*
X123749D01*
X124149Y-23055D01*
Y-22955D01*
X124049Y-22855D01*
X123849D01*
X123749Y-22955D01*
X122290Y-19569D02*
X122190Y-19469D01*
X121990D01*
X121890Y-19569D01*
Y-19969D01*
X121990Y-20069D01*
X122190D01*
X122290Y-19969D01*
Y-19769D01*
X122090D01*
X122490Y-20069D02*
Y-19669D01*
X122690Y-19469D01*
X122889Y-19669D01*
Y-20069D01*
Y-19769D01*
X122490D01*
X123089Y-19469D02*
X123489D01*
X123289D01*
Y-20069D01*
X124089Y-19469D02*
X123689D01*
Y-20069D01*
X124089D01*
X123689Y-19769D02*
X123889D01*
X124689Y-20069D02*
X124289D01*
X124689Y-19669D01*
Y-19569D01*
X124589Y-19469D01*
X124389D01*
X124289Y-19569D01*
X123048Y-16085D02*
X122948Y-15985D01*
X122748D01*
X122648Y-16085D01*
Y-16485D01*
X122748Y-16585D01*
X122948D01*
X123048Y-16485D01*
X123247Y-15985D02*
Y-16385D01*
X123447Y-16585D01*
X123647Y-16385D01*
Y-15985D01*
X123847Y-16585D02*
X124047D01*
X123947D01*
Y-15985D01*
X123847Y-16085D01*
X122437Y-12827D02*
X122337Y-12727D01*
X122137D01*
X122037Y-12827D01*
Y-13227D01*
X122137Y-13327D01*
X122337D01*
X122437Y-13227D01*
Y-13027D01*
X122237D01*
X122637Y-13327D02*
Y-12927D01*
X122837Y-12727D01*
X123037Y-12927D01*
Y-13327D01*
Y-13027D01*
X122637D01*
X123237Y-12727D02*
X123637D01*
X123437D01*
Y-13327D01*
X124237Y-12727D02*
X123837D01*
Y-13327D01*
X124237D01*
X123837Y-13027D02*
X124037D01*
X124437Y-13327D02*
X124637D01*
X124537D01*
Y-12727D01*
X124437Y-12827D01*
X121906Y-9441D02*
X121806Y-9341D01*
X121606D01*
X121506Y-9441D01*
Y-9841D01*
X121606Y-9941D01*
X121806D01*
X121906Y-9841D01*
X122106Y-9341D02*
Y-9941D01*
X122506D01*
X122706Y-9341D02*
Y-9941D01*
Y-9741D01*
X123105Y-9341D01*
X122805Y-9641D01*
X123105Y-9941D01*
X123305Y-10041D02*
X123705D01*
X124205Y-9341D02*
X124005D01*
X123905Y-9441D01*
Y-9841D01*
X124005Y-9941D01*
X124205D01*
X124305Y-9841D01*
Y-9441D01*
X124205Y-9341D01*
X124505D02*
Y-9841D01*
X124605Y-9941D01*
X124805D01*
X124905Y-9841D01*
Y-9341D01*
X125105D02*
X125505D01*
X125305D01*
Y-9941D01*
X121978Y-5886D02*
Y-6486D01*
X122278D01*
X122378Y-6386D01*
Y-6286D01*
X122278Y-6186D01*
X121978D01*
X122278D01*
X122378Y-6086D01*
Y-5986D01*
X122278Y-5886D01*
X121978D01*
X122578Y-6486D02*
Y-5886D01*
X122878D01*
X122978Y-5986D01*
Y-6186D01*
X122878Y-6286D01*
X122578D01*
X123178Y-6486D02*
Y-5886D01*
X123378Y-6086D01*
X123578Y-5886D01*
Y-6486D01*
X123778Y-6586D02*
X124178D01*
X124378Y-5886D02*
X124578D01*
X124478D01*
Y-6486D01*
X124378D01*
X124578D01*
X124877D02*
Y-5886D01*
X125277Y-6486D01*
Y-5886D01*
X56949Y-11949D02*
Y-12549D01*
X57249D01*
X57349Y-12449D01*
Y-12049D01*
X57249Y-11949D01*
X56949D01*
X57549Y-12549D02*
X57749D01*
X57649D01*
Y-11949D01*
X57549Y-12049D01*
X55470Y-13241D02*
X55370Y-13141D01*
X55170D01*
X55071Y-13241D01*
Y-13641D01*
X55170Y-13741D01*
X55370D01*
X55470Y-13641D01*
X56070Y-13741D02*
X55670D01*
X56070Y-13341D01*
Y-13241D01*
X55970Y-13141D01*
X55770D01*
X55670Y-13241D01*
X56670Y-13141D02*
X56470Y-13241D01*
X56270Y-13441D01*
Y-13641D01*
X56370Y-13741D01*
X56570D01*
X56670Y-13641D01*
Y-13541D01*
X56570Y-13441D01*
X56270D01*
X54291Y-26940D02*
Y-27439D01*
X54391Y-27539D01*
X54591D01*
X54691Y-27439D01*
Y-26940D01*
X54891Y-27539D02*
X55091D01*
X54991D01*
Y-26940D01*
X54891Y-27040D01*
X81768Y-25868D02*
X81668Y-25768D01*
X81468D01*
X81368Y-25868D01*
Y-26268D01*
X81468Y-26368D01*
X81668D01*
X81768Y-26268D01*
Y-26068D01*
X81568D01*
X82068Y-25968D02*
X82268D01*
X82368Y-26068D01*
Y-26368D01*
X82068D01*
X81968Y-26268D01*
X82068Y-26168D01*
X82368D01*
X82668Y-25868D02*
Y-25968D01*
X82568D01*
X82768D01*
X82668D01*
Y-26268D01*
X82768Y-26368D01*
X83367D02*
X83168D01*
X83068Y-26268D01*
Y-26068D01*
X83168Y-25968D01*
X83367D01*
X83467Y-26068D01*
Y-26168D01*
X83068D01*
X84667Y-25868D02*
X84567Y-25768D01*
X84367D01*
X84267Y-25868D01*
Y-26268D01*
X84367Y-26368D01*
X84567D01*
X84667Y-26268D01*
X84967Y-25868D02*
Y-25968D01*
X84867D01*
X85067D01*
X84967D01*
Y-26268D01*
X85067Y-26368D01*
X85367Y-25968D02*
Y-26368D01*
Y-26168D01*
X85467Y-26068D01*
X85567Y-25968D01*
X85667D01*
X85967Y-26368D02*
X86167D01*
X86067D01*
Y-25768D01*
X85967D01*
X86866Y-26368D02*
X86466D01*
X86866Y-25968D01*
Y-25868D01*
X86766Y-25768D01*
X86566D01*
X86466Y-25868D01*
X99513Y-38081D02*
X99313D01*
X99213Y-38181D01*
Y-38581D01*
X99313Y-38681D01*
X99513D01*
X99612Y-38581D01*
Y-38181D01*
X99513Y-38081D01*
X99812Y-38681D02*
Y-38081D01*
X100112D01*
X100212Y-38181D01*
Y-38381D01*
X100112Y-38481D01*
X99812D01*
X100412Y-38781D02*
X100812D01*
X101412Y-38181D02*
X101312Y-38081D01*
X101112D01*
X101012Y-38181D01*
Y-38581D01*
X101112Y-38681D01*
X101312D01*
X101412Y-38581D01*
X101612Y-38081D02*
Y-38481D01*
X101812Y-38681D01*
X102012Y-38481D01*
Y-38081D01*
X103211Y-38181D02*
X103111Y-38081D01*
X102911D01*
X102811Y-38181D01*
Y-38581D01*
X102911Y-38681D01*
X103111D01*
X103211Y-38581D01*
X103511Y-38181D02*
Y-38281D01*
X103411D01*
X103611D01*
X103511D01*
Y-38581D01*
X103611Y-38681D01*
X103911Y-38281D02*
Y-38681D01*
Y-38481D01*
X104011Y-38381D01*
X104111Y-38281D01*
X104211D01*
X104511Y-38681D02*
X104711D01*
X104611D01*
Y-38081D01*
X104511D01*
X105011Y-38681D02*
X105211D01*
X105111D01*
Y-38081D01*
X105011Y-38181D01*
X75807Y-9085D02*
Y-9685D01*
X76107D01*
X76207Y-9585D01*
Y-9185D01*
X76107Y-9085D01*
X75807D01*
X76407Y-9685D02*
Y-9285D01*
X76607Y-9085D01*
X76807Y-9285D01*
Y-9685D01*
Y-9385D01*
X76407D01*
X77407Y-9185D02*
X77307Y-9085D01*
X77107D01*
X77007Y-9185D01*
Y-9585D01*
X77107Y-9685D01*
X77307D01*
X77407Y-9585D01*
X77607Y-9785D02*
X78006D01*
X78606Y-9185D02*
X78506Y-9085D01*
X78306D01*
X78206Y-9185D01*
Y-9585D01*
X78306Y-9685D01*
X78506D01*
X78606Y-9585D01*
X78806Y-9085D02*
Y-9485D01*
X79006Y-9685D01*
X79206Y-9485D01*
Y-9085D01*
X80406Y-9185D02*
X80306Y-9085D01*
X80106D01*
X80006Y-9185D01*
Y-9585D01*
X80106Y-9685D01*
X80306D01*
X80406Y-9585D01*
X80705Y-9185D02*
Y-9285D01*
X80606D01*
X80805D01*
X80705D01*
Y-9585D01*
X80805Y-9685D01*
X81105Y-9285D02*
Y-9685D01*
Y-9485D01*
X81205Y-9385D01*
X81305Y-9285D01*
X81405D01*
X81705Y-9685D02*
X81905D01*
X81805D01*
Y-9085D01*
X81705D01*
X82205Y-9685D02*
X82405D01*
X82305D01*
Y-9085D01*
X82205Y-9185D01*
X87197Y-27595D02*
Y-26995D01*
X87496D01*
X87596Y-27095D01*
Y-27295D01*
X87496Y-27395D01*
X87197D01*
X87396D02*
X87596Y-27595D01*
X88196D02*
X87796D01*
X88196Y-27195D01*
Y-27095D01*
X88096Y-26995D01*
X87896D01*
X87796Y-27095D01*
X88796Y-27595D02*
X88396D01*
X88796Y-27195D01*
Y-27095D01*
X88696Y-26995D01*
X88496D01*
X88396Y-27095D01*
X89214Y-27604D02*
Y-27005D01*
X89514D01*
X89614Y-27105D01*
Y-27305D01*
X89514Y-27404D01*
X89214D01*
X89414D02*
X89614Y-27604D01*
X90214D02*
X89814D01*
X90214Y-27205D01*
Y-27105D01*
X90114Y-27005D01*
X89914D01*
X89814Y-27105D01*
X90414Y-27604D02*
X90614D01*
X90514D01*
Y-27005D01*
X90414Y-27105D01*
X78063Y-27614D02*
Y-27014D01*
X78363D01*
X78463Y-27114D01*
Y-27314D01*
X78363Y-27414D01*
X78063D01*
X78263D02*
X78463Y-27614D01*
X79062D02*
X78662D01*
X79062Y-27214D01*
Y-27114D01*
X78962Y-27014D01*
X78762D01*
X78662Y-27114D01*
X79262D02*
X79362Y-27014D01*
X79562D01*
X79662Y-27114D01*
Y-27514D01*
X79562Y-27614D01*
X79362D01*
X79262Y-27514D01*
Y-27114D01*
X80031Y-27624D02*
Y-27024D01*
X80331D01*
X80431Y-27124D01*
Y-27324D01*
X80331Y-27424D01*
X80031D01*
X80231D02*
X80431Y-27624D01*
X80631D02*
X80831D01*
X80731D01*
Y-27024D01*
X80631Y-27124D01*
X81131Y-27524D02*
X81231Y-27624D01*
X81431D01*
X81531Y-27524D01*
Y-27124D01*
X81431Y-27024D01*
X81231D01*
X81131Y-27124D01*
Y-27224D01*
X81231Y-27324D01*
X81531D01*
X103415Y-37913D02*
Y-37314D01*
X103715D01*
X103815Y-37414D01*
Y-37613D01*
X103715Y-37713D01*
X103415D01*
X103615D02*
X103815Y-37913D01*
X104015D02*
X104215D01*
X104115D01*
Y-37314D01*
X104015Y-37414D01*
X104515D02*
X104615Y-37314D01*
X104815D01*
X104915Y-37414D01*
Y-37514D01*
X104815Y-37613D01*
X104915Y-37713D01*
Y-37813D01*
X104815Y-37913D01*
X104615D01*
X104515Y-37813D01*
Y-37713D01*
X104615Y-37613D01*
X104515Y-37514D01*
Y-37414D01*
X104615Y-37613D02*
X104815D01*
X103533Y-35423D02*
Y-34823D01*
X103833D01*
X103933Y-34923D01*
Y-35123D01*
X103833Y-35223D01*
X103533D01*
X103733D02*
X103933Y-35423D01*
X104133D02*
X104333D01*
X104233D01*
Y-34823D01*
X104133Y-34923D01*
X104633Y-34823D02*
X105033D01*
Y-34923D01*
X104633Y-35323D01*
Y-35423D01*
X105472Y-33100D02*
Y-32501D01*
X105772D01*
X105872Y-32601D01*
Y-32800D01*
X105772Y-32900D01*
X105472D01*
X105672D02*
X105872Y-33100D01*
X106072D02*
X106272D01*
X106172D01*
Y-32501D01*
X106072Y-32601D01*
X106972Y-32501D02*
X106772Y-32601D01*
X106572Y-32800D01*
Y-33000D01*
X106672Y-33100D01*
X106872D01*
X106972Y-33000D01*
Y-32900D01*
X106872Y-32800D01*
X106572D01*
X97195Y-33494D02*
Y-32894D01*
X97495D01*
X97595Y-32994D01*
Y-33194D01*
X97495Y-33294D01*
X97195D01*
X97395D02*
X97595Y-33494D01*
X97795D02*
X97995D01*
X97895D01*
Y-32894D01*
X97795Y-32994D01*
X98694Y-32894D02*
X98295D01*
Y-33194D01*
X98494Y-33094D01*
X98594D01*
X98694Y-33194D01*
Y-33394D01*
X98594Y-33494D01*
X98394D01*
X98295Y-33394D01*
X97047Y-35728D02*
Y-35129D01*
X97347D01*
X97447Y-35229D01*
Y-35428D01*
X97347Y-35528D01*
X97047D01*
X97247D02*
X97447Y-35728D01*
X97647D02*
X97847D01*
X97747D01*
Y-35129D01*
X97647Y-35229D01*
X98447Y-35728D02*
Y-35129D01*
X98147Y-35428D01*
X98547D01*
X94902Y-33543D02*
Y-32943D01*
X95201D01*
X95301Y-33043D01*
Y-33243D01*
X95201Y-33343D01*
X94902D01*
X95102D02*
X95301Y-33543D01*
X95501D02*
X95701D01*
X95601D01*
Y-32943D01*
X95501Y-33043D01*
X96001D02*
X96101Y-32943D01*
X96301D01*
X96401Y-33043D01*
Y-33143D01*
X96301Y-33243D01*
X96201D01*
X96301D01*
X96401Y-33343D01*
Y-33443D01*
X96301Y-33543D01*
X96101D01*
X96001Y-33443D01*
X108274Y-32256D02*
X108174Y-32156D01*
X107974D01*
X107874Y-32256D01*
Y-32656D01*
X107974Y-32756D01*
X108174D01*
X108274Y-32656D01*
X108874Y-32756D02*
X108474D01*
X108874Y-32356D01*
Y-32256D01*
X108774Y-32156D01*
X108574D01*
X108474Y-32256D01*
X109473Y-32156D02*
X109074D01*
Y-32456D01*
X109274Y-32356D01*
X109374D01*
X109473Y-32456D01*
Y-32656D01*
X109374Y-32756D01*
X109174D01*
X109074Y-32656D01*
X92717Y-32618D02*
X92617Y-32518D01*
X92417D01*
X92317Y-32618D01*
Y-33018D01*
X92417Y-33118D01*
X92617D01*
X92717Y-33018D01*
X93317Y-33118D02*
X92917D01*
X93317Y-32718D01*
Y-32618D01*
X93217Y-32518D01*
X93017D01*
X92917Y-32618D01*
X93817Y-33118D02*
Y-32518D01*
X93517Y-32818D01*
X93917D01*
X46364Y-24577D02*
X46164D01*
X46264D01*
Y-25077D01*
X46164Y-25177D01*
X46065D01*
X45965Y-25077D01*
X46864Y-25177D02*
Y-24577D01*
X46564Y-24877D01*
X46964D01*
X122841Y-29727D02*
X122741Y-29627D01*
X122541D01*
X122441Y-29727D01*
Y-30126D01*
X122541Y-30226D01*
X122741D01*
X122841Y-30126D01*
X123041Y-29627D02*
Y-30026D01*
X123241Y-30226D01*
X123441Y-30026D01*
Y-29627D01*
X123641Y-29727D02*
X123741Y-29627D01*
X123940D01*
X124040Y-29727D01*
Y-29827D01*
X123940Y-29926D01*
X123840D01*
X123940D01*
X124040Y-30026D01*
Y-30126D01*
X123940Y-30226D01*
X123741D01*
X123641Y-30126D01*
X75148Y-28278D02*
Y-27678D01*
X75448D01*
X75548Y-27778D01*
Y-27978D01*
X75448Y-28078D01*
X75148D01*
X75348D02*
X75548Y-28278D01*
X76147D02*
X75747D01*
X76147Y-27878D01*
Y-27778D01*
X76047Y-27678D01*
X75847D01*
X75747Y-27778D01*
X76747Y-27678D02*
X76347D01*
Y-27978D01*
X76547Y-27878D01*
X76647D01*
X76747Y-27978D01*
Y-28178D01*
X76647Y-28278D01*
X76447D01*
X76347Y-28178D01*
X92929Y-20799D02*
X92829Y-20699D01*
X92629D01*
X92530Y-20799D01*
Y-21199D01*
X92629Y-21299D01*
X92829D01*
X92929Y-21199D01*
X93529Y-21299D02*
X93129D01*
X93529Y-20899D01*
Y-20799D01*
X93429Y-20699D01*
X93229D01*
X93129Y-20799D01*
X94029Y-21299D02*
Y-20699D01*
X93729Y-20999D01*
X94129D01*
X108317Y-20988D02*
X108217Y-20888D01*
X108017D01*
X107917Y-20988D01*
Y-21388D01*
X108017Y-21488D01*
X108217D01*
X108317Y-21388D01*
X108917Y-21488D02*
X108517D01*
X108917Y-21088D01*
Y-20988D01*
X108817Y-20888D01*
X108617D01*
X108517Y-20988D01*
X109517Y-20888D02*
X109117D01*
Y-21188D01*
X109317Y-21088D01*
X109417D01*
X109517Y-21188D01*
Y-21388D01*
X109417Y-21488D01*
X109217D01*
X109117Y-21388D01*
X96811Y-25935D02*
Y-25335D01*
X97111D01*
X97211Y-25435D01*
Y-25635D01*
X97111Y-25735D01*
X96811D01*
X97011D02*
X97211Y-25935D01*
X97411D02*
X97611D01*
X97511D01*
Y-25335D01*
X97411Y-25435D01*
X98211Y-25935D02*
Y-25335D01*
X97911Y-25635D01*
X98311D01*
X96890Y-22244D02*
Y-21644D01*
X97190D01*
X97290Y-21744D01*
Y-21944D01*
X97190Y-22044D01*
X96890D01*
X97090D02*
X97290Y-22244D01*
X97490D02*
X97690D01*
X97590D01*
Y-21644D01*
X97490Y-21744D01*
X98389Y-21644D02*
X97989D01*
Y-21944D01*
X98189Y-21844D01*
X98289D01*
X98389Y-21944D01*
Y-22144D01*
X98289Y-22244D01*
X98089D01*
X97989Y-22144D01*
X103346Y-22264D02*
Y-21664D01*
X103646D01*
X103746Y-21764D01*
Y-21964D01*
X103646Y-22064D01*
X103346D01*
X103546D02*
X103746Y-22264D01*
X103946D02*
X104146D01*
X104046D01*
Y-21664D01*
X103946Y-21764D01*
X104446Y-21664D02*
X104846D01*
Y-21764D01*
X104446Y-22164D01*
Y-22264D01*
X103337Y-26368D02*
Y-25768D01*
X103637D01*
X103736Y-25868D01*
Y-26068D01*
X103637Y-26168D01*
X103337D01*
X103537D02*
X103736Y-26368D01*
X103936D02*
X104136D01*
X104036D01*
Y-25768D01*
X103936Y-25868D01*
X104436D02*
X104536Y-25768D01*
X104736D01*
X104836Y-25868D01*
Y-25968D01*
X104736Y-26068D01*
X104836Y-26168D01*
Y-26268D01*
X104736Y-26368D01*
X104536D01*
X104436Y-26268D01*
Y-26168D01*
X104536Y-26068D01*
X104436Y-25968D01*
Y-25868D01*
X104536Y-26068D02*
X104736D01*
D40*
X19532Y-32168D02*
G03*
X19675Y-32168I71J96D01*
G01*
X15154Y-33210D02*
Y-32732D01*
X16214Y-33210D02*
Y-32732D01*
X16089Y-24920D02*
Y-24442D01*
X15379Y-24920D02*
Y-24442D01*
X18709Y-27879D02*
Y-26763D01*
X21859Y-27879D02*
Y-26763D01*
X19259Y-33271D02*
X19949D01*
X19259Y-32071D02*
X19949D01*
X47235Y-28121D02*
X47371D01*
X47735D02*
X48023D01*
X46573D02*
X46871D01*
X46573D02*
Y-25521D01*
X47735D02*
X48023D01*
Y-28121D02*
Y-25521D01*
X47235D02*
X47371D01*
X46573D02*
X46871D01*
X85796Y-20759D02*
Y-20628D01*
Y-21759D02*
Y-21598D01*
X82996Y-24728D02*
X85796D01*
Y-24598D01*
X82996Y-20628D02*
X85796D01*
X82996Y-20747D02*
Y-20628D01*
Y-21759D02*
Y-21609D01*
Y-22759D02*
Y-22598D01*
Y-23759D02*
Y-23598D01*
Y-24728D02*
Y-24598D01*
X85796Y-23759D02*
Y-23598D01*
Y-22759D02*
Y-22598D01*
X85610Y-27669D02*
Y-27539D01*
Y-28669D02*
Y-28508D01*
X82810Y-31639D02*
X85610D01*
Y-31508D01*
X82810Y-27539D02*
X85610D01*
X82810Y-27658D02*
Y-27539D01*
Y-28669D02*
Y-28520D01*
Y-29669D02*
Y-29508D01*
Y-30669D02*
Y-30508D01*
Y-31639D02*
Y-31508D01*
X85610Y-30669D02*
Y-30508D01*
Y-29669D02*
Y-29508D01*
X85776Y-34047D02*
Y-33916D01*
Y-35047D02*
Y-34885D01*
X82976Y-38016D02*
X85776D01*
Y-37885D01*
X82976Y-33916D02*
X85776D01*
X82976Y-34035D02*
Y-33916D01*
Y-35047D02*
Y-34897D01*
Y-36047D02*
Y-35885D01*
Y-37047D02*
Y-36885D01*
Y-38016D02*
Y-37885D01*
X85776Y-37047D02*
Y-36885D01*
Y-36047D02*
Y-35885D01*
X61713Y-12641D02*
Y-12510D01*
Y-13641D02*
Y-13479D01*
X58913Y-16610D02*
X61713D01*
Y-16479D01*
X58913Y-12510D02*
X61713D01*
X58913Y-12629D02*
Y-12510D01*
Y-13641D02*
Y-13491D01*
Y-14641D02*
Y-14479D01*
Y-15641D02*
Y-15479D01*
Y-16610D02*
Y-16479D01*
X61713Y-15641D02*
Y-15479D01*
Y-14641D02*
Y-14479D01*
X102410Y-21925D02*
Y-21794D01*
Y-22925D02*
Y-22764D01*
X99610Y-25894D02*
X102410D01*
Y-25764D01*
X99610Y-21794D02*
X102410D01*
X99610Y-21913D02*
Y-21794D01*
Y-22925D02*
Y-22775D01*
Y-23925D02*
Y-23764D01*
Y-24925D02*
Y-24764D01*
Y-25894D02*
Y-25764D01*
X102410Y-24925D02*
Y-24764D01*
Y-23925D02*
Y-23764D01*
X90323Y-10419D02*
Y-10289D01*
Y-11419D02*
Y-11258D01*
X87523Y-14389D02*
X90323D01*
Y-14258D01*
X87523Y-10289D02*
X90323D01*
X87523Y-10408D02*
Y-10289D01*
Y-11419D02*
Y-11270D01*
Y-12419D02*
Y-12258D01*
Y-13419D02*
Y-13258D01*
Y-14389D02*
Y-14258D01*
X90323Y-13419D02*
Y-13258D01*
Y-12419D02*
Y-12258D01*
X102479Y-33687D02*
Y-33556D01*
Y-34687D02*
Y-34526D01*
X99679Y-37656D02*
X102479D01*
Y-37526D01*
X99679Y-33556D02*
X102479D01*
X99679Y-33675D02*
Y-33556D01*
Y-34687D02*
Y-34537D01*
Y-35687D02*
Y-35526D01*
Y-36687D02*
Y-36526D01*
Y-37656D02*
Y-37526D01*
X102479Y-36687D02*
Y-36526D01*
Y-35687D02*
Y-35526D01*
X80658Y-10282D02*
Y-10151D01*
Y-11282D02*
Y-11120D01*
X77858Y-14251D02*
X80658D01*
Y-14120D01*
X77858Y-10151D02*
X80658D01*
X77858Y-10270D02*
Y-10151D01*
Y-11282D02*
Y-11132D01*
Y-12282D02*
Y-12120D01*
Y-13282D02*
Y-13120D01*
Y-14251D02*
Y-14120D01*
X80658Y-13282D02*
Y-13120D01*
Y-12282D02*
Y-12120D01*
D41*
X55315Y-27707D02*
G03*
X55315Y-27707I-49J0D01*
G01*
D42*
X56289Y-28278D02*
G03*
X56289Y-28278I-118J0D01*
G01*
D43*
X48523Y-27821D02*
G03*
X48523Y-27821I-150J0D01*
G01*
D44*
X7140Y-30827D02*
Y-22827D01*
X5140Y-30827D02*
Y-22827D01*
X7140D01*
X5140Y-30827D02*
X7140D01*
X2232Y-29346D02*
X3732D01*
X2232D02*
Y-24846D01*
X3732D01*
Y-29346D02*
Y-24846D01*
X2232Y-35596D02*
X3732D01*
X2232D02*
Y-31096D01*
X3732D01*
Y-35596D02*
Y-31096D01*
X2252Y-22919D02*
X3752D01*
X2252D02*
Y-18419D01*
X3752D01*
Y-22919D02*
Y-18419D01*
X75827Y-29335D02*
Y-29245D01*
Y-31425D02*
Y-31335D01*
Y-29335D02*
X76127D01*
Y-31335D02*
Y-29335D01*
X75527Y-31335D02*
X76127D01*
X75527D02*
Y-29335D01*
X75827D01*
X70898Y-23455D02*
X72898D01*
X70898Y-15455D02*
X72898D01*
X70898Y-23455D02*
Y-15455D01*
X72898Y-23455D02*
Y-15455D01*
X79272Y-4358D02*
Y-2358D01*
X71272Y-4358D02*
Y-2358D01*
Y-4358D02*
X79272D01*
X71272Y-2358D02*
X79272D01*
X66398Y-4565D02*
Y-2565D01*
X58398Y-4565D02*
Y-2565D01*
Y-4565D02*
X66398D01*
X58398Y-2565D02*
X66398D01*
X70996Y-35000D02*
X72996D01*
X70996Y-27000D02*
X72996D01*
X70996Y-35000D02*
Y-27000D01*
X72996Y-35000D02*
Y-27000D01*
X40718Y-5077D02*
Y-3077D01*
X32719Y-5077D02*
Y-3077D01*
Y-5077D02*
X40718D01*
X32719Y-3077D02*
X40718D01*
X89252Y-23822D02*
Y-23732D01*
Y-21732D02*
Y-21642D01*
X88952Y-23732D02*
X89252D01*
X88952D02*
Y-21732D01*
X89552D01*
Y-23732D02*
Y-21732D01*
X89252Y-23732D02*
X89552D01*
X63074Y-13566D02*
X64074D01*
Y-16566D02*
Y-13566D01*
X63074Y-16566D02*
X64074D01*
X63074D02*
Y-13566D01*
X92252Y-37959D02*
Y-33459D01*
Y-37959D02*
X93752D01*
Y-33459D01*
X92252D02*
X93752D01*
X55778Y-32805D02*
Y-27884D01*
X60699Y-32805D02*
Y-27884D01*
X55778D02*
X60699D01*
X55778Y-32805D02*
X60699D01*
X87953Y-21692D02*
Y-21602D01*
Y-23782D02*
Y-23692D01*
Y-21692D02*
X88253D01*
Y-23692D02*
Y-21692D01*
X87653Y-23692D02*
X88253D01*
X87653D02*
Y-21692D01*
X87953D01*
X79518Y-23782D02*
Y-23692D01*
Y-21692D02*
Y-21602D01*
X79218Y-23692D02*
X79518D01*
X79218D02*
Y-21692D01*
X79818D01*
Y-23692D02*
Y-21692D01*
X79518Y-23692D02*
X79818D01*
X80758Y-21692D02*
Y-21602D01*
Y-23782D02*
Y-23692D01*
Y-21692D02*
X81058D01*
Y-23692D02*
Y-21692D01*
X80458Y-23692D02*
X81058D01*
X80458D02*
Y-21692D01*
X80758D01*
X88072Y-28612D02*
Y-28522D01*
Y-30702D02*
Y-30612D01*
Y-28612D02*
X88372D01*
Y-30612D02*
Y-28612D01*
X87772Y-30612D02*
X88372D01*
X87772D02*
Y-28612D01*
X88072D01*
X79096Y-30742D02*
Y-30652D01*
Y-28652D02*
Y-28562D01*
X78796Y-30652D02*
X79096D01*
X78796D02*
Y-28652D01*
X79396D01*
Y-30652D02*
Y-28652D01*
X79096Y-30652D02*
X79396D01*
X80376Y-28632D02*
Y-28542D01*
Y-30722D02*
Y-30632D01*
Y-28632D02*
X80676D01*
Y-30632D02*
Y-28632D01*
X80076Y-30632D02*
X80676D01*
X80076D02*
Y-28632D01*
X80376D01*
X89667Y-30702D02*
Y-30612D01*
Y-28612D02*
Y-28522D01*
X89367Y-30612D02*
X89667D01*
X89367D02*
Y-28612D01*
X89967D01*
Y-30612D02*
Y-28612D01*
X89667Y-30612D02*
X89967D01*
X80758Y-35019D02*
Y-34929D01*
Y-37109D02*
Y-37019D01*
Y-35019D02*
X81058D01*
Y-37019D02*
Y-35019D01*
X80458Y-37019D02*
X81058D01*
X80458D02*
Y-35019D01*
X80758D01*
X79232Y-37099D02*
Y-37009D01*
Y-35009D02*
Y-34919D01*
X78932Y-37009D02*
X79232D01*
X78932D02*
Y-35009D01*
X79532D01*
Y-37009D02*
Y-35009D01*
X79232Y-37009D02*
X79532D01*
X87549Y-37060D02*
Y-36970D01*
Y-34970D02*
Y-34880D01*
X87249Y-36970D02*
X87549D01*
X87249D02*
Y-34970D01*
X87849D01*
Y-36970D02*
Y-34970D01*
X87549Y-36970D02*
X87849D01*
X88868Y-37060D02*
Y-36970D01*
Y-34970D02*
Y-34880D01*
X88568Y-36970D02*
X88868D01*
X88568D02*
Y-34970D01*
X89168D01*
Y-36970D02*
Y-34970D01*
X88868Y-36970D02*
X89168D01*
X90197Y-37060D02*
Y-36970D01*
Y-34970D02*
Y-34880D01*
X89897Y-36970D02*
X90197D01*
X89897D02*
Y-34970D01*
X90497D01*
Y-36970D02*
Y-34970D01*
X90197Y-36970D02*
X90497D01*
X54460Y-15589D02*
Y-15499D01*
Y-13499D02*
Y-13409D01*
X54160Y-15499D02*
X54460D01*
X54160D02*
Y-13499D01*
X54760D01*
Y-15499D02*
Y-13499D01*
X54460Y-15499D02*
X54760D01*
X57707Y-15276D02*
Y-13740D01*
X56959Y-15276D02*
Y-13740D01*
Y-15276D02*
X57707D01*
X57004Y-17175D02*
X57094D01*
X54914D02*
X55004D01*
X57004Y-17475D02*
Y-17175D01*
X55004Y-17475D02*
X57004D01*
X55004D02*
Y-16875D01*
X57004D01*
Y-17175D02*
Y-16875D01*
X106201Y-25165D02*
Y-25075D01*
Y-23075D02*
Y-22985D01*
X105901Y-25075D02*
X106201D01*
X105901D02*
Y-23075D01*
X106501D01*
Y-25075D02*
Y-23075D01*
X106201Y-25075D02*
X106501D01*
X95453Y-24948D02*
Y-24858D01*
Y-22858D02*
Y-22768D01*
X95153Y-24858D02*
X95453D01*
X95153D02*
Y-22858D01*
X95753D01*
Y-24858D02*
Y-22858D01*
X95453Y-24858D02*
X95753D01*
X122992Y-19030D02*
X123701D01*
Y-16821D01*
X122992D02*
X123701D01*
X122992Y-19030D02*
Y-16821D01*
X109352Y-26325D02*
Y-21825D01*
X107852D02*
X109352D01*
X107852Y-26325D02*
Y-21825D01*
Y-26325D02*
X109352D01*
X97421Y-23130D02*
Y-22972D01*
X97697Y-23130D02*
Y-22972D01*
X97421Y-24715D02*
Y-24557D01*
X97697Y-24715D02*
Y-24557D01*
X94106Y-26089D02*
Y-21589D01*
X92606D02*
X94106D01*
X92606Y-26089D02*
Y-21589D01*
Y-26089D02*
X94106D01*
X103927Y-25079D02*
Y-24921D01*
X104203Y-25079D02*
Y-24921D01*
X104203Y-23120D02*
Y-22963D01*
X103927Y-23120D02*
Y-22963D01*
X97746Y-34321D02*
Y-34163D01*
X98022Y-34321D02*
Y-34163D01*
X97717Y-36585D02*
Y-36427D01*
X97992Y-36585D02*
Y-36427D01*
X95650Y-34610D02*
Y-34520D01*
Y-36700D02*
Y-36610D01*
Y-34610D02*
X95950D01*
Y-36610D02*
Y-34610D01*
X95350Y-36610D02*
X95950D01*
X95350D02*
Y-34610D01*
X95650D01*
X106112Y-36356D02*
Y-36266D01*
Y-34266D02*
Y-34176D01*
X105812Y-36266D02*
X106112D01*
X105812D02*
Y-34266D01*
X106412D01*
Y-36266D02*
Y-34266D01*
X106112Y-36266D02*
X106412D01*
X104026Y-34035D02*
Y-33878D01*
X104301Y-34035D02*
Y-33878D01*
X103976Y-36585D02*
Y-36427D01*
X104252Y-36585D02*
Y-36427D01*
X109431Y-37585D02*
Y-33085D01*
X107931D02*
X109431D01*
X107931Y-37585D02*
Y-33085D01*
Y-37585D02*
X109431D01*
X123061Y-9000D02*
X123770D01*
Y-6791D01*
X123061D02*
X123770D01*
X123061Y-9000D02*
Y-6791D01*
X75817Y-26070D02*
Y-25980D01*
Y-23980D02*
Y-23890D01*
X75517Y-25980D02*
X75817D01*
X75517D02*
Y-23980D01*
X76117D01*
Y-25980D02*
Y-23980D01*
X75817Y-25980D02*
X76117D01*
X123002Y-25969D02*
X123711D01*
Y-23760D01*
X123002D02*
X123711D01*
X123002Y-25969D02*
Y-23760D01*
X122972Y-36205D02*
X123681D01*
Y-33996D01*
X122972D02*
X123681D01*
X122972Y-36205D02*
Y-33996D01*
X122904Y-32671D02*
X123612D01*
Y-30463D01*
X122904D02*
X123612D01*
X122904Y-32671D02*
Y-30463D01*
X123041Y-22543D02*
X123750D01*
Y-20335D01*
X123041D02*
X123750D01*
X123041Y-22543D02*
Y-20335D01*
X122923Y-29197D02*
X123632D01*
Y-26988D01*
X122923D02*
X123632D01*
X122923Y-29197D02*
Y-26988D01*
X122982Y-12465D02*
X123691D01*
Y-10256D01*
X122982D02*
X123691D01*
X122982Y-12465D02*
Y-10256D01*
X123061Y-39591D02*
X123770D01*
Y-37382D01*
X123061D02*
X123770D01*
X123061Y-39591D02*
Y-37382D01*
X122992Y-15683D02*
X123701D01*
Y-13474D01*
X122992D02*
X123701D01*
X122992Y-15683D02*
Y-13474D01*
D45*
X58484Y-23770D02*
X58642Y-23927D01*
Y-25423D02*
Y-23927D01*
X56280Y-23770D02*
X58484D01*
X56280Y-25423D02*
X58642D01*
X56280D02*
Y-23770D01*
X59144Y-25167D02*
Y-24183D01*
X58711Y-25167D02*
X59144D01*
X58711D02*
Y-24183D01*
X59144D01*
X55748Y-25138D02*
Y-24154D01*
X56181D01*
Y-25138D02*
Y-24154D01*
X55748Y-25138D02*
X56181D01*
D46*
X9767Y-26205D02*
X9684Y-26121D01*
X9517D01*
X9434Y-26205D01*
Y-26538D01*
X9517Y-26621D01*
X9684D01*
X9767Y-26538D01*
Y-26371D01*
X9600D01*
X9934Y-26621D02*
Y-26121D01*
X10267Y-26621D01*
Y-26121D01*
X10433D02*
Y-26621D01*
X10683D01*
X10767Y-26538D01*
Y-26205D01*
X10683Y-26121D01*
X10433D01*
X10933Y-26621D02*
X11100D01*
X11017D01*
Y-26121D01*
X10933Y-26205D01*
X22744Y-33841D02*
Y-33341D01*
X22994D01*
X23077Y-33425D01*
Y-33591D01*
X22994Y-33675D01*
X22744D01*
X22910D02*
X23077Y-33841D01*
X23327D02*
Y-33425D01*
Y-33591D01*
X23244D01*
X23410D01*
X23327D01*
Y-33425D01*
X23410Y-33341D01*
X23660D02*
Y-33841D01*
X23910D01*
X23993Y-33758D01*
Y-33675D01*
Y-33591D01*
X23910Y-33508D01*
X23660D01*
X24160Y-33341D02*
Y-33841D01*
X24410D01*
X24493Y-33758D01*
Y-33675D01*
Y-33591D01*
X24410Y-33508D01*
X24160D01*
X13067Y-35455D02*
X12984Y-35371D01*
X12817D01*
X12734Y-35455D01*
Y-35788D01*
X12817Y-35871D01*
X12984D01*
X13067Y-35788D01*
X13234Y-35871D02*
X13400D01*
X13317D01*
Y-35538D01*
X13234D01*
X13650Y-35871D02*
Y-35538D01*
X13900D01*
X13983Y-35621D01*
Y-35871D01*
X22337Y-30505D02*
X22254Y-30421D01*
X22087D01*
X22004Y-30505D01*
Y-30838D01*
X22087Y-30921D01*
X22254D01*
X22337Y-30838D01*
X22504Y-30421D02*
Y-30921D01*
X22754D01*
X22837Y-30838D01*
Y-30755D01*
Y-30671D01*
X22754Y-30588D01*
X22504D01*
X23003Y-30921D02*
X23253D01*
X23337Y-30838D01*
X23253Y-30755D01*
X23087D01*
X23003Y-30671D01*
X23087Y-30588D01*
X23337D01*
X23587Y-30505D02*
Y-30588D01*
X23503D01*
X23670D01*
X23587D01*
Y-30838D01*
X23670Y-30921D01*
X14647Y-21975D02*
X14564Y-21891D01*
X14397D01*
X14314Y-21975D01*
Y-22308D01*
X14397Y-22391D01*
X14564D01*
X14647Y-22308D01*
X14897Y-22391D02*
X15064D01*
X15147Y-22308D01*
Y-22141D01*
X15064Y-22058D01*
X14897D01*
X14814Y-22141D01*
Y-22308D01*
X14897Y-22391D01*
X15313Y-22058D02*
Y-22308D01*
X15397Y-22391D01*
X15647D01*
Y-22058D01*
X15897Y-21975D02*
Y-22058D01*
X15813D01*
X15980D01*
X15897D01*
Y-22308D01*
X15980Y-22391D01*
X22464Y-25921D02*
Y-26421D01*
X22797D01*
X22964D02*
X23130D01*
X23047D01*
Y-25921D01*
X22964Y-26005D01*
X21814Y-35221D02*
Y-34721D01*
X22064D01*
X22147Y-34805D01*
Y-34971D01*
X22064Y-35055D01*
X21814D01*
X21980D02*
X22147Y-35221D01*
X22397D02*
Y-34805D01*
Y-34971D01*
X22314D01*
X22480D01*
X22397D01*
Y-34805D01*
X22480Y-34721D01*
X22730D02*
Y-35221D01*
X22980D01*
X23063Y-35138D01*
Y-35055D01*
Y-34971D01*
X22980Y-34888D01*
X22730D01*
X23313Y-34805D02*
Y-34888D01*
X23230D01*
X23397D01*
X23313D01*
Y-35138D01*
X23397Y-35221D01*
X9634Y-34351D02*
Y-34685D01*
X9800Y-34851D01*
X9967Y-34685D01*
Y-34351D01*
X10134D02*
X10300D01*
X10217D01*
Y-34851D01*
X10134D01*
X10300D01*
X10550D02*
Y-34351D01*
X10883Y-34851D01*
Y-34351D01*
X9897Y-31055D02*
X9814Y-30971D01*
X9647D01*
X9564Y-31055D01*
Y-31388D01*
X9647Y-31471D01*
X9814D01*
X9897Y-31388D01*
Y-31221D01*
X9730D01*
X10064Y-31471D02*
Y-30971D01*
X10397Y-31471D01*
Y-30971D01*
X10563D02*
Y-31471D01*
X10813D01*
X10897Y-31388D01*
Y-31055D01*
X10813Y-30971D01*
X10563D01*
X9404Y-22591D02*
Y-22925D01*
X9570Y-23091D01*
X9737Y-22925D01*
Y-22591D01*
X10154D02*
X9987D01*
X9904Y-22675D01*
Y-23008D01*
X9987Y-23091D01*
X10154D01*
X10237Y-23008D01*
Y-22675D01*
X10154Y-22591D01*
X10403D02*
Y-23008D01*
X10487Y-23091D01*
X10653D01*
X10737Y-23008D01*
Y-22591D01*
X10903D02*
X11237D01*
X11070D01*
Y-23091D01*
X18464Y-31521D02*
Y-31938D01*
X18547Y-32021D01*
X18714D01*
X18797Y-31938D01*
Y-31521D01*
X18964Y-32021D02*
X19130D01*
X19047D01*
Y-31521D01*
X18964Y-31605D01*
X19380Y-32105D02*
X19713D01*
X19880Y-32021D02*
X20047D01*
X19963D01*
Y-31521D01*
X19880Y-31605D01*
X82896Y-20162D02*
X83229Y-20495D01*
X82896D02*
X83229Y-20162D01*
X82896Y-20329D02*
X83229D01*
X83062Y-20495D02*
Y-20162D01*
X82710Y-27072D02*
X83044Y-27405D01*
X82710D02*
X83044Y-27072D01*
X82710Y-27239D02*
X83044D01*
X82877Y-27405D02*
Y-27072D01*
X82876Y-33449D02*
X83209Y-33783D01*
X82876D02*
X83209Y-33449D01*
X82876Y-33616D02*
X83209D01*
X83043Y-33783D02*
Y-33449D01*
X58813Y-12043D02*
X59146Y-12377D01*
X58813D02*
X59146Y-12043D01*
X58813Y-12210D02*
X59146D01*
X58979Y-12377D02*
Y-12043D01*
X99510Y-21328D02*
X99843Y-21661D01*
X99510D02*
X99843Y-21328D01*
X99510Y-21495D02*
X99843D01*
X99676Y-21661D02*
Y-21328D01*
X87423Y-9822D02*
X87756Y-10155D01*
X87423D02*
X87756Y-9822D01*
X87423Y-9989D02*
X87756D01*
X87590Y-10155D02*
Y-9822D01*
X99579Y-33090D02*
X99912Y-33423D01*
X99579D02*
X99912Y-33090D01*
X99579Y-33256D02*
X99912D01*
X99745Y-33423D02*
Y-33090D01*
X77758Y-9684D02*
X78091Y-10017D01*
X77758D02*
X78091Y-9684D01*
X77758Y-9851D02*
X78091D01*
X77924Y-10017D02*
Y-9684D01*
D47*
X6440Y-30927D02*
Y-31093D01*
Y-31010D01*
X6940D01*
X6856Y-30927D01*
X6940Y-31677D02*
X6856Y-31510D01*
X6690Y-31343D01*
X6523D01*
X6440Y-31427D01*
Y-31593D01*
X6523Y-31677D01*
X6606D01*
X6690Y-31593D01*
Y-31343D01*
X5440Y-30927D02*
Y-31093D01*
Y-31010D01*
X5940D01*
X5856Y-30927D01*
X5940Y-31677D02*
Y-31343D01*
X5690D01*
X5773Y-31510D01*
Y-31593D01*
X5690Y-31677D01*
X5523D01*
X5440Y-31593D01*
Y-31427D01*
X5523Y-31343D01*
X5440Y-22327D02*
Y-22493D01*
Y-22410D01*
X5940D01*
X5856Y-22327D01*
X6440Y-22660D02*
Y-22327D01*
X6773Y-22660D01*
X6856D01*
X6940Y-22577D01*
Y-22410D01*
X6856Y-22327D01*
X72198Y-15288D02*
Y-14955D01*
X72531Y-15288D01*
X72614D01*
X72697Y-15205D01*
Y-15038D01*
X72614Y-14955D01*
X71198D02*
Y-15121D01*
Y-15038D01*
X71697D01*
X71614Y-14955D01*
X71198Y-23555D02*
Y-23721D01*
Y-23638D01*
X71697D01*
X71614Y-23555D01*
X71697Y-24304D02*
Y-23971D01*
X71448D01*
X71531Y-24138D01*
Y-24221D01*
X71448Y-24304D01*
X71281D01*
X71198Y-24221D01*
Y-24055D01*
X71281Y-23971D01*
X72198Y-23555D02*
Y-23721D01*
Y-23638D01*
X72697D01*
X72614Y-23555D01*
X72697Y-24304D02*
X72614Y-24138D01*
X72448Y-23971D01*
X72281D01*
X72198Y-24055D01*
Y-24221D01*
X72281Y-24304D01*
X72364D01*
X72448Y-24221D01*
Y-23971D01*
X71105Y-3058D02*
X70772D01*
X71105Y-2725D01*
Y-2642D01*
X71022Y-2558D01*
X70855D01*
X70772Y-2642D01*
Y-4058D02*
X70938D01*
X70855D01*
Y-3558D01*
X70772Y-3642D01*
X79372Y-4058D02*
X79538D01*
X79455D01*
Y-3558D01*
X79372Y-3642D01*
X80121Y-3558D02*
X79788D01*
Y-3808D01*
X79955Y-3725D01*
X80038D01*
X80121Y-3808D01*
Y-3975D01*
X80038Y-4058D01*
X79871D01*
X79788Y-3975D01*
X79372Y-3058D02*
X79538D01*
X79455D01*
Y-2558D01*
X79372Y-2642D01*
X80121Y-2558D02*
X79955Y-2642D01*
X79788Y-2808D01*
Y-2975D01*
X79871Y-3058D01*
X80038D01*
X80121Y-2975D01*
Y-2892D01*
X80038Y-2808D01*
X79788D01*
X58231Y-3265D02*
X57898D01*
X58231Y-2932D01*
Y-2848D01*
X58148Y-2765D01*
X57981D01*
X57898Y-2848D01*
Y-4265D02*
X58064D01*
X57981D01*
Y-3765D01*
X57898Y-3848D01*
X66498Y-4265D02*
X66664D01*
X66581D01*
Y-3765D01*
X66498Y-3848D01*
X67247Y-3765D02*
X66914D01*
Y-4015D01*
X67081Y-3932D01*
X67164D01*
X67247Y-4015D01*
Y-4182D01*
X67164Y-4265D01*
X66997D01*
X66914Y-4182D01*
X66498Y-3265D02*
X66664D01*
X66581D01*
Y-2765D01*
X66498Y-2848D01*
X67247Y-2765D02*
X67081Y-2848D01*
X66914Y-3015D01*
Y-3182D01*
X66997Y-3265D01*
X67164D01*
X67247Y-3182D01*
Y-3098D01*
X67164Y-3015D01*
X66914D01*
X72296Y-26833D02*
Y-26500D01*
X72629Y-26833D01*
X72713D01*
X72796Y-26750D01*
Y-26583D01*
X72713Y-26500D01*
X71296D02*
Y-26667D01*
Y-26583D01*
X71796D01*
X71713Y-26500D01*
X71296Y-35100D02*
Y-35267D01*
Y-35183D01*
X71796D01*
X71713Y-35100D01*
X71796Y-35850D02*
Y-35517D01*
X71546D01*
X71629Y-35683D01*
Y-35766D01*
X71546Y-35850D01*
X71379D01*
X71296Y-35766D01*
Y-35600D01*
X71379Y-35517D01*
X72296Y-35100D02*
Y-35267D01*
Y-35183D01*
X72796D01*
X72713Y-35100D01*
X72796Y-35850D02*
X72713Y-35683D01*
X72546Y-35517D01*
X72379D01*
X72296Y-35600D01*
Y-35766D01*
X72379Y-35850D01*
X72463D01*
X72546Y-35766D01*
Y-35517D01*
X32552Y-3777D02*
X32218D01*
X32552Y-3444D01*
Y-3360D01*
X32468Y-3277D01*
X32302D01*
X32218Y-3360D01*
Y-4777D02*
X32385D01*
X32302D01*
Y-4277D01*
X32218Y-4360D01*
X40819Y-4777D02*
X40985D01*
X40902D01*
Y-4277D01*
X40819Y-4360D01*
X41568Y-4277D02*
X41235D01*
Y-4527D01*
X41402Y-4444D01*
X41485D01*
X41568Y-4527D01*
Y-4693D01*
X41485Y-4777D01*
X41318D01*
X41235Y-4693D01*
X40819Y-3777D02*
X40985D01*
X40902D01*
Y-3277D01*
X40819Y-3360D01*
X41568Y-3277D02*
X41402Y-3360D01*
X41235Y-3527D01*
Y-3693D01*
X41318Y-3777D01*
X41485D01*
X41568Y-3693D01*
Y-3610D01*
X41485Y-3527D01*
X41235D01*
D48*
X17030Y-34388D02*
X16964Y-34321D01*
X16830D01*
X16764Y-34388D01*
Y-34655D01*
X16830Y-34721D01*
X16964D01*
X17030Y-34655D01*
X17164Y-34721D02*
X17297D01*
X17230D01*
Y-34455D01*
X17164D01*
X17497Y-34721D02*
Y-34455D01*
X17697D01*
X17763Y-34521D01*
Y-34721D01*
X17897Y-34455D02*
X18163Y-34721D01*
X18030Y-34588D01*
X18163Y-34455D01*
X17897Y-34721D01*
D49*
X57333Y-13858D02*
D03*
M02*
