G04 Layer_Color=16711935*
%FSLAX24Y24*%
%MOIN*%
G70*
G01*
G75*
%ADD43C,0.0200*%
%ADD45C,0.0039*%
%ADD46C,0.0030*%
%ADD76C,0.0000*%
%ADD77C,0.0010*%
D43*
X48453Y-27821D02*
G03*
X48453Y-27821I-150J0D01*
G01*
D45*
X56033Y-27943D02*
G03*
X56033Y-27943I-197J0D01*
G01*
X2736Y-33780D02*
Y-32913D01*
X3307Y-33780D02*
Y-32913D01*
X2736Y-33780D02*
X3307D01*
X2736Y-32913D02*
X3307D01*
X74449Y-16890D02*
Y-16024D01*
X73878Y-16890D02*
Y-16024D01*
X74449D01*
X73878Y-16890D02*
X74449D01*
X3307Y-21152D02*
Y-20285D01*
X2736Y-21152D02*
Y-20285D01*
X3307D01*
X2736Y-21152D02*
X3307D01*
X8642Y-25049D02*
Y-24183D01*
X8071Y-25049D02*
Y-24183D01*
X8642D01*
X8071Y-25049D02*
X8642D01*
X3317Y-27441D02*
Y-26575D01*
X2746Y-27441D02*
Y-26575D01*
X3317D01*
X2746Y-27441D02*
X3317D01*
X78041Y-15728D02*
Y-14862D01*
X77470Y-15728D02*
Y-14862D01*
X78041D01*
X77470Y-15728D02*
X78041D01*
X98287Y-38307D02*
Y-37441D01*
X98858Y-38307D02*
Y-37441D01*
X98287Y-38307D02*
X98858D01*
X98287Y-37441D02*
X98858D01*
X82106Y-38317D02*
Y-37451D01*
X81535Y-38317D02*
Y-37451D01*
X82106D01*
X81535Y-38317D02*
X82106D01*
X86526Y-14606D02*
Y-13740D01*
X85955Y-14606D02*
Y-13740D01*
X86526D01*
X85955Y-14606D02*
X86526D01*
X97146Y-26063D02*
X98012D01*
X97146Y-26634D02*
X98012D01*
X97146D02*
Y-26063D01*
X98012Y-26634D02*
Y-26063D01*
X92067Y-12756D02*
Y-11890D01*
X91496Y-12756D02*
Y-11890D01*
X92067D01*
X91496Y-12756D02*
X92067D01*
X86535Y-27500D02*
Y-26634D01*
X85965Y-27500D02*
Y-26634D01*
X86535D01*
X85965Y-27500D02*
X86535D01*
X86516Y-20561D02*
X87382D01*
X86516Y-19990D02*
X87382D01*
Y-20561D02*
Y-19990D01*
X86516Y-20561D02*
Y-19990D01*
X82343Y-32667D02*
Y-31801D01*
X81772Y-32667D02*
Y-31801D01*
X82343D01*
X81772Y-32667D02*
X82343D01*
X82717Y-26388D02*
X83583D01*
X82717Y-25817D02*
X83583D01*
Y-26388D02*
Y-25817D01*
X82717Y-26388D02*
Y-25817D01*
X82352Y-12569D02*
Y-11703D01*
X81781Y-12569D02*
Y-11703D01*
X82352D01*
X81781Y-12569D02*
X82352D01*
X103218Y-33081D02*
Y-32215D01*
X102648Y-33081D02*
Y-32215D01*
X103218D01*
X102648Y-33081D02*
X103218D01*
X62283Y-12087D02*
Y-11220D01*
X61713Y-12087D02*
Y-11220D01*
X62283D01*
X61713Y-12087D02*
X62283D01*
X86919Y-33819D02*
Y-32953D01*
X86348Y-33819D02*
Y-32953D01*
X86919D01*
X86348Y-33819D02*
X86919D01*
X103415Y-21624D02*
Y-20758D01*
X102844Y-21624D02*
Y-20758D01*
X103415D01*
X102844Y-21624D02*
X103415D01*
X57598Y-34872D02*
X58169D01*
X57598Y-34006D02*
X58169D01*
X57598Y-34872D02*
Y-34006D01*
X58169Y-34872D02*
Y-34006D01*
X62795Y-31988D02*
Y-31417D01*
X61929Y-31988D02*
Y-31417D01*
Y-31988D02*
X62795D01*
X61929Y-31417D02*
X62795D01*
X60738Y-25650D02*
X61309D01*
X60738Y-26516D02*
X61309D01*
Y-25650D01*
X60738Y-26516D02*
Y-25650D01*
X53553Y-31240D02*
Y-30669D01*
X54419Y-31240D02*
Y-30669D01*
X53553D02*
X54419D01*
X53553Y-31240D02*
X54419D01*
X54931Y-25709D02*
X55502D01*
X54931Y-26575D02*
X55502D01*
Y-25709D01*
X54931Y-26575D02*
Y-25709D01*
X59783Y-25394D02*
X60354D01*
X59783Y-26260D02*
X60354D01*
Y-25394D01*
X59783Y-26260D02*
Y-25394D01*
X62953Y-29409D02*
Y-28839D01*
X62087Y-29409D02*
Y-28839D01*
Y-29409D02*
X62953D01*
X62087Y-28839D02*
X62953D01*
X55738Y-34793D02*
X56309D01*
X55738Y-33927D02*
X56309D01*
X55738Y-34793D02*
Y-33927D01*
X56309Y-34793D02*
Y-33927D01*
X60610Y-35020D02*
X61181D01*
X60610Y-34154D02*
X61181D01*
X60610Y-35020D02*
Y-34154D01*
X61181Y-35020D02*
Y-34154D01*
X53593Y-30217D02*
Y-29646D01*
X54459Y-30217D02*
Y-29646D01*
X53593D02*
X54459D01*
X53593Y-30217D02*
X54459D01*
X55482Y-33100D02*
Y-27589D01*
X60994Y-33100D02*
Y-27589D01*
X55482D02*
X60994D01*
X55482Y-33100D02*
X60994D01*
X58524Y-25305D02*
Y-23888D01*
X56398D02*
X58524D01*
X56398Y-25305D02*
Y-23888D01*
Y-25305D02*
X58524D01*
X58819Y-24882D02*
Y-24469D01*
X59035Y-24882D02*
Y-24469D01*
X58819Y-24882D02*
X59035D01*
X58819Y-24469D02*
X59035D01*
X55543Y-14046D02*
X56114D01*
X55543Y-14912D02*
X56114D01*
Y-14046D01*
X55543Y-14912D02*
Y-14046D01*
X56073Y-24852D02*
Y-24439D01*
X55856Y-24852D02*
Y-24439D01*
X56073D01*
X55856Y-24852D02*
X56073D01*
X97372Y-23386D02*
Y-22717D01*
X97746Y-23386D02*
Y-22717D01*
X97372Y-23386D02*
X97746D01*
X97372Y-22717D02*
X97746D01*
X97372Y-24970D02*
Y-24301D01*
X97746Y-24970D02*
Y-24301D01*
X97372Y-24970D02*
X97746D01*
X97372Y-24301D02*
X97746D01*
X103878Y-25335D02*
Y-24665D01*
X104252Y-25335D02*
Y-24665D01*
X103878Y-25335D02*
X104252D01*
X103878Y-24665D02*
X104252D01*
X104252Y-23376D02*
Y-22707D01*
X103878Y-23376D02*
Y-22707D01*
X104252D01*
X103878Y-23376D02*
X104252D01*
X97697Y-34577D02*
Y-33907D01*
X98071Y-34577D02*
Y-33907D01*
X97697Y-34577D02*
X98071D01*
X97697Y-33907D02*
X98071D01*
X97667Y-36841D02*
Y-36171D01*
X98041Y-36841D02*
Y-36171D01*
X97667Y-36841D02*
X98041D01*
X97667Y-36171D02*
X98041D01*
X103976Y-34291D02*
Y-33622D01*
X104350Y-34291D02*
Y-33622D01*
X103976Y-34291D02*
X104350D01*
X103976Y-33622D02*
X104350D01*
X103927Y-36841D02*
Y-36171D01*
X104301Y-36841D02*
Y-36171D01*
X103927Y-36841D02*
X104301D01*
X103927Y-36171D02*
X104301D01*
D46*
X83146Y-20762D02*
X83479Y-21095D01*
X83146D02*
X83479Y-20762D01*
X83146Y-20928D02*
X83479D01*
X83312Y-21095D02*
Y-20762D01*
X82960Y-27672D02*
X83294Y-28005D01*
X82960D02*
X83294Y-27672D01*
X82960Y-27839D02*
X83294D01*
X83127Y-28005D02*
Y-27672D01*
X83126Y-34049D02*
X83459Y-34383D01*
X83126D02*
X83459Y-34049D01*
X83126Y-34216D02*
X83459D01*
X83293Y-34383D02*
Y-34049D01*
X59063Y-12643D02*
X59396Y-12977D01*
X59063D02*
X59396Y-12643D01*
X59063Y-12810D02*
X59396D01*
X59229Y-12977D02*
Y-12643D01*
X87673Y-10422D02*
X88006Y-10755D01*
X87673D02*
X88006Y-10422D01*
X87673Y-10589D02*
X88006D01*
X87840Y-10755D02*
Y-10422D01*
X99760Y-21928D02*
X100093Y-22261D01*
X99760D02*
X100093Y-21928D01*
X99760Y-22095D02*
X100093D01*
X99926Y-22261D02*
Y-21928D01*
X99829Y-33690D02*
X100162Y-34023D01*
X99829D02*
X100162Y-33690D01*
X99829Y-33856D02*
X100162D01*
X99995Y-34023D02*
Y-33690D01*
X78008Y-10284D02*
X78341Y-10617D01*
X78008D02*
X78341Y-10284D01*
X78008Y-10451D02*
X78341D01*
X78174Y-10617D02*
Y-10284D01*
D76*
X84276Y-20678D02*
G03*
X84516Y-20678I120J0D01*
G01*
X84090Y-27589D02*
G03*
X84330Y-27589I120J0D01*
G01*
X84256Y-33966D02*
G03*
X84496Y-33966I120J0D01*
G01*
X60193Y-12560D02*
G03*
X60433Y-12560I120J0D01*
G01*
X100890Y-21844D02*
G03*
X101130Y-21844I120J0D01*
G01*
X88803Y-10339D02*
G03*
X89043Y-10339I120J0D01*
G01*
X100959Y-33606D02*
G03*
X101199Y-33606I120J0D01*
G01*
X79138Y-10201D02*
G03*
X79378Y-10201I120J0D01*
G01*
D77*
X46623Y-28071D02*
X47973D01*
X46623D02*
Y-25571D01*
X47973D01*
Y-28071D02*
Y-25571D01*
X83046Y-21338D02*
Y-21018D01*
X82736D02*
X83046D01*
X82736Y-21338D02*
Y-21018D01*
Y-21338D02*
X83046D01*
Y-22338D02*
Y-22018D01*
X82736D02*
X83046D01*
X82736Y-22338D02*
Y-22018D01*
Y-22338D02*
X83046D01*
Y-23338D02*
Y-23018D01*
X82736D02*
X83046D01*
X82736Y-23338D02*
Y-23018D01*
Y-23338D02*
X83046D01*
Y-24338D02*
Y-24018D01*
X82736D02*
X83046D01*
X82736Y-24338D02*
Y-24018D01*
Y-24338D02*
X83046D01*
X85746D02*
Y-24018D01*
Y-24338D02*
X86056D01*
Y-24018D01*
X85746D02*
X86056D01*
X85746Y-23338D02*
Y-23018D01*
Y-23338D02*
X86056D01*
Y-23018D01*
X85746D02*
X86056D01*
X85746Y-22338D02*
Y-22018D01*
Y-22338D02*
X86056D01*
Y-22018D01*
X85746D02*
X86056D01*
X85746Y-21338D02*
Y-21018D01*
Y-21338D02*
X86056D01*
Y-21018D01*
X85746D02*
X86056D01*
X83046Y-24678D02*
X85746D01*
Y-20678D01*
X83046D02*
X85746D01*
X83046Y-24678D02*
Y-20678D01*
X82860Y-28249D02*
Y-27929D01*
X82550D02*
X82860D01*
X82550Y-28249D02*
Y-27929D01*
Y-28249D02*
X82860D01*
Y-29249D02*
Y-28929D01*
X82550D02*
X82860D01*
X82550Y-29249D02*
Y-28929D01*
Y-29249D02*
X82860D01*
Y-30249D02*
Y-29929D01*
X82550D02*
X82860D01*
X82550Y-30249D02*
Y-29929D01*
Y-30249D02*
X82860D01*
Y-31249D02*
Y-30929D01*
X82550D02*
X82860D01*
X82550Y-31249D02*
Y-30929D01*
Y-31249D02*
X82860D01*
X85560D02*
Y-30929D01*
Y-31249D02*
X85870D01*
Y-30929D01*
X85560D02*
X85870D01*
X85560Y-30249D02*
Y-29929D01*
Y-30249D02*
X85870D01*
Y-29929D01*
X85560D02*
X85870D01*
X85560Y-29249D02*
Y-28929D01*
Y-29249D02*
X85870D01*
Y-28929D01*
X85560D02*
X85870D01*
X85560Y-28249D02*
Y-27929D01*
Y-28249D02*
X85870D01*
Y-27929D01*
X85560D02*
X85870D01*
X82860Y-31589D02*
X85560D01*
Y-27589D01*
X82860D02*
X85560D01*
X82860Y-31589D02*
Y-27589D01*
X83026Y-34626D02*
Y-34306D01*
X82716D02*
X83026D01*
X82716Y-34626D02*
Y-34306D01*
Y-34626D02*
X83026D01*
Y-35626D02*
Y-35306D01*
X82716D02*
X83026D01*
X82716Y-35626D02*
Y-35306D01*
Y-35626D02*
X83026D01*
Y-36626D02*
Y-36306D01*
X82716D02*
X83026D01*
X82716Y-36626D02*
Y-36306D01*
Y-36626D02*
X83026D01*
Y-37626D02*
Y-37306D01*
X82716D02*
X83026D01*
X82716Y-37626D02*
Y-37306D01*
Y-37626D02*
X83026D01*
X85726D02*
Y-37306D01*
Y-37626D02*
X86036D01*
Y-37306D01*
X85726D02*
X86036D01*
X85726Y-36626D02*
Y-36306D01*
Y-36626D02*
X86036D01*
Y-36306D01*
X85726D02*
X86036D01*
X85726Y-35626D02*
Y-35306D01*
Y-35626D02*
X86036D01*
Y-35306D01*
X85726D02*
X86036D01*
X85726Y-34626D02*
Y-34306D01*
Y-34626D02*
X86036D01*
Y-34306D01*
X85726D02*
X86036D01*
X83026Y-37966D02*
X85726D01*
Y-33966D01*
X83026D02*
X85726D01*
X83026Y-37966D02*
Y-33966D01*
X58963Y-13220D02*
Y-12900D01*
X58653D02*
X58963D01*
X58653Y-13220D02*
Y-12900D01*
Y-13220D02*
X58963D01*
Y-14220D02*
Y-13900D01*
X58653D02*
X58963D01*
X58653Y-14220D02*
Y-13900D01*
Y-14220D02*
X58963D01*
Y-15220D02*
Y-14900D01*
X58653D02*
X58963D01*
X58653Y-15220D02*
Y-14900D01*
Y-15220D02*
X58963D01*
Y-16220D02*
Y-15900D01*
X58653D02*
X58963D01*
X58653Y-16220D02*
Y-15900D01*
Y-16220D02*
X58963D01*
X61663D02*
Y-15900D01*
Y-16220D02*
X61973D01*
Y-15900D01*
X61663D02*
X61973D01*
X61663Y-15220D02*
Y-14900D01*
Y-15220D02*
X61973D01*
Y-14900D01*
X61663D02*
X61973D01*
X61663Y-14220D02*
Y-13900D01*
Y-14220D02*
X61973D01*
Y-13900D01*
X61663D02*
X61973D01*
X61663Y-13220D02*
Y-12900D01*
Y-13220D02*
X61973D01*
Y-12900D01*
X61663D02*
X61973D01*
X58963Y-16560D02*
X61663D01*
Y-12560D01*
X58963D02*
X61663D01*
X58963Y-16560D02*
Y-12560D01*
X99660Y-22504D02*
Y-22184D01*
X99350D02*
X99660D01*
X99350Y-22504D02*
Y-22184D01*
Y-22504D02*
X99660D01*
Y-23504D02*
Y-23184D01*
X99350D02*
X99660D01*
X99350Y-23504D02*
Y-23184D01*
Y-23504D02*
X99660D01*
Y-24504D02*
Y-24184D01*
X99350D02*
X99660D01*
X99350Y-24504D02*
Y-24184D01*
Y-24504D02*
X99660D01*
Y-25504D02*
Y-25184D01*
X99350D02*
X99660D01*
X99350Y-25504D02*
Y-25184D01*
Y-25504D02*
X99660D01*
X102360D02*
Y-25184D01*
Y-25504D02*
X102670D01*
Y-25184D01*
X102360D02*
X102670D01*
X102360Y-24504D02*
Y-24184D01*
Y-24504D02*
X102670D01*
Y-24184D01*
X102360D02*
X102670D01*
X102360Y-23504D02*
Y-23184D01*
Y-23504D02*
X102670D01*
Y-23184D01*
X102360D02*
X102670D01*
X102360Y-22504D02*
Y-22184D01*
Y-22504D02*
X102670D01*
Y-22184D01*
X102360D02*
X102670D01*
X99660Y-25844D02*
X102360D01*
Y-21844D01*
X99660D02*
X102360D01*
X99660Y-25844D02*
Y-21844D01*
X87573Y-10999D02*
Y-10679D01*
X87263D02*
X87573D01*
X87263Y-10999D02*
Y-10679D01*
Y-10999D02*
X87573D01*
Y-11999D02*
Y-11679D01*
X87263D02*
X87573D01*
X87263Y-11999D02*
Y-11679D01*
Y-11999D02*
X87573D01*
Y-12999D02*
Y-12679D01*
X87263D02*
X87573D01*
X87263Y-12999D02*
Y-12679D01*
Y-12999D02*
X87573D01*
Y-13999D02*
Y-13679D01*
X87263D02*
X87573D01*
X87263Y-13999D02*
Y-13679D01*
Y-13999D02*
X87573D01*
X90273D02*
Y-13679D01*
Y-13999D02*
X90583D01*
Y-13679D01*
X90273D02*
X90583D01*
X90273Y-12999D02*
Y-12679D01*
Y-12999D02*
X90583D01*
Y-12679D01*
X90273D02*
X90583D01*
X90273Y-11999D02*
Y-11679D01*
Y-11999D02*
X90583D01*
Y-11679D01*
X90273D02*
X90583D01*
X90273Y-10999D02*
Y-10679D01*
Y-10999D02*
X90583D01*
Y-10679D01*
X90273D02*
X90583D01*
X87573Y-14339D02*
X90273D01*
Y-10339D01*
X87573D02*
X90273D01*
X87573Y-14339D02*
Y-10339D01*
X99729Y-34266D02*
Y-33946D01*
X99419D02*
X99729D01*
X99419Y-34266D02*
Y-33946D01*
Y-34266D02*
X99729D01*
Y-35266D02*
Y-34946D01*
X99419D02*
X99729D01*
X99419Y-35266D02*
Y-34946D01*
Y-35266D02*
X99729D01*
Y-36266D02*
Y-35946D01*
X99419D02*
X99729D01*
X99419Y-36266D02*
Y-35946D01*
Y-36266D02*
X99729D01*
Y-37266D02*
Y-36946D01*
X99419D02*
X99729D01*
X99419Y-37266D02*
Y-36946D01*
Y-37266D02*
X99729D01*
X102429D02*
Y-36946D01*
Y-37266D02*
X102739D01*
Y-36946D01*
X102429D02*
X102739D01*
X102429Y-36266D02*
Y-35946D01*
Y-36266D02*
X102739D01*
Y-35946D01*
X102429D02*
X102739D01*
X102429Y-35266D02*
Y-34946D01*
Y-35266D02*
X102739D01*
Y-34946D01*
X102429D02*
X102739D01*
X102429Y-34266D02*
Y-33946D01*
Y-34266D02*
X102739D01*
Y-33946D01*
X102429D02*
X102739D01*
X99729Y-37606D02*
X102429D01*
Y-33606D01*
X99729D02*
X102429D01*
X99729Y-37606D02*
Y-33606D01*
X77908Y-10861D02*
Y-10541D01*
X77598D02*
X77908D01*
X77598Y-10861D02*
Y-10541D01*
Y-10861D02*
X77908D01*
Y-11861D02*
Y-11541D01*
X77598D02*
X77908D01*
X77598Y-11861D02*
Y-11541D01*
Y-11861D02*
X77908D01*
Y-12861D02*
Y-12541D01*
X77598D02*
X77908D01*
X77598Y-12861D02*
Y-12541D01*
Y-12861D02*
X77908D01*
Y-13861D02*
Y-13541D01*
X77598D02*
X77908D01*
X77598Y-13861D02*
Y-13541D01*
Y-13861D02*
X77908D01*
X80608D02*
Y-13541D01*
Y-13861D02*
X80918D01*
Y-13541D01*
X80608D02*
X80918D01*
X80608Y-12861D02*
Y-12541D01*
Y-12861D02*
X80918D01*
Y-12541D01*
X80608D02*
X80918D01*
X80608Y-11861D02*
Y-11541D01*
Y-11861D02*
X80918D01*
Y-11541D01*
X80608D02*
X80918D01*
X80608Y-10861D02*
Y-10541D01*
Y-10861D02*
X80918D01*
Y-10541D01*
X80608D02*
X80918D01*
X77908Y-14201D02*
X80608D01*
Y-10201D01*
X77908D02*
X80608D01*
X77908Y-14201D02*
Y-10201D01*
M02*
