M48
;Layer_Color=9474304
;FILE_FORMAT=2:4
INCH,LZ
;TYPE=PLATED
T1F00S00C0.0150
T2F00S00C0.0236
T3F00S00C0.0260
T4F00S00C0.0276
T5F00S00C0.0320
T6F00S00C0.0335
T7F00S00C0.0354
T8F00S00C0.1181
%
T01
X048081Y-03936
X04938
X052628Y-040138
X056919Y-039094
X057205Y-03936
X060994Y-039469
X061654Y-039488
X063209Y-039469
X080295Y-039705
X083484Y-038991
Y-042175
X084262Y-040089
X100344Y-039094
X10122Y-039774
X100344Y-041929
X118346Y-030207
X104321Y-032992
X104085Y-03747
X102579Y-038376
X101091Y-030864
X100344Y-030207
Y-031585
X099579Y-030864
X099843Y-028051
X101289Y-025295
X104065Y-023789
X104045Y-027618
X098789Y-028386
X098642Y-033189
X09064Y-033435
X085571Y-033258
X086663Y-031722
X083967Y-034429
X088072Y-026311
X082598Y-025266
X081358Y-024833
X078957Y-025266
X076801Y-024862
X075049Y-024685
X073976Y-027569
X073701Y-028524
X075432Y-031339
X074911Y-032234
X074862Y-034311
X075108Y-034567
X07624Y-03565
X077352Y-036545
X073888Y-035787
X069557Y-032795
X068839Y-03122
X069852Y-030177
X070512Y-03064
X068425Y-029035
X06874Y-028711
X068425Y-02625
X069272Y-026093
Y-024567
X068425Y-024931
X069006Y-023376
X069872Y-023553
X070237Y-023898
X070532Y-024213
X081801Y-035728
X068081Y-03561
X067421Y-03562
X067283Y-036801
X067697Y-03687
X066959Y-037106
X065728Y-037185
X065289Y-035619
X065674Y-034788
X0654Y-03417
X064715Y-033671
X06471Y-03302
X0644Y-03217
X065443Y-031063
X066093Y-03127
X067018Y-031309
X066959Y-030915
X066959Y-030157
X066407Y-029793
X065551
X065758Y-030305
X064291Y-029272
X063386Y-029252
X063435Y-028819
X063317Y-028435
X06377Y-028179
X062461Y-028297
X062077Y-028268
X062352Y-027569
X061378Y-027657
X061024Y-027136
X0606Y-026772
X060207Y-026762
X059793Y-028091
X059439Y-02812
X059104Y-028012
X058585Y-028001
X058287Y-028228
X058829Y-028396
X058573Y-02876
X0575Y-029016
X056782Y-028947
X05689Y-02828
X056122Y-028524
X05626Y-029793
X056142Y-030463
X056526Y-030502
X056657Y-030885
X056437Y-031407
X055984Y-031831
X056339Y-032234
X057835Y-032335
X05808Y-03201
X058189Y-031496
X059675Y-030709
X059665Y-030354
X059656Y-030039
X059685Y-029606
X06002Y-02903
X060404Y-029006
X060463Y-030148
X06028Y-03104
X060482Y-031437
X06035Y-03182
X06049Y-03215
X05999Y-032608
X059419Y-032638
X059518Y-034006
X059242Y-034311
X05981Y-03438
X059222Y-035236
X058829Y-035157
X058425Y-035187
X057697Y-035285
X057106Y-034577
X056585Y-034272
X05688Y-033937
X055364Y-033533
X055443Y-034587
X055Y-034685
X054203Y-035089
X053986Y-03435
X053022Y-034557
X053524Y-032963
X054183Y-03253
X05374Y-03172
X0531Y-03075
X053012Y-030089
X052933Y-028799
X052992Y-028287
X053386Y-028258
X053406Y-027717
X052992Y-027687
X053986Y-027215
X054331Y-026781
X054606Y-027972
X05374Y-02895
X057206Y-029724
X057077Y-030217
X057648Y-027963
X057835Y-026663
X058317Y-026713
X057283Y-026378
X057087Y-025994
X056801Y-025709
X056791Y-026693
X056073Y-026447
X057756Y-02565
X057392Y-025128
X060069Y-024793
X061555Y-02499
Y-025768
X062146Y-025492
X062677Y-025187
X062461Y-024803
X063563Y-024429
X063524Y-025561
X06501Y-025797
X065384Y-025906
X065669Y-026201
X065541Y-025108
X066939Y-023661
X066545Y-028307
X06814Y-029774
X06813Y-030138
X068189Y-030896
X068258Y-031476
X067313Y-03186
X06723Y-03246
X06712Y-03315
X06752Y-033159
X067067Y-033593
X067008Y-034026
X0631Y-03303
X062256Y-032571
X061053Y-03313
X061486Y-034419
X062Y-03455
X060896Y-035384
X061093Y-037431
X061348Y-038031
X061811
X059892Y-037165
X059055Y-037392
X05878Y-037146
X058396Y-037175
X058002Y-03747
X057303Y-037687
X05685
X056378
X055325Y-037766
X054704Y-037638
X054203
X05436Y-038839
X056024Y-035118
X055148Y-023317
X054537Y-023258
X052992Y-023652
X061585Y-024006
X051831Y-023381
X050059Y-023533
Y-024193
X04874Y-023612
X047411Y-023258
X045236Y-024262
X043179Y-024498
X042628
X042096
Y-030247
X042628
X043179
X045925Y-031093
Y-031781
X046762Y-031043
X047146Y-031053
X047854Y-031073
X04789Y-030311
X047421Y-030305
X04783Y-02979
X048071Y-02937
X047392Y-028848
X05001Y-029085
X050482Y-029213
X050866Y-028543
X05186Y-02814
X05218Y-02977
X05253Y-030049
X052323Y-030335
X052402Y-030856
X051634Y-030945
X05188Y-03126
X051496Y-030049
X050935Y-0331
X0506Y-032825
X050207Y-03251
X049774Y-032264
X04939Y-035827
X05064Y-03598
X05097Y-03567
X050305Y-036319
X050256Y-036673
X049576Y-037835
X052628Y-037618
Y-033533
X049715Y-027717
X048573Y-027156
X046211Y-037382
X046181Y-037835
X041801Y-033405
X04125Y-033622
X038652Y-034774
Y-035817
X037037Y-033159
Y-032313
X036575Y-032697
X035502Y-031988
X022364Y-033671
X020714Y-032721
X018174
X017464Y-033921
X018264Y-030821
Y-030521
X018714
Y-030821
X015664Y-030521
X015264
X014864
X014464
X014064
X013664
X013264
X012864
X012464
X012064
X011664
X010064Y-032221
Y-033721
Y-025421
Y-023921
X011864Y-026721
X012264
X012664
X013064
X013464
X013864
X014264
X021064Y-036071
X031083Y-022175
X031781Y-022126
X032323Y-022156
X032313Y-021309
X031752Y-021319
X031083Y-021378
X031073Y-020512
X031742
X032323
X033199Y-017274
X03374
X034281
X034872
X035433
X036014
X036535
Y-013957
X036014
X035433
X034872
X034281
X03374
X033199
X037126
X037667
X038258
X038799
X039341
X039823
X040354
X040837
X041299
X041791
X042283
X042096Y-017628
X042628
X043179
X040866Y-017431
X040354Y-017274
X039823
X039341
X038799
X038258
X037667
X037126
X041309Y-019124
X044154Y-020531
X044764Y-020502
X045433
X045413Y-021378
X045472Y-022047
X044764Y-022106
X044163Y-022126
Y-021319
X044744
X043179Y-023159
X042628
X042096
X049006Y-020817
X050059Y-020837
X049439Y-009281
X041821Y-008829
X056132Y-010522
X060915Y-014961
X060374Y-018228
X060335Y-018681
X059163Y-018228
X058789Y-018002
X059793Y-020472
X059459Y-020945
X060512Y-020837
X06126Y-020827
Y-02001
X06083Y-02237
X059459Y-022264
X057756Y-022254
X055906Y-023081
X054931Y-020453
X053602Y-020344
X063415Y-017628
X067077Y-018474
X067079Y-018955
X067116Y-019459
X067112Y-019955
X067988
X068012Y-019459
X068024Y-018955
X068012Y-018474
X067136Y-021486
X067677Y-022579
X065413Y-02251
Y-021585
X067892Y-00916
X068504Y-009144
X070098Y-014301
X070551Y-014341
X071063Y-01438
X075197Y-01564
Y-01626
X077707
X075772Y-013425
X076801Y-012215
X077234Y-008494
X078799Y-009764
X080049
X0831Y-014606
X081331Y-017409
X080541Y-019705
X08378
X076801Y-021909
X074695Y-020728
X073642Y-02063
X073199Y-021722
X070226Y-022431
X069823Y-02252
X068947Y-022352
X070591Y-022825
X068744Y-019955
X06872Y-019459
X068758Y-018955
X06876Y-018474
X087244Y-01814
X08628Y-016594
Y-0156
X085276Y-014596
X089429Y-013553
X092136Y-015699
Y-016614
X097559Y-016535
Y-015699
Y-013278
Y-019616
X098927Y-019144
X098179Y-022766
X101407Y-017687
Y-016614
X1006Y-015226
X10499Y-02126
X077234Y-006778
X076772
X075772
X074793Y-006791
X074104
X073465
X073051Y-00561
X071427
X071437Y-006762
X069222Y-006791
X068848Y-006821
X068642Y-003209
Y-002165
X075285Y-005187
X075276Y-005699
X075285Y-006181
X065778Y-006604
X061053Y-006604
X060925Y-006053
X060807Y-005561
X060374Y-006525
X05998
X059567
X059104
X058533
X058022
X057579
X057096Y-006387
X05685Y-005886
X056398Y-005236
X055374
T02
X123415Y-039236
Y-038736
Y-038236
Y-037736
X123327Y-03585
Y-03535
Y-03485
Y-03435
X123258Y-032317
Y-031817
Y-031317
Y-030817
X123278Y-028843
Y-028343
Y-027843
Y-027343
X123356Y-025614
Y-025114
Y-024614
Y-024114
X123396Y-022189
Y-021689
Y-021189
Y-020689
X123346Y-018675
Y-018175
Y-017675
Y-017175
Y-015329
Y-014829
Y-014329
Y-013829
X123337Y-01211
Y-01161
Y-01111
Y-01061
X123415Y-008646
Y-008146
Y-007646
Y-007146
T03
X047053Y-027821
Y-027321
Y-026821
Y-026321
Y-025821
X047553
Y-026321
Y-026821
Y-027321
Y-027821
T04
X108681Y-036835
Y-033835
X108602Y-025575
X093356Y-025339
X093002Y-034209
Y-037209
X002982Y-034846
Y-031846
Y-028596
Y-025596
X003002Y-022169
Y-019169
X093356Y-022339
X108602Y-022575
T05
X099579Y-037106
Y-036106
Y-035106
Y-034106
X102579
Y-035106
Y-036106
Y-037106
X10251Y-025344
Y-024344
Y-023344
X09951
Y-024344
Y-025344
X085896Y-024178
X08571Y-028089
Y-029089
Y-030089
Y-031089
X085876Y-034466
Y-035466
Y-036466
Y-037466
X082876
Y-036466
Y-035466
Y-034466
X08271Y-031089
Y-030089
Y-029089
Y-028089
X082896Y-024178
X061813Y-01606
Y-01506
Y-01406
Y-01306
X058813
Y-01406
Y-01506
Y-01606
X077758Y-013701
Y-012701
Y-011701
Y-010701
X080758
Y-011701
Y-012701
Y-013701
X082896Y-021178
Y-022178
Y-023178
X085896
Y-022178
Y-021178
X087423Y-013839
Y-012839
Y-011839
Y-010839
X090423
Y-011839
Y-012839
Y-013839
X09951Y-022344
X10251
T06
X106112Y-036766
Y-033766
X106201Y-025575
X095453Y-025358
X089252Y-024232
X087953Y-024192
X088072Y-028112
X089667
Y-031112
X088072
X087549Y-03447
X088868
X090197
Y-03747
X088868
X087549
X09565Y-03711
Y-03411
X080758Y-034519
X079232Y-034509
Y-037509
X080758Y-037519
X080376Y-031132
X079096Y-031152
Y-028152
X080376Y-028132
X080758Y-024192
X079518
X075817Y-02348
Y-02648
X075827Y-028835
Y-031835
X057504Y-017175
X054504
X05446Y-015999
Y-012999
X079518Y-021192
X080758
X087953
X089252Y-021232
X095453Y-022358
X106201Y-022575
T07
X071496Y-0345
Y-0335
Y-0325
Y-0315
Y-0305
Y-0295
Y-0285
Y-0275
X072496
Y-0285
Y-0295
Y-0305
Y-0315
Y-0325
Y-0335
Y-0345
X00664Y-030327
Y-029327
Y-028327
Y-027327
Y-026327
Y-025327
Y-024327
Y-023327
X00564
Y-024327
Y-025327
Y-026327
Y-027327
Y-028327
Y-029327
Y-030327
X057333Y-015906
Y-01311
X063574Y-014066
Y-015066
Y-016066
X071398Y-015955
X072398
Y-016955
X071398
Y-017955
X072398
Y-018955
X071398
Y-019955
X072398
Y-020955
X071398
Y-021955
X072398
Y-022955
X071398
X071772Y-003858
Y-002858
X072772
Y-003858
X073772
Y-002858
X074772
Y-003858
X075772
Y-002858
X076772
Y-003858
X077772
Y-002858
X078772
Y-003858
X065898Y-004065
X064898
X063898
X062898
X061898
X060898
X059898
X058898
Y-003065
X059898
X060898
X061898
X062898
X063898
X064898
X065898
X040219Y-003577
X039218
X038219
X037218
Y-004577
X038219
X039218
X040219
X036219
X035219
X034218
X033219
Y-003577
X034218
X035219
X036219
T08
X001181Y-043465
X124803
X094488Y-031496
X052559Y-014173
X112205Y-003937
X001181Y-001181
M30
