G04 Layer_Color=255*
%FSLAX24Y24*%
%MOIN*%
G70*
G01*
G75*
%ADD26C,0.1378*%
%ADD27C,0.0591*%
%ADD28R,0.0591X0.0591*%
%ADD29C,0.0472*%
%ADD30C,0.0650*%
%ADD31C,0.0551*%
%ADD32R,0.0591X0.0591*%
%ADD33C,0.0440*%
%ADD34R,0.0600X0.0600*%
%ADD35C,0.0600*%
%ADD36C,0.0394*%
%ADD37R,0.0394X0.0394*%
D26*
X94488Y-31496D02*
D03*
X52559Y-14173D02*
D03*
X1181Y-1181D02*
D03*
Y-43465D02*
D03*
X124803D02*
D03*
X112205Y-3937D02*
D03*
D27*
X6640Y-30327D02*
D03*
X5640D02*
D03*
X6640Y-29327D02*
D03*
X5640D02*
D03*
X6640Y-28327D02*
D03*
X5640D02*
D03*
X6640Y-27327D02*
D03*
X5640D02*
D03*
X6640Y-26327D02*
D03*
X5640D02*
D03*
X6640Y-25327D02*
D03*
X5640D02*
D03*
X6640Y-24327D02*
D03*
X5640D02*
D03*
X6640Y-23327D02*
D03*
X72398Y-15955D02*
D03*
X71398Y-16955D02*
D03*
X72398D02*
D03*
X71398Y-17955D02*
D03*
X72398D02*
D03*
X71398Y-18955D02*
D03*
X72398D02*
D03*
X71398Y-19955D02*
D03*
X72398D02*
D03*
X71398Y-20955D02*
D03*
X72398D02*
D03*
X71398Y-21955D02*
D03*
X72398D02*
D03*
X71398Y-22955D02*
D03*
X72398D02*
D03*
X71772Y-2858D02*
D03*
X72772Y-3858D02*
D03*
Y-2858D02*
D03*
X73772Y-3858D02*
D03*
Y-2858D02*
D03*
X74772Y-3858D02*
D03*
Y-2858D02*
D03*
X75772Y-3858D02*
D03*
Y-2858D02*
D03*
X76772Y-3858D02*
D03*
Y-2858D02*
D03*
X77772Y-3858D02*
D03*
Y-2858D02*
D03*
X78772Y-3858D02*
D03*
Y-2858D02*
D03*
X58898Y-3065D02*
D03*
X59898Y-4065D02*
D03*
Y-3065D02*
D03*
X60898Y-4065D02*
D03*
Y-3065D02*
D03*
X61898Y-4065D02*
D03*
Y-3065D02*
D03*
X62898Y-4065D02*
D03*
Y-3065D02*
D03*
X63898Y-4065D02*
D03*
Y-3065D02*
D03*
X64898Y-4065D02*
D03*
Y-3065D02*
D03*
X65898Y-4065D02*
D03*
Y-3065D02*
D03*
X72496Y-27500D02*
D03*
X71496Y-28500D02*
D03*
X72496D02*
D03*
X71496Y-29500D02*
D03*
X72496D02*
D03*
X71496Y-30500D02*
D03*
X72496D02*
D03*
X71496Y-31500D02*
D03*
X72496D02*
D03*
X71496Y-32500D02*
D03*
X72496D02*
D03*
X71496Y-33500D02*
D03*
X72496D02*
D03*
X71496Y-34500D02*
D03*
X72496D02*
D03*
X33219Y-3577D02*
D03*
X34218Y-4577D02*
D03*
Y-3577D02*
D03*
X35219Y-4577D02*
D03*
Y-3577D02*
D03*
X36219Y-4577D02*
D03*
Y-3577D02*
D03*
X37218Y-4577D02*
D03*
Y-3577D02*
D03*
X38219Y-4577D02*
D03*
Y-3577D02*
D03*
X39218Y-4577D02*
D03*
Y-3577D02*
D03*
X40219Y-4577D02*
D03*
Y-3577D02*
D03*
X63574Y-16066D02*
D03*
Y-15066D02*
D03*
X57333Y-15906D02*
D03*
D28*
X5640Y-23327D02*
D03*
X71398Y-15955D02*
D03*
X71496Y-27500D02*
D03*
X63574Y-14066D02*
D03*
X57333Y-13110D02*
D03*
D29*
X2982Y-28596D02*
D03*
Y-25596D02*
D03*
Y-34846D02*
D03*
Y-31846D02*
D03*
X3002Y-22169D02*
D03*
Y-19169D02*
D03*
X93002Y-37209D02*
D03*
Y-34209D02*
D03*
X108602Y-22575D02*
D03*
Y-25575D02*
D03*
X93356Y-22339D02*
D03*
Y-25339D02*
D03*
X108681Y-33835D02*
D03*
Y-36835D02*
D03*
D30*
X10044Y-25421D02*
D03*
Y-33741D02*
D03*
Y-32231D02*
D03*
Y-23931D02*
D03*
D31*
X75827Y-31835D02*
D03*
Y-28835D02*
D03*
X89252Y-21232D02*
D03*
Y-24232D02*
D03*
X87953Y-24192D02*
D03*
Y-21192D02*
D03*
X79518D02*
D03*
Y-24192D02*
D03*
X80758D02*
D03*
Y-21192D02*
D03*
X88072Y-31112D02*
D03*
Y-28112D02*
D03*
X79096Y-28152D02*
D03*
Y-31152D02*
D03*
X80376Y-31132D02*
D03*
Y-28132D02*
D03*
X89667Y-28112D02*
D03*
Y-31112D02*
D03*
X80758Y-37519D02*
D03*
Y-34519D02*
D03*
X79232Y-34509D02*
D03*
Y-37509D02*
D03*
X87549Y-34470D02*
D03*
Y-37470D02*
D03*
X88868Y-34470D02*
D03*
Y-37470D02*
D03*
X90197Y-34470D02*
D03*
Y-37470D02*
D03*
X54460Y-12999D02*
D03*
Y-15999D02*
D03*
X54504Y-17175D02*
D03*
X57504D02*
D03*
X106201Y-22575D02*
D03*
Y-25575D02*
D03*
X95453Y-22358D02*
D03*
Y-25358D02*
D03*
X95650Y-37110D02*
D03*
Y-34110D02*
D03*
X106112Y-33766D02*
D03*
Y-36766D02*
D03*
X75817Y-23480D02*
D03*
Y-26480D02*
D03*
D32*
X71772Y-3858D02*
D03*
X58898Y-4065D02*
D03*
X33219Y-4577D02*
D03*
D33*
X47053Y-25821D02*
D03*
X47553D02*
D03*
X47053Y-26321D02*
D03*
X47553D02*
D03*
X47053Y-26821D02*
D03*
X47553D02*
D03*
X47053Y-27321D02*
D03*
X47553D02*
D03*
X47053Y-27821D02*
D03*
X47553D02*
D03*
D34*
X82896Y-21178D02*
D03*
X82710Y-28089D02*
D03*
X82876Y-34466D02*
D03*
X58813Y-13060D02*
D03*
X99510Y-22344D02*
D03*
X87423Y-10839D02*
D03*
X99579Y-34106D02*
D03*
X77758Y-10701D02*
D03*
D35*
X82896Y-22178D02*
D03*
Y-23178D02*
D03*
Y-24178D02*
D03*
X85896D02*
D03*
Y-23178D02*
D03*
Y-22178D02*
D03*
Y-21178D02*
D03*
X82710Y-29089D02*
D03*
Y-30089D02*
D03*
Y-31089D02*
D03*
X85710D02*
D03*
Y-30089D02*
D03*
Y-29089D02*
D03*
Y-28089D02*
D03*
X82876Y-35466D02*
D03*
Y-36466D02*
D03*
Y-37466D02*
D03*
X85876D02*
D03*
Y-36466D02*
D03*
Y-35466D02*
D03*
Y-34466D02*
D03*
X58813Y-14060D02*
D03*
Y-15060D02*
D03*
Y-16060D02*
D03*
X61813D02*
D03*
Y-15060D02*
D03*
Y-14060D02*
D03*
Y-13060D02*
D03*
X99510Y-23344D02*
D03*
Y-24344D02*
D03*
Y-25344D02*
D03*
X102510D02*
D03*
Y-24344D02*
D03*
Y-23344D02*
D03*
Y-22344D02*
D03*
X87423Y-11839D02*
D03*
Y-12839D02*
D03*
Y-13839D02*
D03*
X90423D02*
D03*
Y-12839D02*
D03*
Y-11839D02*
D03*
Y-10839D02*
D03*
X99579Y-35106D02*
D03*
Y-36106D02*
D03*
Y-37106D02*
D03*
X102579D02*
D03*
Y-36106D02*
D03*
Y-35106D02*
D03*
Y-34106D02*
D03*
X77758Y-11701D02*
D03*
Y-12701D02*
D03*
Y-13701D02*
D03*
X80758D02*
D03*
Y-12701D02*
D03*
Y-11701D02*
D03*
Y-10701D02*
D03*
D36*
X123346Y-18675D02*
D03*
Y-18175D02*
D03*
Y-17675D02*
D03*
X123415Y-8646D02*
D03*
Y-8146D02*
D03*
Y-7646D02*
D03*
X123356Y-25614D02*
D03*
Y-25114D02*
D03*
Y-24614D02*
D03*
X123327Y-35850D02*
D03*
Y-35350D02*
D03*
Y-34850D02*
D03*
X123258Y-32317D02*
D03*
Y-31817D02*
D03*
Y-31317D02*
D03*
X123396Y-22189D02*
D03*
Y-21689D02*
D03*
Y-21189D02*
D03*
X123278Y-28843D02*
D03*
Y-28343D02*
D03*
Y-27843D02*
D03*
X123337Y-12110D02*
D03*
Y-11610D02*
D03*
Y-11110D02*
D03*
X123415Y-39236D02*
D03*
Y-38736D02*
D03*
Y-38236D02*
D03*
X123346Y-15329D02*
D03*
Y-14829D02*
D03*
Y-14329D02*
D03*
D37*
Y-17175D02*
D03*
X123415Y-7146D02*
D03*
X123356Y-24114D02*
D03*
X123327Y-34350D02*
D03*
X123258Y-30817D02*
D03*
X123396Y-20689D02*
D03*
X123278Y-27343D02*
D03*
X123337Y-10610D02*
D03*
X123415Y-37736D02*
D03*
X123346Y-13829D02*
D03*
M02*
