G04 Layer_Color=16711935*
%FSLAX24Y24*%
%MOIN*%
G70*
G01*
G75*
%ADD34R,0.0600X0.0600*%
%ADD35C,0.0600*%
%ADD64C,0.1458*%
%ADD65C,0.0671*%
%ADD66R,0.0671X0.0671*%
%ADD67C,0.0552*%
%ADD68C,0.0730*%
%ADD69C,0.0631*%
%ADD70R,0.0671X0.0671*%
%ADD71C,0.0520*%
%ADD72C,0.0474*%
%ADD73R,0.0474X0.0474*%
%ADD74C,0.0332*%
%ADD75C,0.0880*%
D34*
X82896Y-21178D02*
D03*
X82710Y-28089D02*
D03*
X82876Y-34466D02*
D03*
X58813Y-13060D02*
D03*
X99510Y-22344D02*
D03*
X87423Y-10839D02*
D03*
X99579Y-34106D02*
D03*
X77758Y-10701D02*
D03*
D35*
X82896Y-22178D02*
D03*
Y-23178D02*
D03*
Y-24178D02*
D03*
X85896D02*
D03*
Y-23178D02*
D03*
Y-22178D02*
D03*
Y-21178D02*
D03*
X82710Y-29089D02*
D03*
Y-30089D02*
D03*
Y-31089D02*
D03*
X85710D02*
D03*
Y-30089D02*
D03*
Y-29089D02*
D03*
Y-28089D02*
D03*
X82876Y-35466D02*
D03*
Y-36466D02*
D03*
Y-37466D02*
D03*
X85876D02*
D03*
Y-36466D02*
D03*
Y-35466D02*
D03*
Y-34466D02*
D03*
X58813Y-14060D02*
D03*
Y-15060D02*
D03*
Y-16060D02*
D03*
X61813D02*
D03*
Y-15060D02*
D03*
Y-14060D02*
D03*
Y-13060D02*
D03*
X99510Y-23344D02*
D03*
Y-24344D02*
D03*
Y-25344D02*
D03*
X102510D02*
D03*
Y-24344D02*
D03*
Y-23344D02*
D03*
Y-22344D02*
D03*
X87423Y-11839D02*
D03*
Y-12839D02*
D03*
Y-13839D02*
D03*
X90423D02*
D03*
Y-12839D02*
D03*
Y-11839D02*
D03*
Y-10839D02*
D03*
X99579Y-35106D02*
D03*
Y-36106D02*
D03*
Y-37106D02*
D03*
X102579D02*
D03*
Y-36106D02*
D03*
Y-35106D02*
D03*
Y-34106D02*
D03*
X77758Y-11701D02*
D03*
Y-12701D02*
D03*
Y-13701D02*
D03*
X80758D02*
D03*
Y-12701D02*
D03*
Y-11701D02*
D03*
Y-10701D02*
D03*
D64*
X94488Y-31496D02*
D03*
X52559Y-14173D02*
D03*
X1181Y-1181D02*
D03*
Y-43465D02*
D03*
X124803D02*
D03*
X112205Y-3937D02*
D03*
D65*
X6640Y-30327D02*
D03*
X5640D02*
D03*
X6640Y-29327D02*
D03*
X5640D02*
D03*
X6640Y-28327D02*
D03*
X5640D02*
D03*
X6640Y-27327D02*
D03*
X5640D02*
D03*
X6640Y-26327D02*
D03*
X5640D02*
D03*
X6640Y-25327D02*
D03*
X5640D02*
D03*
X6640Y-24327D02*
D03*
X5640D02*
D03*
X6640Y-23327D02*
D03*
X72398Y-15955D02*
D03*
X71398Y-16955D02*
D03*
X72398D02*
D03*
X71398Y-17955D02*
D03*
X72398D02*
D03*
X71398Y-18955D02*
D03*
X72398D02*
D03*
X71398Y-19955D02*
D03*
X72398D02*
D03*
X71398Y-20955D02*
D03*
X72398D02*
D03*
X71398Y-21955D02*
D03*
X72398D02*
D03*
X71398Y-22955D02*
D03*
X72398D02*
D03*
X71772Y-2858D02*
D03*
X72772Y-3858D02*
D03*
Y-2858D02*
D03*
X73772Y-3858D02*
D03*
Y-2858D02*
D03*
X74772Y-3858D02*
D03*
Y-2858D02*
D03*
X75772Y-3858D02*
D03*
Y-2858D02*
D03*
X76772Y-3858D02*
D03*
Y-2858D02*
D03*
X77772Y-3858D02*
D03*
Y-2858D02*
D03*
X78772Y-3858D02*
D03*
Y-2858D02*
D03*
X58898Y-3065D02*
D03*
X59898Y-4065D02*
D03*
Y-3065D02*
D03*
X60898Y-4065D02*
D03*
Y-3065D02*
D03*
X61898Y-4065D02*
D03*
Y-3065D02*
D03*
X62898Y-4065D02*
D03*
Y-3065D02*
D03*
X63898Y-4065D02*
D03*
Y-3065D02*
D03*
X64898Y-4065D02*
D03*
Y-3065D02*
D03*
X65898Y-4065D02*
D03*
Y-3065D02*
D03*
X72496Y-27500D02*
D03*
X71496Y-28500D02*
D03*
X72496D02*
D03*
X71496Y-29500D02*
D03*
X72496D02*
D03*
X71496Y-30500D02*
D03*
X72496D02*
D03*
X71496Y-31500D02*
D03*
X72496D02*
D03*
X71496Y-32500D02*
D03*
X72496D02*
D03*
X71496Y-33500D02*
D03*
X72496D02*
D03*
X71496Y-34500D02*
D03*
X72496D02*
D03*
X33219Y-3577D02*
D03*
X34218Y-4577D02*
D03*
Y-3577D02*
D03*
X35219Y-4577D02*
D03*
Y-3577D02*
D03*
X36219Y-4577D02*
D03*
Y-3577D02*
D03*
X37218Y-4577D02*
D03*
Y-3577D02*
D03*
X38219Y-4577D02*
D03*
Y-3577D02*
D03*
X39218Y-4577D02*
D03*
Y-3577D02*
D03*
X40219Y-4577D02*
D03*
Y-3577D02*
D03*
X63574Y-16066D02*
D03*
Y-15066D02*
D03*
X57333Y-15906D02*
D03*
D66*
X5640Y-23327D02*
D03*
X71398Y-15955D02*
D03*
X71496Y-27500D02*
D03*
X63574Y-14066D02*
D03*
X57333Y-13110D02*
D03*
D67*
X2982Y-28596D02*
D03*
Y-25596D02*
D03*
Y-34846D02*
D03*
Y-31846D02*
D03*
X3002Y-22169D02*
D03*
Y-19169D02*
D03*
X93002Y-37209D02*
D03*
Y-34209D02*
D03*
X108602Y-22575D02*
D03*
Y-25575D02*
D03*
X93356Y-22339D02*
D03*
Y-25339D02*
D03*
X108681Y-33835D02*
D03*
Y-36835D02*
D03*
D68*
X10044Y-25421D02*
D03*
Y-33741D02*
D03*
Y-32231D02*
D03*
Y-23931D02*
D03*
D69*
X75827Y-31835D02*
D03*
Y-28835D02*
D03*
X89252Y-21232D02*
D03*
Y-24232D02*
D03*
X87953Y-24192D02*
D03*
Y-21192D02*
D03*
X79518D02*
D03*
Y-24192D02*
D03*
X80758D02*
D03*
Y-21192D02*
D03*
X88072Y-31112D02*
D03*
Y-28112D02*
D03*
X79096Y-28152D02*
D03*
Y-31152D02*
D03*
X80376Y-31132D02*
D03*
Y-28132D02*
D03*
X89667Y-28112D02*
D03*
Y-31112D02*
D03*
X80758Y-37519D02*
D03*
Y-34519D02*
D03*
X79232Y-34509D02*
D03*
Y-37509D02*
D03*
X87549Y-34470D02*
D03*
Y-37470D02*
D03*
X88868Y-34470D02*
D03*
Y-37470D02*
D03*
X90197Y-34470D02*
D03*
Y-37470D02*
D03*
X54460Y-12999D02*
D03*
Y-15999D02*
D03*
X54504Y-17175D02*
D03*
X57504D02*
D03*
X106201Y-22575D02*
D03*
Y-25575D02*
D03*
X95453Y-22358D02*
D03*
Y-25358D02*
D03*
X95650Y-37110D02*
D03*
Y-34110D02*
D03*
X106112Y-33766D02*
D03*
Y-36766D02*
D03*
X75817Y-23480D02*
D03*
Y-26480D02*
D03*
D70*
X71772Y-3858D02*
D03*
X58898Y-4065D02*
D03*
X33219Y-4577D02*
D03*
D71*
X47053Y-25821D02*
D03*
X47553D02*
D03*
X47053Y-26321D02*
D03*
X47553D02*
D03*
X47053Y-26821D02*
D03*
X47553D02*
D03*
X47053Y-27321D02*
D03*
X47553D02*
D03*
X47053Y-27821D02*
D03*
X47553D02*
D03*
D72*
X123346Y-18675D02*
D03*
Y-18175D02*
D03*
Y-17675D02*
D03*
X123415Y-8646D02*
D03*
Y-8146D02*
D03*
Y-7646D02*
D03*
X123356Y-25614D02*
D03*
Y-25114D02*
D03*
Y-24614D02*
D03*
X123327Y-35850D02*
D03*
Y-35350D02*
D03*
Y-34850D02*
D03*
X123258Y-32317D02*
D03*
Y-31817D02*
D03*
Y-31317D02*
D03*
X123396Y-22189D02*
D03*
Y-21689D02*
D03*
Y-21189D02*
D03*
X123278Y-28843D02*
D03*
Y-28343D02*
D03*
Y-27843D02*
D03*
X123337Y-12110D02*
D03*
Y-11610D02*
D03*
Y-11110D02*
D03*
X123415Y-39236D02*
D03*
Y-38736D02*
D03*
Y-38236D02*
D03*
X123346Y-15329D02*
D03*
Y-14829D02*
D03*
Y-14329D02*
D03*
D73*
Y-17175D02*
D03*
X123415Y-7146D02*
D03*
X123356Y-24114D02*
D03*
X123327Y-34350D02*
D03*
X123258Y-30817D02*
D03*
X123396Y-20689D02*
D03*
X123278Y-27343D02*
D03*
X123337Y-10610D02*
D03*
X123415Y-37736D02*
D03*
X123346Y-13829D02*
D03*
D74*
X47890Y-30311D02*
D03*
X53100Y-30750D02*
D03*
X47830Y-29790D02*
D03*
X60830Y-22370D02*
D03*
X67230Y-32460D02*
D03*
X56890Y-28280D02*
D03*
X53740Y-28950D02*
D03*
X50640Y-35980D02*
D03*
X50970Y-35670D02*
D03*
X59810Y-34380D02*
D03*
X62000Y-34550D02*
D03*
X65400Y-34170D02*
D03*
X63100Y-33030D02*
D03*
X62256Y-32571D02*
D03*
X60020Y-29030D02*
D03*
X59685Y-29606D02*
D03*
X60280Y-31040D02*
D03*
X60350Y-31820D02*
D03*
X64710Y-33020D02*
D03*
X67120Y-33150D02*
D03*
X64400Y-32170D02*
D03*
X60490Y-32150D02*
D03*
X57835Y-32335D02*
D03*
X58080Y-32010D02*
D03*
X54183Y-32530D02*
D03*
X53740Y-31720D02*
D03*
X52180Y-29770D02*
D03*
X51496Y-30049D02*
D03*
X45472Y-22047D02*
D03*
X18714Y-30521D02*
D03*
X18264D02*
D03*
X118346Y-30207D02*
D03*
X98789Y-28386D02*
D03*
X54931Y-20453D02*
D03*
X58789Y-18002D02*
D03*
X89429Y-13553D02*
D03*
X83100Y-14606D02*
D03*
X85276Y-14596D02*
D03*
X86280Y-15600D02*
D03*
Y-16594D02*
D03*
X87244Y-18140D02*
D03*
X84262Y-40089D02*
D03*
X90640Y-33435D02*
D03*
X104990Y-21260D02*
D03*
X104321Y-32992D02*
D03*
X101220Y-39774D02*
D03*
X81801Y-35728D02*
D03*
X86663Y-31722D02*
D03*
X65413Y-21585D02*
D03*
X67077Y-18474D02*
D03*
X68012D02*
D03*
X68760D02*
D03*
X67116Y-19459D02*
D03*
X68012D02*
D03*
X68720D02*
D03*
X67112Y-19955D02*
D03*
X67079Y-18955D02*
D03*
X67988Y-19955D02*
D03*
X68024Y-18955D02*
D03*
X68744Y-19955D02*
D03*
X68758Y-18955D02*
D03*
X67677Y-22579D02*
D03*
X70591Y-22825D02*
D03*
X70226Y-22431D02*
D03*
X69823Y-22520D02*
D03*
X83780Y-19705D02*
D03*
X80541D02*
D03*
X75197Y-15640D02*
D03*
X77707Y-16260D02*
D03*
X75197D02*
D03*
X80295Y-39705D02*
D03*
X52628Y-40138D02*
D03*
Y-37618D02*
D03*
Y-33533D02*
D03*
X88072Y-26311D02*
D03*
X97559Y-13278D02*
D03*
Y-15699D02*
D03*
Y-16535D02*
D03*
Y-19616D02*
D03*
X83484Y-42175D02*
D03*
X17464Y-33921D02*
D03*
X20714Y-32721D02*
D03*
X13664Y-30521D02*
D03*
X13264D02*
D03*
X12864D02*
D03*
X12064D02*
D03*
X22364Y-33671D02*
D03*
X14864Y-30521D02*
D03*
X15664D02*
D03*
X11864Y-26721D02*
D03*
X12264D02*
D03*
X12664D02*
D03*
X13064D02*
D03*
X13464D02*
D03*
X13864D02*
D03*
X14264D02*
D03*
X11664Y-30521D02*
D03*
X12464D02*
D03*
X14064D02*
D03*
X14464D02*
D03*
X15264D02*
D03*
X21064Y-36071D02*
D03*
X18264Y-30821D02*
D03*
X18714D02*
D03*
X18174Y-32721D02*
D03*
X73888Y-35787D02*
D03*
X63209Y-39469D02*
D03*
X61654Y-39488D02*
D03*
X60925Y-6053D02*
D03*
X59518Y-34006D02*
D03*
X33199Y-17274D02*
D03*
X36535D02*
D03*
X35433D02*
D03*
X34872D02*
D03*
X34281D02*
D03*
X37126D02*
D03*
X37667D02*
D03*
X38258D02*
D03*
X38799D02*
D03*
X39341D02*
D03*
X39823D02*
D03*
X40354D02*
D03*
X41309Y-19124D02*
D03*
X40866Y-17431D02*
D03*
X33740Y-17274D02*
D03*
X57500Y-29016D02*
D03*
X53602Y-20344D02*
D03*
X51880Y-31260D02*
D03*
X51634Y-30945D02*
D03*
X75285Y-5187D02*
D03*
X75276Y-5699D02*
D03*
X75285Y-6181D02*
D03*
X74793Y-6791D02*
D03*
X74104D02*
D03*
X73465D02*
D03*
X71063Y-14380D02*
D03*
X70551Y-14341D02*
D03*
X70098Y-14301D02*
D03*
X70532Y-24213D02*
D03*
X65384Y-25906D02*
D03*
X65010Y-25797D02*
D03*
X65669Y-26201D02*
D03*
X59675Y-30709D02*
D03*
X59665Y-30354D02*
D03*
X59656Y-30039D02*
D03*
X58189Y-31496D02*
D03*
X77234Y-6778D02*
D03*
Y-8494D02*
D03*
X68504Y-9144D02*
D03*
X49439Y-9281D02*
D03*
X45236Y-24262D02*
D03*
X45925Y-31093D02*
D03*
Y-31781D02*
D03*
X63415Y-17628D02*
D03*
X66545Y-28307D02*
D03*
X69852Y-30177D02*
D03*
X70512Y-30640D02*
D03*
X67008Y-34026D02*
D03*
X61053Y-33130D02*
D03*
X57206Y-29724D02*
D03*
X65728Y-37185D02*
D03*
X65289Y-35619D02*
D03*
X81358Y-24833D02*
D03*
X73199Y-21722D02*
D03*
X55906Y-23081D02*
D03*
X54537Y-23258D02*
D03*
X53986Y-27215D02*
D03*
X53524Y-32963D02*
D03*
X58573Y-28760D02*
D03*
X47392Y-28848D02*
D03*
X48081Y-39360D02*
D03*
X49380D02*
D03*
X57205D02*
D03*
X46181Y-37835D02*
D03*
X41250Y-33622D02*
D03*
X49576Y-37835D02*
D03*
X57106Y-34577D02*
D03*
X56585Y-34272D02*
D03*
X46211Y-37382D02*
D03*
X58002Y-37470D02*
D03*
X59055Y-37392D02*
D03*
X56919Y-39094D02*
D03*
X68081Y-35610D02*
D03*
X61486Y-34419D02*
D03*
X64715Y-33671D02*
D03*
X48573Y-27156D02*
D03*
X52402Y-30856D02*
D03*
X53012Y-30089D02*
D03*
X60482Y-31437D02*
D03*
X58829Y-35157D02*
D03*
X58396Y-37175D02*
D03*
X38652Y-35817D02*
D03*
Y-34774D02*
D03*
X73051Y-5610D02*
D03*
X71427D02*
D03*
X68848Y-6821D02*
D03*
X67136Y-21486D02*
D03*
X65541Y-25108D02*
D03*
X52530Y-30049D02*
D03*
X52323Y-30335D02*
D03*
X67018Y-31309D02*
D03*
X58780Y-37146D02*
D03*
X59222Y-35236D02*
D03*
X57697Y-35285D02*
D03*
X59242Y-34311D02*
D03*
X61093Y-37431D02*
D03*
X50256Y-36673D02*
D03*
X54203Y-35089D02*
D03*
X53986Y-34350D02*
D03*
X55364Y-33533D02*
D03*
X65551Y-29793D02*
D03*
X60404Y-29006D02*
D03*
X63386Y-29252D02*
D03*
X60896Y-35384D02*
D03*
X56024Y-35118D02*
D03*
X56122Y-28524D02*
D03*
X56782Y-28947D02*
D03*
X61555Y-24990D02*
D03*
Y-25768D02*
D03*
X50059Y-24193D02*
D03*
Y-23533D02*
D03*
X68189Y-30896D02*
D03*
X66959Y-30915D02*
D03*
X65443Y-31063D02*
D03*
X65758Y-30305D02*
D03*
X54360Y-38839D02*
D03*
X60994Y-39469D02*
D03*
X67697Y-36870D02*
D03*
X76801Y-24862D02*
D03*
Y-21909D02*
D03*
Y-12215D02*
D03*
X76772Y-6778D02*
D03*
X75108Y-34567D02*
D03*
X75432Y-31339D02*
D03*
X75772Y-13425D02*
D03*
Y-6778D02*
D03*
X47421Y-30305D02*
D03*
X41821Y-8829D02*
D03*
X61053Y-6604D02*
D03*
X47854Y-31073D02*
D03*
X56850Y-5886D02*
D03*
X55374Y-5236D02*
D03*
X68642Y-3209D02*
D03*
Y-2165D02*
D03*
X65674Y-34788D02*
D03*
X67067Y-33593D02*
D03*
X67520Y-33159D02*
D03*
X68839Y-31220D02*
D03*
X71437Y-6762D02*
D03*
X69222Y-6791D02*
D03*
X68258Y-31476D02*
D03*
X68425Y-29035D02*
D03*
Y-26250D02*
D03*
Y-24931D02*
D03*
X62461Y-28297D02*
D03*
X63524Y-25561D02*
D03*
X62461Y-24803D02*
D03*
X56791Y-26693D02*
D03*
X60915Y-14961D02*
D03*
X66093Y-31270D02*
D03*
X61811Y-38031D02*
D03*
X46762Y-31043D02*
D03*
X61348Y-38031D02*
D03*
X47146Y-31053D02*
D03*
X60600Y-26772D02*
D03*
X59459Y-22264D02*
D03*
Y-20945D02*
D03*
X50059Y-20837D02*
D03*
X58317Y-26713D02*
D03*
X54331Y-26781D02*
D03*
X53386Y-28258D02*
D03*
X52992Y-28287D02*
D03*
Y-27687D02*
D03*
Y-23652D02*
D03*
X78957Y-25266D02*
D03*
X82598D02*
D03*
X67283Y-36801D02*
D03*
X76240Y-35650D02*
D03*
X85571Y-33258D02*
D03*
X50010Y-29085D02*
D03*
X66959Y-37106D02*
D03*
X57283Y-26378D02*
D03*
X57087Y-25994D02*
D03*
X56801Y-25709D02*
D03*
X55148Y-23317D02*
D03*
X68947Y-22352D02*
D03*
X78799Y-9764D02*
D03*
X80049D02*
D03*
X56073Y-26447D02*
D03*
X73976Y-27569D02*
D03*
X73642Y-20630D02*
D03*
X92136Y-15699D02*
D03*
Y-16614D02*
D03*
X81331Y-17409D02*
D03*
X102579Y-38376D02*
D03*
X73701Y-28524D02*
D03*
X74695Y-20728D02*
D03*
X77352Y-36545D02*
D03*
X83967Y-34429D02*
D03*
X98927Y-19144D02*
D03*
X100600Y-15226D02*
D03*
X59419Y-32638D02*
D03*
X61378Y-27657D02*
D03*
X59990Y-32608D02*
D03*
X62146Y-25492D02*
D03*
X60463Y-30148D02*
D03*
X63770Y-28179D02*
D03*
X66959Y-30157D02*
D03*
X49390Y-35827D02*
D03*
X56880Y-33937D02*
D03*
X66407Y-29793D02*
D03*
X58287Y-28228D02*
D03*
X58829Y-28396D02*
D03*
X59104Y-28012D02*
D03*
X59439Y-28120D02*
D03*
X58585Y-28001D02*
D03*
X63435Y-28819D02*
D03*
X101289Y-25295D02*
D03*
X101407Y-17687D02*
D03*
X104065Y-23789D02*
D03*
X104085Y-37470D02*
D03*
X98642Y-33189D02*
D03*
X98179Y-22766D02*
D03*
X104045Y-27618D02*
D03*
X99843Y-28051D02*
D03*
X53406Y-27717D02*
D03*
X56132Y-10522D02*
D03*
X60807Y-5561D02*
D03*
X50866Y-28543D02*
D03*
X56398Y-5236D02*
D03*
X57835Y-26663D02*
D03*
X59793Y-28091D02*
D03*
X59163Y-18228D02*
D03*
X60374D02*
D03*
X60207Y-26762D02*
D03*
X60512Y-20837D02*
D03*
X60335Y-18681D02*
D03*
X61260Y-20827D02*
D03*
Y-20010D02*
D03*
X50305Y-36319D02*
D03*
X50207Y-32510D02*
D03*
X50600Y-32825D02*
D03*
X50935Y-33100D02*
D03*
X37037Y-33159D02*
D03*
Y-32313D02*
D03*
X36575Y-32697D02*
D03*
X33199Y-13957D02*
D03*
X101407Y-16614D02*
D03*
X100344Y-30207D02*
D03*
Y-31585D02*
D03*
Y-39094D02*
D03*
X83484Y-38991D02*
D03*
X101091Y-30864D02*
D03*
X99579D02*
D03*
X100344Y-41929D02*
D03*
X57648Y-27963D02*
D03*
X51831Y-23381D02*
D03*
X54606Y-27972D02*
D03*
X61024Y-27136D02*
D03*
X75049Y-24685D02*
D03*
X74911Y-32234D02*
D03*
X74862Y-34311D02*
D03*
X67421Y-35620D02*
D03*
X33740Y-13957D02*
D03*
X34281D02*
D03*
X34872D02*
D03*
X35433D02*
D03*
X36014Y-17274D02*
D03*
Y-13957D02*
D03*
X36535D02*
D03*
X37126D02*
D03*
X37667D02*
D03*
X38258D02*
D03*
X38799D02*
D03*
X40354D02*
D03*
X39823D02*
D03*
X39341D02*
D03*
X42283D02*
D03*
X41791D02*
D03*
X41299D02*
D03*
X40837D02*
D03*
X35502Y-31988D02*
D03*
X42096Y-17628D02*
D03*
X42628D02*
D03*
X43179D02*
D03*
X42096Y-23159D02*
D03*
X42628D02*
D03*
X43179D02*
D03*
X42096Y-24498D02*
D03*
X42628D02*
D03*
X43179D02*
D03*
X42628Y-30247D02*
D03*
X43179D02*
D03*
X42096D02*
D03*
X41801Y-33405D02*
D03*
X53022Y-34557D02*
D03*
X49774Y-32264D02*
D03*
X54203Y-37638D02*
D03*
X54704D02*
D03*
X55325Y-37766D02*
D03*
X56378Y-37687D02*
D03*
X57303D02*
D03*
X56850D02*
D03*
X59892Y-37165D02*
D03*
X58425Y-35187D02*
D03*
X59104Y-6525D02*
D03*
X59567D02*
D03*
X59980D02*
D03*
X60374D02*
D03*
X58533D02*
D03*
X58022D02*
D03*
X57579D02*
D03*
X57096Y-6387D02*
D03*
X65778Y-6604D02*
D03*
X48071Y-29370D02*
D03*
X50482Y-29213D02*
D03*
X52933Y-28799D02*
D03*
X63317Y-28435D02*
D03*
X62077Y-28268D02*
D03*
X62352Y-27569D02*
D03*
X62677Y-25187D02*
D03*
X69272Y-24567D02*
D03*
Y-26093D02*
D03*
X68740Y-28711D02*
D03*
X68140Y-29774D02*
D03*
X68130Y-30138D02*
D03*
X67313Y-31860D02*
D03*
X69557Y-32795D02*
D03*
X56339Y-32234D02*
D03*
X56437Y-31407D02*
D03*
X56142Y-30463D02*
D03*
X56657Y-30885D02*
D03*
X56526Y-30502D02*
D03*
X57077Y-30217D02*
D03*
X56260Y-29793D02*
D03*
X55984Y-31831D02*
D03*
X69872Y-23553D02*
D03*
X70237Y-23898D02*
D03*
X66939Y-23661D02*
D03*
X69006Y-23376D02*
D03*
X65413Y-22510D02*
D03*
X60069Y-24793D02*
D03*
X59793Y-20472D02*
D03*
X49006Y-20817D02*
D03*
X47411Y-23258D02*
D03*
X48740Y-23612D02*
D03*
X51860Y-28140D02*
D03*
X49715Y-27717D02*
D03*
X55443Y-34587D02*
D03*
X55000Y-34685D02*
D03*
X64291Y-29272D02*
D03*
X63563Y-24429D02*
D03*
X61585Y-24006D02*
D03*
X57392Y-25128D02*
D03*
X57756Y-25650D02*
D03*
Y-22254D02*
D03*
X44154Y-20531D02*
D03*
X44163Y-21319D02*
D03*
Y-22126D02*
D03*
X44764Y-20502D02*
D03*
X44744Y-21319D02*
D03*
X44764Y-22106D02*
D03*
X45433Y-20502D02*
D03*
X45413Y-21378D02*
D03*
X31073Y-20512D02*
D03*
X31083Y-21378D02*
D03*
Y-22175D02*
D03*
X31742Y-20512D02*
D03*
X31752Y-21319D02*
D03*
X31781Y-22126D02*
D03*
X32323Y-20512D02*
D03*
X32313Y-21309D02*
D03*
X32323Y-22156D02*
D03*
X67892Y-9160D02*
D03*
D75*
X10064Y-32221D02*
D03*
Y-25421D02*
D03*
Y-33721D02*
D03*
Y-23921D02*
D03*
M02*
