G04 Layer_Color=65535*
%FSLAX25Y25*%
%MOIN*%
G70*
G01*
G75*
%ADD13C,0.01000*%
%ADD28C,0.00984*%
%ADD29C,0.00787*%
%ADD30C,0.00781*%
G36*
X750100Y397500D02*
X748600D01*
Y398500D01*
X750100D01*
Y397500D01*
D02*
G37*
G36*
X737600Y427700D02*
X736100D01*
Y428700D01*
X737600D01*
Y427700D01*
D02*
G37*
D13*
X924900Y261400D02*
Y262300D01*
Y240500D02*
Y241400D01*
Y261400D02*
X927900D01*
Y241400D02*
Y261400D01*
X921900Y241400D02*
X927900D01*
X921900D02*
Y261400D01*
X924900D01*
X531000Y261500D02*
Y262400D01*
Y240600D02*
Y241500D01*
Y261500D02*
X534000D01*
Y241500D02*
Y261500D01*
X528000Y241500D02*
X534000D01*
X528000D02*
Y261500D01*
X531000D01*
X597600Y262500D02*
Y277500D01*
X632600D01*
Y262500D02*
Y277500D01*
X597600Y262500D02*
X632600D01*
X400500D02*
Y277500D01*
X435500D01*
Y262500D02*
Y277500D01*
X400500Y262500D02*
X435500D01*
X702100Y372100D02*
X794600D01*
X694600D02*
X702100D01*
X694600Y362100D02*
Y372100D01*
Y362100D02*
X794600D01*
Y372100D01*
X591500Y438500D02*
Y453500D01*
X556500Y438500D02*
X591500D01*
X556500D02*
Y453500D01*
X591500D01*
X565000Y417000D02*
Y427000D01*
X585000D01*
Y417000D02*
Y427000D01*
X565000Y417000D02*
X585000D01*
X595500Y438500D02*
X630500D01*
Y453500D01*
X595500D02*
X630500D01*
X595500Y438500D02*
Y453500D01*
X734700Y385900D02*
Y395900D01*
X714700Y385900D02*
X734700D01*
X714700D02*
Y395900D01*
X734700D01*
X722900Y404700D02*
X724800D01*
X722900D02*
Y421500D01*
X756400D02*
X758300D01*
Y404700D02*
Y421500D01*
X756400Y404700D02*
X758300D01*
X722900Y421500D02*
X724800D01*
X693600Y424100D02*
Y425000D01*
Y403200D02*
Y404100D01*
Y424100D02*
X696600D01*
Y404100D02*
Y424100D01*
X690600Y404100D02*
X696600D01*
X690600D02*
Y424100D01*
X693600D01*
X410480Y248035D02*
X423079D01*
X410480Y222051D02*
X423079D01*
X428000Y250000D02*
Y260000D01*
X408000Y250000D02*
X428000D01*
X408000D02*
Y260000D01*
X428000D01*
X333600Y261200D02*
Y262100D01*
Y240300D02*
Y241200D01*
Y261200D02*
X336600D01*
Y241200D02*
Y261200D01*
X330600Y241200D02*
X336600D01*
X330600D02*
Y261200D01*
X333600D01*
X607261Y248035D02*
X619859D01*
X607261Y222051D02*
X619859D01*
X626467Y250000D02*
Y260000D01*
X606467Y250000D02*
X626467D01*
X606467D02*
Y260000D01*
X626467D01*
X804041Y248036D02*
X816639D01*
X804041Y222051D02*
X816639D01*
X823100Y250200D02*
Y260200D01*
X803100Y250200D02*
X823100D01*
X803100D02*
Y260200D01*
X823100D01*
X619000Y417000D02*
Y427000D01*
X599000Y417000D02*
X619000D01*
X599000D02*
Y427000D01*
X619000D01*
X1000821Y248036D02*
X1013420D01*
X1000821Y222051D02*
X1013420D01*
X1019300Y250100D02*
Y260100D01*
X999300Y250100D02*
X1019300D01*
X999300D02*
Y260100D01*
X1019300D01*
X992000Y262700D02*
Y277700D01*
X1027000D01*
Y262700D02*
Y277700D01*
X992000Y262700D02*
X1027000D01*
X702100Y462100D02*
X794600D01*
X694600D02*
X702100D01*
X694600Y452100D02*
Y462100D01*
Y452100D02*
X794600D01*
Y462100D01*
X794700Y262500D02*
Y277500D01*
X829700D01*
Y262500D02*
Y277500D01*
X794700Y262500D02*
X829700D01*
X728373Y227100D02*
Y233098D01*
X731372D01*
X732372Y232098D01*
Y230099D01*
X731372Y229099D01*
X728373D01*
X730372D02*
X732372Y227100D01*
X734371Y232098D02*
X735371Y233098D01*
X737370D01*
X738370Y232098D01*
Y231099D01*
X737370Y230099D01*
X736370D01*
X737370D01*
X738370Y229099D01*
Y228100D01*
X737370Y227100D01*
X735371D01*
X734371Y228100D01*
X797400Y462700D02*
Y468698D01*
X800399D01*
X801399Y467698D01*
Y465699D01*
X800399Y464699D01*
X797400D01*
X803398Y462700D02*
X805397D01*
X804398D01*
Y468698D01*
X803398Y467698D01*
X808396D02*
X809396Y468698D01*
X811395D01*
X812395Y467698D01*
Y463700D01*
X811395Y462700D01*
X809396D01*
X808396Y463700D01*
Y467698D01*
X695100Y375600D02*
Y381598D01*
X698099D01*
X699099Y380598D01*
Y378599D01*
X698099Y377599D01*
X695100D01*
X701098Y376600D02*
X702098Y375600D01*
X704097D01*
X705097Y376600D01*
Y380598D01*
X704097Y381598D01*
X702098D01*
X701098Y380598D01*
Y379599D01*
X702098Y378599D01*
X705097D01*
X561999Y459998D02*
X560999Y460998D01*
X559000D01*
X558000Y459998D01*
Y456000D01*
X559000Y455000D01*
X560999D01*
X561999Y456000D01*
X563998Y455000D02*
X565997D01*
X564998D01*
Y460998D01*
X563998Y459998D01*
X568999Y413998D02*
X567999Y414998D01*
X566000D01*
X565000Y413998D01*
Y410000D01*
X566000Y409000D01*
X567999D01*
X568999Y410000D01*
X574997Y409000D02*
X570998D01*
X574997Y412999D01*
Y413998D01*
X573997Y414998D01*
X571998D01*
X570998Y413998D01*
X404999Y285998D02*
X403999Y286998D01*
X402000D01*
X401000Y285998D01*
Y282000D01*
X402000Y281000D01*
X403999D01*
X404999Y282000D01*
X406998Y285998D02*
X407998Y286998D01*
X409997D01*
X410997Y285998D01*
Y284999D01*
X409997Y283999D01*
X408997D01*
X409997D01*
X410997Y282999D01*
Y282000D01*
X409997Y281000D01*
X407998D01*
X406998Y282000D01*
X400999Y259998D02*
X399999Y260998D01*
X398000D01*
X397000Y259998D01*
Y256000D01*
X398000Y255000D01*
X399999D01*
X400999Y256000D01*
X405997Y255000D02*
Y260998D01*
X402998Y257999D01*
X406997D01*
X602250Y285847D02*
X601250Y286847D01*
X599251D01*
X598251Y285847D01*
Y281849D01*
X599251Y280849D01*
X601250D01*
X602250Y281849D01*
X608248Y286847D02*
X604249D01*
Y283848D01*
X606249Y284847D01*
X607248D01*
X608248Y283848D01*
Y281849D01*
X607248Y280849D01*
X605249D01*
X604249Y281849D01*
X598465Y259998D02*
X597466Y260998D01*
X595466D01*
X594467Y259998D01*
Y256000D01*
X595466Y255000D01*
X597466D01*
X598465Y256000D01*
X604463Y260998D02*
X602464Y259998D01*
X600465Y257999D01*
Y256000D01*
X601464Y255000D01*
X603464D01*
X604463Y256000D01*
Y256999D01*
X603464Y257999D01*
X600465D01*
X799799Y285898D02*
X798799Y286898D01*
X796800D01*
X795800Y285898D01*
Y281900D01*
X796800Y280900D01*
X798799D01*
X799799Y281900D01*
X801798Y286898D02*
X805797D01*
Y285898D01*
X801798Y281900D01*
Y280900D01*
X793099Y260198D02*
X792099Y261198D01*
X790100D01*
X789100Y260198D01*
Y256200D01*
X790100Y255200D01*
X792099D01*
X793099Y256200D01*
X795098Y260198D02*
X796098Y261198D01*
X798097D01*
X799097Y260198D01*
Y259199D01*
X798097Y258199D01*
X799097Y257199D01*
Y256200D01*
X798097Y255200D01*
X796098D01*
X795098Y256200D01*
Y257199D01*
X796098Y258199D01*
X795098Y259199D01*
Y260198D01*
X796098Y258199D02*
X798097D01*
X997899Y285498D02*
X996899Y286498D01*
X994900D01*
X993900Y285498D01*
Y281500D01*
X994900Y280500D01*
X996899D01*
X997899Y281500D01*
X999898D02*
X1000898Y280500D01*
X1002897D01*
X1003897Y281500D01*
Y285498D01*
X1002897Y286498D01*
X1000898D01*
X999898Y285498D01*
Y284499D01*
X1000898Y283499D01*
X1003897D01*
X985799Y258998D02*
X984799Y259998D01*
X982800D01*
X981800Y258998D01*
Y255000D01*
X982800Y254000D01*
X984799D01*
X985799Y255000D01*
X987798Y254000D02*
X989797D01*
X988798D01*
Y259998D01*
X987798Y258998D01*
X992796D02*
X993796Y259998D01*
X995796D01*
X996795Y258998D01*
Y255000D01*
X995796Y254000D01*
X993796D01*
X992796Y255000D01*
Y258998D01*
X702499Y395598D02*
X701499Y396598D01*
X699500D01*
X698500Y395598D01*
Y391600D01*
X699500Y390600D01*
X701499D01*
X702499Y391600D01*
X704498Y390600D02*
X706497D01*
X705498D01*
Y396598D01*
X704498Y395598D01*
X709496Y390600D02*
X711496D01*
X710496D01*
Y396598D01*
X709496Y395598D01*
X407500Y219798D02*
Y213800D01*
X410499D01*
X411499Y214800D01*
Y218798D01*
X410499Y219798D01*
X407500D01*
X413498Y213800D02*
Y219798D01*
X416497D01*
X417497Y218798D01*
Y216799D01*
X416497Y215799D01*
X413498D01*
X415497D02*
X417497Y213800D01*
X419496Y219798D02*
Y215799D01*
X421495Y213800D01*
X423495Y215799D01*
Y219798D01*
X425494Y213800D02*
X427493D01*
X426494D01*
Y219798D01*
X425494Y218798D01*
X607000Y218398D02*
Y212400D01*
X609999D01*
X610999Y213400D01*
Y217398D01*
X609999Y218398D01*
X607000D01*
X612998Y212400D02*
Y218398D01*
X615997D01*
X616997Y217398D01*
Y215399D01*
X615997Y214399D01*
X612998D01*
X614997D02*
X616997Y212400D01*
X618996Y218398D02*
Y214399D01*
X620996Y212400D01*
X622995Y214399D01*
Y218398D01*
X628993Y212400D02*
X624994D01*
X628993Y216399D01*
Y217398D01*
X627993Y218398D01*
X625994D01*
X624994Y217398D01*
X800529Y216254D02*
Y210256D01*
X803528D01*
X804528Y211256D01*
Y215254D01*
X803528Y216254D01*
X800529D01*
X806527Y210256D02*
Y216254D01*
X809526D01*
X810526Y215254D01*
Y213255D01*
X809526Y212255D01*
X806527D01*
X808527D02*
X810526Y210256D01*
X812525Y216254D02*
Y212255D01*
X814525Y210256D01*
X816524Y212255D01*
Y216254D01*
X818523Y215254D02*
X819523Y216254D01*
X821522D01*
X822522Y215254D01*
Y214255D01*
X821522Y213255D01*
X820523D01*
X821522D01*
X822522Y212255D01*
Y211256D01*
X821522Y210256D01*
X819523D01*
X818523Y211256D01*
X997900Y218798D02*
Y212800D01*
X1000899D01*
X1001899Y213800D01*
Y217798D01*
X1000899Y218798D01*
X997900D01*
X1003898Y212800D02*
Y218798D01*
X1006897D01*
X1007897Y217798D01*
Y215799D01*
X1006897Y214799D01*
X1003898D01*
X1005897D02*
X1007897Y212800D01*
X1009896Y218798D02*
Y214799D01*
X1011895Y212800D01*
X1013895Y214799D01*
Y218798D01*
X1018893Y212800D02*
Y218798D01*
X1015894Y215799D01*
X1019893D01*
X769599Y420998D02*
X765600D01*
Y415000D01*
X769599D01*
X765600Y417999D02*
X767599D01*
X771598Y420998D02*
X775597Y415000D01*
Y420998D02*
X771598Y415000D01*
X777596D02*
Y420998D01*
X780595D01*
X781595Y419998D01*
Y417999D01*
X780595Y416999D01*
X777596D01*
X783594Y415000D02*
X785594D01*
X784594D01*
Y420998D01*
X783594Y419998D01*
X333600Y225200D02*
Y231198D01*
X336599D01*
X337599Y230198D01*
Y228199D01*
X336599Y227199D01*
X333600D01*
X335599D02*
X337599Y225200D01*
X339598D02*
X341597D01*
X340598D01*
Y231198D01*
X339598Y230198D01*
X533433Y223700D02*
Y229698D01*
X536432D01*
X537432Y228698D01*
Y226699D01*
X536432Y225699D01*
X533433D01*
X535433D02*
X537432Y223700D01*
X543430D02*
X539431D01*
X543430Y227699D01*
Y228698D01*
X542430Y229698D01*
X540431D01*
X539431Y228698D01*
X924900Y226400D02*
Y232398D01*
X927899D01*
X928899Y231398D01*
Y229399D01*
X927899Y228399D01*
X924900D01*
X926899D02*
X928899Y226400D01*
X933897D02*
Y232398D01*
X930898Y229399D01*
X934897D01*
X677400Y416500D02*
Y422498D01*
X680399D01*
X681399Y421498D01*
Y419499D01*
X680399Y418499D01*
X677400D01*
X679399D02*
X681399Y416500D01*
X687397Y422498D02*
X683398D01*
Y419499D01*
X685397Y420499D01*
X686397D01*
X687397Y419499D01*
Y417500D01*
X686397Y416500D01*
X684398D01*
X683398Y417500D01*
X600099Y461898D02*
X599099Y462898D01*
X597100D01*
X596100Y461898D01*
Y457900D01*
X597100Y456900D01*
X599099D01*
X600099Y457900D01*
X602098Y456900D02*
X604097D01*
X603098D01*
Y462898D01*
X602098Y461898D01*
X611095Y456900D02*
X607096D01*
X611095Y460899D01*
Y461898D01*
X610096Y462898D01*
X608096D01*
X607096Y461898D01*
X605999Y413998D02*
X604999Y414998D01*
X603000D01*
X602000Y413998D01*
Y410000D01*
X603000Y409000D01*
X604999D01*
X605999Y410000D01*
X607998Y409000D02*
X609997D01*
X608998D01*
Y414998D01*
X607998Y413998D01*
X612996D02*
X613996Y414998D01*
X615996D01*
X616995Y413998D01*
Y412999D01*
X615996Y411999D01*
X614996D01*
X615996D01*
X616995Y410999D01*
Y410000D01*
X615996Y409000D01*
X613996D01*
X612996Y410000D01*
D28*
X406051Y249413D02*
G03*
X406051Y249413I-492J0D01*
G01*
X602832Y249413D02*
G03*
X602832Y249413I-492J0D01*
G01*
X799612D02*
G03*
X799612Y249413I-492J0D01*
G01*
X996392D02*
G03*
X996392Y249413I-492J0D01*
G01*
D29*
X723900Y261700D02*
X726900D01*
X723900Y241700D02*
Y261700D01*
Y241700D02*
X729900D01*
Y261700D01*
X726900D02*
X729900D01*
X726900Y240800D02*
Y241700D01*
Y261700D02*
Y262600D01*
D30*
X719578Y401133D02*
X723795D01*
X720632Y399376D02*
X722741Y402890D01*
X720632D02*
X722741Y399376D01*
M02*
